<svg width="438" height="438" viewBox="0 0 438 438" fill="none" xmlns="http://www.w3.org/2000/svg">
<path d="M437.285 0.75H0.75V437.285H437.285V0.75Z" fill="#FEEFE2"/>
<mask id="mask0_25_1012" style="mask-type:luminance" maskUnits="userSpaceOnUse" x="0" y="0" width="438" height="438">
<path d="M437.285 0.75H0.75V437.285H437.285V0.75Z" fill="white"/>
</mask>
<g mask="url(#mask0_25_1012)">
<path d="M374.49 167.023C377.881 167.014 381.306 166.918 384.601 166.855C392.442 166.254 399.974 166.157 408.37 167.262C420.052 168.799 432.497 168.146 444.243 167.894C445.531 167.866 454.98 168.021 455.011 166.319C455.072 162.987 450.878 164.454 449.304 163.111C447.19 161.307 448.66 158.89 445.008 157.325C440.53 155.405 437.466 158.896 433.299 159.63C430.919 160.049 430.503 157.83 428.493 157.593C427.527 157.479 426.296 157.98 425.333 158.129C424.541 158.252 423.74 158.493 422.955 158.384C420.693 158.073 417.215 158.183 415.312 156.821C411.552 154.128 410.739 150.075 405.588 148.879C397.522 147.005 388.189 150.138 389.04 159.632C388.938 159.655 388.832 159.675 388.723 159.692C385.549 160.206 381.688 161.447 378.503 161.201C375.875 160.998 373.529 159.327 370.828 159.686C368.195 160.036 367.975 163.547 365.554 163.562C362.424 163.583 359.666 162.566 356.407 163.127C355.639 163.259 353.984 163.464 353.642 164.341C353.068 165.812 357.274 166.898 358.227 167.111C363.56 168.304 369.108 167.068 374.49 167.023Z" fill="#FEEFE2" stroke="#0086CD" stroke-width="1.5" stroke-miterlimit="1.5" stroke-linecap="round" stroke-linejoin="round"/>
<path d="M17.0159 206.034C17.6569 203.509 20.0909 200.731 21.7089 199.861C27.8459 196.557 29.8889 200.474 33.7099 200.007C37.2959 199.57 39.1889 193.653 42.9909 192.067C44.6109 191.392 46.1859 191.447 47.8999 191.573C48.0929 191.587 48.9839 191.758 49.0939 191.656C50.1999 190.626 50.0269 186.859 50.2869 185.403C51.0839 180.943 52.5659 176.251 56.8219 173.964C63.2539 170.509 71.7129 173.82 78.2109 175.512C79.8329 175.934 84.4149 176.497 85.3839 178.142C86.5789 180.173 85.3049 182.584 86.1009 184.697C87.0079 187.104 90.0599 186.895 91.6359 188.586C94.1799 191.316 93.0599 192.928 97.1459 194.957C111.554 202.112 119.761 185.396 133.069 189.682C139.259 191.676 135.971 199.317 140.899 201.944C143.711 203.443 151.134 201.4 154.842 202.28C156.923 202.773 158.034 205.144 155.736 206.469C148.918 210.399 139.87 208.511 132.055 208.911C111.677 209.956 91.2669 209.545 70.8729 209.579C56.9639 209.603 43.0409 210.326 29.1369 209.797C25.7809 210.18 22.0649 211.508 18.8159 210.068C16.9479 209.241 16.5949 207.692 17.0159 206.034Z" fill="#FEEFE2" stroke="#0086CD" stroke-width="1.5" stroke-miterlimit="1.5" stroke-linecap="round" stroke-linejoin="round"/>
<path d="M-63.457 302.793C-61.151 303.407 -58.723 303.778 -56.409 304.046C-48.854 304.923 -41.399 303.215 -33.872 303.15C-19.929 303.031 -5.94903 304.061 8.04397 303.904C22.519 303.742 37.386 303.061 51.828 303.719C64.931 304.317 78.283 305.716 91.419 305.397C97.436 305.25 103.319 303.597 109.357 303.388C113.408 303.248 137.196 308.229 139.878 304.467C141.893 301.642 131.244 297.706 129.463 297.387C126.242 296.811 116.808 297.006 116.519 296.548C112.954 290.915 116.275 288.263 108.556 283.836C106.543 282.682 97.508 281.312 94.972 281.233C93.248 281.18 91.494 284.25 89.864 283.77C89.553 283.679 89.155 281.634 89.067 281.344C88.073 278.086 86.568 274.994 83.544 273.19C79.784 270.947 75.393 271.425 75.369 271.381C73.328 267.715 80.957 259.43 76.3 251.328C72.563 244.827 63.955 245.85 64.041 253.94C63.695 253.844 59.918 250.852 57.814 251.237C54.981 251.755 54.095 253.915 52.173 255.64C51.869 255.912 49.934 254.756 49.63 254.611C42.832 251.348 35.18 254.087 28.529 251.198C24.802 249.579 25.3 244.431 21.629 242.706C19.873 241.88 14.628 243.052 13.792 242.29C12.358 240.984 13.688 238.259 12.455 236.753C11.619 235.731 10.081 236.357 9.25697 235.46C7.74397 233.814 8.12097 228.189 6.74897 225.546C2.00897 216.416 -9.08103 215.409 -18.008 217.879C-24.333 219.63 -32.308 224.367 -33.264 231.516C-33.644 234.358 -31.569 237.574 -32.726 240.281C-33.989 243.233 -39.146 242.519 -41.02 245.142C-43.219 248.22 -39.874 252.597 -40.483 255.809C-40.505 255.923 -42.247 255.781 -42.494 255.797C-43.832 255.887 -44.99 256.472 -45.751 257.595C-47.148 259.654 -46.639 262.342 -45.868 264.535C-45.796 264.739 -44.565 267.436 -44.665 267.5C-46.403 268.615 -48.606 267.913 -50.61 266.78C-50.574 257.586 -57.417 257.708 -64.268 256.191C-66.569 255.682 -68.599 254.644 -70.982 254.355C-73.799 254.013 -76.588 254.761 -79.177 257.398C-93.361 271.841 -80.694 297.867 -63.457 302.793Z" fill="#FEEFE2" stroke="#0086CD" stroke-width="1.5" stroke-miterlimit="1.5" stroke-linecap="round" stroke-linejoin="round"/>
<path d="M-50.518 165.38C-39.267 163.679 -28.595 164.577 -17.314 164.338C-12.603 164.238 24.59 166.269 26.906 163.463C30.129 159.559 22.756 154.928 20.298 153.91C17.325 152.679 13.906 154 11.164 152.868C7.55602 151.38 5.29702 147.777 2.15202 145.599C-0.983977 143.429 -4.44398 143.627 -7.48498 141.93C-13.806 138.403 -16.753 132.752 -25.159 133.862C-34.409 135.083 -66.138 148.059 -55.768 162.461C-55.066 163.436 -50.518 165.38 -50.518 165.38Z" fill="#FEEFE2" stroke="#0086CD" stroke-width="1.5" stroke-miterlimit="1.5" stroke-linecap="round" stroke-linejoin="round"/>
<path d="M284.979 309.252C284.153 309.193 283.326 309.124 282.495 309.053C281.625 308.978 278.114 308.476 278.286 308.131C278.825 307.057 282.167 306.32 283.254 306.072C288.337 304.911 293.765 305.08 298.924 304.415C300.285 304.844 301.563 304.997 302.35 304.307C303.646 303.172 302.144 301.468 301.183 300.764C298.828 299.037 296.249 298.802 293.494 299.447C290.744 300.092 288.307 299.566 285.519 299.619C281.411 299.697 277.193 300.04 273.09 300.348C269.702 300.603 266.364 301.108 263.077 301.252C261.556 301.319 251.454 302.16 251.257 301.962C250.022 300.731 252.432 297.346 253.485 296.637C257.878 293.679 263.291 297.945 267.892 296.622C270.312 295.926 271.403 293.113 273.797 292.275C276.016 291.499 278.303 292.817 280.437 291.525C284.575 289.022 284.602 284.43 290.574 286.753C291.25 287.017 293.662 288.363 294.188 287.437C294.998 286.009 292.259 282.851 293.652 280.522C294.643 278.865 299.55 277.759 299.462 276.384C299.087 270.5 295.229 268.906 297.058 260.344C299.71 247.934 314.34 240.425 326.303 243.502C329.967 244.444 331.657 248.066 335.04 248.97C339.111 250.058 343.138 247.253 347.256 247.897C353.57 248.884 358.947 253.004 365.3 253.894C373.867 255.093 380.039 229.665 392.271 244.485C393.94 246.508 395.179 248.81 396.34 251.149C397.299 253.083 397.315 254.621 397.277 256.718C397.276 256.81 397.25 257.31 397.434 257.406C397.95 257.677 399.56 256.227 399.937 255.92C402.111 254.146 403.845 251.704 406.582 250.739C409.239 249.803 412.096 250.424 414.57 251.594C415.154 251.87 417.041 253.568 417.426 253.325C418.787 252.465 418.986 248.54 419.236 247.169C420.407 240.738 422.269 231.911 430.795 233.463C432.773 233.823 434.671 234.586 436.472 235.463C439.516 236.943 443.77 239.729 444.582 243.314C444.933 244.861 443.609 247.05 444.486 248.438C445.825 250.557 450.099 249.385 450.779 252.716C451.116 254.368 448.98 260.093 449.148 260.362C449.484 260.903 450.869 260.719 451.41 260.965C453.704 262.008 454.84 264.445 454.657 266.872C454.463 269.441 453.093 272.185 451.021 273.746C450.506 274.134 447.183 275.598 447.31 276.36C447.417 276.999 449.368 276.999 449.883 277.319C450.877 277.937 451.859 279.642 453.103 279.729C454.268 279.811 455.701 277.34 456.277 276.497C460.433 270.414 466.779 268.352 473.884 271.195C475.135 271.696 476.432 272.403 477.271 273.488C477.441 273.708 478.49 275.409 478.751 275.348C481.79 274.639 483.428 269.676 484.484 267.242C486.698 262.136 489.781 259.477 495.598 259.922C497.34 260.055 499.074 260.249 500.675 260.98C504.63 262.786 507.232 266.628 509.083 270.419C514.528 281.569 519.002 305.829 502.219 309.163C489.68 311.653 476.875 308.154 464.276 308.511C425.831 309.602 387.537 308.509 349.088 308.432C341.511 308.417 333.937 308.272 326.363 308.099C323.345 307.89 320.276 307.505 317.246 307.612C314.187 307.721 311.194 308.538 308.133 308.567C303.739 308.609 299.726 308.259 295.316 309.003C291.855 309.587 288.434 309.502 284.979 309.252Z" fill="#FEEFE2" stroke="#0086CD" stroke-width="1.75" stroke-miterlimit="1.5" stroke-linecap="round" stroke-linejoin="round"/>
<path d="M108.952 333.399L112.4 330.452L152.325 377.154L148.877 380.101L108.952 333.399Z" fill="#FEEFE2" stroke="#0086CD" stroke-width="1.5" stroke-miterlimit="1.5" stroke-linecap="round" stroke-linejoin="round"/>
<path d="M36.676 332.932C33.569 332.115 30.161 331.941 27.205 330.637C23.483 328.997 19.028 324.218 16.267 321.2C15.106 319.931 13.954 318.609 13.144 317.081C12.092 315.096 12.225 313.632 13.166 311.683C13.606 310.772 13.854 309.759 14.497 308.957C16.696 306.212 21.92 305.02 25.053 303.907C36.693 299.772 48.829 296.471 61.022 294.465C63.109 294.122 65.081 293.788 67.202 294.042C76.449 295.148 84.506 301.524 90.558 308.234C92.369 310.241 97.038 315.306 93.726 317.719C93.037 318.221 92.27 318.61 91.489 318.945C90.253 319.477 88.965 319.87 87.669 320.227C74.059 323.969 60.288 327.088 46.545 330.3C43.667 330.973 40.171 332.089 36.676 332.932Z" fill="#FEEFE2" stroke="#0086CD" stroke-width="1.5" stroke-miterlimit="1.5" stroke-linecap="round" stroke-linejoin="round"/>
<path d="M158.094 312.351L158.1 312.349C158.668 312.209 159.242 312.556 159.384 313.124C159.525 313.692 159.18 314.267 158.613 314.41C158.613 314.41 158.611 314.41 158.607 314.411C158.484 314.442 156.395 314.963 155.363 315.694C154.139 316.56 152.908 317.694 152.829 317.766L119.121 349.791C118.978 349.927 118.8 350.02 118.607 350.061L69.419 360.353C68.942 360.453 68.458 360.215 68.246 359.776C68.033 359.336 68.148 358.809 68.524 358.497L109.616 324.39C109.739 324.287 109.884 324.214 110.04 324.176L158.094 312.351Z" fill="#FEEFE2" stroke="#0086CD" stroke-width="1.5" stroke-miterlimit="1.5" stroke-linecap="round" stroke-linejoin="round"/>
<path fill-rule="evenodd" clip-rule="evenodd" d="M121.572 350.68C122.361 352.127 123.03 353.642 123.569 355.212L142.03 408.938L137.74 410.411L123.202 368.1L79.383 376.393L89.917 414.491L85.545 415.7L72.842 369.757C71.5 364.901 68.719 360.565 64.867 357.319L22.862 321.92C21.295 320.6 20.589 318.521 21.027 316.519C21.465 314.518 22.976 312.924 24.95 312.379L61.506 302.294C66.243 300.988 71.318 302.218 74.931 305.549L115.666 343.109C117.453 344.756 119.022 346.612 120.344 348.629L149.218 321.197C151.094 321.226 152.962 321.935 154.422 323.324L204.874 371.35L201.747 374.635L151.295 326.609C150.067 325.44 148.137 325.439 146.908 326.607L121.572 350.68ZM121.713 363.766L119.28 356.685C117.934 352.77 115.636 349.25 112.592 346.443L71.856 308.883C69.396 306.615 65.939 305.776 62.712 306.667L26.157 316.751C25.805 316.848 25.535 317.133 25.457 317.489C25.379 317.846 25.505 318.217 25.784 318.452L67.79 353.85C72.342 357.687 75.627 362.81 77.214 368.548L78.17 372.007L121.713 363.766Z" fill="#FEEFE2" stroke="#0086CD" stroke-width="1.5" stroke-miterlimit="1.5" stroke-linecap="round" stroke-linejoin="round"/>
<path d="M176.008 235.095C175.672 235.41 175.34 235.719 175.014 236.016C170.126 240.469 165.52 245.036 159.961 248.678C158.764 248.904 157.469 249.035 156.624 249.82C155.933 250.462 155.43 251.251 154.997 252.08C154.64 252.761 154.294 253.461 153.996 254.17C152.868 256.857 149.172 265.205 155.576 263.781C160.623 262.658 164.788 258.067 167.905 254.176C169.75 251.873 171.205 249.499 173.773 247.857C176.985 245.803 180.541 244.251 183.922 242.418C186.741 240.745 190.307 238.458 191.511 235.265C193.303 230.513 187.22 228.443 183.581 229.675C180.726 230.642 178.243 233.005 176.008 235.095Z" fill="#FEEFE2" stroke="#0086CD" stroke-width="1.5" stroke-miterlimit="1.5" stroke-linecap="round" stroke-linejoin="round"/>
<path d="M151.088 244.667C151.109 244.665 151.129 244.663 151.15 244.662C153.234 244.474 155.293 244.364 157.375 244.695C158.206 244.827 159.847 244.957 160.316 245.817C160.583 246.305 159.614 248.429 159.45 248.958C158.493 252.061 157.405 255.095 156.745 258.284C156.538 259.251 156.406 260.396 156.975 261.219C158.003 262.704 162.181 263.52 161.836 265.711C161.413 268.402 156.944 269.848 154.844 270.738C149.344 273.07 145.946 279.01 141.202 282.462C139.336 283.82 136.27 285.484 133.946 284.167C132.148 283.149 134.437 279.293 135.039 278.148C136.508 275.348 137.867 272.452 139.646 269.831C141.494 267.11 143.779 264.601 145.185 261.602C146.691 258.393 146.633 254.515 146.971 251.053C147.148 249.235 147.373 247.075 148.489 245.558C149.199 244.594 150.02 244.754 151.088 244.667Z" fill="#FEEFE2" stroke="#0086CD" stroke-width="1.55" stroke-miterlimit="1.5" stroke-linecap="round" stroke-linejoin="round"/>
<path d="M321.195 191.107C326.348 191.747 331.389 192.947 336.535 193.651C339.526 194.06 342.516 194.448 345.49 194.978C346.365 195.134 347.232 195.329 348.107 195.486C348.845 195.619 349.587 195.735 350.328 195.852C357.118 196.919 364.28 196.132 371.133 196.744C372.29 196.847 373.446 196.972 374.586 197.202C375.164 197.319 375.739 197.461 376.294 197.659C379.408 198.768 377.888 200.879 375.874 202.263C372.552 204.546 368.27 206.416 364.308 207.225C359.644 208.178 357.008 203.228 352.633 202.901C344.627 202.302 336.586 203.193 328.574 202.621C324.973 202.363 321.462 202.667 317.87 202.762C315.447 202.825 321.195 191.107 321.195 191.107Z" fill="#FEEFE2" stroke="#0086CD" stroke-width="1.5" stroke-miterlimit="1.5" stroke-linecap="round" stroke-linejoin="round"/>
<path d="M357.295 207.52C358.019 209.18 358.254 211.007 359.098 212.647C360.298 214.979 363.018 216.197 365.494 216.575C370.242 215.569 374.649 209.537 379.06 207.132C384.638 204.088 391.474 204.449 396.804 200.811C398.922 199.365 400.664 196.975 401.994 194.822C402.361 194.227 403.403 192.717 402.793 191.996C401.271 190.196 397.522 192.055 395.888 192.691C389.745 195.08 383.631 195.42 377.165 194.331C375.997 194.135 374.766 193.939 373.666 193.481C372.181 192.863 370.605 191.617 368.938 192.48C368.057 192.936 368.399 193.992 368.691 194.73C369.229 196.088 370.053 197.307 370.634 198.644C370.807 199.042 371.144 199.729 370.871 200.153C370.161 201.254 368.05 201.781 366.915 202.206C364.428 203.136 361.868 203.746 359.333 204.454C358.855 204.586 358.385 204.734 357.909 204.874C357.84 204.894 357.204 204.987 357.186 205.034C357.133 205.166 357.095 205.301 357.07 205.438C356.572 205.399 356.424 205.662 356.456 206.046C356.803 206.515 357.072 207.009 357.295 207.52Z" fill="#FEEFE2" stroke="#0086CD" stroke-width="1.5" stroke-miterlimit="1.5" stroke-linecap="round" stroke-linejoin="round"/>
<path d="M262.45 175.488C280.29 176.833 283.307 181.953 299.66 185.952C305.504 187.381 311.474 187.162 317.364 188.188C323.562 189.268 329.957 190.534 336.09 191.937C336.241 191.972 337.02 192.036 337.09 192.149C338.477 194.408 334.18 199.748 333.08 201.227C331.017 204 329.233 208.084 325.835 210.667C323.414 212.509 320.565 213.642 318.729 215.906C316.356 218.831 311.723 216.823 308.072 216.247C298.088 214.671 288.392 211.598 278.34 210.485C274.701 210.082 270.999 209.54 267.384 208.947C265.92 208.708 264.447 208.548 263.002 208.186C262.51 208.063 261.119 207.653 261.492 207.996C259.636 207.399 257.741 206.922 255.882 206.326C253.456 205.548 250.313 204.206 247.724 204.37C247.447 204.388 248.746 205.246 248.875 205.304C249.688 205.669 250.546 205.922 251.368 206.266C251.494 206.319 252.913 206.983 252.578 207.226C249.694 209.318 245.336 209.88 242.165 212.067C235.452 216.695 230.268 223.162 224.433 228.775C222.632 230.507 220.505 231.827 218.548 233.365C213.051 237.686 206.726 241.414 201.18 245.837C199.317 247.323 197.116 248.794 195.075 250.032C194.894 250.142 192.3 251.258 192.545 251.341C187.647 250.683 182.493 248.312 178.609 246.304C176.536 245.233 167.968 241.579 167.855 239.124C167.818 238.332 171.183 236.003 171.859 235.376C175.82 231.704 179.828 228.082 183.72 224.338C187.029 221.155 190.48 218.162 193.964 215.174C195.743 213.648 198.07 212.098 199.501 210.237C199.958 209.642 199.782 208.349 200.086 207.608C200.736 206.022 202.299 204.941 203.073 203.383C203.646 202.23 203.249 200.889 203.945 199.761C205.544 197.169 208.826 196.289 210.672 193.913C214.59 188.868 216.927 182.796 220.704 177.649C225.65 170.908 262.45 175.488 262.45 175.488Z" fill="#FEEFE2"/>
<mask id="mask1_25_1012" style="mask-type:luminance" maskUnits="userSpaceOnUse" x="167" y="173" width="171" height="79">
<path d="M262.45 175.488C280.29 176.833 283.307 181.953 299.66 185.952C305.504 187.381 311.474 187.162 317.364 188.188C323.562 189.268 329.957 190.534 336.09 191.937C336.241 191.972 337.02 192.036 337.09 192.149C338.477 194.408 334.18 199.748 333.08 201.227C331.017 204 329.233 208.084 325.835 210.667C323.414 212.509 320.565 213.642 318.729 215.906C316.356 218.831 311.723 216.823 308.072 216.247C298.088 214.671 288.392 211.598 278.34 210.485C274.701 210.082 270.999 209.54 267.384 208.947C265.92 208.708 264.447 208.548 263.002 208.186C262.51 208.063 261.119 207.653 261.492 207.996C259.636 207.399 257.741 206.922 255.882 206.326C253.456 205.548 250.313 204.206 247.724 204.37C247.447 204.388 248.746 205.246 248.875 205.304C249.688 205.669 250.546 205.922 251.368 206.266C251.494 206.319 252.913 206.983 252.578 207.226C249.694 209.318 245.336 209.88 242.165 212.067C235.452 216.695 230.268 223.162 224.433 228.775C222.632 230.507 220.505 231.827 218.548 233.365C213.051 237.686 206.726 241.414 201.18 245.837C199.317 247.323 197.116 248.794 195.075 250.032C194.894 250.142 192.3 251.258 192.545 251.341C187.647 250.683 182.493 248.312 178.609 246.304C176.536 245.233 167.968 241.579 167.855 239.124C167.818 238.332 171.183 236.003 171.859 235.376C175.82 231.704 179.828 228.082 183.72 224.338C187.029 221.155 190.48 218.162 193.964 215.174C195.743 213.648 198.07 212.098 199.501 210.237C199.958 209.642 199.782 208.349 200.086 207.608C200.736 206.022 202.299 204.941 203.073 203.383C203.646 202.23 203.249 200.889 203.945 199.761C205.544 197.169 208.826 196.289 210.672 193.913C214.59 188.868 216.927 182.796 220.704 177.649C225.65 170.908 262.45 175.488 262.45 175.488Z" fill="white"/>
</mask>
<g mask="url(#mask1_25_1012)">
<path d="M219.352 197.706C225.787 198.652 232.063 200.495 238.438 201.79C242.437 202.603 247.093 202.817 250.764 204.735" stroke="#0086CD" stroke-width="1.5" stroke-miterlimit="1.5" stroke-linecap="round" stroke-linejoin="round"/>
<path d="M210.687 204.348C218.034 205.008 225.321 203.114 232.685 203.144C236.897 203.161 241 204.216 245.107 205.02" stroke="#0086CD" stroke-width="1.5" stroke-miterlimit="1.5" stroke-linecap="round" stroke-linejoin="round"/>
<path d="M224.46 211.855C228.821 210.832 233.238 210.208 237.659 209.505Z" fill="#FEEFE2"/>
<path d="M224.46 211.855C228.821 210.832 233.238 210.208 237.659 209.505" stroke="#0086CD" stroke-width="1.5" stroke-miterlimit="1.5" stroke-linecap="round" stroke-linejoin="round"/>
<path d="M263.627 177.108C261.81 177.043 257.999 179.441 256.585 180.216C252.648 182.372 248.495 184.184 244.477 186.193" stroke="#0086CD" stroke-width="1.5" stroke-miterlimit="1.5" stroke-linecap="round" stroke-linejoin="round"/>
<path d="M265.8 180.61C263.497 181.483 261.915 183.988 259.65 185.12" stroke="#0086CD" stroke-width="1.5" stroke-miterlimit="1.5" stroke-linecap="round" stroke-linejoin="round"/>
<path d="M307.761 193.186C300.723 193.152 294.444 198.262 287.862 200.198" stroke="#0086CD" stroke-width="1.5" stroke-miterlimit="1.5" stroke-linecap="round" stroke-linejoin="round"/>
<path d="M295.451 191.156C292.875 191.121 290.664 192.202 288.201 192.84C285.766 193.471 283.205 193.535 280.731 193.972" stroke="#0086CD" stroke-width="1.5" stroke-miterlimit="1.5" stroke-linecap="round" stroke-linejoin="round"/>
</g>
<path d="M262.45 175.488C280.29 176.833 283.307 181.953 299.66 185.952C305.504 187.381 311.474 187.162 317.364 188.188C323.562 189.268 329.957 190.534 336.09 191.937C336.241 191.972 337.02 192.036 337.09 192.149C338.477 194.408 334.18 199.748 333.08 201.227C331.017 204 329.233 208.084 325.835 210.667C323.414 212.509 320.565 213.642 318.729 215.906C316.356 218.831 311.723 216.823 308.072 216.247C298.088 214.671 288.392 211.598 278.34 210.485C274.701 210.082 270.999 209.54 267.384 208.947C265.92 208.708 264.447 208.548 263.002 208.186C262.51 208.063 261.119 207.653 261.492 207.996C259.636 207.399 257.741 206.922 255.882 206.326C253.456 205.548 250.313 204.206 247.724 204.37C247.447 204.388 248.746 205.246 248.875 205.304C249.688 205.669 250.546 205.922 251.368 206.266C251.494 206.319 252.913 206.983 252.578 207.226C249.694 209.318 245.336 209.88 242.165 212.067C235.452 216.695 230.268 223.162 224.433 228.775C222.632 230.507 220.505 231.827 218.548 233.365C213.051 237.686 206.726 241.414 201.18 245.837C199.317 247.323 197.116 248.794 195.075 250.032C194.894 250.142 192.3 251.258 192.545 251.341C187.647 250.683 182.493 248.312 178.609 246.304C176.536 245.233 167.968 241.579 167.855 239.124C167.818 238.332 171.183 236.003 171.859 235.376C175.82 231.704 179.828 228.082 183.72 224.338C187.029 221.155 190.48 218.162 193.964 215.174C195.743 213.648 198.07 212.098 199.501 210.237C199.958 209.642 199.782 208.349 200.086 207.608C200.736 206.022 202.299 204.941 203.073 203.383C203.646 202.23 203.249 200.889 203.945 199.761C205.544 197.169 208.826 196.289 210.672 193.913C214.59 188.868 216.927 182.796 220.704 177.649C225.65 170.908 262.45 175.488 262.45 175.488Z" stroke="#0086CD" stroke-width="1.5" stroke-miterlimit="1.5" stroke-linecap="round" stroke-linejoin="round"/>
<path d="M224.519 110.299C223.967 109.733 223.248 109.226 222.417 108.817C220.326 107.788 217.993 107.293 216.053 105.943C214.62 104.946 213.72 103.351 212.432 102.188C210.569 100.508 208.133 99.086 206.006 97.763C203.54 96.228 200.66 95.435 198.104 94.054C196.323 93.092 194.73 91.771 193.222 90.437C192.657 89.884 192.17 89.274 191.798 88.587C190.2 85.632 193.846 83.289 195.263 81.214C196.05 80.061 195.909 78.406 195.863 77.077C195.849 76.695 196.19 74.827 195.922 74.537C195.307 73.87 194.278 76.071 194.207 76.24C193.555 77.794 191.775 83.809 189.115 81.02C188.04 79.892 185.904 74.737 185.858 73.203C185.858 73.2 185.855 73.031 185.855 73.029C185.838 71.739 186.779 70.105 186.061 68.878C186.051 68.862 185.982 68.732 185.966 68.735C184.546 69.028 183.882 72.295 183.545 73.413C183.416 73.839 183.303 74.27 183.15 74.689C183.071 74.905 183.027 75.519 182.895 75.33C182.614 74.928 182.473 72.484 182.076 72.365C181.492 72.19 180.435 74.537 180.234 74.969C179.542 76.456 179.003 82.925 179.54 84.393C181.282 89.155 186.855 91.066 190.312 94.238C196.108 99.556 199.633 106.897 205.843 111.835C207.726 113.331 209.976 114.193 212.158 115.147C215.978 116.818 219.628 119.874 223.344 116.301C223.392 116.254 223.436 116.191 223.476 116.115C226.343 114.294 226.195 112.018 224.519 110.299Z" fill="#FEEFE2" stroke="#0086CD" stroke-width="1.5" stroke-miterlimit="1.5" stroke-linecap="round" stroke-linejoin="round"/>
<path d="M297.953 121.626C302.928 119.992 307.789 118.151 313.185 117.569C315.079 117.51 316.97 117.511 318.858 117.029C328.839 114.48 338.776 110.93 348.123 106.617C353.13 104.307 358.673 101.684 362.469 97.56C365.711 94.038 367.354 89.221 369.154 84.877C369.715 83.524 370.469 81.495 370.081 80.004C369.916 79.369 368.877 80.286 368.715 80.474C367.318 82.084 366.486 85.415 365.89 84.904C364.982 84.127 365.149 78.851 364.912 77.486C364.8 76.841 364.486 75.266 363.507 75.925C362.706 76.465 361.17 79.813 360.97 79.884C360.803 79.943 360.861 78.875 360.862 78.859C360.894 78.125 361.653 74.761 360.642 75.38C357.755 77.145 357.723 81.086 357.347 84.068C357.19 85.312 357.032 87.633 355.745 88.333C355.532 88.448 355.522 87.857 355.516 87.773C355.477 87.203 355.528 86.635 355.54 86.065C355.569 84.808 354.949 83.232 354.375 82.144C354.168 81.753 353.762 81.002 353.207 81.113C352.804 81.193 352.729 81.655 352.636 81.989C352.386 82.892 352.218 83.821 352.054 84.742C351.445 88.18 351.806 92.143 350.367 95.38C348.01 100.682 341.062 101.09 336.128 101.879C328.99 103.022 321.814 104.938 314.844 106.843C311.983 107.625 309.39 109.177 306.501 109.819C302.089 110.799 297.404 110.492 293.084 111.965C291.874 112.378 290.719 113.194 289.806 114.233C288.14 116.28 286.823 118.403 285.717 120.79C285.629 120.981 285.35 121.502 285.153 121.994C284.706 122.597 285.909 123.007 286.375 123.262C287.839 124.065 289.551 123.918 291.128 123.569C293.465 123.051 295.721 122.359 297.953 121.626Z" fill="#FEEFE2" stroke="#0086CD" stroke-width="1.5" stroke-miterlimit="1.5" stroke-linecap="round" stroke-linejoin="round"/>
<path d="M244.049 118.646C243.449 113.688 244.025 107.979 242.517 103.217C241.546 100.152 238.869 98.151 237.662 95.227C234.581 87.768 242.597 80.522 249.757 80.122C256.04 79.771 264.242 85.104 267.089 90.659C268.093 92.618 267.805 94.953 268.775 96.906C269.462 98.29 271.457 99.067 271.314 100.819C271.291 101.09 271.223 101.355 271.128 101.609C270.86 102.326 270.176 102.514 269.49 102.628C269.203 102.676 268.613 102.673 268.469 102.974C268.114 103.715 268.406 104.744 268.363 105.541C268.264 107.352 267.408 109.226 265.763 110.157C263.476 111.451 259.788 109.021 258.308 111.921C256.805 114.864 258.551 118.086 257.635 121.028C256.571 124.446 249.207 125.908 245.999 124.828C244.77 124.415 244.049 118.646 244.049 118.646Z" fill="#FEEFE2"/>
<mask id="mask2_25_1012" style="mask-type:luminance" maskUnits="userSpaceOnUse" x="236" y="80" width="36" height="46">
<path d="M244.049 118.646C243.449 113.688 244.025 107.979 242.517 103.217C241.546 100.152 238.869 98.151 237.662 95.227C234.581 87.768 242.597 80.522 249.757 80.122C256.04 79.771 264.242 85.104 267.089 90.659C268.093 92.618 267.805 94.953 268.775 96.906C269.462 98.29 271.457 99.067 271.314 100.819C271.291 101.09 271.223 101.355 271.128 101.609C270.86 102.326 270.176 102.514 269.49 102.628C269.203 102.676 268.613 102.673 268.469 102.974C268.114 103.715 268.406 104.744 268.363 105.541C268.264 107.352 267.408 109.226 265.763 110.157C263.476 111.451 259.788 109.021 258.308 111.921C256.805 114.864 258.551 118.086 257.635 121.028C256.571 124.446 249.207 125.908 245.999 124.828C244.77 124.415 244.049 118.646 244.049 118.646Z" fill="white"/>
</mask>
<g mask="url(#mask2_25_1012)">
<path d="M254.955 97.649C253.747 96.643 251.977 96.47 251.776 98.495C251.61 100.169 253.457 104.043 255.7 102.954" stroke="#0086CD" stroke-width="1.5" stroke-miterlimit="1.5" stroke-linecap="round" stroke-linejoin="round"/>
<path d="M242.43 101.245C245.152 99.119 247.842 97.2 251.322 96.692" stroke="#0086CD" stroke-width="1.5" stroke-miterlimit="1.5" stroke-linecap="round" stroke-linejoin="round"/>
<path d="M242.817 104.011C245.053 101.922 248.208 100.574 251.129 99.791" stroke="#0086CD" stroke-width="1.5" stroke-miterlimit="1.5" stroke-linecap="round" stroke-linejoin="round"/>
<path d="M243.604 105.319C245.323 104.521 247.028 103.862 248.878 103.429" stroke="#0086CD" stroke-width="1.5" stroke-miterlimit="1.5" stroke-linecap="round" stroke-linejoin="round"/>
<path d="M244.243 107.496C245.046 107.074 245.913 106.706 246.79 106.456" stroke="#0086CD" stroke-width="1.5" stroke-miterlimit="1.5" stroke-linecap="round" stroke-linejoin="round"/>
<path d="M264.343 96.204C264.554 95.13 265.385 94.356 266.538 94.466C267.106 94.52 267.45 95.061 267.775 95.464C267.802 95.498 268.067 95.84 268.029 95.87C267.689 96.133 266.922 96.15 266.503 96.155" stroke="#0086CD" stroke-width="1.5" stroke-miterlimit="1.5" stroke-linecap="round" stroke-linejoin="round"/>
</g>
<path d="M244.049 118.646C243.449 113.688 244.025 107.979 242.517 103.217C241.546 100.152 238.869 98.151 237.662 95.227C234.581 87.768 242.597 80.522 249.757 80.122C256.04 79.771 264.242 85.104 267.089 90.659C268.093 92.618 267.805 94.953 268.775 96.906C269.462 98.29 271.457 99.067 271.314 100.819C271.291 101.09 271.223 101.355 271.128 101.609C270.86 102.326 270.176 102.514 269.49 102.628C269.203 102.676 268.613 102.673 268.469 102.974C268.114 103.715 268.406 104.744 268.363 105.541C268.264 107.352 267.408 109.226 265.763 110.157C263.476 111.451 259.788 109.021 258.308 111.921C256.805 114.864 258.551 118.086 257.635 121.028C256.571 124.446 249.207 125.908 245.999 124.828C244.77 124.415 244.049 118.646 244.049 118.646Z" stroke="#0086CD" stroke-width="1.5" stroke-miterlimit="1.5" stroke-linecap="round" stroke-linejoin="round"/>
<path d="M218.675 108.807C219.141 108.459 219.607 108.111 220.07 107.761C220.528 107.474 221.004 107.252 221.494 107.117C222.569 106.821 224.36 107.941 225.388 108.237C229.294 109.361 232.845 111.379 236.54 113.023C238.273 113.795 240.303 114.057 241.925 115.051C242.272 115.264 242.71 115.604 242.636 116.069C242.608 116.247 242.076 117.027 242.177 117.068C244.17 117.868 246.52 118.405 248.678 118.344C251.393 118.267 254.046 117.453 256.77 117.322C259.785 117.178 262.797 117.867 265.801 117.374C272.696 116.241 279.581 114.934 286.306 113.034C289.635 112.093 293.095 110.594 296.565 110.422C297.231 110.389 299.093 110.002 299.671 110.412C299.678 110.417 299.097 111.133 299.041 111.206C298.663 111.694 298.313 112.204 297.986 112.728C297.023 114.272 296.257 115.934 295.607 117.631C293.59 122.892 292.692 128.49 291.58 133.989C290.769 138.001 289.537 142.239 287.548 145.829C286.945 146.916 285.398 149.493 283.802 148.372C282.386 147.377 284.966 144.375 283.415 143.248C283.326 143.184 282.532 144.134 282.477 144.196C281.557 145.219 280.622 146.817 279.41 147.515C278.614 147.972 278.231 146.134 277.396 145.974C276.388 145.781 275.238 146.757 274.324 147.055C273.129 147.444 271.673 147.146 270.42 147.303C269.853 147.374 269.261 147.472 268.727 147.685C268.612 147.73 268.336 147.831 268.357 148C268.442 148.685 270.225 148.723 270.69 148.839C272.548 149.298 272.381 150.926 271.837 152.448C271.108 154.492 269.539 155.724 269.341 158.007C269.142 160.289 270.151 162.89 269.596 165.063C269.372 165.939 268.402 166.386 267.728 166.895C267.62 166.977 267.082 167.301 267.123 167.489C267.227 167.963 268.611 168.422 268.991 168.602C269.236 168.719 269.89 168.725 269.73 168.944C269.06 169.859 266.787 169.614 265.799 169.888C265.709 169.913 264.638 170.187 264.668 170.281C264.983 171.298 267.23 171.175 267.981 171.168C270.351 171.145 272.712 171.119 273.867 173.594C274.88 175.766 271.753 176.165 270.322 176.302C265.416 176.772 260.489 177.811 255.548 177.82C246.924 177.838 239.501 182.366 231.192 183.887C225.337 184.959 219.393 183.123 213.538 184.145C210.705 184.64 208.011 185.651 205.239 186.386C204.748 186.516 202.784 187.26 202.354 186.9C200.664 185.488 202.184 182.515 203.111 181.197C204.919 178.629 207.484 176.527 210.078 174.79C211.405 173.901 213.29 173.345 214.297 172.084C215.493 170.587 212.23 168.323 213.123 166.169C214.597 162.615 218.85 161.021 221.006 157.953C224.12 153.521 224.33 147.16 225.043 141.943C225.067 141.766 225.209 141.288 225.043 141.136C224.844 140.953 224.077 142.471 223.973 142.646C223.426 143.569 223.125 144.623 222.505 145.505C222.388 145.673 221.99 146.276 221.748 146.144C221.491 146.004 221.309 145.631 221.108 145.42C220.11 144.369 219.224 143.299 217.992 142.525C215.313 140.841 213.042 138.641 210.588 136.662C208.822 135.238 206.874 134.072 205.083 132.681C203.337 131.325 201.258 129.55 201.101 127.171C200.932 124.59 202.936 122.232 204.547 120.449C208.601 115.963 213.843 112.407 218.675 108.807Z" fill="#FEEFE2"/>
<mask id="mask3_25_1012" style="mask-type:luminance" maskUnits="userSpaceOnUse" x="201" y="107" width="99" height="80">
<path d="M218.675 108.807C219.141 108.459 219.607 108.111 220.07 107.761C220.528 107.474 221.004 107.252 221.494 107.117C222.569 106.821 224.36 107.941 225.388 108.237C229.294 109.361 232.845 111.379 236.54 113.023C238.273 113.795 240.303 114.057 241.925 115.051C242.272 115.264 242.71 115.604 242.636 116.069C242.608 116.247 242.076 117.027 242.177 117.068C244.17 117.868 246.52 118.405 248.678 118.344C251.393 118.267 254.046 117.453 256.77 117.322C259.785 117.178 262.797 117.867 265.801 117.374C272.696 116.241 279.581 114.934 286.306 113.034C289.635 112.093 293.095 110.594 296.565 110.422C297.231 110.389 299.093 110.002 299.671 110.412C299.678 110.417 299.097 111.133 299.041 111.206C298.663 111.694 298.313 112.204 297.986 112.728C297.023 114.272 296.257 115.934 295.607 117.631C293.59 122.892 292.692 128.49 291.58 133.989C290.769 138.001 289.537 142.239 287.548 145.829C286.945 146.916 285.398 149.493 283.802 148.372C282.386 147.377 284.966 144.375 283.415 143.248C283.326 143.184 282.532 144.134 282.477 144.196C281.557 145.219 280.622 146.817 279.41 147.515C278.614 147.972 278.231 146.134 277.396 145.974C276.388 145.781 275.238 146.757 274.324 147.055C273.129 147.444 271.673 147.146 270.42 147.303C269.853 147.374 269.261 147.472 268.727 147.685C268.612 147.73 268.336 147.831 268.357 148C268.442 148.685 270.225 148.723 270.69 148.839C272.548 149.298 272.381 150.926 271.837 152.448C271.108 154.492 269.539 155.724 269.341 158.007C269.142 160.289 270.151 162.89 269.596 165.063C269.372 165.939 268.402 166.386 267.728 166.895C267.62 166.977 267.082 167.301 267.123 167.489C267.227 167.963 268.611 168.422 268.991 168.602C269.236 168.719 269.89 168.725 269.73 168.944C269.06 169.859 266.787 169.614 265.799 169.888C265.709 169.913 264.638 170.187 264.668 170.281C264.983 171.298 267.23 171.175 267.981 171.168C270.351 171.145 272.712 171.119 273.867 173.594C274.88 175.766 271.753 176.165 270.322 176.302C265.416 176.772 260.489 177.811 255.548 177.82C246.924 177.838 239.501 182.366 231.192 183.887C225.337 184.959 219.393 183.123 213.538 184.145C210.705 184.64 208.011 185.651 205.239 186.386C204.748 186.516 202.784 187.26 202.354 186.9C200.664 185.488 202.184 182.515 203.111 181.197C204.919 178.629 207.484 176.527 210.078 174.79C211.405 173.901 213.29 173.345 214.297 172.084C215.493 170.587 212.23 168.323 213.123 166.169C214.597 162.615 218.85 161.021 221.006 157.953C224.12 153.521 224.33 147.16 225.043 141.943C225.067 141.766 225.209 141.288 225.043 141.136C224.844 140.953 224.077 142.471 223.973 142.646C223.426 143.569 223.125 144.623 222.505 145.505C222.388 145.673 221.99 146.276 221.748 146.144C221.491 146.004 221.309 145.631 221.108 145.42C220.11 144.369 219.224 143.299 217.992 142.525C215.313 140.841 213.042 138.641 210.588 136.662C208.822 135.238 206.874 134.072 205.083 132.681C203.337 131.325 201.258 129.55 201.101 127.171C200.932 124.59 202.936 122.232 204.547 120.449C208.601 115.963 213.843 112.407 218.675 108.807Z" fill="white"/>
</mask>
<g mask="url(#mask3_25_1012)">
<path d="M263.02 143.793C255.569 150.973 246.844 158.042 237.431 162.502C231.252 165.429 224.332 166.112 218.242 169.285" stroke="#0086CD" stroke-width="1.5" stroke-miterlimit="1.5" stroke-linecap="round" stroke-linejoin="round"/>
<path d="M226.469 156.266C228.819 154.417 231.211 152.52 232.828 149.955C233.246 149.292 234.131 148.105 233.987 147.213" stroke="#0086CD" stroke-width="1.5" stroke-miterlimit="1.5" stroke-linecap="round" stroke-linejoin="round"/>
<path d="M252.291 172.125C254.314 171.589 256.28 170.701 258.349 170.348C260.352 170.007 262.391 170.396 264.365 170.01" stroke="#0086CD" stroke-width="1.5" stroke-miterlimit="1.5" stroke-linecap="round" stroke-linejoin="round"/>
<path d="M260.856 166.913C262.224 166.413 263.708 165.724 265.185 165.831" stroke="#0086CD" stroke-width="1.5" stroke-miterlimit="1.5" stroke-linecap="round" stroke-linejoin="round"/>
<path d="M287.889 127.598C286.063 131.617 286.133 136.024 284.638 140.079" stroke="#0086CD" stroke-width="1.5" stroke-miterlimit="1.5" stroke-linecap="round" stroke-linejoin="round"/>
<path d="M277.812 143.793C279.42 141.347 280.707 138.804 281.992 136.168" stroke="#0086CD" stroke-width="1.5" stroke-miterlimit="1.5" stroke-linecap="round" stroke-linejoin="round"/>
<path d="M226.922 128.165C225.203 131.725 223.945 135.601 223.446 139.543" stroke="#0086CD" stroke-width="1.5" stroke-miterlimit="1.5" stroke-linecap="round" stroke-linejoin="round"/>
<path d="M221.067 135.434C220.713 137.395 220.549 139.252 221.094 141.191C221.455 142.476 222.355 143.666 222.405 145.024" stroke="#0086CD" stroke-width="1.5" stroke-miterlimit="1.5" stroke-linecap="round" stroke-linejoin="round"/>
<path d="M229.993 119.168C234.659 116.567 240.439 116.342 245.705 116.179" stroke="#0086CD" stroke-width="1.5" stroke-miterlimit="1.5" stroke-linecap="round" stroke-linejoin="round"/>
</g>
<path d="M218.675 108.807C219.141 108.459 219.607 108.111 220.07 107.761C220.528 107.474 221.004 107.252 221.494 107.117C222.569 106.821 224.36 107.941 225.388 108.237C229.294 109.361 232.845 111.379 236.54 113.023C238.273 113.795 240.303 114.057 241.925 115.051C242.272 115.264 242.71 115.604 242.636 116.069C242.608 116.247 242.076 117.027 242.177 117.068C244.17 117.868 246.52 118.405 248.678 118.344C251.393 118.267 254.046 117.453 256.77 117.322C259.785 117.178 262.797 117.867 265.801 117.374C272.696 116.241 279.581 114.934 286.306 113.034C289.635 112.093 293.095 110.594 296.565 110.422C297.231 110.389 299.093 110.002 299.671 110.412C299.678 110.417 299.097 111.133 299.041 111.206C298.663 111.694 298.313 112.204 297.986 112.728C297.023 114.272 296.257 115.934 295.607 117.631C293.59 122.892 292.692 128.49 291.58 133.989C290.769 138.001 289.537 142.239 287.548 145.829C286.945 146.916 285.398 149.493 283.802 148.372C282.386 147.377 284.966 144.375 283.415 143.248C283.326 143.184 282.532 144.134 282.477 144.196C281.557 145.219 280.622 146.817 279.41 147.515C278.614 147.972 278.231 146.134 277.396 145.974C276.388 145.781 275.238 146.757 274.324 147.055C273.129 147.444 271.673 147.146 270.42 147.303C269.853 147.374 269.261 147.472 268.727 147.685C268.612 147.73 268.336 147.831 268.357 148C268.442 148.685 270.225 148.723 270.69 148.839C272.548 149.298 272.381 150.926 271.837 152.448C271.108 154.492 269.539 155.724 269.341 158.007C269.142 160.289 270.151 162.89 269.596 165.063C269.372 165.939 268.402 166.386 267.728 166.895C267.62 166.977 267.082 167.301 267.123 167.489C267.227 167.963 268.611 168.422 268.991 168.602C269.236 168.719 269.89 168.725 269.73 168.944C269.06 169.859 266.787 169.614 265.799 169.888C265.709 169.913 264.638 170.187 264.668 170.281C264.983 171.298 267.23 171.175 267.981 171.168C270.351 171.145 272.712 171.119 273.867 173.594C274.88 175.766 271.753 176.165 270.322 176.302C265.416 176.772 260.489 177.811 255.548 177.82C246.924 177.838 239.501 182.366 231.192 183.887C225.337 184.959 219.393 183.123 213.538 184.145C210.705 184.64 208.011 185.651 205.239 186.386C204.748 186.516 202.784 187.26 202.354 186.9C200.664 185.488 202.184 182.515 203.111 181.197C204.919 178.629 207.484 176.527 210.078 174.79C211.405 173.901 213.29 173.345 214.297 172.084C215.493 170.587 212.23 168.323 213.123 166.169C214.597 162.615 218.85 161.021 221.006 157.953C224.12 153.521 224.33 147.16 225.043 141.943C225.067 141.766 225.209 141.288 225.043 141.136C224.844 140.953 224.077 142.471 223.973 142.646C223.426 143.569 223.125 144.623 222.505 145.505C222.388 145.673 221.99 146.276 221.748 146.144C221.491 146.004 221.309 145.631 221.108 145.42C220.11 144.369 219.224 143.299 217.992 142.525C215.313 140.841 213.042 138.641 210.588 136.662C208.822 135.238 206.874 134.072 205.083 132.681C203.337 131.325 201.258 129.55 201.101 127.171C200.932 124.59 202.936 122.232 204.547 120.449C208.601 115.963 213.843 112.407 218.675 108.807Z" stroke="#0086CD" stroke-width="1.5" stroke-miterlimit="1.5" stroke-linecap="round" stroke-linejoin="round"/>
<path d="M263.823 86.111C264.015 85.097 264.247 83.938 263.929 82.93C263.261 80.807 260.883 79.878 259.912 77.946C259.007 76.145 259.239 73.864 257.613 72.442C255.921 70.962 253.414 71.516 251.655 70.179C249.741 68.723 249.284 66.035 247.318 64.629C246.275 63.884 244.832 63.505 243.648 63.055C241.239 62.139 238.808 61.277 236.371 60.438C235.485 60.133 234.598 59.83 233.706 59.543C233.572 59.5 233.022 59.231 232.88 59.303C231.467 60.017 233.008 62.233 231.664 63.115C230.286 64.018 228.575 62.237 227.281 63.651C225.81 65.26 228.437 67.487 225.961 68.776C223.693 69.957 220.334 68.614 217.943 68.488C216.727 68.423 215.254 68.491 214.405 69.499C212.27 72.033 216.054 74.007 217.525 75.515C218.035 76.039 218.705 76.883 218.514 77.677C218.132 79.265 214.791 78.974 214.867 80.758C214.92 82.017 216.686 82.984 217.357 83.927C217.643 84.329 218.009 85.029 217.703 85.515C217.016 86.606 214.519 86.603 213.406 86.839C213.045 86.916 212.009 87.039 211.918 87.522C211.806 88.11 213.188 88.643 213.587 88.868C215.516 89.954 218 90.495 219.72 91.902C222.664 94.31 222.073 99.18 225.849 100.985C229.828 102.888 234.043 100.139 237.931 99.386C238.535 99.269 239.295 99.166 239.856 99.492C240.334 99.769 240.657 100.555 241.264 100.547C241.844 100.54 242.421 98.903 242.884 98.437C244.383 96.931 246.251 95.595 248.248 94.842C251.33 93.68 254.827 95.29 257.753 93.527C259.433 92.514 258.084 89.267 257.992 87.76C257.905 86.35 258.583 85.626 260.029 85.876C260.823 86.014 261.576 86.331 262.369 86.463C262.608 86.503 263.318 86.731 263.548 86.615C263.658 86.559 263.75 86.328 263.823 86.111Z" fill="#FEEFE2"/>
<mask id="mask4_25_1012" style="mask-type:luminance" maskUnits="userSpaceOnUse" x="211" y="59" width="54" height="43">
<path d="M263.823 86.111C264.015 85.097 264.247 83.938 263.929 82.93C263.261 80.807 260.883 79.878 259.912 77.946C259.007 76.145 259.239 73.864 257.613 72.442C255.921 70.962 253.414 71.516 251.655 70.179C249.741 68.723 249.284 66.035 247.318 64.629C246.275 63.884 244.832 63.505 243.648 63.055C241.239 62.139 238.808 61.277 236.371 60.438C235.485 60.133 234.598 59.83 233.706 59.543C233.572 59.5 233.022 59.231 232.88 59.303C231.467 60.017 233.008 62.233 231.664 63.115C230.286 64.018 228.575 62.237 227.281 63.651C225.81 65.26 228.437 67.487 225.961 68.776C223.693 69.957 220.334 68.614 217.943 68.488C216.727 68.423 215.254 68.491 214.405 69.499C212.27 72.033 216.054 74.007 217.525 75.515C218.035 76.039 218.705 76.883 218.514 77.677C218.132 79.265 214.791 78.974 214.867 80.758C214.92 82.017 216.686 82.984 217.357 83.927C217.643 84.329 218.009 85.029 217.703 85.515C217.016 86.606 214.519 86.603 213.406 86.839C213.045 86.916 212.009 87.039 211.918 87.522C211.806 88.11 213.188 88.643 213.587 88.868C215.516 89.954 218 90.495 219.72 91.902C222.664 94.31 222.073 99.18 225.849 100.985C229.828 102.888 234.043 100.139 237.931 99.386C238.535 99.269 239.295 99.166 239.856 99.492C240.334 99.769 240.657 100.555 241.264 100.547C241.844 100.54 242.421 98.903 242.884 98.437C244.383 96.931 246.251 95.595 248.248 94.842C251.33 93.68 254.827 95.29 257.753 93.527C259.433 92.514 258.084 89.267 257.992 87.76C257.905 86.35 258.583 85.626 260.029 85.876C260.823 86.014 261.576 86.331 262.369 86.463C262.608 86.503 263.318 86.731 263.548 86.615C263.658 86.559 263.75 86.328 263.823 86.111Z" fill="white"/>
</mask>
<g mask="url(#mask4_25_1012)">
<path d="M227.055 94.146C227.426 95.104 227.704 95.979 228.287 96.833C230.891 100.645 235.127 96.316 238.458 97.425" stroke="#0086CD" stroke-width="1.5" stroke-miterlimit="1.5" stroke-linecap="round" stroke-linejoin="round"/>
<path d="M221.352 88.782C223.344 88.721 225.181 89.1 226.833 90.251C228.146 91.166 228.978 92.518 230.588 92.964C232.741 93.561 234.676 92.045 236.684 93.576" stroke="#0086CD" stroke-width="1.5" stroke-miterlimit="1.5" stroke-linecap="round" stroke-linejoin="round"/>
<path d="M234.344 88.877C235.184 89.008 236.007 89.287 236.746 89.71" stroke="#0086CD" stroke-width="1.5" stroke-miterlimit="1.5" stroke-linecap="round" stroke-linejoin="round"/>
<path d="M255.244 77.408C256.537 79.296 259.415 80.48 259.564 83.005C259.628 84.091 259.053 85.095 258.736 86.107" stroke="#0086CD" stroke-width="1.5" stroke-miterlimit="1.5" stroke-linecap="round" stroke-linejoin="round"/>
</g>
<path d="M263.823 86.111C264.015 85.097 264.247 83.938 263.929 82.93C263.261 80.807 260.883 79.878 259.912 77.946C259.007 76.145 259.239 73.864 257.613 72.442C255.921 70.962 253.414 71.516 251.655 70.179C249.741 68.723 249.284 66.035 247.318 64.629C246.275 63.884 244.832 63.505 243.648 63.055C241.239 62.139 238.808 61.277 236.371 60.438C235.485 60.133 234.598 59.83 233.706 59.543C233.572 59.5 233.022 59.231 232.88 59.303C231.467 60.017 233.008 62.233 231.664 63.115C230.286 64.018 228.575 62.237 227.281 63.651C225.81 65.26 228.437 67.487 225.961 68.776C223.693 69.957 220.334 68.614 217.943 68.488C216.727 68.423 215.254 68.491 214.405 69.499C212.27 72.033 216.054 74.007 217.525 75.515C218.035 76.039 218.705 76.883 218.514 77.677C218.132 79.265 214.791 78.974 214.867 80.758C214.92 82.017 216.686 82.984 217.357 83.927C217.643 84.329 218.009 85.029 217.703 85.515C217.016 86.606 214.519 86.603 213.406 86.839C213.045 86.916 212.009 87.039 211.918 87.522C211.806 88.11 213.188 88.643 213.587 88.868C215.516 89.954 218 90.495 219.72 91.902C222.664 94.31 222.073 99.18 225.849 100.985C229.828 102.888 234.043 100.139 237.931 99.386C238.535 99.269 239.295 99.166 239.856 99.492C240.334 99.769 240.657 100.555 241.264 100.547C241.844 100.54 242.421 98.903 242.884 98.437C244.383 96.931 246.251 95.595 248.248 94.842C251.33 93.68 254.827 95.29 257.753 93.527C259.433 92.514 258.084 89.267 257.992 87.76C257.905 86.35 258.583 85.626 260.029 85.876C260.823 86.014 261.576 86.331 262.369 86.463C262.608 86.503 263.318 86.731 263.548 86.615C263.658 86.559 263.75 86.328 263.823 86.111Z" stroke="#0086CD" stroke-width="1.5" stroke-miterlimit="1.5" stroke-linecap="round" stroke-linejoin="round"/>
</g>
</svg>