<?xml version="1.0" standalone="no"?>
<!DOCTYPE svg PUBLIC "-//W3C//DTD SVG 20010904//EN"
 "http://www.w3.org/TR/2001/REC-SVG-20010904/DTD/svg10.dtd">
<svg version="1.0" xmlns="http://www.w3.org/2000/svg"
 width="700.000000pt" height="700.000000pt" viewBox="0 0 700.000000 700.000000"
 preserveAspectRatio="xMidYMid meet">
<metadata>
Created by potrace 1.14, written by Peter Selinger 2001-2017
</metadata>
<g transform="translate(0.000000,700.000000) scale(0.100000,-0.100000)"
fill="#000000" stroke="none">
<path d="M3390 5077 l0 -1377 -24 15 c-22 14 -24 23 -26 108 -4 178 -29 480
-55 652 -3 17 -7 48 -10 70 -3 22 -10 65 -15 95 -5 30 -12 71 -15 90 -3 19 -8
42 -10 50 -2 8 -7 31 -10 50 -12 75 -38 190 -71 325 -20 77 -37 145 -38 150
-3 15 -52 170 -75 240 -29 89 -74 209 -116 310 -46 113 -175 375 -184 375 -14
-2 -182 -96 -182 -102 1 -5 30 -69 66 -143 109 -226 180 -410 268 -700 20 -63
82 -312 96 -385 6 -30 14 -66 16 -80 16 -75 56 -323 65 -398 6 -48 13 -98 15
-112 3 -24 7 -62 20 -205 11 -127 14 -225 6 -225 -24 0 -36 37 -37 114 -3 249
-79 523 -229 831 -136 276 -304 511 -546 759 l-137 140 -76 -79 -76 -80 114
-115 c124 -125 161 -167 260 -293 188 -241 355 -572 422 -837 20 -78 35 -156
40 -209 l7 -63 -26 16 c-20 14 -26 28 -32 74 -18 145 -93 329 -179 441 -158
205 -384 312 -674 320 -42 1 -92 3 -110 5 -18 1 -36 -2 -39 -8 -9 -14 -10
-178 -2 -197 6 -12 26 -15 86 -16 126 -2 203 -13 283 -39 230 -77 369 -255
419 -536 l8 -48 -96 -91 c-53 -51 -211 -203 -351 -339 -365 -354 -393 -380
-399 -374 -3 2 -4 83 -4 179 l2 175 -110 0 -109 0 0 -27 c-1 -16 -1 -139 -1
-274 1 -215 -1 -248 -15 -253 -10 -4 -13 -13 -9 -25 3 -11 1 -22 -5 -26 -5 -3
-8 -16 -5 -28 4 -14 -6 -46 -28 -87 -18 -36 -62 -120 -97 -188 -35 -68 -66
-119 -70 -115 -4 4 -38 69 -76 143 -37 74 -69 136 -70 138 -3 5 -182 -87 -188
-97 -4 -5 4 -29 17 -53 20 -35 129 -246 261 -503 14 -27 60 -149 101 -270 42
-121 82 -237 90 -258 8 -20 12 -37 9 -37 -3 0 -89 41 -191 90 -102 50 -189 90
-194 90 -7 0 -99 -172 -99 -186 0 -4 149 -78 545 -270 57 -27 100 -62 234
-192 l165 -158 -185 0 -184 1 0 -110 0 -110 295 0 c292 0 296 0 319 -22 18
-16 28 -20 37 -12 9 7 59 -13 181 -72 271 -131 293 -141 335 -144 28 -2 107
19 281 75 133 43 292 94 352 113 104 33 175 41 202 24 6 -4 13 -2 15 5 3 9 51
-2 169 -40 486 -157 566 -180 599 -177 45 4 46 4 294 125 138 67 212 98 219
91 6 -6 20 -2 41 13 31 22 34 23 324 22 l292 -1 0 110 0 110 -186 0 -187 0
164 158 c113 109 179 166 214 182 28 12 162 77 298 144 137 67 253 121 258
121 5 0 9 3 9 6 0 17 -90 194 -99 194 -5 0 -95 -42 -199 -93 -177 -87 -189
-92 -182 -68 5 14 43 127 85 251 67 196 94 258 208 480 72 140 144 281 160
313 17 32 28 59 26 61 -9 8 -191 97 -193 94 -1 -2 -33 -64 -70 -138 -38 -74
-72 -139 -76 -143 -12 -14 -222 374 -210 388 7 9 6 16 -5 25 -9 8 -13 21 -9
36 4 16 2 24 -6 24 -11 0 -9 234 4 505 1 17 -3 33 -9 37 -5 4 -55 8 -111 8
l-100 0 -1 -47 c-1 -139 -8 -313 -13 -313 -3 0 -104 98 -225 218 -121 119
-308 302 -416 405 l-196 189 12 66 c31 163 89 278 189 377 127 125 275 177
509 178 81 0 87 2 88 21 5 98 3 188 -4 193 -11 7 -166 6 -224 -2 -24 -3 -60
-7 -81 -10 -103 -12 -268 -82 -366 -154 -173 -128 -297 -352 -331 -598 -6 -42
-17 -63 -37 -74 -20 -11 -20 -9 -15 42 30 304 216 731 451 1039 43 56 131 165
146 180 3 3 58 60 123 126 l118 121 -76 78 -76 78 -71 -69 c-64 -63 -214 -225
-263 -285 -351 -423 -576 -965 -579 -1394 0 -50 -5 -73 -16 -82 -26 -21 -29
-15 -25 60 5 93 16 235 20 267 2 14 7 50 10 80 3 30 8 66 10 80 2 14 6 50 10
80 21 177 81 479 136 690 87 334 179 583 320 864 32 66 58 120 56 121 -11 7
-186 95 -189 95 -5 0 -115 -219 -146 -290 -109 -247 -195 -500 -266 -785 -19
-77 -37 -151 -40 -165 -3 -14 -14 -72 -26 -130 -11 -58 -23 -121 -26 -140 -3
-19 -7 -46 -10 -60 -2 -14 -7 -41 -10 -60 -3 -19 -7 -46 -9 -60 -11 -64 -36
-283 -41 -350 -3 -41 -7 -86 -10 -100 -2 -14 -7 -99 -10 -189 -6 -152 -8 -166
-28 -182 l-21 -17 -3 1374 c-1 756 -5 1374 -10 1375 -4 0 -53 1 -110 2 l-102
2 0 -1378z m-305 -1439 c110 -71 201 -132 203 -136 1 -4 -68 -52 -153 -107
-85 -55 -212 -137 -282 -182 -71 -46 -133 -83 -138 -83 -10 0 -85 69 -291 270
l-102 99 117 115 c64 63 152 148 195 189 l79 75 86 -56 c47 -31 176 -114 286
-184z m1300 147 c23 -22 98 -95 167 -162 l126 -122 -172 -168 c-95 -92 -184
-177 -197 -189 l-25 -20 -69 45 c-39 26 -168 109 -287 186 -120 77 -218 142
-218 145 0 3 64 46 143 97 78 51 207 134 287 186 l145 94 29 -26 c16 -14 48
-44 71 -66z m-587 -606 c163 -106 303 -197 311 -204 11 -11 3 -23 -50 -75
-362 -351 -522 -505 -540 -521 -21 -18 -22 -18 -49 9 -32 32 -486 471 -548
530 -24 23 -41 46 -38 50 3 5 89 62 191 128 102 65 238 153 303 196 64 42 118
77 120 77 1 1 136 -85 300 -190z m-1345 -111 l88 -85 -238 -230 c-325 -315
-355 -344 -360 -339 -4 3 -112 311 -167 475 l-21 64 204 197 205 198 100 -98
c56 -54 140 -136 189 -182z m2585 79 l192 -193 -71 -220 c-39 -120 -78 -243
-87 -272 l-17 -53 -66 63 c-37 35 -171 164 -298 287 l-231 224 151 146 c84 80
166 161 182 179 17 17 35 32 41 32 6 0 98 -87 204 -193z m-2184 -467 c71 -69
152 -147 180 -174 28 -27 109 -105 179 -174 l128 -125 -98 -96 c-306 -297
-535 -516 -542 -519 -5 -1 -42 30 -83 70 -76 74 -476 459 -529 511 -16 15 -29
31 -29 35 0 4 66 71 148 149 81 78 224 216 317 306 140 136 173 163 185 153 8
-6 73 -67 144 -136z m1685 -79 c127 -123 269 -260 316 -304 47 -44 85 -84 85
-89 0 -4 -8 -16 -18 -25 -10 -10 -129 -125 -264 -255 -344 -333 -350 -339
-359 -336 -7 3 -215 202 -536 513 l-103 101 127 125 c71 69 193 189 273 267
80 77 165 160 190 185 25 24 48 44 52 43 4 0 111 -102 237 -225z m-2840 -155
l81 -240 -71 -205 c-39 -113 -74 -210 -78 -214 -5 -4 -17 21 -28 55 -64 195
-138 399 -160 444 l-26 51 94 181 c52 100 97 178 100 174 3 -4 43 -115 88
-246z m3801 46 l83 -154 -31 -66 c-18 -37 -52 -128 -77 -202 -25 -74 -57 -170
-72 -212 -14 -43 -29 -75 -34 -72 -4 2 -13 19 -18 37 -5 18 -37 112 -70 210
l-61 178 76 237 c42 130 79 241 82 245 5 11 18 -11 122 -201z m-1888 -545
c301 -289 508 -491 508 -496 0 -3 -42 -33 -93 -66 -404 -262 -520 -335 -528
-335 -5 0 -50 27 -100 60 -50 33 -93 60 -95 60 -3 0 -10 5 -17 11 -7 6 -100
67 -207 135 -107 69 -196 128 -198 132 -1 5 93 100 210 213 116 112 255 246
307 296 53 51 98 93 101 93 3 0 53 -47 112 -103z m-1432 -167 c124 -120 256
-247 293 -282 l68 -64 -159 -155 c-87 -85 -172 -167 -190 -183 l-31 -29 -138
136 c-76 74 -167 162 -203 196 l-65 61 49 142 c26 79 68 203 93 276 25 73 48
130 52 127 3 -4 107 -105 231 -225z m2925 90 c26 -74 68 -197 93 -273 l47
-137 -97 -93 c-54 -50 -145 -139 -203 -196 l-106 -104 -26 24 c-14 13 -99 95
-189 183 l-164 158 157 152 c86 83 220 212 297 288 78 75 142 135 143 134 1
-1 23 -62 48 -136z m-2210 -695 c61 -39 152 -98 203 -131 52 -32 105 -68 119
-78 l26 -20 -54 -17 c-30 -9 -148 -48 -264 -85 -115 -37 -214 -67 -220 -67 -5
0 -87 38 -182 85 l-171 85 71 68 c40 37 120 115 179 172 l108 105 37 -23 c21
-13 88 -55 148 -94z m1574 -56 c94 -91 171 -169 171 -173 0 -6 -322 -164 -343
-168 -7 -1 -106 29 -222 66 -115 38 -234 76 -262 85 -29 9 -53 18 -52 21 0 8
523 340 530 338 4 -2 84 -78 178 -169z"/>
</g>
</svg>
