<?xml version="1.0" standalone="no"?>
<!DOCTYPE svg PUBLIC "-//W3C//DTD SVG 20010904//EN"
 "http://www.w3.org/TR/2001/REC-SVG-20010904/DTD/svg10.dtd">
<svg version="1.0" xmlns="http://www.w3.org/2000/svg"
 width="700.000000pt" height="700.000000pt" viewBox="0 0 700.000000 700.000000"
 preserveAspectRatio="xMidYMid meet">
<metadata>
Created by potrace 1.14, written by Peter Selinger 2001-2017
</metadata>
<g transform="translate(0.000000,700.000000) scale(0.100000,-0.100000)"
fill="#000000" stroke="none">
<path d="M740 6655 c-193 -53 -345 -206 -395 -397 -17 -62 -17 -204 0 -266 7
-27 27 -80 46 -118 30 -65 88 -124 911 -949 l878 -880 -698 0 -697 0 -74 -24
c-326 -107 -474 -470 -318 -778 29 -57 133 -174 176 -198 168 -94 161 -93 939
-91 364 0 661 -2 659 -7 -1 -4 -392 -397 -868 -875 -931 -932 -913 -912 -950
-1055 -51 -191 2 -388 141 -527 171 -170 415 -208 640 -98 59 29 145 111 938
902 480 479 876 872 880 873 4 2 7 -311 7 -695 0 -657 1 -700 19 -752 96 -279
353 -432 637 -380 156 29 321 160 384 305 52 119 52 117 51 850 l-1 685 880
-878 c825 -823 884 -881 949 -911 91 -44 146 -58 241 -60 304 -6 553 237 555
541 0 92 -15 160 -58 248 -34 73 -60 100 -909 950 -480 482 -873 878 -873 880
0 3 309 5 688 5 641 0 691 1 752 19 134 38 223 103 309 224 79 111 114 304 77
425 -8 26 -12 47 -10 47 2 0 -11 30 -30 68 -31 61 -103 156 -133 175 -7 4 -19
14 -27 22 -26 27 -150 84 -211 98 -48 10 -199 13 -738 13 -372 -1 -677 1 -677
4 0 2 393 398 873 880 956 958 913 909 953 1070 21 85 15 222 -15 305 -26 74
-100 184 -155 231 -174 150 -405 175 -626 67 -46 -22 -196 -167 -929 -899
-481 -481 -877 -871 -879 -869 -3 2 -6 314 -7 692 -2 613 -4 695 -19 747 -16
57 -65 154 -93 186 -93 103 -181 161 -292 192 -283 78 -585 -95 -667 -382 -18
-61 -19 -113 -19 -757 l0 -693 -870 868 c-534 533 -890 881 -922 901 -86 54
-157 74 -268 78 -67 2 -118 -2 -155 -12z"/>
</g>
</svg>
