<svg width="1024" height="1024" xmlns="http://www.w3.org/2000/svg">
    <style>
        .colorTwo {
            fill: hsl(192 82% 83%);
        }
        .colorOne {
            fill: hsl(22 42% 94%);
        }
    </style>
    <defs>
        <pattern id="dynamicPattern" patternUnits="userSpaceOnUse" width="256" height="256">
            <path d="M128,478l17,17l0,46l46,0l17,17l-17,17l-46,0l0,46l-17,17l-17,-17l0,-46l-46,0l-17,-17l17,-17l46,0l0,-46l17,-17Zm8,80c0,-0 1.648,4.998 7.269,7.615c7.269,3.385 13.731,3.385 13.731,3.385c0,-0 -0.27,-2.685 -1.306,-5.861c8.507,-1.66 14.306,-5.139 14.306,-5.139c0,-0 -5.799,-3.479 -14.306,-5.139c1.036,-3.176 1.306,-5.861 1.306,-5.861c0,-0 -6.462,-0 -13.731,3.385c-5.621,2.617 -7.269,7.615 -7.269,7.615Zm-8,-6c-3.311,0 -6,2.689 -6,6c0,3.311 2.689,6 6,6c3.311,-0 6,-2.689 6,-6c0,-3.311 -2.689,-6 -6,-6Zm0,-2c0,0 4.998,-1.648 7.615,-7.269c3.385,-7.269 3.385,-13.731 3.385,-13.731c0,-0 -2.685,0.27 -5.861,1.306c-1.66,-8.507 -5.139,-14.306 -5.139,-14.306c0,0 -3.479,5.799 -5.139,14.306c-3.176,-1.036 -5.861,-1.306 -5.861,-1.306c0,-0 0,6.462 3.385,13.731c2.617,5.621 7.615,7.269 7.615,7.269Zm-8,8c0,0 -1.648,-4.998 -7.269,-7.615c-7.269,-3.385 -13.731,-3.385 -13.731,-3.385c-0,0 0.27,2.685 1.306,5.861c-8.507,1.66 -14.306,5.139 -14.306,5.139c0,0 5.799,3.479 14.306,5.139c-1.036,3.176 -1.306,5.861 -1.306,5.861c-0,0 6.462,0 13.731,-3.385c5.621,-2.617 7.269,-7.615 7.269,-7.615Zm8,8c0,-0 -4.998,1.648 -7.615,7.269c-3.385,7.269 -3.385,13.731 -3.385,13.731c0,0 2.685,-0.27 5.861,-1.306c1.66,8.507 5.139,14.306 5.139,14.306c0,-0 3.479,-5.799 5.139,-14.306c3.176,1.036 5.861,1.306 5.861,1.306c0,0 0,-6.462 -3.385,-13.731c-2.617,-5.621 -7.615,-7.269 -7.615,-7.269Z" class="colorOne" transform="matrix(1,0,0,1,-362,-430) matrix(1,0,0,1,362,430) matrix(1,0,0,1,0,-430)"/>
            <path d="M142,652l-10,-10l5.05,-4.95l13.95,-14.05l0,-42l42,0l63,-63l0,20l-57,57c0,0 -34,-0 -34,0l0,34l-23,23Zm80,-108l-10,10l-4.95,-5.05l-14.05,-13.95l-42,0l0,-42l-63,-63l20,0l57,57c0,0 -0,34 0,34l34,0l23,23Zm-108,-80l10,10l-5.05,4.95l-13.95,14.05l0,42l-42,0l-63,63l-0,-20l57,-57c-0,0 34,0 34,0l0,-34l23,-23Zm-80,108l10,-10l4.95,5.05l14.05,13.95l42,0l0,42l63,63l-20,0l-57,-57c0,0 0,-34 0,-34l-34,0l-23,-23Zm80,88l10,10l-16,16l-20,0l26,-26Zm116,-88l10,-10l16,16l0,20l-26,-26Zm-88,-116l-10,-10l16,-16l20,0l-26,26Zm-116,88l-10,10l-16,-16l0,-20l26,26Z" class="colorOne" transform="matrix(1,0,0,1,-362,-430) matrix(1,0,0,1,362,430) matrix(1,0,0,1,0,-430)"/>
            <path d="M244,558l12,-12l0,24l-12,-12Zm-116,116l12,12l-24,0l12,-12Zm-116,-116l-12,12l-0,-24l12,12Zm116,-116l-12,-12l24,-0l-12,12Z" class="colorOne" transform="matrix(1,0,0,1,-362,-430) matrix(1,0,0,1,362,430) matrix(1,0,0,1,0,-430)"/>
            <path d="M559,686l-21,0l-30,-30l25,-25l0,-30l30,0l25,-25l30,30l0,21c-5.054,7.737 -8,17.021 -8,27c0,9.979 2.946,19.263 8,27l0,5l-5,-0c-7.737,-5.054 -17.021,-8 -27,-8c-9.979,-0 -19.263,2.946 -27,8Zm55.466,-3.534c-1.897,-9.045 -6.379,-17.693 -13.435,-24.749c-7.057,-7.056 -15.705,-11.538 -24.749,-13.435c1.897,9.044 6.379,17.692 13.435,24.749c7.056,7.056 15.704,11.538 24.749,13.435Zm-42.466,-42.466c3.791,-4.871 6,-10.717 6,-17c0,-6.283 -2.209,-12.129 -6,-17c-3.791,4.871 -6,10.717 -6,17c0,0.084 0,0.168 0.001,0.251c-0.952,-1.324 -2.016,-2.579 -3.193,-3.757c-5.489,-5.488 -12.678,-8.511 -20.506,-9.192c0.681,7.828 3.704,15.017 9.192,20.506c1.178,1.177 2.433,2.241 3.757,3.193c-0.083,-0.001 -0.167,-0.001 -0.251,-0.001c-6.283,0 -12.129,2.209 -17,6c4.871,3.791 10.717,6 17,6c6.283,0 12.129,-2.209 17,-6Zm3.896,-2.185c14.195,-1.076 27.102,-6.791 37.208,-15.63c-14.195,1.076 -27.102,6.791 -37.208,15.63Zm-21.711,43.289c8.839,-10.106 14.554,-23.013 15.63,-37.208c-8.839,10.106 -14.554,23.013 -15.63,37.208Zm45.815,-44.104c-3.311,-0 -6,2.689 -6,6c0,3.311 2.689,6 6,6c3.311,-0 6,-2.689 6,-6c-0,-3.311 -2.689,-6 -6,-6Zm-25,25c-3.311,0 -6,2.689 -6,6c0,3.311 2.689,6 6,6c3.311,0 6,-2.689 6,-6c-0,-3.311 -2.689,-6 -6,-6Z" class="colorOne" transform="matrix(1,0,0,1,-362,-430) matrix(1,0,0,1,362,430) matrix(1,0,0,1,-362,-430)"/>
            <path d="M559,686l-21,0l-30,-30l25,-25l0,-30l30,0l25,-25l30,30l0,21c-5.054,7.737 -8,17.021 -8,27c0,9.979 2.946,19.263 8,27l0,5l-5,-0c-7.737,-5.054 -17.021,-8 -27,-8c-9.979,-0 -19.263,2.946 -27,8Zm55.466,-3.534c-1.897,-9.045 -6.379,-17.693 -13.435,-24.749c-7.057,-7.056 -15.705,-11.538 -24.749,-13.435c1.897,9.044 6.379,17.692 13.435,24.749c7.056,7.056 15.704,11.538 24.749,13.435Zm-42.466,-42.466c3.791,-4.871 6,-10.717 6,-17c0,-6.283 -2.209,-12.129 -6,-17c-3.791,4.871 -6,10.717 -6,17c0,0.084 0,0.168 0.001,0.251c-0.952,-1.324 -2.016,-2.579 -3.193,-3.757c-5.489,-5.488 -12.678,-8.511 -20.506,-9.192c0.681,7.828 3.704,15.017 9.192,20.506c1.178,1.177 2.433,2.241 3.757,3.193c-0.083,-0.001 -0.167,-0.001 -0.251,-0.001c-6.283,0 -12.129,2.209 -17,6c4.871,3.791 10.717,6 17,6c6.283,0 12.129,-2.209 17,-6Zm3.896,-2.185c14.195,-1.076 27.102,-6.791 37.208,-15.63c-14.195,1.076 -27.102,6.791 -37.208,15.63Zm-21.711,43.289c8.839,-10.106 14.554,-23.013 15.63,-37.208c-8.839,10.106 -14.554,23.013 -15.63,37.208Zm45.815,-44.104c-3.311,-0 -6,2.689 -6,6c0,3.311 2.689,6 6,6c3.311,-0 6,-2.689 6,-6c-0,-3.311 -2.689,-6 -6,-6Zm-25,25c-3.311,0 -6,2.689 -6,6c0,3.311 2.689,6 6,6c3.311,0 6,-2.689 6,-6c-0,-3.311 -2.689,-6 -6,-6Z" class="colorOne" transform="matrix(1,0,0,1,-362,-430) matrix(1,0,0,1,362,430) matrix(6.12323e-17,-1,1,6.12323e-17,-430,618)"/>
            <path d="M559,686l-21,0l-30,-30l25,-25l0,-30l30,0l25,-25l30,30l0,21c-5.054,7.737 -8,17.021 -8,27c0,9.979 2.946,19.263 8,27l0,5l-5,-0c-7.737,-5.054 -17.021,-8 -27,-8c-9.979,-0 -19.263,2.946 -27,8Zm55.466,-3.534c-1.897,-9.045 -6.379,-17.693 -13.435,-24.749c-7.057,-7.056 -15.705,-11.538 -24.749,-13.435c1.897,9.044 6.379,17.692 13.435,24.749c7.056,7.056 15.704,11.538 24.749,13.435Zm-42.466,-42.466c3.791,-4.871 6,-10.717 6,-17c0,-6.283 -2.209,-12.129 -6,-17c-3.791,4.871 -6,10.717 -6,17c0,0.084 0,0.168 0.001,0.251c-0.952,-1.324 -2.016,-2.579 -3.193,-3.757c-5.489,-5.488 -12.678,-8.511 -20.506,-9.192c0.681,7.828 3.704,15.017 9.192,20.506c1.178,1.177 2.433,2.241 3.757,3.193c-0.083,-0.001 -0.167,-0.001 -0.251,-0.001c-6.283,0 -12.129,2.209 -17,6c4.871,3.791 10.717,6 17,6c6.283,0 12.129,-2.209 17,-6Zm3.896,-2.185c14.195,-1.076 27.102,-6.791 37.208,-15.63c-14.195,1.076 -27.102,6.791 -37.208,15.63Zm-21.711,43.289c8.839,-10.106 14.554,-23.013 15.63,-37.208c-8.839,10.106 -14.554,23.013 -15.63,37.208Zm45.815,-44.104c-3.311,-0 -6,2.689 -6,6c0,3.311 2.689,6 6,6c3.311,-0 6,-2.689 6,-6c-0,-3.311 -2.689,-6 -6,-6Zm-25,25c-3.311,0 -6,2.689 -6,6c0,3.311 2.689,6 6,6c3.311,0 6,-2.689 6,-6c-0,-3.311 -2.689,-6 -6,-6Z" class="colorOne" transform="matrix(1,0,0,1,-362,-430) matrix(1,0,0,1,362,430) matrix(-1,-1.22465e-16,1.22465e-16,-1,618,686)"/>
            <path d="M559,686l-21,0l-30,-30l25,-25l0,-30l30,0l25,-25l30,30l0,21c-5.054,7.737 -8,17.021 -8,27c0,9.979 2.946,19.263 8,27l0,5l-5,-0c-7.737,-5.054 -17.021,-8 -27,-8c-9.979,-0 -19.263,2.946 -27,8Zm55.466,-3.534c-1.897,-9.045 -6.379,-17.693 -13.435,-24.749c-7.057,-7.056 -15.705,-11.538 -24.749,-13.435c1.897,9.044 6.379,17.692 13.435,24.749c7.056,7.056 15.704,11.538 24.749,13.435Zm-42.466,-42.466c3.791,-4.871 6,-10.717 6,-17c0,-6.283 -2.209,-12.129 -6,-17c-3.791,4.871 -6,10.717 -6,17c0,0.084 0,0.168 0.001,0.251c-0.952,-1.324 -2.016,-2.579 -3.193,-3.757c-5.489,-5.488 -12.678,-8.511 -20.506,-9.192c0.681,7.828 3.704,15.017 9.192,20.506c1.178,1.177 2.433,2.241 3.757,3.193c-0.083,-0.001 -0.167,-0.001 -0.251,-0.001c-6.283,0 -12.129,2.209 -17,6c4.871,3.791 10.717,6 17,6c6.283,0 12.129,-2.209 17,-6Zm3.896,-2.185c14.195,-1.076 27.102,-6.791 37.208,-15.63c-14.195,1.076 -27.102,6.791 -37.208,15.63Zm-21.711,43.289c8.839,-10.106 14.554,-23.013 15.63,-37.208c-8.839,10.106 -14.554,23.013 -15.63,37.208Zm45.815,-44.104c-3.311,-0 -6,2.689 -6,6c0,3.311 2.689,6 6,6c3.311,-0 6,-2.689 6,-6c-0,-3.311 -2.689,-6 -6,-6Zm-25,25c-3.311,0 -6,2.689 -6,6c0,3.311 2.689,6 6,6c3.311,0 6,-2.689 6,-6c-0,-3.311 -2.689,-6 -6,-6Z" class="colorOne" transform="matrix(1,0,0,1,-362,-430) matrix(1,0,0,1,362,430) matrix(-1.83697e-16,1,-1,-1.83697e-16,686,-362)"/>
            <path d="M102,648l-25,-25l0,-30l-30,0l-25,-25l-30,30l-0,-8l63,-63l42,0l0,-42l19,-19l-10,-10l-23,23l0,34l-34,0l-57,57l-0,-8l12,-12l-12,-12l0,-8l16,16l10,-10l-26,-26l0,-8l30,30l25,-25l30,0l0,-30l25,-25l-30,-30l8,0l63,63l0,42l42,0l19,19l10,-10l-23,-23l-34,0l0,-34l-57,-57l8,0l12,12l12,-12l8,0l-16,16l10,10l26,-26l8,0l-30,30l25,25l0,30l30,0l25,25l30,-30l0,8l-63,63l-42,0l0,42l-19,19l10,10l23,-23l0,-34l34,0l57,-57l0,8l-12,12l12,12l0,8l-16,-16l-10,10l26,26l0,8l-30,-30l-25,25l-30,0l0,30l-25,25l30,30l-8,0l-63,-63l0,-42l-42,0l-19,-19l-10,10l23,23l34,0l0,34l57,57l-8,0l-12,-12l-12,12l-8,0l16,-16l-10,-10l-26,26l-8,0l30,-30Zm98,-98l-17,-17l-46,0l0,-46l-17,-17l-17,17l0,46l-46,0l-17,17l17,17l46,0l0,46l17,17l17,-17l0,-46l46,0l17,-17Z" class="colorTwo" transform="matrix(1,0,0,1,-362,-430) matrix(1,0,0,1,362,430) matrix(1,0,0,1,8,-422)"/>
            <circle cx="128.5" cy="556.5" r="8.5" class="colorTwo" transform="matrix(1,0,0,1,-362,-430) matrix(1,0,0,1,362,430) matrix(0.705882,0,0,0.705882,37.2941,-264.824)"/>
            <path d="M128.5,540c0,-0 -7.914,-1.891 -12.058,-8.338c-5.359,-8.338 -5.359,-15.75 -5.359,-15.75c0,-0 4.252,0.309 9.28,1.497c2.628,-9.757 8.137,-16.409 8.137,-16.409c-0,0 5.509,6.652 8.137,16.409c5.028,-1.188 9.28,-1.497 9.28,-1.497c-0,-0 -0,7.412 -5.359,15.75c-4.144,6.447 -12.058,8.338 -12.058,8.338Zm-12.667,9.176c0,0 -2.609,5.734 -11.509,8.736c-11.51,3.882 -21.741,3.882 -21.741,3.882c0,0 0.428,-3.08 2.068,-6.723c-13.469,-1.903 -22.651,-5.895 -22.651,-5.895c-0,0 9.182,-3.991 22.651,-5.894c-1.64,-3.643 -2.068,-6.723 -2.068,-6.723c0,-0 10.231,-0 21.741,3.882c8.9,3.002 11.509,8.735 11.509,8.735Zm12.667,9.177c0,-0 7.914,1.891 12.058,8.338c5.359,8.338 5.359,15.75 5.359,15.75c-0,0 -4.252,-0.309 -9.28,-1.498c-2.628,9.758 -8.137,16.41 -8.137,16.41c0,-0 -5.509,-6.652 -8.137,-16.41c-5.028,1.189 -9.28,1.498 -9.28,1.498c0,0 0,-7.412 5.359,-15.75c4.144,-6.447 12.058,-8.338 12.058,-8.338Zm12.667,-9.177c-0,0 2.609,-5.733 11.509,-8.735c11.51,-3.882 21.741,-3.882 21.741,-3.882c-0,-0 -0.428,3.08 -2.068,6.723c13.469,1.903 22.651,5.894 22.651,5.894c0,0 -9.182,3.992 -22.651,5.895c1.64,3.643 2.068,6.723 2.068,6.723c-0,0 -10.231,0 -21.741,-3.882c-8.9,-3.002 -11.509,-8.736 -11.509,-8.736Z" class="colorTwo" transform="matrix(1,0,0,1,-362,-430) matrix(1,0,0,1,362,430) matrix(0.631579,0,0,0.871795,46.8421,-350.769)"/>
            <path d="M554.152,670.484c0.882,-11.644 5.57,-22.232 12.821,-30.523c-0.882,11.645 -5.57,22.233 -12.821,30.523Zm17.809,-35.511c8.291,-7.251 18.879,-11.939 30.523,-12.821c-8.29,7.251 -18.878,11.939 -30.523,12.821Zm30.523,-118.125c-11.644,-0.882 -22.232,-5.57 -30.523,-12.821c11.645,0.882 22.233,5.57 30.523,12.821Zm-35.511,-17.809c-7.251,-8.291 -11.939,-18.879 -12.821,-30.523c7.251,8.29 11.939,18.878 12.821,30.523Zm-118.125,-30.523c-0.882,11.644 -5.57,22.232 -12.821,30.523c0.882,-11.645 5.57,-22.233 12.821,-30.523Zm-17.809,35.511c-8.291,7.251 -18.879,11.939 -30.523,12.821c8.29,-7.251 18.878,-11.939 30.523,-12.821Zm-30.523,118.125c11.644,0.882 22.232,5.57 30.523,12.821c-11.645,-0.882 -22.233,-5.57 -30.523,-12.821Zm35.511,17.809c7.251,8.291 11.939,18.879 12.821,30.523c-7.251,-8.29 -11.939,-18.878 -12.821,-30.523Z" class="colorTwo" transform="matrix(1,0,0,1,-362,-430) matrix(1,0,0,1,362,430) matrix(1.21905,0,0,1.21905,-483.352,-566.248)"/>
            <path d="M606.5,670.011c-4.146,-6.236 -6.563,-13.718 -6.563,-21.761c0,-8.043 2.417,-15.525 6.563,-21.761l0,43.522Zm-48.398,4.03c6.346,-4.074 13.962,-6.448 22.148,-6.448c8.186,0 15.802,2.374 22.148,6.448l-44.296,-0Zm44.296,-206.326c-6.346,4.073 -13.962,6.447 -22.148,6.447c-8.186,0 -15.802,-2.374 -22.148,-6.447l44.296,-0Zm4.102,47.551c-4.146,-6.235 -6.563,-13.718 -6.563,-21.761c0,-8.042 2.417,-15.525 6.563,-21.76l-0,43.521Zm-210,-43.521c4.146,6.235 6.563,13.718 6.563,21.76c-0,8.043 -2.417,15.526 -6.563,21.761l0,-43.521Zm48.398,-4.03c-6.346,4.073 -13.962,6.447 -22.148,6.447c-8.186,0 -15.802,-2.374 -22.148,-6.447l44.296,-0Zm-44.296,206.326c6.346,-4.074 13.962,-6.448 22.148,-6.448c8.186,0 15.802,2.374 22.148,6.448l-44.296,-0Zm-4.102,-47.552c4.146,6.236 6.563,13.718 6.563,21.761c-0,8.043 -2.417,15.525 -6.563,21.761l0,-43.522Z" class="colorTwo" transform="matrix(1,0,0,1,-362,-430) matrix(1,0,0,1,362,430) matrix(1.21905,0,0,1.24075,-483.352,-580.319)"/>
            <path d="M614.466,682.466c-9.045,-1.897 -17.693,-6.379 -24.749,-13.435c-7.056,-7.057 -11.538,-15.705 -13.435,-24.749c9.044,1.897 17.692,6.379 24.749,13.435c7.056,7.056 11.538,15.704 13.435,24.749Zm-0,-248.932c-1.897,9.045 -6.379,17.693 -13.435,24.749c-7.057,7.056 -15.705,11.538 -24.749,13.435c1.897,-9.044 6.379,-17.692 13.435,-24.749c7.056,-7.056 15.704,-11.538 24.749,-13.435Zm-248.932,0c9.045,1.897 17.693,6.379 24.749,13.435c7.056,7.057 11.538,15.705 13.435,24.749c-9.044,-1.897 -17.692,-6.379 -24.749,-13.435c-7.056,-7.056 -11.538,-15.704 -13.435,-24.749Zm0,248.932c1.897,-9.045 6.379,-17.693 13.435,-24.749c7.057,-7.056 15.705,-11.538 24.749,-13.435c-1.897,9.044 -6.379,17.692 -13.435,24.749c-7.056,7.056 -15.704,11.538 -24.749,13.435Z" class="colorTwo" transform="matrix(1,0,0,1,-362,-430) matrix(1,0,0,1,362,430) matrix(1,0,0,1,-362,-430)"/>
            <path d="M572,640c-4.871,3.791 -10.717,6 -17,6c-6.283,0 -12.129,-2.209 -17,-6c4.871,-3.791 10.717,-6 17,-6c0.084,0 0.168,0 0.251,0.001c-1.324,-0.952 -2.579,-2.016 -3.757,-3.193c-5.488,-5.489 -8.511,-12.678 -9.192,-20.506c7.828,0.681 15.017,3.704 20.506,9.192c1.177,1.178 2.241,2.433 3.193,3.757c-0.001,-0.083 -0.001,-0.167 -0.001,-0.251c0,-6.283 2.209,-12.129 6,-17c3.791,4.871 6,10.717 6,17c0,6.283 -2.209,12.129 -6,17Zm-0,-164c3.791,4.871 6,10.717 6,17c0,6.283 -2.209,12.129 -6,17c-3.791,-4.871 -6,-10.717 -6,-17c0,-0.084 0,-0.168 0.001,-0.251c-0.952,1.324 -2.016,2.579 -3.193,3.757c-5.489,5.488 -12.678,8.511 -20.506,9.192c0.681,-7.828 3.704,-15.017 9.192,-20.506c1.178,-1.177 2.433,-2.241 3.757,-3.193c-0.083,0.001 -0.167,0.001 -0.251,0.001c-6.283,-0 -12.129,-2.209 -17,-6c4.871,-3.791 10.717,-6 17,-6c6.283,-0 12.129,2.209 17,6Zm-164,0c4.871,-3.791 10.717,-6 17,-6c6.283,-0 12.129,2.209 17,6c-4.871,3.791 -10.717,6 -17,6c-0.084,-0 -0.168,-0 -0.251,-0.001c1.324,0.952 2.579,2.016 3.757,3.193c5.488,5.489 8.511,12.678 9.192,20.506c-7.828,-0.681 -15.017,-3.704 -20.506,-9.192c-1.177,-1.178 -2.241,-2.433 -3.193,-3.757c0.001,0.083 0.001,0.167 0.001,0.251c-0,6.283 -2.209,12.129 -6,17c-3.791,-4.871 -6,-10.717 -6,-17c-0,-6.283 2.209,-12.129 6,-17Zm0,164c-3.791,-4.871 -6,-10.717 -6,-17c0,-6.283 2.209,-12.129 6,-17c3.791,4.871 6,10.717 6,17c0,0.084 -0,0.168 -0.001,0.251c0.952,-1.324 2.016,-2.579 3.193,-3.757c5.489,-5.488 12.678,-8.511 20.506,-9.192c-0.681,7.828 -3.704,15.017 -9.192,20.506c-1.178,1.177 -2.433,2.241 -3.757,3.193c0.083,-0.001 0.167,-0.001 0.251,-0.001c6.283,0 12.129,2.209 17,6c-4.871,3.791 -10.717,6 -17,6c-6.283,0 -12.129,-2.209 -17,-6Z" class="colorTwo" transform="matrix(1,0,0,1,-362,-430) matrix(1,0,0,1,362,430) matrix(1,0,0,1,-362,-430)"/>
            <path d="M600.714,638c4.14,0 7.5,3.361 7.5,7.5c0,4.139 -3.36,7.5 -7.5,7.5c-4.139,0 -7.5,-3.361 -7.5,-7.5c0,-4.139 3.361,-7.5 7.5,-7.5Zm-31.25,31.25c4.14,0 7.5,3.361 7.5,7.5c0,4.139 -3.36,7.5 -7.5,7.5c-4.139,0 -7.5,-3.361 -7.5,-7.5c0,-4.139 3.361,-7.5 7.5,-7.5Zm-7.5,-267.5c0,-4.139 3.361,-7.5 7.5,-7.5c4.14,0 7.5,3.361 7.5,7.5c0,4.139 -3.36,7.5 -7.5,7.5c-4.139,0 -7.5,-3.361 -7.5,-7.5Zm31.25,31.25c0,-4.139 3.361,-7.5 7.5,-7.5c4.14,0 7.5,3.361 7.5,7.5c0,4.139 -3.36,7.5 -7.5,7.5c-4.139,0 -7.5,-3.361 -7.5,-7.5Zm-267.5,7.5c-4.139,0 -7.5,-3.361 -7.5,-7.5c0,-4.139 3.361,-7.5 7.5,-7.5c4.14,0 7.5,3.361 7.5,7.5c0,4.139 -3.36,7.5 -7.5,7.5Zm31.25,-31.25c-4.139,0 -7.5,-3.361 -7.5,-7.5c0,-4.139 3.361,-7.5 7.5,-7.5c4.14,0 7.5,3.361 7.5,7.5c0,4.139 -3.36,7.5 -7.5,7.5Zm7.5,267.5c0,4.139 -3.36,7.5 -7.5,7.5c-4.139,0 -7.5,-3.361 -7.5,-7.5c0,-4.139 3.361,-7.5 7.5,-7.5c4.14,0 7.5,3.361 7.5,7.5Zm-31.25,-31.25c0,4.139 -3.36,7.5 -7.5,7.5c-4.139,0 -7.5,-3.361 -7.5,-7.5c0,-4.139 3.361,-7.5 7.5,-7.5c4.14,0 7.5,3.361 7.5,7.5Z" class="colorTwo" transform="matrix(1,0,0,1,-362,-430) matrix(1,0,0,1,362,430) matrix(0.8,0,0,0.8,-242.571,-303.4)"/>
        </pattern>
    </defs>
    <rect width="100%" height="100%" fill="url(#dynamicPattern)" />
</svg>