<svg width="1024" height="1024" xmlns="http://www.w3.org/2000/svg">
    <style>
        .colorOne {
            fill: hsl(29 100% 86%);
        }
        .colorTwo {
            fill: hsl(22 42% 94%);
        }
    </style>
    <defs>
        <pattern id="dynamicPattern" patternUnits="userSpaceOnUse" width="256" height="256">
            <path d="M58,1248L64,1248L93,1277L89,1281L33,1281L33,1337L29,1341L-0,1312L0,1306L29,1335L29,1280L-0,1251L-0,1248L3,1248L32,1277L87,1277L58,1248ZM0,1356L-0,1350L10,1360L-0,1370L0,1364L4,1360L0,1356ZM0,1388L0,1382L10,1392L-0,1402L0,1396L4,1392L0,1388ZM116,1248L122,1248L112,1258L102,1248L108,1248L112,1252L116,1248ZM148,1248L154,1248L144,1258L134,1248L140,1248L144,1252L148,1248ZM256,1306L256,1312L227,1341L223,1337L223,1281L167,1281L163,1277L192,1248L198,1248L169,1277L224,1277L253,1248L256,1248L256,1251L227,1280L227,1335L256,1306ZM256,1364L256,1370L246,1360L256,1350L256,1356L252,1360L256,1364ZM256,1396L256,1402L246,1392L256,1382L256,1388L252,1392L256,1396ZM198,1504L192,1504L163,1475L167,1471L223,1471L223,1415L227,1411L256,1440L256,1446L227,1417L227,1472L256,1501L256,1504L253,1504L224,1475L169,1475L198,1504ZM0,1446L-0,1440L29,1411L33,1415L33,1471L89,1471L93,1475L64,1504L58,1504L87,1475L32,1475L3,1504L-0,1504L0,1501L29,1472L29,1417L0,1446ZM108,1504L102,1504L112,1494L122,1504L116,1504L112,1500L108,1504ZM140,1504L134,1504L144,1494L154,1504L148,1504L144,1500L140,1504Z" class="colorTwo" transform="matrix(1,0,0,1,-336,-1248) matrix(1,0,0,1,336,1248) matrix(1,0,0,1,-5.68434e-13,-1248)"/>
            <path d="M96,1280L109,1293L98,1304L56,1304L56,1346L45,1357L32,1344L37,1339L37,1285L91,1285L96,1280ZM13,1363L26,1376L13,1389L-0,1376L13,1363ZM141,1261L128,1274L115,1261L128,1248L141,1261ZM224,1344L211,1357L200,1346L200,1304L158,1304L147,1293L160,1280L165,1285L219,1285L219,1339L224,1344ZM243,1389L230,1376L243,1363L256,1376L243,1389ZM160,1472L147,1459L158,1448L200,1448L200,1406L211,1395L224,1408L219,1413L219,1467L165,1467L160,1472ZM32,1408L45,1395L56,1406L56,1448L98,1448L109,1459L96,1472L91,1467L37,1467L37,1413L32,1408ZM115,1491L128,1478L141,1491L128,1504L115,1491Z" class="colorTwo" transform="matrix(1,0,0,1,-336,-1248) matrix(1,0,0,1,336,1248) matrix(1,0,0,1,-5.68434e-13,-1248)"/>
            <path d="M112,1296L115,1299L102,1312L64,1312L64,1350L-0,1414L-0,1408L60,1348L60,1308L100,1308L112,1296ZM-0,1344L-0,1338L32,1370L29,1373L-0,1344ZM208,1360L205,1363L192,1350L192,1312L154,1312L90,1248L96,1248L156,1308L196,1308L196,1348L208,1360ZM160,1248L166,1248L134,1280L131,1277L160,1248ZM256,1408L256,1414L224,1382L227,1379L256,1408ZM48,1392L51,1389L64,1402L64,1440L102,1440L166,1504L160,1504L100,1444L60,1444L60,1404L48,1392ZM144,1456L141,1453L154,1440L192,1440L192,1402L256,1338L256,1344L196,1404L196,1444L156,1444L144,1456ZM96,1504L90,1504L122,1472L125,1475L96,1504Z" class="colorTwo" transform="matrix(1,0,0,1,-336,-1248) matrix(1,0,0,1,336,1248) matrix(1,0,0,1,-5.68434e-13,-1248)"/>
            <path d="M115,1465L76,1504L70,1504L112,1462L115,1465ZM134,1446L131,1443L148,1426L178,1426L178,1396L256,1318L256,1324L182,1398L182,1430L150,1430L134,1446ZM39,1363L-0,1324L-0,1318L42,1360L39,1363ZM141,1287L180,1248L186,1248L144,1290L141,1287ZM217,1389L256,1428L256,1434L214,1392L217,1389ZM122,1306L125,1309L108,1326L78,1326L78,1356L-0,1434L-0,1428L74,1354L74,1322L106,1322L122,1306ZM198,1370L195,1373L178,1356L178,1326L148,1326L70,1248L76,1248L150,1322L182,1322L182,1354L198,1370ZM58,1382L61,1379L78,1396L78,1426L108,1426L186,1504L180,1504L106,1430L74,1430L74,1398L58,1382Z" class="colorTwo" transform="matrix(1,0,0,1,-336,-1248) matrix(1,0,0,1,336,1248) matrix(1,0,0,1,-5.68434e-13,-1248)"/>
            <path d="M128,1312L146,1330L174,1330L174,1358L192,1376L174,1394L174,1422L146,1422L128,1440L110,1422L82,1422L82,1394L64,1376L82,1358L82,1330L110,1330L128,1312ZM146,1378L160,1408L130,1394L130,1432L144,1418L170,1418L170,1392L184,1378L146,1378ZM130,1358L160,1344L146,1374L184,1374L170,1360L170,1334L144,1334L130,1320L130,1358ZM120,1376L116,1388L128,1384L140,1388L136,1376L140,1364L128,1368L116,1364L120,1376ZM110,1374L96,1344L126,1358L126,1320L112,1334L86,1334L86,1360L72,1374L110,1374ZM126,1394L96,1408L110,1378L72,1378L86,1392L86,1418L112,1418L126,1432L126,1394Z" class="colorTwo" transform="matrix(1,0,0,1,-336,-1248) matrix(1,0,0,1,336,1248) matrix(1,0,0,1,-5.68434e-13,-1248)"/>
            <path d="M120,1376L116,1364L128,1368L140,1364L136,1376L140,1388L128,1384L116,1388L120,1376Z" class="colorOne" transform="matrix(1,0,0,1,-336,-1248) matrix(1,0,0,1,336,1248) matrix(1,0,0,1,-5.68434e-13,-1248)"/>
            <path d="M130,1358L130,1320L144,1334L170,1334L170,1360L184,1374L146,1374L160,1344L130,1358ZM110,1374L72,1374L86,1360L86,1334L112,1334L126,1320L126,1358L96,1344L110,1374ZM126,1394L126,1432L112,1418L86,1418L86,1392L72,1378L110,1378L96,1408L126,1394ZM146,1378L184,1378L170,1392L170,1418L144,1418L130,1432L130,1394L160,1408L146,1378Z" class="colorOne" transform="matrix(1,0,0,1,-336,-1248) matrix(1,0,0,1,336,1248) matrix(1,0,0,1,-5.68434e-13,-1248)"/>
            <path d="M143,1290L185,1248L191,1248L146,1293L143,1290ZM41,1360L-1,1318L-1,1312L44,1357L41,1360ZM111,1462L69,1504L63,1504L108,1459L111,1462ZM213,1392L255,1434L255,1440L210,1395L213,1392ZM60,1379L-1,1440L-1,1434L77,1356L77,1326L107,1326L124,1309L63,1248L69,1248L147,1326L177,1326L177,1356L194,1373L255,1312L255,1318L177,1396L177,1426L147,1426L130,1443L191,1504L185,1504L107,1426L77,1426L77,1396L60,1379ZM127,1312L109,1330L81,1330L81,1358L63,1376L81,1394L81,1422L109,1422L127,1440L145,1422L173,1422L173,1394L191,1376L173,1358L173,1330L145,1330L127,1312Z" class="colorOne" transform="matrix(1,0,0,1,-336,-1248) matrix(1,0,0,1,336,1248) matrix(1,0,0,1,1,-1248)"/>
            <path d="M149,1284L181,1252L195,1252L156,1291L149,1284ZM47,1374L15,1342L15,1328L54,1367L47,1374ZM137,1476L105,1508L91,1508L130,1469L137,1476ZM239,1386L271,1418L271,1432L232,1393L239,1386ZM89,1358L15,1432L15,1418L79,1354L79,1316L117,1316L130,1303L137,1310L121,1326L89,1326L89,1358ZM165,1326L91,1252L105,1252L169,1316L207,1316L207,1354L220,1367L213,1374L197,1358L197,1326L165,1326ZM197,1402L271,1328L271,1342L207,1406L207,1444L169,1444L156,1457L149,1450L165,1434L197,1434L197,1402ZM121,1434L195,1508L181,1508L117,1444L79,1444L79,1406L66,1393L73,1386L89,1402L89,1434L121,1434Z" class="colorOne" transform="matrix(1,0,0,1,-336,-1248) matrix(1,0,0,1,336,1248) matrix(1,0,0,1,-15,-1252)"/>
            <path d="M147,1292L174,1319L216,1319L216,1361L227,1372L224,1375L212,1363L212,1323L172,1323L112,1263L118,1263L144,1289L170,1263L176,1263L147,1292ZM45,1388L72,1361L72,1319L114,1319L125,1308L128,1311L116,1323L76,1323L76,1363L16,1423L16,1417L42,1391L16,1365L16,1359L45,1388ZM141,1490L114,1463L72,1463L72,1421L61,1410L64,1407L76,1419L76,1459L116,1459L176,1519L170,1519L144,1493L118,1519L112,1519L141,1490ZM243,1394L216,1421L216,1463L174,1463L163,1474L160,1471L172,1459L212,1459L212,1419L272,1359L272,1365L246,1391L272,1417L272,1423L243,1394Z" class="colorOne" transform="matrix(1,0,0,1,-336,-1248) matrix(1,0,0,1,336,1248) matrix(1,0,0,1,-16,-1263)"/>
            <path d="M256,1376L243,1363L246,1360L256,1370L256,1376ZM256,1376L256,1382L246,1392L243,1389L256,1376ZM128,1248L134,1248L144,1258L141,1261L128,1248ZM128,1248L115,1261L112,1258L122,1248L128,1248ZM0,1376L0,1370L10,1360L13,1363L0,1376ZM0,1376L13,1389L10,1392L0,1382L0,1376ZM128,1504L141,1491L144,1494L134,1504L128,1504ZM128,1504L122,1504L112,1494L115,1491L128,1504ZM163,1277L167,1281L223,1281L223,1337L227,1341L224,1344L219,1339L219,1285L165,1285L160,1280L163,1277ZM29,1341L33,1337L33,1281L89,1281L93,1277L96,1280L91,1285L37,1285L37,1339L32,1344L29,1341ZM93,1475L89,1471L33,1471L33,1415L29,1411L32,1408L37,1413L37,1467L91,1467L96,1472L93,1475ZM227,1411L223,1415L223,1471L167,1471L163,1475L160,1472L165,1467L219,1467L219,1413L224,1408L227,1411Z" class="colorOne" transform="matrix(1,0,0,1,-336,-1248) matrix(1,0,0,1,336,1248) matrix(1,0,0,1,-5.68434e-13,-1248)"/>
            <path d="M505,1277L534,1248L589,1248L560,1277L505,1277ZM365,1335L336,1306L336,1251L365,1280L365,1335ZM423,1475L394,1504L339,1504L368,1475L423,1475ZM563,1417L592,1446L592,1501L563,1472L563,1417ZM563,1335L563,1280L592,1251L592,1306L563,1335ZM423,1277L368,1277L339,1248L394,1248L423,1277ZM365,1417L365,1472L336,1501L336,1446L365,1417ZM505,1475L560,1475L589,1504L534,1504L505,1475ZM588,1360L592,1356L592,1364L588,1360ZM448,1252L444,1248L452,1248L448,1252ZM340,1392L336,1396L336,1388L340,1392ZM480,1500L484,1504L476,1504L480,1500ZM480,1252L476,1248L484,1248L480,1252ZM340,1360L336,1364L336,1356L340,1360ZM448,1500L452,1504L444,1504L448,1500ZM588,1392L592,1388L592,1396L588,1392Z" class="colorOne" transform="matrix(1,0,0,1,-336,-1248) matrix(1,0,0,1,336,1248) matrix(1,0,0,1,-336,-1248)"/>
        </pattern>
    </defs>
    <rect width="100%" height="100%" fill="url(#dynamicPattern)" />
</svg>