<svg width="1024" height="1024" xmlns="http://www.w3.org/2000/svg">
    <style>
        .colorOne {
            fill: #caf8b5;
        }
        .colorTwo {
            fill: transparent;
        }
    </style>
    <defs>
        <pattern id="dynamicPattern" patternUnits="userSpaceOnUse" width="256" height="256">
            <path d="M128,478l17,17l0,46l46,0l17,17l-17,17l-46,0l0,46l-17,17l-17,-17l0,-46l-46,0l-17,-17l17,-17l46,0l0,-46l17,-17Zm8,80c0,-0 1.648,4.998 7.269,7.615c7.269,3.385 13.731,3.385 13.731,3.385c0,-0 -0.27,-2.685 -1.306,-5.861c8.507,-1.66 14.306,-5.139 14.306,-5.139c0,-0 -5.799,-3.479 -14.306,-5.139c1.036,-3.176 1.306,-5.861 1.306,-5.861c0,-0 -6.462,-0 -13.731,3.385c-5.621,2.617 -7.269,7.615 -7.269,7.615Zm-8,-6c-3.311,0 -6,2.689 -6,6c0,3.311 2.689,6 6,6c3.311,-0 6,-2.689 6,-6c0,-3.311 -2.689,-6 -6,-6Zm0,-2c0,0 4.998,-1.648 7.615,-7.269c3.385,-7.269 3.385,-13.731 3.385,-13.731c0,-0 -2.685,0.27 -5.861,1.306c-1.66,-8.507 -5.139,-14.306 -5.139,-14.306c0,0 -3.479,5.799 -5.139,14.306c-3.176,-1.036 -5.861,-1.306 -5.861,-1.306c0,-0 0,6.462 3.385,13.731c2.617,5.621 7.615,7.269 7.615,7.269Zm-8,8c0,0 -1.648,-4.998 -7.269,-7.615c-7.269,-3.385 -13.731,-3.385 -13.731,-3.385c-0,0 0.27,2.685 1.306,5.861c-8.507,1.66 -14.306,5.139 -14.306,5.139c0,0 5.799,3.479 14.306,5.139c-1.036,3.176 -1.306,5.861 -1.306,5.861c-0,0 6.462,0 13.731,-3.385c5.621,-2.617 7.269,-7.615 7.269,-7.615Zm8,8c0,-0 -4.998,1.648 -7.615,7.269c-3.385,7.269 -3.385,13.731 -3.385,13.731c0,0 2.685,-0.27 5.861,-1.306c1.66,8.507 5.139,14.306 5.139,14.306c0,-0 3.479,-5.799 5.139,-14.306c3.176,1.036 5.861,1.306 5.861,1.306c0,0 0,-6.462 -3.385,-13.731c-2.617,-5.621 -7.615,-7.269 -7.615,-7.269Z" class="colorTwo" transform="matrix(1,0,0,1,2.27374e-13,-430) matrix(1,0,0,1,0,430) matrix(1,0,0,1,0,-430)"/>
            <path d="M142,652l-10,-10l5.05,-4.95l13.95,-14.05l0,-42l42,0l63,-63l0,20l-57,57c0,0 -34,-0 -34,0l0,34l-23,23Zm80,-108l-10,10l-4.95,-5.05l-14.05,-13.95l-42,0l0,-42l-63,-63l20,0l57,57c0,0 -0,34 0,34l34,0l23,23Zm-108,-80l10,10l-5.05,4.95l-13.95,14.05l0,42l-42,0l-63,63l-0,-20l57,-57c-0,0 34,0 34,0l0,-34l23,-23Zm-80,108l10,-10l4.95,5.05l14.05,13.95l42,0l0,42l63,63l-20,0l-57,-57c0,0 0,-34 0,-34l-34,0l-23,-23Zm80,88l10,10l-16,16l-20,0l26,-26Zm116,-88l10,-10l16,16l0,20l-26,-26Zm-88,-116l-10,-10l16,-16l20,0l-26,26Zm-116,88l-10,10l-16,-16l0,-20l26,26Z" class="colorTwo" transform="matrix(1,0,0,1,2.27374e-13,-430) matrix(1,0,0,1,0,430) matrix(1,0,0,1,0,-430)"/>
            <path d="M204.339,637.571c5.842,6.234 -2.655,14.218 -4.896,18.447c-4.777,9.013 -7.443,19.283 -7.443,29.982l-16,0l-30,-30l25,-25l0,-30l30,0l25,-25l30,30l-0,16c-10.828,0 -21.215,2.731 -30.301,7.623c-4.449,2.395 -11.696,10.803 -18.158,4.719c14.098,-1.572 17.886,-19.312 10.918,-31.138c-0.557,2.132 -1.357,4.22 -2.556,6.008c-1.887,2.814 -4.606,2.859 -7.287,4.558c-2.85,1.805 -5.541,3.764 -7.147,6.796c-4.608,-10.145 -17.131,-13.846 -26.407,-11.56c1.917,1.164 3.773,2.564 5.251,4.272c2.286,2.64 1.813,5.462 2.819,8.411c1.291,3.785 2.98,7.833 6.636,10.245c-2.611,1.658 -4.333,4.054 -5.998,6.682c-1.699,2.681 -1.744,5.4 -4.558,7.287c-1.788,1.199 -3.876,1.999 -6.008,2.556c11.817,6.963 29.538,3.188 31.135,-10.888Zm0,-0l-0.012,-0.014c0.012,-0.012 0.015,-0.015 0.015,-0.016l-0.003,0.03Zm0,-159.142l0.003,0.03c-0,-0.001 -0.003,-0.004 -0.015,-0.016l0.012,-0.014Zm0,0c-1.597,-14.076 -19.318,-17.851 -31.135,-10.888c2.132,0.557 4.22,1.357 6.008,2.556c2.814,1.887 2.859,4.606 4.558,7.287c1.665,2.628 3.387,5.024 5.998,6.682c-3.656,2.412 -5.345,6.46 -6.636,10.245c-1.006,2.949 -0.533,5.771 -2.819,8.411c-1.478,1.708 -3.334,3.108 -5.251,4.272c9.276,2.286 21.799,-1.415 26.407,-11.56c1.606,3.032 4.297,4.991 7.147,6.796c2.681,1.699 5.4,1.744 7.287,4.558c1.199,1.788 1.999,3.876 2.556,6.008c6.968,-11.826 3.18,-29.566 -10.918,-31.138c6.462,-6.084 13.709,2.324 18.158,4.719c9.086,4.892 19.473,7.623 30.301,7.623l-0,16l-30,30l-25,-25l-30,-0l-0,-30l-25,-25l30,-30l16,-0c0,10.699 2.666,20.969 7.443,29.982c2.241,4.229 10.738,12.213 4.896,18.447Zm-155.91,155.91c-6.234,5.842 -14.218,-2.655 -18.447,-4.896c-9.013,-4.777 -19.283,-7.443 -29.982,-7.443l-0,-16l30,-30l25,25l30,-0l0,30l25,25l-30,30l-16,-0c-0,-10.828 -2.731,-21.215 -7.623,-30.301c-2.395,-4.449 -10.803,-11.696 -4.719,-18.158c1.572,14.098 19.312,17.886 31.138,10.918c-2.132,-0.557 -4.22,-1.357 -6.008,-2.556c-2.814,-1.887 -2.859,-4.606 -4.558,-7.287c-1.805,-2.85 -3.764,-5.541 -6.796,-7.147c10.145,-4.608 13.846,-17.131 11.56,-26.407c-1.164,1.917 -2.564,3.773 -4.272,5.251c-2.64,2.286 -5.462,1.813 -8.411,2.819c-3.785,1.291 -7.833,2.98 -10.245,6.636c-1.658,-2.611 -4.054,-4.333 -6.682,-5.998c-2.681,-1.699 -5.4,-1.744 -7.287,-4.558c-1.199,-1.788 -1.999,-3.876 -2.556,-6.008c-6.963,11.817 -3.188,29.538 10.888,31.135Zm0,0l0.014,-0.012c0.012,0.012 0.015,0.015 0.016,0.015l-0.03,-0.003Zm0,-152.678l0.03,-0.003c-0.001,0 -0.004,0.003 -0.016,0.015l-0.014,-0.012Zm0,-0c-14.076,1.597 -17.851,19.318 -10.888,31.135c0.557,-2.132 1.357,-4.22 2.556,-6.008c1.887,-2.814 4.606,-2.859 7.287,-4.558c2.628,-1.665 5.024,-3.387 6.682,-5.998c2.412,3.656 6.46,5.345 10.245,6.636c2.949,1.006 5.771,0.533 8.411,2.819c1.708,1.478 3.108,3.334 4.272,5.251c2.286,-9.276 -1.415,-21.799 -11.56,-26.407c3.032,-1.606 4.991,-4.297 6.796,-7.147c1.699,-2.681 1.744,-5.4 4.558,-7.287c1.788,-1.199 3.876,-1.999 6.008,-2.556c-11.826,-6.968 -29.566,-3.18 -31.138,10.918c-6.084,-6.462 2.324,-13.709 4.719,-18.158c4.892,-9.086 7.623,-19.473 7.623,-30.301l16,0l30,30l-25,25l-0,30l-30,0l-25,25l-30,-30l-0,-16c10.699,-0 20.969,-2.666 29.982,-7.443c4.229,-2.241 12.213,-10.738 18.447,-4.896Zm153.478,204.339c1.43,-0.561 2.933,-1.438 4.149,-2.807c1.949,-2.193 3.743,-6.593 1.915,-13.451c-1.67,-6.262 -0.811,-11.801 0.699,-16.069c-0.737,4.424 -1.665,8.327 2.071,14.796c2.56,4.433 2.936,7.84 2.264,10.531c-1,4 -5,7 -5,7l-6.098,0Zm18.098,0c-0,0 4.275,-2.803 3.805,-9.146c-0.3,-4.041 -1.985,-8.618 -7.805,-14.854c-4.288,-4.594 -2.131,-15.871 -1.76,-16.256c3.166,3.743 4.755,8.789 4.755,12.256l-0,1l1,0c9,0 25,18 25,18c-1.659,-0.726 -8.049,-3.063 -6.752,1.583c-1.917,-0.396 -12.559,-1.52 -6.172,3.585c-1.917,0.192 -7.076,0.697 -7.076,3.832l-4.995,0Zm24.995,-0c2,-0 9,0 4,-7c7,4 7,-2 7,-4l0,11l-11,-0Zm11,-31c-3.135,0 -3.64,5.159 -3.832,7.076c-5.105,-6.387 -3.981,4.255 -3.585,6.172c-4.646,-1.297 -2.309,5.093 -1.583,6.752c0,-0 -18,-16 -18,-25l0,-1l-1,-0c-3.467,0 -8.513,-1.589 -12.256,-4.755c0.385,-0.371 11.662,-2.528 16.256,1.76c6.236,5.82 10.813,7.505 14.854,7.805c6.343,0.47 9.146,-3.805 9.146,-3.805l0,4.995Zm0,-16.995c0,-0 -3,4 -7,5c-2.691,0.672 -6.098,0.296 -10.531,-2.264c-6.469,-3.736 -10.372,-2.808 -14.796,-2.071c4.268,-1.51 9.807,-2.369 16.069,-0.699c6.858,1.828 11.258,0.034 13.451,-1.915c1.369,-1.216 2.246,-2.719 2.807,-4.149l0,6.098Zm-24,23.995c-6,-5 -11,-5 -11,-5c-0,0 0,-5 -2,-8c3,2 8,2 8,2c-0,0 -0,5 5,11Zm-30.093,-232l6.098,-0c-0,-0 4,3 5,7c0.672,2.691 0.296,6.098 -2.264,10.531c-3.736,6.469 -2.808,10.372 -2.071,14.796c-1.51,-4.268 -2.369,-9.807 -0.699,-16.069c1.828,-6.858 0.034,-11.258 -1.915,-13.451c-1.216,-1.369 -2.719,-2.246 -4.149,-2.807Zm18.098,-0l4.995,-0c0,3.135 5.159,3.64 7.076,3.832c-6.387,5.105 4.255,3.981 6.172,3.585c-1.297,4.646 5.093,2.309 6.752,1.583c0,0 -16,18 -25,18l-1,-0l0,1c-0,3.467 -1.589,8.513 -4.755,12.256c-0.371,-0.385 -2.528,-11.662 1.76,-16.256c5.82,-6.236 7.505,-10.813 7.805,-14.854c0.47,-6.343 -3.805,-9.146 -3.805,-9.146Zm24.995,0l11,-0l-0,11c-0,-2 -0,-8 -7,-4c5,-7 -2,-7 -4,-7Zm11,31l-0,4.995c-0,0 -2.803,-4.275 -9.146,-3.805c-4.041,0.3 -8.618,1.985 -14.854,7.805c-4.594,4.288 -15.871,2.131 -16.256,1.76c3.743,-3.166 8.789,-4.755 12.256,-4.755l1,-0l-0,-1c-0,-9 18,-25 18,-25c-0.726,1.659 -3.063,8.049 1.583,6.752c-0.396,1.917 -1.52,12.559 3.585,6.172c0.192,1.917 0.697,7.076 3.832,7.076Zm-0,16.995l-0,6.098c-0.561,-1.43 -1.438,-2.933 -2.807,-4.149c-2.193,-1.949 -6.593,-3.743 -13.451,-1.915c-6.262,1.67 -11.801,0.811 -16.069,-0.699c4.424,0.737 8.327,1.665 14.796,-2.071c4.433,-2.56 7.84,-2.936 10.531,-2.264c4,1 7,5 7,5Zm-24,-23.995c-5,6 -5,11 -5,11c-0,-0 -5,-0 -8,2c2,-3 2,-8 2,-8c-0,-0 5,-0 11,-5Zm-232,177.907c0.561,1.43 1.438,2.933 2.807,4.149c2.193,1.949 6.593,3.743 13.451,1.915c6.262,-1.67 11.801,-0.811 16.069,0.699c-4.424,-0.737 -8.327,-1.665 -14.796,2.071c-4.433,2.56 -7.84,2.936 -10.531,2.264c-4,-1 -7,-5 -7,-5l0,-6.098Zm0,18.098c0,-0 2.803,4.275 9.146,3.805c4.041,-0.3 8.618,-1.985 14.854,-7.805c4.594,-4.288 15.871,-2.131 16.256,-1.76c-3.743,3.166 -8.789,4.755 -12.256,4.755l-1,-0l0,1c0,9 -18,25 -18,25c0.726,-1.659 3.063,-8.049 -1.583,-6.752c0.396,-1.917 1.52,-12.559 -3.585,-6.172c-0.192,-1.917 -0.697,-7.076 -3.832,-7.076l0,-4.995Zm0,24.995c0,2 0,9 7,4c-4,7 2,7 4,7l-11,0l0,-11Zm31,11c0,-3.135 -5.159,-3.64 -7.076,-3.832c6.387,-5.105 -4.255,-3.981 -6.172,-3.585c1.297,-4.646 -5.093,-2.309 -6.752,-1.583c0,-0 16,-18 25,-18l1,-0l0,-1c0,-3.467 1.589,-8.513 4.755,-12.256c0.371,0.385 2.528,11.662 -1.76,16.256c-5.82,6.236 -7.505,10.813 -7.805,14.854c-0.47,6.343 3.805,9.146 3.805,9.146l-4.995,-0Zm16.995,-0c0,-0 -4,-3 -5,-7c-0.672,-2.691 -0.296,-6.098 2.264,-10.531c3.736,-6.469 2.808,-10.372 2.071,-14.796c1.51,4.268 2.369,9.807 0.699,16.069c-1.828,6.858 -0.034,11.258 1.915,13.451c1.216,1.369 2.719,2.246 4.149,2.807l-6.098,-0Zm-23.995,-24c5,-6 5,-11 5,-11c-0,-0 5,-0 8,-2c-2,3 -2,8 -2,8c0,-0 -5,-0 -11,5Zm-24,-177.907l-0,-6.098c-0,0 3,-4 7,-5c2.691,-0.672 6.098,-0.296 10.531,2.264c6.469,3.736 10.372,2.808 14.796,2.071c-4.268,1.51 -9.807,2.369 -16.069,0.699c-6.858,-1.828 -11.258,-0.034 -13.451,1.915c-1.369,1.216 -2.246,2.719 -2.807,4.149Zm-0,-18.098l-0,-4.995c3.135,-0 3.64,-5.159 3.832,-7.076c5.105,6.387 3.981,-4.255 3.585,-6.172c4.646,1.297 2.309,-5.093 1.583,-6.752c0,-0 18,16 18,25l-0,1l1,-0c3.467,0 8.513,1.589 12.256,4.755c-0.385,0.371 -11.662,2.528 -16.256,-1.76c-6.236,-5.82 -10.813,-7.505 -14.854,-7.805c-6.343,-0.47 -9.146,3.805 -9.146,3.805Zm0,-24.995l-0,-11l11,0c-2,0 -8,-0 -4,7c-7,-5 -7,2 -7,4Zm31,-11l4.995,-0c0,-0 -4.275,2.803 -3.805,9.146c0.3,4.041 1.985,8.618 7.805,14.854c4.288,4.594 2.131,15.871 1.76,16.256c-3.166,-3.743 -4.755,-8.789 -4.755,-12.256l-0,-1l-1,-0c-9,-0 -25,-18 -25,-18c1.659,0.726 8.049,3.063 6.752,-1.583c1.917,0.396 12.559,1.52 6.172,-3.585c1.917,-0.192 7.076,-0.697 7.076,-3.832Zm16.995,-0l6.098,0c-1.43,0.561 -2.933,1.438 -4.149,2.807c-1.949,2.193 -3.743,6.593 -1.915,13.451c1.67,6.262 0.811,11.801 -0.699,16.069c0.737,-4.424 1.665,-8.327 -2.071,-14.796c-2.56,-4.433 -2.936,-7.84 -2.264,-10.531c1,-4 5,-7 5,-7Zm-23.995,24c6,5 11,5 11,5c-0,-0 -0,5 2,8c-3,-2 -8,-2 -8,-2c-0,-0 -0,-5 -5,-11Z" class="colorTwo" transform="matrix(1,0,0,1,2.27374e-13,-430) matrix(1,0,0,1,0,430) matrix(1,0,0,1,0,-430)"/>
            <path d="M244,558l12,-12l0,24l-12,-12Zm-116,116l12,12l-24,0l12,-12Zm-116,-116l-12,12l-0,-24l12,12Zm116,-116l-12,-12l24,-0l-12,12Z" class="colorTwo" transform="matrix(1,0,0,1,2.27374e-13,-430) matrix(1,0,0,1,0,430) matrix(1,0,0,1,0,-430)"/>
            <path d="M102,648l-25,-25l0,-30l-30,0l-25,-25l-30,30l-0,-8l63,-63l42,0l0,-42l19,-19l-10,-10l-23,23l0,34l-34,0l-57,57l-0,-8l12,-12l-12,-12l0,-8l16,16l10,-10l-26,-26l0,-8l30,30l25,-25l30,0l0,-30l25,-25l-30,-30l8,0l63,63l0,42l42,0l19,19l10,-10l-23,-23l-34,0l0,-34l-57,-57l8,0l12,12l12,-12l8,0l-16,16l10,10l26,-26l8,0l-30,30l25,25l0,30l30,0l25,25l30,-30l0,8l-63,63l-42,0l0,42l-19,19l10,10l23,-23l0,-34l34,0l57,-57l0,8l-12,12l12,12l0,8l-16,-16l-10,10l26,26l0,8l-30,-30l-25,25l-30,0l0,30l-25,25l30,30l-8,0l-63,-63l0,-42l-42,0l-19,-19l-10,10l23,23l34,0l0,34l57,57l-8,0l-12,-12l-12,12l-8,0l16,-16l-10,-10l-26,26l-8,0l30,-30Zm98,-98l-17,-17l-46,0l0,-46l-17,-17l-17,17l0,46l-46,0l-17,17l17,17l46,0l0,46l17,17l17,-17l0,-46l46,0l17,-17Z" class="colorOne" transform="matrix(1,0,0,1,2.27374e-13,-430) matrix(1,0,0,1,0,430) matrix(1,0,0,1,8,-422)"/>
            <circle cx="128.5" cy="556.5" r="8.5" class="colorOne" transform="matrix(1,0,0,1,2.27374e-13,-430) matrix(1,0,0,1,0,430) matrix(0.705882,0,0,0.705882,37.2941,-264.824)"/>
            <path d="M128.5,540c0,-0 -7.914,-1.891 -12.058,-8.338c-5.359,-8.338 -5.359,-15.75 -5.359,-15.75c0,-0 4.252,0.309 9.28,1.497c2.628,-9.757 8.137,-16.409 8.137,-16.409c-0,0 5.509,6.652 8.137,16.409c5.028,-1.188 9.28,-1.497 9.28,-1.497c-0,-0 -0,7.412 -5.359,15.75c-4.144,6.447 -12.058,8.338 -12.058,8.338Zm-12.667,9.176c0,0 -2.609,5.734 -11.509,8.736c-11.51,3.882 -21.741,3.882 -21.741,3.882c0,0 0.428,-3.08 2.068,-6.723c-13.469,-1.903 -22.651,-5.895 -22.651,-5.895c-0,0 9.182,-3.991 22.651,-5.894c-1.64,-3.643 -2.068,-6.723 -2.068,-6.723c0,-0 10.231,-0 21.741,3.882c8.9,3.002 11.509,8.735 11.509,8.735Zm12.667,9.177c0,-0 7.914,1.891 12.058,8.338c5.359,8.338 5.359,15.75 5.359,15.75c-0,0 -4.252,-0.309 -9.28,-1.498c-2.628,9.758 -8.137,16.41 -8.137,16.41c0,-0 -5.509,-6.652 -8.137,-16.41c-5.028,1.189 -9.28,1.498 -9.28,1.498c0,0 0,-7.412 5.359,-15.75c4.144,-6.447 12.058,-8.338 12.058,-8.338Zm12.667,-9.177c-0,0 2.609,-5.733 11.509,-8.735c11.51,-3.882 21.741,-3.882 21.741,-3.882c-0,-0 -0.428,3.08 -2.068,6.723c13.469,1.903 22.651,5.894 22.651,5.894c0,0 -9.182,3.992 -22.651,5.895c1.64,3.643 2.068,6.723 2.068,6.723c-0,0 -10.231,0 -21.741,-3.882c-8.9,-3.002 -11.509,-8.736 -11.509,-8.736Z" class="colorOne" transform="matrix(1,0,0,1,2.27374e-13,-430) matrix(1,0,0,1,0,430) matrix(0.631579,0,0,0.871795,46.8421,-350.769)"/>
            <path d="M204.339,637.571c-1.597,14.076 -19.318,17.851 -31.135,10.888c2.132,-0.557 4.22,-1.357 6.008,-2.556c2.814,-1.887 2.859,-4.606 4.558,-7.287c1.665,-2.628 3.387,-5.024 5.998,-6.682c-3.656,-2.412 -5.345,-6.46 -6.636,-10.245c-1.006,-2.949 -0.533,-5.771 -2.819,-8.411c-1.478,-1.708 -3.334,-3.108 -5.251,-4.272c9.276,-2.286 21.799,1.415 26.407,11.56c1.606,-3.032 4.297,-4.991 7.147,-6.796c2.681,-1.699 5.4,-1.744 7.287,-4.558c1.199,-1.788 1.999,-3.876 2.556,-6.008c6.968,11.826 3.18,29.566 -10.918,31.138c6.462,6.084 13.709,-2.324 18.158,-4.719c9.086,-4.892 19.473,-7.623 30.301,-7.623l-0,9.907c-0.561,1.43 -1.438,2.933 -2.807,4.149c-2.193,1.949 -6.593,3.743 -13.451,1.915c-6.262,-1.67 -11.801,-0.811 -16.069,0.699c4.424,-0.737 8.327,-1.665 14.796,2.071c4.433,2.56 7.84,2.936 10.531,2.264c4,-1 7,-5 7,-5l0,12c0,-0 -2.803,4.275 -9.146,3.805c-4.041,-0.3 -8.618,-1.985 -14.854,-7.805c-4.594,-4.288 -15.871,-2.131 -16.256,-1.76c3.743,3.166 8.789,4.755 12.256,4.755l1,0l0,1c0,9 18,25 18,25c-0.726,-1.659 -3.063,-8.049 1.583,-6.752c-0.396,-1.917 -1.52,-12.559 3.585,-6.172c0.192,-1.917 0.697,-7.076 3.832,-7.076l-0,20c-0,2 0,8 -7,4c5,7 -2,7 -4,7l-20,0c0,-3.135 5.159,-3.64 7.076,-3.832c-6.387,-5.105 4.255,-3.981 6.172,-3.585c-1.297,-4.646 5.093,-2.309 6.752,-1.583c0,0 -16,-18 -25,-18l-1,0l0,-1c0,-3.467 -1.589,-8.513 -4.755,-12.256c-0.371,0.385 -2.528,11.662 1.76,16.256c5.82,6.236 7.505,10.813 7.805,14.854c0.47,6.343 -3.805,9.146 -3.805,9.146l-12,0c-0,0 4,-3 5,-7c0.672,-2.691 0.296,-6.098 -2.264,-10.531c-3.736,-6.469 -2.808,-10.372 -2.071,-14.796c-1.51,4.268 -2.369,9.807 -0.699,16.069c1.828,6.858 0.034,11.258 -1.915,13.451c-1.216,1.369 -2.719,2.246 -4.149,2.807l-9.907,0c0,-10.699 2.666,-20.969 7.443,-29.982c2.241,-4.229 10.738,-12.213 4.896,-18.447l0.003,-0.03c-0,0.001 -0.003,0.004 -0.015,0.016l0.012,0.014Zm27.661,24.429c-5,-6 -5,-11 -5,-11c0,0 -5,0 -8,-2c2,3 2,8 2,8c0,0 5,0 11,5Zm-27.661,-183.571c5.842,-6.234 -2.655,-14.218 -4.896,-18.447c-4.777,-9.013 -7.443,-19.283 -7.443,-29.982l9.907,-0c1.43,0.561 2.933,1.438 4.149,2.807c1.949,2.193 3.743,6.593 1.915,13.451c-1.67,6.262 -0.811,11.801 0.699,16.069c-0.737,-4.424 -1.665,-8.327 2.071,-14.796c2.56,-4.433 2.936,-7.84 2.264,-10.531c-1,-4 -5,-7 -5,-7l12,-0c-0,-0 4.275,2.803 3.805,9.146c-0.3,4.041 -1.985,8.618 -7.805,14.854c-4.288,4.594 -2.131,15.871 -1.76,16.256c3.166,-3.743 4.755,-8.789 4.755,-12.256l-0,-1l1,-0c9,-0 25,-18 25,-18c-1.659,0.726 -8.049,3.063 -6.752,-1.583c-1.917,0.396 -12.559,1.52 -6.172,-3.585c-1.917,-0.192 -7.076,-0.697 -7.076,-3.832l20,0c2,0 9,-0 4,7c7,-4 7,2 7,4l0,20c-3.135,-0 -3.64,-5.159 -3.832,-7.076c-5.105,6.387 -3.981,-4.255 -3.585,-6.172c-4.646,1.297 -2.309,-5.093 -1.583,-6.752c0,0 -18,16 -18,25l-0,1l-1,0c-3.467,-0 -8.513,1.589 -12.256,4.755c0.385,0.371 11.662,2.528 16.256,-1.76c6.236,-5.82 10.813,-7.505 14.854,-7.805c6.343,-0.47 9.146,3.805 9.146,3.805l0,12c0,0 -3,-4 -7,-5c-2.691,-0.672 -6.098,-0.296 -10.531,2.264c-6.469,3.736 -10.372,2.808 -14.796,2.071c4.268,1.51 9.807,2.369 16.069,0.699c6.858,-1.828 11.258,-0.034 13.451,1.915c1.369,1.216 2.246,2.719 2.807,4.149l-0,9.907c-10.828,-0 -21.215,-2.731 -30.301,-7.623c-4.449,-2.395 -11.696,-10.803 -18.158,-4.719c14.098,1.572 17.886,19.312 10.918,31.138c-0.557,-2.132 -1.357,-4.22 -2.556,-6.008c-1.887,-2.814 -4.606,-2.859 -7.287,-4.558c-2.85,-1.805 -5.541,-3.764 -7.147,-6.796c-4.608,10.145 -17.131,13.846 -26.407,11.56c1.917,-1.164 3.773,-2.564 5.251,-4.272c2.286,-2.64 1.813,-5.462 2.819,-8.411c1.291,-3.785 2.98,-7.833 6.636,-10.245c-2.611,-1.658 -4.333,-4.054 -5.998,-6.682c-1.699,-2.681 -1.744,-5.4 -4.558,-7.287c-1.788,-1.199 -3.876,-1.999 -6.008,-2.556c11.817,-6.963 29.538,-3.188 31.135,10.888l-0.012,0.014c0.012,0.012 0.015,0.015 0.015,0.016l-0.003,-0.03Zm27.661,-24.429c-6,5 -11,5 -11,5c-0,-0 0,5 -2,8c3,-2 8,-2 8,-2c-0,-0 0,-5 5,-11Zm-183.571,180.339c-14.076,-1.597 -17.851,-19.318 -10.888,-31.135c0.557,2.132 1.357,4.22 2.556,6.008c1.887,2.814 4.606,2.859 7.287,4.558c2.628,1.665 5.024,3.387 6.682,5.998c2.412,-3.656 6.46,-5.345 10.245,-6.636c2.949,-1.006 5.771,-0.533 8.411,-2.819c1.708,-1.478 3.108,-3.334 4.272,-5.251c2.286,9.276 -1.415,21.799 -11.56,26.407c3.032,1.606 4.991,4.297 6.796,7.147c1.699,2.681 1.744,5.4 4.558,7.287c1.788,1.199 3.876,1.999 6.008,2.556c-11.826,6.968 -29.566,3.18 -31.138,-10.918c-6.084,6.462 2.324,13.709 4.719,18.158c4.892,9.086 7.623,19.473 7.623,30.301l-9.907,-0c-1.43,-0.561 -2.933,-1.438 -4.149,-2.807c-1.949,-2.193 -3.743,-6.593 -1.915,-13.451c1.67,-6.262 0.811,-11.801 -0.699,-16.069c0.737,4.424 1.665,8.327 -2.071,14.796c-2.56,4.433 -2.936,7.84 -2.264,10.531c1,4 5,7 5,7l-12,-0c0,-0 -4.275,-2.803 -3.805,-9.146c0.3,-4.041 1.985,-8.618 7.805,-14.854c4.288,-4.594 2.131,-15.871 1.76,-16.256c-3.166,3.743 -4.755,8.789 -4.755,12.256l0,1l-1,-0c-9,-0 -25,18 -25,18c1.659,-0.726 8.049,-3.063 6.752,1.583c1.917,-0.396 12.559,-1.52 6.172,3.585c1.917,0.192 7.076,0.697 7.076,3.832l-20,-0c-2,-0 -8,-0 -4,-7c-7,5 -7,-2 -7,-4l0,-20c3.135,-0 3.64,5.159 3.832,7.076c5.105,-6.387 3.981,4.255 3.585,6.172c4.646,-1.297 2.309,5.093 1.583,6.752c0,-0 18,-16 18,-25l0,-1l1,-0c3.467,-0 8.513,-1.589 12.256,-4.755c-0.385,-0.371 -11.662,-2.528 -16.256,1.76c-6.236,5.82 -10.813,7.505 -14.854,7.805c-6.343,0.47 -9.146,-3.805 -9.146,-3.805l0,-12c0,-0 3,4 7,5c2.691,0.672 6.098,0.296 10.531,-2.264c6.469,-3.736 10.372,-2.808 14.796,-2.071c-4.268,-1.51 -9.807,-2.369 -16.069,-0.699c-6.858,1.828 -11.258,0.034 -13.451,-1.915c-1.369,-1.216 -2.246,-2.719 -2.807,-4.149l0,-9.907c10.699,0 20.969,2.666 29.982,7.443c4.229,2.241 12.213,10.738 18.447,4.896l0.03,0.003c-0.001,-0 -0.004,-0.003 -0.016,-0.015l-0.014,0.012Zm-24.429,27.661c6,-5 11,-5 11,-5c0,-0 0,-5 2,-8c-3,2 -8,2 -8,2c0,-0 0,5 -5,11Zm24.429,-180.339c-6.234,-5.842 -14.218,2.655 -18.447,4.896c-9.013,4.777 -19.283,7.443 -29.982,7.443l-0,-9.907c0.561,-1.43 1.438,-2.933 2.807,-4.149c2.193,-1.949 6.593,-3.743 13.451,-1.915c6.262,1.67 11.801,0.811 16.069,-0.699c-4.424,0.737 -8.327,1.665 -14.796,-2.071c-4.433,-2.56 -7.84,-2.936 -10.531,-2.264c-4,1 -7,5 -7,5l-0,-12c-0,0 2.803,-4.275 9.146,-3.805c4.041,0.3 8.618,1.985 14.854,7.805c4.594,4.288 15.871,2.131 16.256,1.76c-3.743,-3.166 -8.789,-4.755 -12.256,-4.755l-1,-0l0,-1c-0,-9 -18,-25 -18,-25c0.726,1.659 3.063,8.049 -1.583,6.752c0.396,1.917 1.52,12.559 -3.585,6.172c-0.192,1.917 -0.697,7.076 -3.832,7.076l0,-20c0,-2 0,-9 7,-4c-4,-7 2,-7 4,-7l20,-0c0,3.135 -5.159,3.64 -7.076,3.832c6.387,5.105 -4.255,3.981 -6.172,3.585c1.297,4.646 -5.093,2.309 -6.752,1.583c0,-0 16,18 25,18l1,-0l0,1c-0,3.467 1.589,8.513 4.755,12.256c0.371,-0.385 2.528,-11.662 -1.76,-16.256c-5.82,-6.236 -7.505,-10.813 -7.805,-14.854c-0.47,-6.343 3.805,-9.146 3.805,-9.146l12,-0c0,-0 -4,3 -5,7c-0.672,2.691 -0.296,6.098 2.264,10.531c3.736,6.469 2.808,10.372 2.071,14.796c1.51,-4.268 2.369,-9.807 0.699,-16.069c-1.828,-6.858 -0.034,-11.258 1.915,-13.451c1.216,-1.369 2.719,-2.246 4.149,-2.807l9.907,0c-0,10.828 -2.731,21.215 -7.623,30.301c-2.395,4.449 -10.803,11.696 -4.719,18.158c1.572,-14.098 19.312,-17.886 31.138,-10.918c-2.132,0.557 -4.22,1.357 -6.008,2.556c-2.814,1.887 -2.859,4.606 -4.558,7.287c-1.805,2.85 -3.764,5.541 -6.796,7.147c10.145,4.608 13.846,17.131 11.56,26.407c-1.164,-1.917 -2.564,-3.773 -4.272,-5.251c-2.64,-2.286 -5.462,-1.813 -8.411,-2.819c-3.785,-1.291 -7.833,-2.98 -10.245,-6.636c-1.658,2.611 -4.054,4.333 -6.682,5.998c-2.681,1.699 -5.4,1.744 -7.287,4.558c-1.199,1.788 -1.999,3.876 -2.556,6.008c-6.963,-11.817 -3.188,-29.538 10.888,-31.135l0.014,0.012c0.012,-0.012 0.015,-0.015 0.016,-0.015l-0.03,0.003Zm-24.429,-27.661c5,6 5,11 5,11c0,0 5,-0 8,2c-2,-3 -2,-8 -2,-8c0,-0 -5,0 -11,-5Z" class="colorOne" transform="matrix(1,0,0,1,2.27374e-13,-430) matrix(1,0,0,1,0,430) matrix(1,0,0,1,0,-430)"/>
        </pattern>
    </defs>
    <rect width="100%" height="100%" fill="url(#dynamicPattern)" />
</svg>