<svg width="48" height="48" viewBox="0 0 48 48" fill="none" xmlns="http://www.w3.org/2000/svg"><path fill-rule="evenodd" clip-rule="evenodd" d="M4.486 2.705C19.63 8.385 34.805 28.1 36.876 30.861L48 36s-1.723 2.413-6.922 2.21C43.563 44.24 40 48 40 48l-6.935-12.779C12.812 31.034 5.275 23.169 2.71 16.496-.013 9.418 2.74 3.428 2.74 3.428l.535-1.176 1.21.453Z" fill="#F8F8F6"/><path fill-rule="evenodd" clip-rule="evenodd" d="M38 36c4 4 2 10 2 10l-6-12C-6 26 4 4 4 4c16 6 32 28 32 28l10 4c-4 2-8 0-8 0ZM13.562 14.437l-4.355-3.842A2.001 2.001 0 0 0 7 7.268a2 2 0 0 0-.733.733l-1.52-1.342c-.577 2.648-.89 7.52 2.634 12.453 3.68 5.154 11.377 10.264 26.618 13.358l-19.5-17.206c-.881.983-2.28 1.996-4.5 2.736l3.563-3.563ZM8 8a1 1 0 0 1 0 2 1 1 0 0 1 0-2Z" fill="#23252F"/></svg>