<svg width="48" height="48" viewBox="0 0 48 48" fill="none" xmlns="http://www.w3.org/2000/svg"><path fill-rule="evenodd" clip-rule="evenodd" d="m31.09 31.21-.09.204a6.473 6.473 0 0 1-6 4.053 6.431 6.431 0 0 1-3.707-1.169l-.486-.34-2.584 4.692 4.46-.981 1.07 4.317L9.4 45.685l5.1-10.198-.695-.13a6.472 6.472 0 0 1-5.22-7.17l.047-.376-.34-.169c-2.446-1.21-3.931-2.931-4.224-4.866-.223-1.477.217-3.006 1.302-4.47 1.194-1.61 3.227-3.18 5.877-4.498l.275-.137.482-7.64c1.399-.535 7.115-2.689 11.103-3.672 5.302-1.308 10.035.282 10.035.282l.747.25c.375 1.41 2.075 8.164 2.075 8.164l.352.11c3.769 1.177 6.121 3.294 6.493 5.753.278 1.838-.487 3.778-2.24 5.56-.556.564-1.22 1.119-1.976 1.653l-.597.421.583.44c.599.451 1.164 1.117 1.477 2.145l.005.015v.004c.038.145.225.925.258 1.944l-.014 2.149-4.875.038-.074-2.2-.743.372c-1.713.856-3.521 1.751-3.521 1.751Z" fill="#F8F8F6"/><path fill-rule="evenodd" clip-rule="evenodd" d="M10.44 26.949c-2.804-.968-4.633-2.482-4.922-4.392-.423-2.8 2.566-5.767 7.408-7.918l.51-7.67s5.523-2.076 10.021-3.186c4.872-1.201 9.22.25 9.22.25l1.789 6.62s.688 4.5-8.805 7.253c-10.036 2.912-12.164-.711-12.615-2.433-.037.892-.064 1.767-.094 2.605-.165 4.628 4.543 6.19 11.186 4.414 6.693-1.79 12.254-5.322 11.552-7.692-.241-.812-.488-1.65-.745-2.496 3.637.911 6.075 2.603 6.413 4.833.543 3.593-4.535 7.462-11.936 9.527.21.399.37.828.466 1.281l3.516-1.758.036-.017a6.64 6.64 0 0 1 1.798-.544c.782-.108 1.629-.021 2.303.428.705.47 1.31 1.35 1.31 3.028v1h-2v-1c0-.726-.115-1.16-.42-1.364-.266-.177-.61-.154-.92-.11a4.451 4.451 0 0 0-1.209.366l-.005.003-4.441 2.22a5.002 5.002 0 0 1-9.342 1.01l-4.647 9.295 5.89-1.472.486 1.94-10.11 2.528 4.984-9.968a5.002 5.002 0 0 1-6.677-6.582Zm11.737 1.034A3.002 3.002 0 0 0 25 32a3.001 3.001 0 0 0 2.38-4.826 41.196 41.196 0 0 1-5.203.809Zm-9.776-.482a3.002 3.002 0 0 0 2.599 4.5 3.002 3.002 0 0 0 2.873-3.867c-1.995-.048-3.844-.265-5.472-.633Z" fill="#23252F"/></svg>