<svg width="400" height="520" viewBox="0 0 400 520" fill="none" xmlns="http://www.w3.org/2000/svg"><path d="m149.441 123.803 8.491 8.506 3.639-15.798 6.065 15.798 6.065-13.367 9.704 12.152 7.278-12.152 12.13 12.152 9.704-14.583 8.491 15.798 9.704-15.798 4.852 15.798 8.491-15.798 1.213 17.013 8.491-9.721m-98.251-17.012 7.278 9.721 7.278-13.366 3.639 15.797 8.491-10.937 8.491 9.722 10.917-8.507 10.917 7.291 8.491-7.291 9.704 7.291 4.852-10.936 7.278 10.936 6.065-10.936m-84.912-8.508 6.065 6.076 7.278-9.722 4.852 13.367 9.704-8.506 9.704 9.721 9.704-8.506 9.704 8.506 3.639-14.582 12.13 12.152 4.852-8.506m-83.696 35.242 7.278 9.721 2.426-8.506 9.704 10.936 6.065-12.151 10.917 12.151 8.491-12.151 10.917 13.367 7.278-13.367 6.065 13.367 8.491-12.152 4.852 10.936 4.852-12.151m-94.614 8.504 14.556 2.431 8.491 9.721 2.426-8.506 10.917 7.291 6.065-6.076 10.917 7.291 10.917-6.076 6.065 4.861 6.065-4.861 8.911 5.408 4.432-6.623 12.13-3.646m-88.55 12.154h9.704l14.556 4.861-1.213-7.291 13.343 7.291 3.639-6.076 7.278 7.291m0 0 9.704-8.506 1.213 7.291 14.556-6.076h13.343m-38.816 7.291 6.065 4.86m-47.305-77.772 7.278 6.076 2.426-6.076 12.13 10.937 8.491-4.861 10.917 6.076 10.917-9.721 2.426 3.645 6.065-6.076m-50.199 81.097c-26.158-7.248-69.62 13.574-69.62 13.574s6.935-2.653 27.474-15.502c8.533-5.338-10.095-.837-27.333 1.499-15.318 2.076-40.439-7.814-40.439-7.814s29.537 9.33 46.179.176c13.864-7.626-1.246-18.347-1.246-18.347s21.385 21.51 44.206 16.837m61.274 10.817c38.292-2.256 51.807 25.049 51.807 25.049s-9.485-17.087 23.748-3.442c25.404 10.43 34.881 7.598 34.881 7.598s-14.7 3.01-44.663-14.988c-11.008-6.612-15.228-8.434-12.454-11.822 7.692-9.396 28.221-1.04 28.221-1.04s-14.269-8.585-25.002-6.995c-25.904 3.835-35.424 1.632-42.347-1.355m-49.975 14.968c-1.784 9.155-30.882 26.312-30.882 26.312s24.67-11.557 24.897-7.657c.292 5.002-3.904 8.675-11.944 17.527-12.461 13.72-13.003 29.694-13.003 29.694s1.734-15.749 18.288-24.984c9.77-5.451 9.288-19.628 16.128-26.629 6.118-6.263 4.495 18.519 4.495 18.519s1.526-33.43 16.888-42.89m3.639 8.507c20.344 6.843 41.72 27.871 41.72 27.871s-9.886-10.208-21.147-26.458m21.881-19.594c26.516-11.602 52.639-13.415 52.639-13.415s-35.096 4.016-46.064 3.423m-107.253 28.173c-13.631 4.226-25.473 23.089-25.473 23.089s10.917-17.013 36.39-23.089m35.176 32.81c7.127 78.968 20.471 164.031 67.778 264.891m-55.647-283.119c-2.426 55.899 23.047 239.391 97.04 322.024M195.665 319.457c-13.68-17.323-47.42-8.285-47.42-8.285s44.191-19.17-63.443-12.057c-.873.058 27.269-3.691 20.455-10.285-5.586-5.406-19.044 9.33-41.939-7.053-25.473-18.227-58.224-9.721-58.224-9.721s33.087-8.418 52.16-4.861c13.171 2.457 26.685 9.721 34.529 9.386 17.377-.743-17.265-13.031-17.265-13.031s23.277 2.024 33.644 7.245c9.574 4.822 21.091 17.683 32.572 16.483 30.758-3.216-9.286-17.959-9.286-17.959s18.984 5.443 27.967 13.61c14.603 13.275 32.651 18.228 46.209 33.67 4.926 5.61 9.511 18.066 11.254 25.108m35.096 25.069c.383-14.838 6.209-28.498 18.693-36.525 9.259-5.954 17.085-12.864 16.485-12.277-19.191 18.758-16.872 20.051-16.448 20.96 1.585 3.402 19.168-12.252 25.024-15.29 8.799-4.564 10.064-2.884 18.852-7.468 11.324-5.906 20.879-18.055 20.879-18.055s-7.574 8.242-9.127 15.769c-2.466 11.96 19.69-7.075 23.235-10.103 16.64-14.214 45.263-20.061 45.263-20.061s-16.863 2.003-33.708 24.807c-6.534 8.846-22.03 9.959-20.397 13.437 3.422 7.284 26.644-1.942 26.644-1.942s-22.57 10.704-41.982 10.457c-3.746-.048-15.024-1.768-20.005 1.682-1.111.769-.654 3.124.349 3.749 2.913 1.817 5.77 3.966 9.086 4.848 2.965.789 6.179.538 9.202.016 3.458-.597 6.751-1.974 9.988-3.328-1.566 1.148-3.195 2.34-5.055 2.895-5.033 1.502-10.201 2.668-15.424 3.213-14.531 1.517-30.81-1.048-44.643 5.586-21.753 10.431-13.378 46.265-8.365 63.502m-27.382-98.245c6.346-41.132 28.18-44.778 28.18-44.778s-17.023 2.513-13.343-4.86c7.278-14.583 20.621-21.874 20.621-21.874s-4.852 4.861-12.13 4.861c-5.18 0-5.472-4.3-1.213-13.367 9.704-20.658 26.686-23.088 26.686-23.088s-30.325 6.076-33.964 26.734c-.616 3.498-1.218 18.974-5.937 13.481-7.406-8.621-1.341-17.127-1.341-17.127s-7.429 5.854-3.639 26.734c2.426 13.367 0 18.228-3.639 23.089m-24.947 10.477c-4.229-16.875-16.575-32.113-16.575-32.113s13.6 16.41 10.795 5.565c-.182-.702-2.848-12.06-8.247-27.678m19.287-27.947 8.491-10.937m-4.852 27.948 3.639-3.645m-21.834-4.862 3.639 6.076m8.489-29.162 9.704-9.722m.002 81.416 3.639-7.291m-4.853 27.948 4.852-9.721m9.704 59.546 2.426-4.861m1.213 29.163 3.639-6.076m-27.898-115.443 4.852-3.645m-4.852-17.012 4.852-3.645m-19.408 15.798 3.639 2.43m6.064 68.049 4.852 4.86m1.212 9.722 7.278 9.721m1.628-248.224c4.093-12.543 13.644-15.58 23.053-23.544 5.901-4.995 9.665-11.951 10.732-19.573m-123.727 7.577c6.367 11.334 17.967 16.996 29.268 22.296 6.5 3.048 12.505 5.727 15.227 12.73m-5.232-30.123c4.798 7.381 11.492 13.098 16.423 20.29 3.954 5.767 6.028 12.09 7.813 18.772m23.147-42.133c-1.489 7.503-5.268 14.054-7.161 21.406-1.51 5.864-1.658 12.264-.914 18.246m-54.827-32.029c6.147 7.23 15.15 11.327 22.103 17.675 3.38 3.085 5.824 7.19 8.069 11.137m54.031-41.262c-4.875 13.165-17.701 21.508-21.628 35.34m-31.484-26.037c2.552 6.328 6.734 10.92 9.891 16.84 3.03 5.681 4.357 11.822 6.227 17.917m-1.177-44.573c-.053 8.806 1.536 17.279 2.961 25.923m-64.941-28.98c1.549 5.905 4.576 11.414 9.735 14.886m7.802-7.618c2.158 2.621 4.678 4.663 7.439 6.647m9.423-10.185c1.485 2.285 2.994 4.488 4.63 6.666m12.133-7.931c1.611 4.138 3.072 7.863 5.526 11.56m13.859-11.324c-.183 1.893-.36 3.775-.476 5.673m19.125-6.169a411.062 411.062 0 0 1-2.132 7.201m21.769-11.027c-1.274 5.193-4.071 10.772-7.563 14.844M163.49 35.534c1.107 2.767 2.288 5.177 4.133 7.512m-15.9-7.177L153 38.84m86.84-11.433c-.771 3.422-1.344 6.843-1.805 10.32M180.486 30.5c1.11 4.39 2.679 8.458 5.19 12.247m11.285-8.63.839 2.699m10.468-5.409c.093 1.593.079 1.485.039 3.14m11.483-1.92c-.299 1.81-.607 3.597-.999 5.388m8.21-3.114c-.262 1.53-.249 1.422-.611 3.005m6.62-12.825c.193 1.687.171 1.575.294 3.182m-43.936.403c.012 1.347-.023 1.26.14 2.642m-18.55-3.071c.317 1.674.316 1.616.695 3.257m5.872-11.17c.132 1.817.139 1.758.238 3.62m-14.488-.219c.072 1.208.117 1.143.308 2.467m34.268-2.312c.352 1.419.704 2.838 1.065 4.254m15.395-4.456c.242 1.982.245 1.918.307 3.876m10.462-2.49c.068 1.38.061 1.285.079 2.721m20.8-3.783c-.084 1.498-.184 2.993-.274 4.49m-8.314-11.956c.309 1.018.262.915.6 2.167m-11.325-4.52c.776 1.903 1.41 3.753 1.819 5.766m-58.287-5.011c-.12 1.617-.103 1.508-.04 3.174m17.495.644c-.01 1.236-.034 1.155.059 2.396m17.015-2.86c.427 1.736.413 1.681.77 3.393m13.652-6.333c.361 1.115.731 2.22 1.036 3.351m-23.848-6.848c-.032 2.065-.016 1.997.125 4.047m14.757-4.997c.372 1.533.346 1.429.71 2.99m6.225-6.992c.722 1.306.68 1.215 1.381 2.545m-15.588-2.729-.003 1.016m-18.958.37c-.228 2.27-.222 2.194-.409 4.422m-28.921 11.446c.181 1.889.336 3.68.725 5.526m-8.809 43.855c9.037-1.553 16.345.086 23.026 6.246m62.129-2.91c6.105-6.768 15.043-7.538 22.463-12.317m3.613-42.348a80.017 80.017 0 0 1-.727 3.058m-114.6.803c.158 1.417.149 1.329.368 2.655M260.402 53.62c3.449-3.34 6.235-6.773 8.858-10.785m-85.854 119.853 8.491-2.43m6.065 6.076 4.852-4.861m18.196-1.214 8.491 1.215m-15.335 22.067c.841-2.252 1.879-4.197 3.731-5.781m-17.51 20.171-1.668-13.368m10.16 1.215V172.41" stroke="#0050DB" stroke-width="1.5" stroke-miterlimit="0" stroke-linecap="square"/></svg>