<svg width="512" height="512" viewBox="0 0 512 512" fill="none" xmlns="http://www.w3.org/2000/svg">
<g filter="url(#filter0_d_567_2583)">
<path fill-rule="evenodd" clip-rule="evenodd" d="M168.959 58.5569C161.298 66.1479 154.286 74.3119 148.026 82.6589C140.573 93.9069 134.164 105.945 128.917 118.342C108.866 165.718 43.8345 169.65 27.4765 219.65C16.7285 252.5 29.7165 283.163 34.3635 315.594C38.8725 347.056 26.0515 380.299 39.8965 410.418C49.5555 431.43 67.9375 444.164 86.1545 457.176C150.65 503.241 226.034 502.552 300.834 484.445C340.758 474.781 384.637 459.622 407.835 423.184C423.155 399.12 427.302 368.703 423.219 340.823C420.939 325.254 417.02 309.504 419.605 293.711C423.624 269.162 440.281 250.25 455.73 231.061C466.016 213.929 476.245 196.608 483.601 177.97C488.927 164.473 489.798 150.98 487.425 136.672C485.568 125.482 482.683 114.678 478.555 104.111C457.489 50.1809 405.665 62.9479 361.71 50.7799C333.556 42.9859 309.775 25.6909 280.849 18.7409C237.88 8.4169 198.577 29.2039 168.959 58.5569Z" fill="white"/>
</g>
<path fill-rule="evenodd" clip-rule="evenodd" d="M352.984 285.332L198.589 341.527L198.508 463.847L352.904 407.651L352.984 285.332Z" fill="white" stroke="#242630" stroke-width="2" stroke-miterlimit="1.5" stroke-linecap="round" stroke-linejoin="round"/>
<path fill-rule="evenodd" clip-rule="evenodd" d="M198.549 341.542L84.9836 246.25V367.895L198.549 463.187V341.542Z" fill="white" stroke="#242630" stroke-width="2" stroke-miterlimit="1.5" stroke-linecap="round" stroke-linejoin="round"/>
<path fill-rule="evenodd" clip-rule="evenodd" d="M239.419 190.04L84.9836 246.25L198.549 341.542L352.984 285.332L239.419 190.04Z" fill="white" stroke="#242630" stroke-width="2" stroke-miterlimit="1.5" stroke-linecap="round" stroke-linejoin="round"/>
<path fill-rule="evenodd" clip-rule="evenodd" d="M259.92 276.991C252.544 283.341 237.868 287.674 220.984 287.674C196.7 287.674 176.984 278.712 176.984 267.674C176.984 256.635 196.7 247.674 220.984 247.674C238.577 247.674 253.773 252.377 260.811 259.167C257.835 264.857 255.901 272.55 259.92 276.991Z" fill="white"/>
<mask id="mask0_567_2583" style="mask-type:luminance" maskUnits="userSpaceOnUse" x="176" y="247" width="85" height="41">
<path d="M259.92 276.991C252.544 283.341 237.868 287.674 220.984 287.674C196.7 287.674 176.984 278.712 176.984 267.674C176.984 256.635 196.7 247.674 220.984 247.674C238.577 247.674 253.773 252.377 260.811 259.167C257.835 264.857 255.901 272.55 259.92 276.991Z" fill="white"/>
</mask>
<g mask="url(#mask0_567_2583)">
<path fill-rule="evenodd" clip-rule="evenodd" d="M259.92 292.991C252.544 299.341 237.868 303.674 220.984 303.674C196.7 303.674 176.984 294.712 176.984 283.674C176.984 272.635 196.7 263.674 220.984 263.674C238.577 263.674 253.773 268.377 260.811 275.167C257.835 280.857 255.901 288.55 259.92 292.991Z" fill="#242630" stroke="#242630" stroke-width="2" stroke-miterlimit="1.5" stroke-linecap="round" stroke-linejoin="round"/>
</g>
<path fill-rule="evenodd" clip-rule="evenodd" d="M259.92 276.991C252.544 283.341 237.868 287.674 220.984 287.674C196.7 287.674 176.984 278.712 176.984 267.674C176.984 256.635 196.7 247.674 220.984 247.674C238.577 247.674 253.773 252.377 260.811 259.167C257.835 264.857 255.901 272.55 259.92 276.991Z" stroke="#242630" stroke-width="2" stroke-miterlimit="1.5" stroke-linecap="round" stroke-linejoin="round"/>
<path fill-rule="evenodd" clip-rule="evenodd" d="M189.012 161.914C189.698 161.176 190.378 160.433 191.039 159.664C191.18 159.5 192.286 158.493 192.239 158.297C191.774 156.345 189.729 154.137 188.704 152.384C186.682 148.324 184.895 144.154 185.463 140.143C186.946 129.667 198.468 124.85 205.168 118.312C210.184 113.418 212.92 106.414 216.245 100.405C218.418 96.4788 221.545 91.8038 225.708 89.8538C229.624 88.0188 236.056 89.1158 240.338 88.8318C250.475 88.1618 261.608 86.9998 271.578 84.6948C279.552 82.8508 287.502 80.5038 295.254 77.8888C300.566 76.0958 307.1 73.5468 312.849 74.5388C319.817 75.7418 325.016 83.2938 330.966 86.6558C337.205 90.1808 344.189 91.9818 350.768 94.7218C356.857 97.2568 362.635 100.644 368.932 102.656C381.558 106.689 391.863 95.7828 404.184 96.9188C409.176 97.3798 414.574 101.823 418.311 104.699C432.043 115.269 443.146 134.825 443.445 152.412C443.775 171.866 421.112 173.375 411.628 186.669C403.704 197.776 404.677 213.447 395.998 223.708C392.282 228.101 387.274 229.792 382.584 232.796C378.007 235.726 373.864 240.266 368.988 242.628C361.301 246.351 352.718 247.729 344.83 250.93C336.232 254.42 329.611 261.131 321.113 264.679C315.245 267.128 309.032 266.72 303.026 268.446C290.267 272.111 279.276 286.577 265.101 280.292C262.224 279.016 258.563 276.543 257.342 273.559C256.079 270.474 256.073 266.39 253.428 264.048C240.518 252.617 222.096 249.045 212.807 233.215C207.746 224.59 206.91 214.645 202.862 205.611C201.283 202.088 198.824 197.622 195.235 195.75C192.211 194.173 186.211 198.228 183.389 199.17C172.702 202.736 161.402 208.27 150.009 208.272C143.568 208.274 136.126 205.848 131.7 200.961C129.46 198.488 128.099 194.24 130.583 191.42C134.158 187.36 142.623 186.841 147.368 184.876C152.677 182.678 158.059 180.542 163.289 178.163C171.752 174.313 179.765 169.458 187.194 163.873C187.798 163.213 188.407 162.565 189.012 161.914ZM346.31 185.725C346.561 185.593 346.845 185.436 346.848 185.385C346.936 183.372 344.323 180.39 343.163 178.827C341.789 176.601 340.175 174.582 337.997 173.35C334.567 171.412 328.658 173.189 325.009 173.508C318.431 174.084 311.502 173.522 304.956 172.817C296.264 171.88 286.734 166.66 278.041 167.192C277.651 167.216 278.598 167.739 278.879 168.009C279.408 168.516 279.946 169.014 280.471 169.525C282.129 171.139 283.816 172.896 285.134 174.803C288.289 179.369 289.7 190.543 283.545 193.486C280.314 195.031 276.856 193.761 273.545 193.16C265.883 191.769 258.545 189.247 250.677 189.024C247.599 188.937 244.375 189.164 241.475 190.267C241.145 190.392 239.046 191.274 239.129 191.847C239.404 193.727 241.698 196.208 242.629 197.745C246.005 203.32 249.82 208.53 253.333 214.009C255.868 217.963 258.114 222.249 259.32 226.808C260.651 231.84 261.022 239.888 266.376 242.435C268.388 243.392 270.594 240.923 272.099 239.769C276.618 236.306 281.099 232.625 286.121 229.891C295.384 224.849 306.745 226.059 315.563 220.178C321.062 216.51 324.71 210.34 328.563 205.158C333.078 199.088 338.057 193.407 343.387 188.053C344.173 187.259 345.002 186.534 345.939 185.92C345.972 185.899 346.133 185.818 346.31 185.725Z" fill="#FFE38C"/>
<mask id="mask1_567_2583" style="mask-type:luminance" maskUnits="userSpaceOnUse" x="129" y="74" width="315" height="208">
<path d="M189.012 161.914C189.698 161.176 190.378 160.433 191.039 159.664C191.18 159.5 192.286 158.493 192.239 158.297C191.774 156.345 189.729 154.137 188.704 152.384C186.682 148.324 184.895 144.154 185.463 140.143C186.946 129.667 198.468 124.85 205.168 118.312C210.184 113.418 212.92 106.414 216.245 100.405C218.418 96.4788 221.545 91.8038 225.708 89.8538C229.624 88.0188 236.056 89.1158 240.338 88.8318C250.475 88.1618 261.608 86.9998 271.578 84.6948C279.552 82.8508 287.502 80.5038 295.254 77.8888C300.566 76.0958 307.1 73.5468 312.849 74.5388C319.817 75.7418 325.016 83.2938 330.966 86.6558C337.205 90.1808 344.189 91.9818 350.768 94.7218C356.857 97.2568 362.635 100.644 368.932 102.656C381.558 106.689 391.863 95.7828 404.184 96.9188C409.176 97.3798 414.574 101.823 418.311 104.699C432.043 115.269 443.146 134.825 443.445 152.412C443.775 171.866 421.112 173.375 411.628 186.669C403.704 197.776 404.677 213.447 395.998 223.708C392.282 228.101 387.274 229.792 382.584 232.796C378.007 235.726 373.864 240.266 368.988 242.628C361.301 246.351 352.718 247.729 344.83 250.93C336.232 254.42 329.611 261.131 321.113 264.679C315.245 267.128 309.032 266.72 303.026 268.446C290.267 272.111 279.276 286.577 265.101 280.292C262.224 279.016 258.563 276.543 257.342 273.559C256.079 270.474 256.073 266.39 253.428 264.048C240.518 252.617 222.096 249.045 212.807 233.215C207.746 224.59 206.91 214.645 202.862 205.611C201.283 202.088 198.824 197.622 195.235 195.75C192.211 194.173 186.211 198.228 183.389 199.17C172.702 202.736 161.402 208.27 150.009 208.272C143.568 208.274 136.126 205.848 131.7 200.961C129.46 198.488 128.099 194.24 130.583 191.42C134.158 187.36 142.623 186.841 147.368 184.876C152.677 182.678 158.059 180.542 163.289 178.163C171.752 174.313 179.765 169.458 187.194 163.873C187.798 163.213 188.407 162.565 189.012 161.914ZM346.31 185.725C346.561 185.593 346.845 185.436 346.848 185.385C346.936 183.372 344.323 180.39 343.163 178.827C341.789 176.601 340.175 174.582 337.997 173.35C334.567 171.412 328.658 173.189 325.009 173.508C318.431 174.084 311.502 173.522 304.956 172.817C296.264 171.88 286.734 166.66 278.041 167.192C277.651 167.216 278.598 167.739 278.879 168.009C279.408 168.516 279.946 169.014 280.471 169.525C282.129 171.139 283.816 172.896 285.134 174.803C288.289 179.369 289.7 190.543 283.545 193.486C280.314 195.031 276.856 193.761 273.545 193.16C265.883 191.769 258.545 189.247 250.677 189.024C247.599 188.937 244.375 189.164 241.475 190.267C241.145 190.392 239.046 191.274 239.129 191.847C239.404 193.727 241.698 196.208 242.629 197.745C246.005 203.32 249.82 208.53 253.333 214.009C255.868 217.963 258.114 222.249 259.32 226.808C260.651 231.84 261.022 239.888 266.376 242.435C268.388 243.392 270.594 240.923 272.099 239.769C276.618 236.306 281.099 232.625 286.121 229.891C295.384 224.849 306.745 226.059 315.563 220.178C321.062 216.51 324.71 210.34 328.563 205.158C333.078 199.088 338.057 193.407 343.387 188.053C344.173 187.259 345.002 186.534 345.939 185.92C345.972 185.899 346.133 185.818 346.31 185.725Z" fill="white"/>
</mask>
<g mask="url(#mask1_567_2583)">
<path d="M218.103 188.095C218.884 183.297 219.905 178.539 221.107 173.829C221.712 171.46 222.148 168.771 223.507 166.696C224.595 165.033 226.54 163.966 228.049 162.731C229.747 161.34 231.247 159.541 232.534 157.771C234.662 154.842 235.643 150.347 238.931 148.403C240.296 147.596 242.283 147.661 243.799 147.176C251.862 144.598 261.115 140.147 267.792 134.939C270.125 133.12 270.768 129.945 273.317 128.375C275.076 127.291 278.496 128.641 280.487 128.628C287.472 128.582 293.398 128.171 299.872 130.787C306.825 133.596 311.726 137.599 319.466 138.081" stroke="#242630" stroke-width="2" stroke-miterlimit="1.5" stroke-linecap="round" stroke-linejoin="round"/>
<path d="M235.161 139.669C236.734 143.375 237.61 146.504 237.324 150.595" stroke="#242630" stroke-width="2" stroke-miterlimit="1.5" stroke-linecap="round" stroke-linejoin="round"/>
<path d="M219.271 159.948C221.331 161.186 222.989 162.802 223.29 165.264" stroke="#242630" stroke-width="2" stroke-miterlimit="1.5" stroke-linecap="round" stroke-linejoin="round"/>
<path d="M195.801 196.505C189.962 191.312 192.16 184.57 193.406 177.588C194.473 171.614 193.888 164.979 195.687 159.189C196.677 156 198.784 153.2 200.57 150.425C203.767 145.459 206.757 140.159 209.264 134.803C210.975 131.148 212.244 126.987 214.746 123.755C219.64 117.435 228.811 114.013 235.082 109.427C245.131 102.079 254.699 88.9019 267.768 86.8059C273.024 85.9629 278.474 85.8779 283.771 85.3029" stroke="#242630" stroke-width="2" stroke-miterlimit="1.5" stroke-linecap="round" stroke-linejoin="round"/>
<path d="M278.89 168.705C274.329 166.572 268.53 164.353 263.475 164.021C260.404 163.819 256.979 165.368 254.035 164.948C253.744 164.906 253.278 163.625 253.152 163.366C252.386 161.789 251.532 160.117 250.259 158.882C246.95 155.672 241.483 153.222 237.26 151.506" stroke="#242630" stroke-width="2" stroke-miterlimit="1.5" stroke-linecap="round" stroke-linejoin="round"/>
<path d="M167.147 205.076C169.956 200.367 172.088 193.457 169.167 188.306" stroke="#242630" stroke-width="2" stroke-miterlimit="1.5" stroke-linecap="round" stroke-linejoin="round"/>
<path d="M188.016 173.317C190.326 180.983 192.355 190.741 187.635 197.908" stroke="#242630" stroke-width="2" stroke-miterlimit="1.5" stroke-linecap="round" stroke-linejoin="round"/>
<path d="M310.219 242.152C314.855 249.554 317.429 256.989 317.999 265.645" stroke="#242630" stroke-width="2" stroke-miterlimit="1.5" stroke-linecap="round" stroke-linejoin="round"/>
<path d="M267.344 259.492C269.284 257.697 270.89 256.333 273.218 255.17C275.795 253.883 279.107 251.542 282.164 251.969C284.332 252.271 285.569 255.226 286.238 256.876C288.363 262.118 288.765 268.204 287.802 273.782" stroke="#242630" stroke-width="2" stroke-miterlimit="1.5" stroke-linecap="round" stroke-linejoin="round"/>
<path d="M263.676 269.296C264.908 274.182 266.434 278.876 271.211 281.358" stroke="#242630" stroke-width="2" stroke-miterlimit="1.5" stroke-linecap="round" stroke-linejoin="round"/>
<path d="M190.214 193.499C194.798 188.993 198.181 183.12 199.225 176.713C199.494 175.063 200.844 170.532 198.755 170.387" stroke="#242630" stroke-width="2" stroke-miterlimit="1.5" stroke-linecap="round" stroke-linejoin="round"/>
<path d="M263.738 191.857C262.911 190.184 261.499 188.038 261.527 186.098C261.544 184.914 266.198 185.504 266.714 185.596C271.661 186.485 276.868 189.443 281.037 192.153" stroke="#242630" stroke-width="2" stroke-miterlimit="1.5" stroke-linecap="round" stroke-linejoin="round"/>
<path d="M321.546 154.501C325.422 157.238 331.216 159.775 334.421 163.391C338.716 168.238 340.472 175.367 344.365 180.637" stroke="#242630" stroke-width="2" stroke-miterlimit="1.5" stroke-linecap="round" stroke-linejoin="round"/>
<path d="M416.576 173.221C421.146 168.401 425.637 163.5 431.223 159.845" stroke="#242630" stroke-width="2" stroke-miterlimit="1.5" stroke-linecap="round" stroke-linejoin="round"/>
<path d="M296.515 148.095C303.304 150.279 310.127 154.193 314.788 159.72C316.98 162.32 318.442 165.469 320.872 167.858C326.082 172.979 332.961 175.871 338.919 179.925" stroke="#242630" stroke-width="2" stroke-miterlimit="1.5" stroke-linecap="round" stroke-linejoin="round"/>
<path d="M327.86 146.413C335.085 153.875 340.797 162.258 343.991 172.207" stroke="#242630" stroke-width="2" stroke-miterlimit="1.5" stroke-linecap="round" stroke-linejoin="round"/>
<path d="M265.62 137.103C272.027 140.172 281.994 143.152 287.526 136.794" stroke="#242630" stroke-width="2" stroke-miterlimit="1.5" stroke-linecap="round" stroke-linejoin="round"/>
<path d="M257.751 151.231C266.115 154.462 276.182 155.692 282.16 147.51" stroke="#242630" stroke-width="2" stroke-miterlimit="1.5" stroke-linecap="round" stroke-linejoin="round"/>
<path d="M260.603 160.738C258.179 153.281 265.529 148.279 263.365 141.311" stroke="#242630" stroke-width="2" stroke-miterlimit="1.5" stroke-linecap="round" stroke-linejoin="round"/>
</g>
<path fill-rule="evenodd" clip-rule="evenodd" d="M189.012 161.914C189.698 161.176 190.378 160.433 191.039 159.664C191.18 159.5 192.286 158.493 192.239 158.297C191.774 156.345 189.729 154.137 188.704 152.384C186.682 148.324 184.895 144.154 185.463 140.143C186.946 129.667 198.468 124.85 205.168 118.312C210.184 113.418 212.92 106.414 216.245 100.405C218.418 96.4788 221.545 91.8038 225.708 89.8538C229.624 88.0188 236.056 89.1158 240.338 88.8318C250.475 88.1618 261.608 86.9998 271.578 84.6948C279.552 82.8508 287.502 80.5038 295.254 77.8888C300.566 76.0958 307.1 73.5468 312.849 74.5388C319.817 75.7418 325.016 83.2938 330.966 86.6558C337.205 90.1808 344.189 91.9818 350.768 94.7218C356.857 97.2568 362.635 100.644 368.932 102.656C381.558 106.689 391.863 95.7828 404.184 96.9188C409.176 97.3798 414.574 101.823 418.311 104.699C432.043 115.269 443.146 134.825 443.445 152.412C443.775 171.866 421.112 173.375 411.628 186.669C403.704 197.776 404.677 213.447 395.998 223.708C392.282 228.101 387.274 229.792 382.584 232.796C378.007 235.726 373.864 240.266 368.988 242.628C361.301 246.351 352.718 247.729 344.83 250.93C336.232 254.42 329.611 261.131 321.113 264.679C315.245 267.128 309.032 266.72 303.026 268.446C290.267 272.111 279.276 286.577 265.101 280.292C262.224 279.016 258.563 276.543 257.342 273.559C256.079 270.474 256.073 266.39 253.428 264.048C240.518 252.617 222.096 249.045 212.807 233.215C207.746 224.59 206.91 214.645 202.862 205.611C201.283 202.088 198.824 197.622 195.235 195.75C192.211 194.173 186.211 198.228 183.389 199.17C172.702 202.736 161.402 208.27 150.009 208.272C143.568 208.274 136.126 205.848 131.7 200.961C129.46 198.488 128.099 194.24 130.583 191.42C134.158 187.36 142.623 186.841 147.368 184.876C152.677 182.678 158.059 180.542 163.289 178.163C171.752 174.313 179.765 169.458 187.194 163.873C187.798 163.213 188.407 162.565 189.012 161.914ZM346.31 185.725C346.561 185.593 346.845 185.436 346.848 185.385C346.936 183.372 344.323 180.39 343.163 178.827C341.789 176.601 340.175 174.582 337.997 173.35C334.567 171.412 328.658 173.189 325.009 173.508C318.431 174.084 311.502 173.522 304.956 172.817C296.264 171.88 286.734 166.66 278.041 167.192C277.651 167.216 278.598 167.739 278.879 168.009C279.408 168.516 279.946 169.014 280.471 169.525C282.129 171.139 283.816 172.896 285.134 174.803C288.289 179.369 289.7 190.543 283.545 193.486C280.314 195.031 276.856 193.761 273.545 193.16C265.883 191.769 258.545 189.247 250.677 189.024C247.599 188.937 244.375 189.164 241.475 190.267C241.145 190.392 239.046 191.274 239.129 191.847C239.404 193.727 241.698 196.208 242.629 197.745C246.005 203.32 249.82 208.53 253.333 214.009C255.868 217.963 258.114 222.249 259.32 226.808C260.651 231.84 261.022 239.888 266.376 242.435C268.388 243.392 270.594 240.923 272.099 239.769C276.618 236.306 281.099 232.625 286.121 229.891C295.384 224.849 306.745 226.059 315.563 220.178C321.062 216.51 324.71 210.34 328.563 205.158C333.078 199.088 338.057 193.407 343.387 188.053C344.173 187.259 345.002 186.534 345.939 185.92C345.972 185.899 346.133 185.818 346.31 185.725Z" stroke="#242630" stroke-width="2" stroke-miterlimit="1.5" stroke-linecap="round" stroke-linejoin="round"/>
<path fill-rule="evenodd" clip-rule="evenodd" d="M210.888 223.37L265.742 264.899L272.984 211.674L224.984 171.674L210.888 223.37Z" fill="#C1EDFC" stroke="#242630" stroke-width="2" stroke-miterlimit="1.5" stroke-linecap="round" stroke-linejoin="round"/>
<path fill-rule="evenodd" clip-rule="evenodd" d="M215.59 287.525L168.984 251.674L210.888 223.37L265.742 264.899L228.107 287.412C225.788 287.584 223.409 287.674 220.984 287.674C219.158 287.674 217.358 287.623 215.59 287.525Z" fill="#C1EDFC" stroke="#242630" stroke-width="2" stroke-miterlimit="1.5" stroke-linecap="round" stroke-linejoin="round"/>
<path fill-rule="evenodd" clip-rule="evenodd" d="M220.962 174.891L224.984 171.674L210.888 223.37L168.984 251.674L184.984 203.674L194.704 195.897C196.488 196.919 198.246 197.985 200.317 198.32C212.354 200.267 218.699 184.839 220.962 174.891Z" fill="#C1EDFC" stroke="#242630" stroke-width="2" stroke-miterlimit="1.5" stroke-linecap="round" stroke-linejoin="round"/>
<defs>
<filter id="filter0_d_567_2583" x="23.3267" y="16.0579" width="465.347" height="487.884" filterUnits="userSpaceOnUse" color-interpolation-filters="sRGB">
<feFlood flood-opacity="0" result="BackgroundImageFix"/>
<feColorMatrix in="SourceAlpha" type="matrix" values="0 0 0 0 0 0 0 0 0 0 0 0 0 0 0 0 0 0 127 0" result="hardAlpha"/>
<feOffset dy="8"/>
<feComposite in2="hardAlpha" operator="out"/>
<feColorMatrix type="matrix" values="0 0 0 0 0 0 0 0 0 0 0 0 0 0 0 0 0 0 0.2 0"/>
<feBlend mode="normal" in2="BackgroundImageFix" result="effect1_dropShadow_567_2583"/>
<feBlend mode="normal" in="SourceGraphic" in2="effect1_dropShadow_567_2583" result="shape"/>
</filter>
</defs>
</svg>
