<svg width="512" height="512" viewBox="0 0 512 512" fill="none" xmlns="http://www.w3.org/2000/svg">
<g filter="url(#filter0_d_556_465)">
<path fill-rule="evenodd" clip-rule="evenodd" d="M468.491 32.96C468.491 23.599 460.892 16 451.531 16H61.46C52.099 16 44.5 23.599 44.5 32.96V479.04C44.5 488.401 52.099 496 61.46 496H451.531C460.892 496 468.491 488.401 468.491 479.04V32.96Z" fill="white"/>
</g>
<path fill-rule="evenodd" clip-rule="evenodd" d="M384.491 264.919V308L344.491 297.58V264L384.491 264.919Z" fill="#242630" stroke="#242630" stroke-width="2" stroke-miterlimit="1.5" stroke-linecap="round" stroke-linejoin="round"/>
<path fill-rule="evenodd" clip-rule="evenodd" d="M106.18 139.492C100.346 142.006 94.895 145.371 88.926 147.57C88.808 147.614 88.69 147.658 88.571 147.701V140.628C94.291 136.83 99.943 132.93 105.577 129.005C113.001 123.832 120.431 118.555 128.625 114.648C128.742 114.592 128.859 114.536 128.977 114.481C122.842 121.259 116.589 127.924 110.487 134.866C109.064 136.485 107.627 138.024 106.18 139.492ZM135.881 113.577C139.214 113.299 142.454 113.192 145.625 113.159C143.957 115.05 142.623 116.512 141.849 117.25C135.479 123.317 129.116 129.667 122.726 135.581C121.469 135.732 120.212 135.883 118.959 136.058C125.034 129.012 130.514 121.346 135.881 113.577ZM149.961 113.152C149.978 113.152 149.995 113.152 150.011 113.152L159.623 120.842C157.46 123.084 155.283 125.249 153.111 127.314C145.209 134.828 137.229 141.246 129.279 147.536C125.458 147.566 121.642 147.686 117.855 148.133C119.849 146.224 121.834 144.261 123.798 142.187C125.048 140.867 126.325 139.512 127.62 138.13C128.382 137.778 129.142 137.422 129.9 137.062C133.34 135.429 136.734 133.691 139.99 131.713C141.085 131.048 142.164 130.356 143.223 129.633C143.578 129.391 143.931 129.146 144.281 128.896C144.435 128.787 144.919 128.506 144.738 128.56C143.508 128.92 142.169 130.129 141.014 130.751C138.446 132.134 135.725 133.242 132.891 133.942C132.316 134.084 131.74 134.213 131.162 134.332C137.055 127.98 143.12 121.275 148.491 115.04C148.828 114.649 149.331 113.998 149.961 113.152ZM161.894 122.659L175.323 133.401C173.98 134.808 172.421 137.227 171.532 137.994C168.184 140.883 164.228 143.143 160.042 144.634C161.533 142.88 162.983 141.047 164.376 139.13C165.33 137.816 166.288 136.472 167.17 135.108C167.435 134.699 168.133 133.711 168.13 133.326C168.13 133.251 167.345 133.961 167.307 133.995C166.323 134.867 165.34 135.779 164.359 136.694C161.182 139.657 158.031 142.948 154.866 146.078C148.096 147.524 141.172 147.543 134.235 147.531C142.389 141.201 150.541 134.696 158.562 126.291C159.687 125.111 160.799 123.9 161.894 122.659ZM144.003 160.143C144.107 160.13 144.211 160.117 144.314 160.104C154.316 158.827 163.204 152.896 169.357 145.056C171.41 142.44 172.91 139.408 174.529 136.516C175.013 135.652 175.494 134.788 175.972 133.921L208.571 160V352L88.571 448V229.054C89.868 227.256 91.217 225.504 92.583 223.753C93.855 222.122 95.254 220.628 96.699 219.151C101.919 213.816 113.341 204.799 121.145 210.86C122.824 212.163 124.134 213.865 124.55 215.984C124.594 216.207 124.932 217.771 124.756 217.874C124.73 217.89 124.399 217.572 124.074 217.251C123.782 216.963 123.494 216.673 123.433 216.619C122.55 215.838 121.609 215.085 120.593 214.483C117.451 212.622 113.728 212.28 110.628 214.47C102.523 220.194 99.927 237.43 110.798 241.744C114.755 243.416 119.81 243.59 123.685 242.558C150.676 235.374 156.794 190.982 131.772 177.915C128.922 176.427 126.028 175.675 123.14 175.489C130.081 170.642 137.021 165.882 144.003 160.143ZM106.92 148.264C107.955 147.649 109.004 147.057 110.064 146.484C109.039 147.284 108.012 148.06 106.985 148.811C105.668 149.773 104.356 150.699 103.046 151.602C102.607 151.905 102.168 152.204 101.73 152.5C101.54 152.628 100.975 153.07 101.162 152.874C102.603 151.366 104.644 150.272 106.176 148.923C106.423 148.706 106.671 148.486 106.92 148.264ZM102.002 163.219C104.067 162.238 106.212 161.422 108.454 160.817C110.229 160.338 112.009 160.021 113.792 159.823C107.938 164.504 102.082 169.245 96.225 174.097C93.675 176.21 91.122 178.419 88.571 180.519V177.184C92.751 172.791 96.961 168.473 101.146 164.105C101.431 163.808 101.716 163.513 102.002 163.219ZM119.066 159.542C125.085 159.523 131.136 160.372 137.174 160.458C133.315 162.995 129.5 165.2 125.789 167.226C118.972 170.948 112.21 173.85 105.216 178.402C101.273 180.968 97.248 184.453 93.273 187.36C92.241 188.114 89.8 190.186 88.988 190.179C88.803 190.177 89.617 189.238 89.639 189.211C90.491 188.199 91.368 187.257 92.2 186.21C94.409 183.432 96.637 180.903 98.992 178.442C105.614 171.522 112.288 165.22 119.066 159.542ZM91.119 121.001C92.896 118.82 94.655 116.628 96.488 114.535C96.764 114.22 97.042 113.904 97.322 113.59C103.954 112.301 110.632 110.94 117.078 110.008C116.73 110.583 116.372 111.154 116.004 111.722C115.682 111.811 115.362 111.902 115.042 111.995C106.931 114.348 99.016 117.668 91.119 121.001ZM100.161 110.493C103.726 106.736 107.592 103.196 111.906 100.368C113.364 100.236 114.819 100.108 116.273 99.979C118.325 99.796 120.378 99.611 122.434 99.422C121.66 101.227 120.832 103.033 119.932 104.826C118.004 105.194 116.061 105.598 114.09 106.074C109.423 107.202 104.793 108.837 100.161 110.493ZM100.691 101.518C99.916 102.564 99.129 103.604 98.327 104.638C95.034 107.308 91.829 110.1 88.571 112.816V103.373C88.845 103.321 89.118 103.27 89.39 103.219C93.234 102.508 96.989 101.965 100.691 101.518ZM88.571 100.882V94.045C90.199 92.99 91.831 91.941 93.437 90.861C94.88 90.55 96.319 90.246 97.742 89.976C101.944 89.177 105.931 88.786 109.73 88.657C109.561 88.901 109.393 89.145 109.225 89.389C107.063 92.529 104.907 95.682 102.669 98.801C98.094 99.262 93.435 99.878 88.571 100.882ZM98.132 87.507C99.365 86.556 100.562 85.561 101.708 84.503C103.653 82.707 105.452 80.82 107.194 78.899L113.171 83.68C112.732 84.311 112.295 84.942 111.858 85.574C108.847 85.82 105.766 86.169 102.573 86.683C101.112 86.918 99.629 87.19 98.132 87.507ZM109.417 120.063C107.77 121.791 106.031 123.474 104.347 125.183C102.661 126.372 100.964 127.538 99.239 128.652C95.798 130.877 92.243 132.853 88.571 134.597V129.357C95.586 126.41 102.403 122.942 109.417 120.063ZM122.15 110.245C122.36 109.932 122.568 109.617 122.775 109.303C124.371 109.142 125.946 109.019 127.496 108.941C128.723 108.88 129.933 108.84 131.132 108.814C131.148 108.814 131.164 108.813 131.18 108.813C130.966 108.891 130.752 108.971 130.538 109.052C129.693 109.087 128.846 109.099 128.059 109.213C126.149 109.488 124.163 109.831 122.15 110.245ZM116.744 97.615C116.915 97.532 117.087 97.451 117.259 97.371C119.632 96.266 122.098 95.33 124.511 94.3C124.358 94.702 124.202 95.104 124.044 95.505C123.853 95.988 123.66 96.472 123.463 96.956C123.241 96.982 123.02 97.007 122.799 97.031C120.766 97.256 118.751 97.444 116.744 97.615ZM126.26 103.702C127.23 102.073 128.174 100.435 129.111 98.796C129.989 98.712 130.867 98.626 131.746 98.54L135.92 101.879C132.657 102.6 129.458 103.153 126.26 103.702ZM119.617 88.836L122.62 91.24C118.971 91.971 115.477 93.39 112.185 95.137C110.739 95.904 109.334 96.728 107.96 97.597C109.971 94.591 111.959 91.577 114.05 88.615C115.952 88.64 117.807 88.721 119.617 88.836ZM88.571 88.809V81.955C91.135 80.335 93.625 78.605 96 76.709C97.392 75.598 98.738 74.407 100.028 73.165L101.324 74.202C97.489 79.266 93.057 84.053 88.571 88.809ZM88.571 70.65V64L92.999 67.542C91.571 68.661 90.091 69.689 88.571 70.65Z" fill="#242630" stroke="#242630" stroke-width="2" stroke-miterlimit="1.5" stroke-linecap="round" stroke-linejoin="round"/>
<path fill-rule="evenodd" clip-rule="evenodd" d="M157.256 180.589C160.198 188.084 156.326 194.087 153.047 200.682C151.734 203.323 149.256 207.297 149.965 210.408C151.027 215.061 158.557 215.488 162.245 214.945C171.027 213.652 177.425 203.33 179.762 195.559C179.884 195.152 180.059 193.745 180.498 193.502C181.252 193.085 182.242 193.951 182.76 194.398C184.392 195.81 185.698 197.616 186.782 199.469C189.854 204.719 191.931 210.869 194.015 216.57C194.85 218.854 196.031 222.08 199.008 221.947C201.944 221.816 203.955 218.374 204.945 215.988C206.938 211.183 206.218 205.254 203.864 200.723C202.679 198.441 200.954 196.509 199.669 194.289C199.911 194.427 200.151 194.568 200.392 194.707C201.581 195.389 202.68 196.187 203.777 197.007C206.109 198.749 208.378 200.611 210.597 202.494C213.659 205.093 217.005 207.573 219.805 210.461C220.783 211.469 222.899 214.489 224.356 214.994C227.062 215.933 229.058 211.398 229.669 209.593C230.202 208.019 230.36 206.397 230.238 204.738C229.662 196.904 219.741 189.962 213.704 186.209C210.633 184.3 204.403 182.265 205.47 177.796C205.967 175.714 207.162 173.658 208.292 171.854C209.618 169.741 211.007 167.665 212.384 165.585C212.517 165.384 213.307 163.853 213.482 163.852C215.863 163.829 218.634 167.547 219.951 169.032C223.659 173.21 227.642 177.214 232.679 179.773C241.922 184.47 247.848 171.989 245.609 164.429C242.736 154.732 231.095 148.579 222.94 144.161C215.406 140.079 208.659 135.76 200.36 133.432C197.217 132.551 193.858 131.175 190.528 131.732C184.878 132.679 179.64 135.987 174.7 138.699C167.616 142.587 160.984 147.203 155.282 152.969C153.237 155.038 150.728 157.231 150.063 160.203C149.303 163.603 150.343 166.987 151.701 170.076C152.658 172.253 157.256 180.589 157.256 180.589Z" fill="#FFE38C" stroke="#242630" stroke-width="2" stroke-miterlimit="1.5" stroke-linecap="round" stroke-linejoin="round"/>
<path fill-rule="evenodd" clip-rule="evenodd" d="M384.491 416L304.491 352V160L424.491 64V256H336.491V304L360.491 312V348L384.491 360V416Z" fill="#242630" stroke="#242630" stroke-width="2" stroke-miterlimit="1.5" stroke-linecap="round" stroke-linejoin="round"/>
<path fill-rule="evenodd" clip-rule="evenodd" d="M154.898 200.961C148.776 204.897 125.856 219.457 124.416 217.754C123.045 216.134 138.878 197.105 144.485 190.467C141.092 191.25 137.863 190.895 137.514 187.196C137.246 184.361 138.346 181.051 138.896 178.305C140.035 172.626 141.297 166.972 142.594 161.328C143.255 158.453 143.408 153.926 145.484 151.65C151.012 145.585 158.053 141.042 163.532 135.063C167.388 130.854 169.559 124.951 174.388 121.659C178.576 118.804 184.432 120.05 189.076 118.393C192.186 117.283 195.266 115.702 198.447 114.842C207.382 112.427 217.141 111.799 226.312 110.828C229.454 110.495 233.749 109.538 237.611 109.447L303.832 52.265C308.878 50.608 315.773 57.045 314.346 62.443L253.021 115.847C256.873 118.615 260.593 121.627 264.82 123.742C286.09 134.385 308.337 143.512 332.193 146.156C338.575 146.863 344.963 147.514 351.349 148.187C352.531 148.311 357.311 148.047 358.198 148.942C361.821 152.595 363.043 158.931 363.997 163.758C367.134 179.631 366.721 195.313 358.19 209.492C355.727 213.586 352.056 220.35 346.649 220.832C341.828 221.261 336.645 217.412 332.638 215.21C325.148 211.094 316.928 207.852 309.143 204.306C304.483 202.183 299.402 199.525 294.274 198.783C283.878 197.279 275.965 208.228 265.596 208.281C258.109 208.319 250.788 206.299 243.307 206.238C234.238 206.164 225.211 208.125 216.137 207.288C207.705 206.51 199.665 202.967 191.127 203.08C181.143 203.212 171.321 207.071 161.441 208.307C160.069 208.478 157.338 208.426 156.344 207.268C156.234 207.139 156.147 206.929 156.073 206.676C155.303 204.776 154.928 202.851 154.898 200.961ZM160.445 176.081L194.15 146.977C193.614 146.786 193.093 146.565 192.592 146.302C187.343 143.556 185.641 147.255 182.301 150.954C180.355 153.11 178.122 154.94 175.883 156.779C173.384 158.832 170.661 160.84 167.618 162.006C166.634 162.383 165.661 162.55 164.646 162.69C163.473 167.574 162.745 171.8 160.445 176.081ZM211.666 151.861L178.01 181.171C189.419 179.175 201.373 179.779 212.536 176.39C216.83 175.086 221.089 174.74 225.516 174.152C227.798 173.849 230.337 173.693 231.949 171.903C232.502 171.288 236.464 166.743 235.563 165.886C231.722 162.234 225.528 165.593 221.255 162.888C217.023 160.21 215.85 154.701 211.725 151.901C211.705 151.888 211.686 151.874 211.666 151.861Z" fill="#FFE38C"/>
<mask id="mask0_556_465" style="mask-type:luminance" maskUnits="userSpaceOnUse" x="124" y="51" width="242" height="170">
<path d="M154.898 200.961C148.776 204.897 125.856 219.457 124.416 217.754C123.045 216.134 138.878 197.105 144.485 190.467C141.092 191.25 137.863 190.895 137.514 187.196C137.246 184.361 138.346 181.051 138.896 178.305C140.035 172.626 141.297 166.972 142.594 161.328C143.255 158.453 143.408 153.926 145.484 151.65C151.012 145.585 158.053 141.042 163.532 135.063C167.388 130.854 169.559 124.951 174.388 121.659C178.576 118.804 184.432 120.05 189.076 118.393C192.186 117.283 195.266 115.702 198.447 114.842C207.382 112.427 217.141 111.799 226.312 110.828C229.454 110.495 233.749 109.538 237.611 109.447L303.832 52.265C308.878 50.608 315.773 57.045 314.346 62.443L253.021 115.847C256.873 118.615 260.593 121.627 264.82 123.742C286.09 134.385 308.337 143.512 332.193 146.156C338.575 146.863 344.963 147.514 351.349 148.187C352.531 148.311 357.311 148.047 358.198 148.942C361.821 152.595 363.043 158.931 363.997 163.758C367.134 179.631 366.721 195.313 358.19 209.492C355.727 213.586 352.056 220.35 346.649 220.832C341.828 221.261 336.645 217.412 332.638 215.21C325.148 211.094 316.928 207.852 309.143 204.306C304.483 202.183 299.402 199.525 294.274 198.783C283.878 197.279 275.965 208.228 265.596 208.281C258.109 208.319 250.788 206.299 243.307 206.238C234.238 206.164 225.211 208.125 216.137 207.288C207.705 206.51 199.665 202.967 191.127 203.08C181.143 203.212 171.321 207.071 161.441 208.307C160.069 208.478 157.338 208.426 156.344 207.268C156.234 207.139 156.147 206.929 156.073 206.676C155.303 204.776 154.928 202.851 154.898 200.961ZM160.445 176.081L194.15 146.977C193.614 146.786 193.093 146.565 192.592 146.302C187.343 143.556 185.641 147.255 182.301 150.954C180.355 153.11 178.122 154.94 175.883 156.779C173.384 158.832 170.661 160.84 167.618 162.006C166.634 162.383 165.661 162.55 164.646 162.69C163.473 167.574 162.745 171.8 160.445 176.081ZM211.666 151.861L178.01 181.171C189.419 179.175 201.373 179.779 212.536 176.39C216.83 175.086 221.089 174.74 225.516 174.152C227.798 173.849 230.337 173.693 231.949 171.903C232.502 171.288 236.464 166.743 235.563 165.886C231.722 162.234 225.528 165.593 221.255 162.888C217.023 160.21 215.85 154.701 211.725 151.901C211.705 151.888 211.686 151.874 211.666 151.861Z" fill="white"/>
</mask>
<g mask="url(#mask0_556_465)">
<path fill-rule="evenodd" clip-rule="evenodd" d="M153.979 181.126C152.67 182.143 151.384 183.185 150.176 184.308C147.22 187.056 144.745 190.263 141.859 193.078C137.087 196.432 132.034 199.498 127.812 203.419C124.29 206.69 119.858 211.931 120.142 217.081C120.288 219.718 122.491 220.934 124.921 220.953C128.457 220.982 131.637 219.039 134.641 217.395C141.318 213.742 148.212 209.822 152.945 203.696C156.777 198.737 158.392 192.304 163.074 187.964C167.23 184.112 173.078 183.668 177.883 181.002C183.961 177.63 188.025 172.083 193.25 167.669C205.44 157.372 217.371 146.797 229.291 136.19C235.02 131.092 240.688 125.921 246.581 121.013C262.418 107.821 283.691 104.467 301.052 93.864C309.067 88.968 316.615 83.078 322.897 76.071C326.073 72.528 329.129 68.695 330.59 64.1C333.9 53.694 327.993 43.27 317.103 41.329C312.14 40.445 306.951 41.834 302.395 43.76C296.932 46.069 291.775 49.332 286.903 52.691C276.176 60.087 266.306 69.249 258.718 79.881C253.068 87.796 249.299 96.933 243.171 104.525C237.45 111.612 229.612 117.411 222.703 123.305C212.654 131.879 202.195 139.968 192.351 148.784C190.141 150.764 187.587 152.337 185.311 154.247C181.706 157.274 178.354 160.588 174.76 163.627C169.59 167.998 164.585 172.56 159.392 176.898C157.64 178.361 155.788 179.72 153.979 181.126Z" fill="white"/>
</g>
<path fill-rule="evenodd" clip-rule="evenodd" d="M154.898 200.961C148.776 204.897 125.856 219.457 124.416 217.754C123.045 216.134 138.878 197.105 144.485 190.467C141.092 191.25 137.863 190.895 137.514 187.196C137.246 184.361 138.346 181.051 138.896 178.305C140.035 172.626 141.297 166.972 142.594 161.328C143.255 158.453 143.408 153.926 145.484 151.65C151.012 145.585 158.053 141.042 163.532 135.063C167.388 130.854 169.559 124.951 174.388 121.659C178.576 118.804 184.432 120.05 189.076 118.393C192.186 117.283 195.266 115.702 198.447 114.842C207.382 112.427 217.141 111.799 226.312 110.828C229.454 110.495 233.749 109.538 237.611 109.447L303.832 52.265C308.878 50.608 315.773 57.045 314.346 62.443L253.021 115.847C256.873 118.615 260.593 121.627 264.82 123.742C286.09 134.385 308.337 143.512 332.193 146.156C338.575 146.863 344.963 147.514 351.349 148.187C352.531 148.311 357.311 148.047 358.198 148.942C361.821 152.595 363.043 158.931 363.997 163.758C367.134 179.631 366.721 195.313 358.19 209.492C355.727 213.586 352.056 220.35 346.649 220.832C341.828 221.261 336.645 217.412 332.638 215.21C325.148 211.094 316.928 207.852 309.143 204.306C304.483 202.183 299.402 199.525 294.274 198.783C283.878 197.279 275.965 208.228 265.596 208.281C258.109 208.319 250.788 206.299 243.307 206.238C234.238 206.164 225.211 208.125 216.137 207.288C207.705 206.51 199.665 202.967 191.127 203.08C181.143 203.212 171.321 207.071 161.441 208.307C160.069 208.478 157.338 208.426 156.344 207.268C156.234 207.139 156.147 206.929 156.073 206.676C155.303 204.776 154.928 202.851 154.898 200.961ZM160.445 176.081L194.15 146.977C193.614 146.786 193.093 146.565 192.592 146.302C187.343 143.556 185.641 147.255 182.301 150.954C180.355 153.11 178.122 154.94 175.883 156.779C173.384 158.832 170.661 160.84 167.618 162.006C166.634 162.383 165.661 162.55 164.646 162.69C163.473 167.574 162.745 171.8 160.445 176.081ZM211.666 151.861L178.01 181.171C189.419 179.175 201.373 179.779 212.536 176.39C216.83 175.086 221.089 174.74 225.516 174.152C227.798 173.849 230.337 173.693 231.949 171.903C232.502 171.288 236.464 166.743 235.563 165.886C231.722 162.234 225.528 165.593 221.255 162.888C217.023 160.21 215.85 154.701 211.725 151.901C211.705 151.888 211.686 151.874 211.666 151.861Z" stroke="#242630" stroke-width="2" stroke-miterlimit="1.5" stroke-linecap="round" stroke-linejoin="round"/>
<path d="M144.799 190.168C150.592 185.66 155.453 180.13 160.898 175.251" stroke="#242630" stroke-width="2" stroke-miterlimit="1.5" stroke-linecap="round" stroke-linejoin="round"/>
<path d="M155.101 202.835C155.106 198.281 157.196 194.646 160.092 191.203C164.563 185.886 170.224 182.177 177.083 181.214" stroke="#242630" stroke-width="2" stroke-miterlimit="1.5" stroke-linecap="round" stroke-linejoin="round"/>
<path d="M211.207 152.274C224.921 139.67 239.094 127.649 253.405 115.741" stroke="#242630" stroke-width="2" stroke-miterlimit="1.5" stroke-linecap="round" stroke-linejoin="round"/>
<path d="M234.632 168.831C237.131 161.936 237.426 155.461 236.987 148.308" stroke="#242630" stroke-width="2" stroke-miterlimit="1.5" stroke-linecap="round" stroke-linejoin="round"/>
<path d="M158.33 160.352C160.277 161.061 162.255 161.694 164.24 162.288" stroke="#242630" stroke-width="2" stroke-miterlimit="1.5" stroke-linecap="round" stroke-linejoin="round"/>
<path d="M182.032 141.776C183.384 142.689 184.796 143.496 186.153 144.398" stroke="#242630" stroke-width="2" stroke-miterlimit="1.5" stroke-linecap="round" stroke-linejoin="round"/>
<path d="M138.418 186.552C140.882 182.972 142.641 179.051 143.482 174.804" stroke="#242630" stroke-width="2" stroke-miterlimit="1.5" stroke-linecap="round" stroke-linejoin="round"/>
<path d="M143.959 153.815C144.456 154.175 144.982 154.469 145.541 154.721" stroke="#242630" stroke-width="2" stroke-miterlimit="1.5" stroke-linecap="round" stroke-linejoin="round"/>
<path d="M192.063 148.998C199.878 142.588 207.095 135.52 214.779 128.96C223.335 121.655 232.419 114.862 240.491 107.002" stroke="#242630" stroke-width="2" stroke-miterlimit="1.5" stroke-linecap="round" stroke-linejoin="round"/>
<path fill-rule="evenodd" clip-rule="evenodd" d="M111.76 336.614C113.373 342.006 115.304 348.808 119.799 352.562C123.381 355.554 127.956 355.104 132.277 355.739C141.567 357.106 150.979 357.7 160.225 359.354C162.538 359.724 164.847 360.117 167.142 360.619C173.604 362.033 180.391 364.744 187.043 365.096C195.829 365.561 203.675 359.702 212.263 360.228C213.076 360.277 219.716 361.015 220.129 362.149C220.722 363.78 219.268 365.982 218.75 367.499C218.25 368.965 218.266 371.852 217.308 372.997C213.768 377.229 206.099 376.883 201.72 380.266C198.813 382.511 196.031 389.601 198.749 392.896C201.021 395.648 209.078 393.495 212.257 393.629C217.307 393.842 222.457 396.676 227.496 395.256C230.716 394.348 232.34 391.32 234.162 388.781C237.351 384.335 242.768 381.051 245.08 376.107C245.994 374.153 245.216 370.857 246.097 369.338C246.392 368.83 249.075 368.67 249.613 368.56C252.468 367.977 255.054 366.804 257.545 365.313C262.282 362.477 265.588 358.489 269.684 354.926C270.088 354.574 273.461 351.622 273.972 351.912C274.66 352.303 274.349 356.416 274.585 357.325C275.326 360.178 277.648 362.716 280.06 364.316C288.078 369.636 290.717 353.332 292.883 348.747C294.127 346.115 296.035 343.635 296.857 340.832C299.591 331.504 296.21 320.72 295.711 311.275C295.391 305.233 296.259 297.691 293.313 292.134C290.947 287.669 285.998 286.317 281.571 284.78C280.917 284.553 275.141 282.132 275.264 281.86C275.739 280.813 278.599 279.955 279.63 279.525C285.221 277.194 288.049 277.823 293.65 280.163C301.797 283.565 310.457 282.891 318.631 285.468C328.009 288.425 336.743 295.231 347.006 294.263C348.884 294.086 350.782 293.813 352.526 293.065C353.739 292.544 354.913 291.863 355.977 291.083C359.496 288.501 359.272 285.268 356.15 282.489C352.154 278.934 346.981 277.161 342.556 274.262C337.022 270.637 331.764 266.573 325.951 263.389C320.683 260.503 314.225 259.449 308.585 257.395C302.524 255.188 295.719 251.377 289.372 250.081C283.89 248.962 278.169 250.622 272.625 249.534C262.495 247.547 250.384 241.32 239.854 242.768C236.199 243.27 233.028 245.332 229.71 246.782C224.097 249.235 218.382 251.514 212.742 253.909C198.249 260.063 183.003 264.988 168.203 270.406C157.358 274.376 147.66 280.573 136.946 284.563C132.051 286.386 125.487 285.676 121.832 289.889C115.3 297.418 114.016 309.827 112.637 319.157C111.808 324.76 110.565 331.011 111.76 336.614Z" fill="#FFE38C"/>
<mask id="mask1_556_465" style="mask-type:luminance" maskUnits="userSpaceOnUse" x="111" y="242" width="248" height="154">
<path d="M111.76 336.614C113.373 342.006 115.304 348.808 119.799 352.562C123.381 355.554 127.956 355.104 132.277 355.739C141.567 357.106 150.979 357.7 160.225 359.354C162.538 359.724 164.847 360.117 167.142 360.619C173.604 362.033 180.391 364.744 187.043 365.096C195.829 365.561 203.675 359.702 212.263 360.228C213.076 360.277 219.716 361.015 220.129 362.149C220.722 363.78 219.268 365.982 218.75 367.499C218.25 368.965 218.266 371.852 217.308 372.997C213.768 377.229 206.099 376.883 201.72 380.266C198.813 382.511 196.031 389.601 198.749 392.896C201.021 395.648 209.078 393.495 212.257 393.629C217.307 393.842 222.457 396.676 227.496 395.256C230.716 394.348 232.34 391.32 234.162 388.781C237.351 384.335 242.768 381.051 245.08 376.107C245.994 374.153 245.216 370.857 246.097 369.338C246.392 368.83 249.075 368.67 249.613 368.56C252.468 367.977 255.054 366.804 257.545 365.313C262.282 362.477 265.588 358.489 269.684 354.926C270.088 354.574 273.461 351.622 273.972 351.912C274.66 352.303 274.349 356.416 274.585 357.325C275.326 360.178 277.648 362.716 280.06 364.316C288.078 369.636 290.717 353.332 292.883 348.747C294.127 346.115 296.035 343.635 296.857 340.832C299.591 331.504 296.21 320.72 295.711 311.275C295.391 305.233 296.259 297.691 293.313 292.134C290.947 287.669 285.998 286.317 281.571 284.78C280.917 284.553 275.141 282.132 275.264 281.86C275.739 280.813 278.599 279.955 279.63 279.525C285.221 277.194 288.049 277.823 293.65 280.163C301.797 283.565 310.457 282.891 318.631 285.468C328.009 288.425 336.743 295.231 347.006 294.263C348.884 294.086 350.782 293.813 352.526 293.065C353.739 292.544 354.913 291.863 355.977 291.083C359.496 288.501 359.272 285.268 356.15 282.489C352.154 278.934 346.981 277.161 342.556 274.262C337.022 270.637 331.764 266.573 325.951 263.389C320.683 260.503 314.225 259.449 308.585 257.395C302.524 255.188 295.719 251.377 289.372 250.081C283.89 248.962 278.169 250.622 272.625 249.534C262.495 247.547 250.384 241.32 239.854 242.768C236.199 243.27 233.028 245.332 229.71 246.782C224.097 249.235 218.382 251.514 212.742 253.909C198.249 260.063 183.003 264.988 168.203 270.406C157.358 274.376 147.66 280.573 136.946 284.563C132.051 286.386 125.487 285.676 121.832 289.889C115.3 297.418 114.016 309.827 112.637 319.157C111.808 324.76 110.565 331.011 111.76 336.614Z" fill="white"/>
</mask>
<g mask="url(#mask1_556_465)">
<path d="M228.195 271.236C231.811 270.584 235.477 270.199 238.972 269C241.287 268.206 243.633 266.488 246.172 266.718C249.936 267.058 253.336 268.963 256.68 270.55C264.58 274.299 271.713 279.82 279.813 283.104" stroke="#242630" stroke-width="2" stroke-miterlimit="1.5" stroke-linecap="round" stroke-linejoin="round"/>
<path d="M247.378 374.481C246.577 367.819 247.17 360.365 245.629 353.826C244.682 349.81 241.925 346.515 239.97 342.966C237.887 339.187 236.656 335.032 234.544 331.263" stroke="#242630" stroke-width="2" stroke-miterlimit="1.5" stroke-linecap="round" stroke-linejoin="round"/>
<path d="M269.7 360.488C275.125 351.386 281.455 343.909 274.679 334.049C273.317 332.068 271.632 330.313 269.955 328.601C267.032 325.618 263.733 322.9 261.21 319.556C255.409 311.868 250.842 302.613 243.927 295.844" stroke="#242630" stroke-width="2" stroke-miterlimit="1.5" stroke-linecap="round" stroke-linejoin="round"/>
<path d="M280.102 306.534C273.607 309.869 269.397 317.151 261.588 313.658C259.796 312.856 257.98 312.111 256.187 311.313" stroke="#242630" stroke-width="2" stroke-miterlimit="1.5" stroke-linecap="round" stroke-linejoin="round"/>
<path d="M280.832 332.747C272.125 329.081 269.516 322.588 265.583 314.878" stroke="#242630" stroke-width="2" stroke-miterlimit="1.5" stroke-linecap="round" stroke-linejoin="round"/>
<path d="M273.74 332.914C273.661 331.259 273.67 329.604 273.687 327.949" stroke="#242630" stroke-width="2" stroke-miterlimit="1.5" stroke-linecap="round" stroke-linejoin="round"/>
<path d="M198.326 339.114C198.876 329.324 205.823 321.818 210.506 313.725C213.234 309.011 215.22 303.691 216.576 298.42" stroke="#242630" stroke-width="2" stroke-miterlimit="1.5" stroke-linecap="round" stroke-linejoin="round"/>
<path d="M220.687 258.754C226.211 258.684 231.59 258.424 237.114 258.717" stroke="#242630" stroke-width="2" stroke-miterlimit="1.5" stroke-linecap="round" stroke-linejoin="round"/>
<path d="M289.355 269.295C288.145 272.041 286.842 274.562 285.007 276.958" stroke="#242630" stroke-width="2" stroke-miterlimit="1.5" stroke-linecap="round" stroke-linejoin="round"/>
<path d="M320.203 281.774C319.37 282.558 318.498 283.189 317.55 283.819" stroke="#242630" stroke-width="2" stroke-miterlimit="1.5" stroke-linecap="round" stroke-linejoin="round"/>
<path d="M216.019 372.078C215.677 377.143 217.556 381.666 221.798 384.719" stroke="#242630" stroke-width="2" stroke-miterlimit="1.5" stroke-linecap="round" stroke-linejoin="round"/>
<path d="M221.316 361.868C222.446 369.191 226.632 376.196 235.009 373.525" stroke="#242630" stroke-width="2" stroke-miterlimit="1.5" stroke-linecap="round" stroke-linejoin="round"/>
<path d="M243.353 348.681C246.724 351.658 251.066 353.165 255.511 353.232" stroke="#242630" stroke-width="2" stroke-miterlimit="1.5" stroke-linecap="round" stroke-linejoin="round"/>
<path d="M268.054 350.975C272.421 348.167 275.54 345.51 278.983 341.815" stroke="#242630" stroke-width="2" stroke-miterlimit="1.5" stroke-linecap="round" stroke-linejoin="round"/>
<path d="M291.771 340.145C293.988 339.304 295.837 338.086 297.297 336.207" stroke="#242630" stroke-width="2" stroke-miterlimit="1.5" stroke-linecap="round" stroke-linejoin="round"/>
</g>
<path fill-rule="evenodd" clip-rule="evenodd" d="M111.76 336.614C113.373 342.006 115.304 348.808 119.799 352.562C123.381 355.554 127.956 355.104 132.277 355.739C141.567 357.106 150.979 357.7 160.225 359.354C162.538 359.724 164.847 360.117 167.142 360.619C173.604 362.033 180.391 364.744 187.043 365.096C195.829 365.561 203.675 359.702 212.263 360.228C213.076 360.277 219.716 361.015 220.129 362.149C220.722 363.78 219.268 365.982 218.75 367.499C218.25 368.965 218.266 371.852 217.308 372.997C213.768 377.229 206.099 376.883 201.72 380.266C198.813 382.511 196.031 389.601 198.749 392.896C201.021 395.648 209.078 393.495 212.257 393.629C217.307 393.842 222.457 396.676 227.496 395.256C230.716 394.348 232.34 391.32 234.162 388.781C237.351 384.335 242.768 381.051 245.08 376.107C245.994 374.153 245.216 370.857 246.097 369.338C246.392 368.83 249.075 368.67 249.613 368.56C252.468 367.977 255.054 366.804 257.545 365.313C262.282 362.477 265.588 358.489 269.684 354.926C270.088 354.574 273.461 351.622 273.972 351.912C274.66 352.303 274.349 356.416 274.585 357.325C275.326 360.178 277.648 362.716 280.06 364.316C288.078 369.636 290.717 353.332 292.883 348.747C294.127 346.115 296.035 343.635 296.857 340.832C299.591 331.504 296.21 320.72 295.711 311.275C295.391 305.233 296.259 297.691 293.313 292.134C290.947 287.669 285.998 286.317 281.571 284.78C280.917 284.553 275.141 282.132 275.264 281.86C275.739 280.813 278.599 279.955 279.63 279.525C285.221 277.194 288.049 277.823 293.65 280.163C301.797 283.565 310.457 282.891 318.631 285.468C328.009 288.425 336.743 295.231 347.006 294.263C348.884 294.086 350.782 293.813 352.526 293.065C353.739 292.544 354.913 291.863 355.977 291.083C359.496 288.501 359.272 285.268 356.15 282.489C352.154 278.934 346.981 277.161 342.556 274.262C337.022 270.637 331.764 266.573 325.951 263.389C320.683 260.503 314.225 259.449 308.585 257.395C302.524 255.188 295.719 251.377 289.372 250.081C283.89 248.962 278.169 250.622 272.625 249.534C262.495 247.547 250.384 241.32 239.854 242.768C236.199 243.27 233.028 245.332 229.71 246.782C224.097 249.235 218.382 251.514 212.742 253.909C198.249 260.063 183.003 264.988 168.203 270.406C157.358 274.376 147.66 280.573 136.946 284.563C132.051 286.386 125.487 285.676 121.832 289.889C115.3 297.418 114.016 309.827 112.637 319.157C111.808 324.76 110.565 331.011 111.76 336.614Z" stroke="#242630" stroke-width="2" stroke-miterlimit="1.5" stroke-linecap="round" stroke-linejoin="round"/>
<path fill-rule="evenodd" clip-rule="evenodd" d="M396.491 308V340L424.491 352V312L396.491 308Z" fill="#242630" stroke="#242630" stroke-width="2" stroke-miterlimit="1.5" stroke-linecap="round" stroke-linejoin="round"/>
<path fill-rule="evenodd" clip-rule="evenodd" d="M412.491 380V396L440.491 416V396L412.491 380Z" fill="#242630" stroke="#242630" stroke-width="2" stroke-miterlimit="1.5" stroke-linecap="round" stroke-linejoin="round"/>
<path fill-rule="evenodd" clip-rule="evenodd" d="M400.491 412V440L424.491 460V428L400.491 412Z" fill="#242630" stroke="#242630" stroke-width="2" stroke-miterlimit="1.5" stroke-linecap="round" stroke-linejoin="round"/>
<defs>
<filter id="filter0_d_556_465" x="42.5" y="16" width="425.991" height="488" filterUnits="userSpaceOnUse" color-interpolation-filters="sRGB">
<feFlood flood-opacity="0" result="BackgroundImageFix"/>
<feColorMatrix in="SourceAlpha" type="matrix" values="0 0 0 0 0 0 0 0 0 0 0 0 0 0 0 0 0 0 127 0" result="hardAlpha"/>
<feOffset dx="-2" dy="8"/>
<feComposite in2="hardAlpha" operator="out"/>
<feColorMatrix type="matrix" values="0 0 0 0 0 0 0 0 0 0 0 0 0 0 0 0 0 0 0.2 0"/>
<feBlend mode="normal" in2="BackgroundImageFix" result="effect1_dropShadow_556_465"/>
<feBlend mode="normal" in="SourceGraphic" in2="effect1_dropShadow_556_465" result="shape"/>
</filter>
</defs>
</svg>
