<svg width="512" height="512" viewBox="0 0 512 512" fill="none" xmlns="http://www.w3.org/2000/svg">
<g filter="url(#filter0_d_556_194)">
<path fill-rule="evenodd" clip-rule="evenodd" d="M241.858 31.64C202.739 57.299 214.744 113.831 185.196 146.341C173.152 159.593 154.567 166.78 138.471 173.777C110.349 186.001 80.3991 197.133 58.9561 220.047C21.1611 260.433 28.3281 317.047 19.0121 367.341C13.1061 399.225 -10.1289 454.238 30.2391 473.513C39.1711 477.778 49.0621 478.381 58.7471 479.371C90.0021 482.567 121.608 478.857 153.009 480.81C227.184 485.423 301.487 492.968 375.897 489.693C408.093 488.276 445.895 490.144 473.961 471.59C499.878 454.459 504.125 419.457 504.784 390.957C505.761 348.644 503.247 305.641 493.049 264.438C483.522 225.944 466.367 189.122 465.476 148.861C464.758 116.445 479.64 74.7 458.402 46.004C447.797 31.674 428.876 28.338 412.159 27.721C390.555 26.923 368.844 31.303 347.295 29.42C335.567 28.395 324.155 25.167 312.568 23.238C290.437 19.552 261.419 19.224 241.858 31.64Z" fill="white"/>
</g>
<path fill-rule="evenodd" clip-rule="evenodd" d="M279.695 58.755H410.463C410.899 62.61 410.742 66.619 410.8 69.846C410.951 78.147 412.911 86.276 413.283 94.559C413.578 101.115 412.229 107.619 413.728 114.118C417.058 128.553 430.721 138.32 436.124 151.95C442.853 168.927 441.168 187.726 443.682 205.49C446.036 222.128 452.458 237.71 451.675 254.812C451.173 265.773 443.952 277.891 439.501 287.612C428.801 310.984 417.756 332.375 401.458 352.2C395.49 359.458 388.683 365.953 382.149 372.688C377.088 377.904 373.225 384.125 368.277 389.437C367.157 390.639 365.981 391.791 364.725 392.85C364.571 392.98 363.516 394.031 363.39 393.838C363.034 393.292 363.48 391.65 363.54 391.063C363.811 388.39 364.115 385.721 364.376 383.047C365.356 372.981 366.315 362.888 367.217 352.814C368.316 340.546 369.003 328.215 371.125 316.065C373.803 300.73 385.545 289.798 388.355 274.256C390.088 264.674 393.6 251.939 390.613 242.273C388.273 234.702 381.816 228.382 376.228 223.084C369.258 216.475 360.749 206.1 350.032 207.502C345.545 208.09 342.62 210.737 339.049 213.185C323.915 223.565 310.265 233.142 303.677 250.628C298.838 263.47 297.992 276.227 295.72 289.538C289.103 328.304 295.084 368.794 274.023 404.048C265.632 387.533 257.394 369.235 254.919 350.762C252.547 333.057 252.766 315.114 250.009 297.45C249.329 293.092 249.769 288.627 250.252 284.268C251.219 275.535 253.038 266.94 254.687 258.318C255.235 255.453 255.762 252.584 256.227 249.704C256.382 248.744 256.53 247.782 256.67 246.819C256.696 246.641 256.848 244.948 256.812 244.975C255.763 245.755 255.018 247.274 253.955 248.172C249.104 252.273 243.727 256.369 237.912 258.991C230.986 262.115 223.709 265.295 216.206 266.718C214.303 267.079 212.389 266.721 210.474 266.714C210.082 266.712 208.539 266.602 208.327 267.028C208.113 267.456 209.5 268.958 209.662 269.468C210.452 271.959 210.615 274.543 210.589 277.141C210.487 287.518 207.341 296.95 209.284 307.397C210.05 311.517 209.989 315.754 210.819 319.843C212.577 328.512 215.833 336.687 216.916 345.514C219.172 363.911 218.893 382.514 217.968 400.991C217.963 401.079 217.96 401.231 217.949 401.414C208.723 386.41 196.522 373.29 188.799 357.385C188.186 356.121 187.593 354.849 187.121 353.532C185.325 348.521 182.813 343.829 180.943 338.851C179.54 335.114 179.08 331.102 177.575 327.389C176.477 324.683 174.525 322.44 173.595 319.653C172.183 315.418 171.692 310.852 170.314 306.559C170.143 307.209 170.083 308.203 170.043 308.439C169.699 310.485 168.725 312.409 168.014 314.35C166.249 319.171 165.469 324.411 162.939 328.933C160.842 332.681 156.987 335.561 155.756 339.783C155.009 342.345 155.652 345.079 155.127 347.677C153.655 354.964 150.731 361.997 148.735 369.152C147.408 373.907 146.953 379.191 144.675 383.615C140.759 391.221 135.77 398.267 130.437 404.938C128.692 407.122 126.922 409.623 124.903 411.716C123.793 401.953 121.011 392.321 120.897 382.453C120.854 378.797 121.649 375.04 122.228 371.441C123.315 364.677 124.65 357.956 125.762 351.196C126.512 346.639 127.285 342.036 127.581 337.424C127.93 331.991 127.769 326.466 128.947 321.12C131.797 308.186 137.634 296.154 140.109 283.079C140.817 279.335 141.364 274.716 143.663 271.549C146.127 268.154 153.015 261.178 152.014 256.572C151.625 254.784 149.109 255.452 147.929 255.75C144.175 256.695 140.224 257.326 137.172 259.886C131.041 265.028 127.613 272.53 123.362 279.133C120.492 283.592 116.936 287.32 113.202 291.055C106.504 297.755 99.0289 303.438 91.4799 309.132C86.9929 312.517 81.4389 318.435 75.7839 319.504C78.0429 311.697 81.5199 304.522 84.1149 296.85C85.3409 293.222 86.4549 289.56 87.9179 286.009C91.1909 278.062 97.5789 271.62 102.726 264.899C112.369 252.308 121.554 234.352 137.081 228.312C150.064 223.261 163.834 218.634 177.216 214.9C182.146 213.524 184.668 209.699 188.454 206.554C194.097 201.867 200.799 197.836 205.174 191.854C212.882 181.313 216.438 168.457 224.37 157.989C238.266 139.65 256.697 124.164 267.804 103.826C274.77 91.072 278.003 76.875 279.411 62.503C279.519 61.398 279.589 60.112 279.695 58.755Z" fill="#FFE38C"/>
<mask id="mask0_556_194" style="mask-type:luminance" maskUnits="userSpaceOnUse" x="75" y="58" width="377" height="354">
<path d="M279.695 58.755H410.463C410.899 62.61 410.742 66.619 410.8 69.846C410.951 78.147 412.911 86.276 413.283 94.559C413.578 101.115 412.229 107.619 413.728 114.118C417.058 128.553 430.721 138.32 436.124 151.95C442.853 168.927 441.168 187.726 443.682 205.49C446.036 222.128 452.458 237.71 451.675 254.812C451.173 265.773 443.952 277.891 439.501 287.612C428.801 310.984 417.756 332.375 401.458 352.2C395.49 359.458 388.683 365.953 382.149 372.688C377.088 377.904 373.225 384.125 368.277 389.437C367.157 390.639 365.981 391.791 364.725 392.85C364.571 392.98 363.516 394.031 363.39 393.838C363.034 393.292 363.48 391.65 363.54 391.063C363.811 388.39 364.115 385.721 364.376 383.047C365.356 372.981 366.315 362.888 367.217 352.814C368.316 340.546 369.003 328.215 371.125 316.065C373.803 300.73 385.545 289.798 388.355 274.256C390.088 264.674 393.6 251.939 390.613 242.273C388.273 234.702 381.816 228.382 376.228 223.084C369.258 216.475 360.749 206.1 350.032 207.502C345.545 208.09 342.62 210.737 339.049 213.185C323.915 223.565 310.265 233.142 303.677 250.628C298.838 263.47 297.992 276.227 295.72 289.538C289.103 328.304 295.084 368.794 274.023 404.048C265.632 387.533 257.394 369.235 254.919 350.762C252.547 333.057 252.766 315.114 250.009 297.45C249.329 293.092 249.769 288.627 250.252 284.268C251.219 275.535 253.038 266.94 254.687 258.318C255.235 255.453 255.762 252.584 256.227 249.704C256.382 248.744 256.53 247.782 256.67 246.819C256.696 246.641 256.848 244.948 256.812 244.975C255.763 245.755 255.018 247.274 253.955 248.172C249.104 252.273 243.727 256.369 237.912 258.991C230.986 262.115 223.709 265.295 216.206 266.718C214.303 267.079 212.389 266.721 210.474 266.714C210.082 266.712 208.539 266.602 208.327 267.028C208.113 267.456 209.5 268.958 209.662 269.468C210.452 271.959 210.615 274.543 210.589 277.141C210.487 287.518 207.341 296.95 209.284 307.397C210.05 311.517 209.989 315.754 210.819 319.843C212.577 328.512 215.833 336.687 216.916 345.514C219.172 363.911 218.893 382.514 217.968 400.991C217.963 401.079 217.96 401.231 217.949 401.414C208.723 386.41 196.522 373.29 188.799 357.385C188.186 356.121 187.593 354.849 187.121 353.532C185.325 348.521 182.813 343.829 180.943 338.851C179.54 335.114 179.08 331.102 177.575 327.389C176.477 324.683 174.525 322.44 173.595 319.653C172.183 315.418 171.692 310.852 170.314 306.559C170.143 307.209 170.083 308.203 170.043 308.439C169.699 310.485 168.725 312.409 168.014 314.35C166.249 319.171 165.469 324.411 162.939 328.933C160.842 332.681 156.987 335.561 155.756 339.783C155.009 342.345 155.652 345.079 155.127 347.677C153.655 354.964 150.731 361.997 148.735 369.152C147.408 373.907 146.953 379.191 144.675 383.615C140.759 391.221 135.77 398.267 130.437 404.938C128.692 407.122 126.922 409.623 124.903 411.716C123.793 401.953 121.011 392.321 120.897 382.453C120.854 378.797 121.649 375.04 122.228 371.441C123.315 364.677 124.65 357.956 125.762 351.196C126.512 346.639 127.285 342.036 127.581 337.424C127.93 331.991 127.769 326.466 128.947 321.12C131.797 308.186 137.634 296.154 140.109 283.079C140.817 279.335 141.364 274.716 143.663 271.549C146.127 268.154 153.015 261.178 152.014 256.572C151.625 254.784 149.109 255.452 147.929 255.75C144.175 256.695 140.224 257.326 137.172 259.886C131.041 265.028 127.613 272.53 123.362 279.133C120.492 283.592 116.936 287.32 113.202 291.055C106.504 297.755 99.0289 303.438 91.4799 309.132C86.9929 312.517 81.4389 318.435 75.7839 319.504C78.0429 311.697 81.5199 304.522 84.1149 296.85C85.3409 293.222 86.4549 289.56 87.9179 286.009C91.1909 278.062 97.5789 271.62 102.726 264.899C112.369 252.308 121.554 234.352 137.081 228.312C150.064 223.261 163.834 218.634 177.216 214.9C182.146 213.524 184.668 209.699 188.454 206.554C194.097 201.867 200.799 197.836 205.174 191.854C212.882 181.313 216.438 168.457 224.37 157.989C238.266 139.65 256.697 124.164 267.804 103.826C274.77 91.072 278.003 76.875 279.411 62.503C279.519 61.398 279.589 60.112 279.695 58.755Z" fill="white"/>
</mask>
<g mask="url(#mask0_556_194)">
<path d="M255.033 253.647C256.737 244.166 257.398 234.384 260.76 225.28C263.502 217.852 268.658 211.983 272.84 205.38C275.92 200.518 277.897 195.063 280.992 190.207" stroke="#242630" stroke-width="2" stroke-miterlimit="1.5" stroke-linecap="round" stroke-linejoin="round"/>
<path d="M192.843 259.02C201.453 261.647 207.719 265.576 214.201 271.882" stroke="#242630" stroke-width="2" stroke-miterlimit="1.5" stroke-linecap="round" stroke-linejoin="round"/>
<path d="M163.179 266.882C166.554 264.02 170.283 262.61 174.371 261.07" stroke="#242630" stroke-width="2" stroke-miterlimit="1.5" stroke-linecap="round" stroke-linejoin="round"/>
<path d="M178.012 321.626C184.415 319.314 191.137 317.845 197.478 315.452" stroke="#242630" stroke-width="2" stroke-miterlimit="1.5" stroke-linecap="round" stroke-linejoin="round"/>
<path d="M184.653 325.24C188.766 323.649 192.958 322.134 197.206 320.934" stroke="#242630" stroke-width="2" stroke-miterlimit="1.5" stroke-linecap="round" stroke-linejoin="round"/>
<path d="M127.22 328.299C132.843 329.008 138.223 329.496 143.834 330.534" stroke="#242630" stroke-width="2" stroke-miterlimit="1.5" stroke-linecap="round" stroke-linejoin="round"/>
<path d="M140.365 273.558C146.538 272.336 152.545 272.849 158.775 272.805" stroke="#242630" stroke-width="2" stroke-miterlimit="1.5" stroke-linecap="round" stroke-linejoin="round"/>
<path d="M104.325 261.333C107.425 262.086 110.548 262.748 113.654 263.482" stroke="#242630" stroke-width="2" stroke-miterlimit="1.5" stroke-linecap="round" stroke-linejoin="round"/>
<path d="M122.305 237.42C126.114 239.869 129.74 241.466 134.077 242.802" stroke="#242630" stroke-width="2" stroke-miterlimit="1.5" stroke-linecap="round" stroke-linejoin="round"/>
<path d="M248.582 300.098C255.967 300.311 263.236 300.047 270.595 299.464" stroke="#242630" stroke-width="2" stroke-miterlimit="1.5" stroke-linecap="round" stroke-linejoin="round"/>
<path d="M259.561 290.244C262.853 290.658 266.188 291.111 269.513 290.826" stroke="#242630" stroke-width="2" stroke-miterlimit="1.5" stroke-linecap="round" stroke-linejoin="round"/>
<path d="M259.992 225.764C270.339 227.979 281.21 227.836 291.448 230.224" stroke="#242630" stroke-width="2" stroke-miterlimit="1.5" stroke-linecap="round" stroke-linejoin="round"/>
<path d="M258.631 235.434C269.475 231.761 280.563 234.166 291.112 237.635" stroke="#242630" stroke-width="2" stroke-miterlimit="1.5" stroke-linecap="round" stroke-linejoin="round"/>
<path fill-rule="evenodd" clip-rule="evenodd" d="M294.983 362.706C296.859 370.793 297.027 378.715 297.082 387.216C297.136 395.582 298.319 404.735 295.515 412.79C292.743 420.754 286.504 427.452 278.153 429.274C272.048 430.607 266.877 430.688 262.419 425.701C250.416 412.271 252.642 391.848 254.809 375.517C255.549 369.938 255.459 363.666 257.391 358.277C258.334 355.463 260.753 353.032 263.395 356.15C265.521 358.66 265.841 361.77 267.07 364.665C267.168 364.897 267.187 364.174 267.246 363.928C267.392 363.316 267.37 363.407 267.524 362.828C267.772 361.887 268.061 360.954 268.424 360.051C269.646 357.01 272.01 353.752 275.514 353.285C278.629 352.87 280.569 355.851 281.38 358.452C281.663 359.359 281.902 360.283 282.07 361.219C282.154 361.685 282.071 363.048 282.285 362.625C284.084 359.069 286.894 350.944 292.098 355.899C292.708 356.48 293.283 357.277 293.618 358.045C293.742 358.33 293.86 358.614 293.973 358.898C294.355 360.174 294.69 361.442 294.983 362.706Z" fill="white" stroke="#242630" stroke-width="2" stroke-miterlimit="1.5" stroke-linecap="round" stroke-linejoin="round"/>
<path fill-rule="evenodd" clip-rule="evenodd" d="M407.634 352.853C406.704 356.78 405.505 360.584 404.548 364.586C401.829 375.957 399.783 386.547 393.553 396.681C391.384 400.209 389.35 403.71 385.931 406.201C381.812 409.203 377.127 411.598 372.098 412.557C366.649 413.596 360.639 414.817 355.133 413.575C334.896 409.007 334.832 382.812 339.836 366.813C341.502 361.485 343.818 355.798 347.023 351.187C352.988 342.604 360.984 336.054 366.862 327.431C369.785 323.793 373.72 321.047 378.198 323.748C381.091 325.493 380.99 329.363 380.524 332.269C380.329 333.481 380.096 334.693 379.86 335.898C379.765 336.383 379.128 337.579 379.567 337.352C384.036 335.029 386.291 330.094 391.87 329.877C392.985 329.833 394.472 329.614 395.466 330.253C398.005 331.884 397.37 335.939 396.842 338.43C396.669 339.246 396.506 340.064 396.294 340.87C396.181 341.298 395.425 342.235 395.853 342.123C396.839 341.862 397.918 340.55 398.678 339.899C401.136 337.791 407.068 333.362 408.972 338.468C409.28 339.296 409.384 340.236 409.364 341.114C409.33 342.683 409.103 344.269 408.9 345.821C408.856 346.153 408.811 346.483 408.763 346.811C408.498 348.883 408.1 350.884 407.634 352.853Z" fill="white" stroke="#242630" stroke-width="2" stroke-miterlimit="1.5" stroke-linecap="round" stroke-linejoin="round"/>
<path d="M266.135 340.39C266.641 348.115 266.377 355.87 266.924 363.57" stroke="#242630" stroke-width="2" stroke-miterlimit="1.5" stroke-linecap="round" stroke-linejoin="round"/>
<path d="M282.891 348.682C282.758 352.59 282.553 356.511 282.665 360.422" stroke="#242630" stroke-width="2" stroke-miterlimit="1.5" stroke-linecap="round" stroke-linejoin="round"/>
<path d="M389.354 317.032C387.096 322.671 384.414 328.268 381.445 333.575" stroke="#242630" stroke-width="2" stroke-miterlimit="1.5" stroke-linecap="round" stroke-linejoin="round"/>
<path d="M405.084 326.195C401.962 331.861 399.116 337.756 395.809 343.317" stroke="#242630" stroke-width="2" stroke-miterlimit="1.5" stroke-linecap="round" stroke-linejoin="round"/>
<path fill-rule="evenodd" clip-rule="evenodd" d="M218.916 364.085C222.023 370.903 225.642 377.645 227.554 384.892C228.993 390.345 229.629 395.837 229.501 401.479C229.436 404.327 229.702 407.709 228.548 410.407C224.575 419.697 209.982 418.778 203.936 412.389C199.385 407.579 197.098 401.238 195.888 394.828C195.199 391.18 194.459 387.41 194.197 383.702C193.808 378.183 195.762 372.459 197.216 367.218C197.669 364.762 198.929 362.489 201.833 363.603C202.958 364.034 204.077 364.764 204.975 365.564C205.117 365.69 205.823 366.575 205.991 366.575C206.096 366.575 206.635 365.301 206.669 365.229C207.312 363.854 208.019 361.924 209.371 361.051C210.534 360.301 212.351 362.057 213.043 362.793C213.372 363.144 213.644 363.546 213.912 363.943C214.006 364.082 214.134 364.518 214.192 364.36C214.916 362.402 214.666 357.013 217.409 360.949C217.546 361.146 217.672 361.35 217.794 361.557C218.157 362.402 218.533 363.244 218.916 364.085Z" fill="white" stroke="#242630" stroke-width="2" stroke-miterlimit="1.5" stroke-linecap="round" stroke-linejoin="round"/>
<path d="M201.365 350.691C203.009 356.338 204.911 361.892 206.759 367.47" stroke="#242630" stroke-width="2" stroke-miterlimit="1.5" stroke-linecap="round" stroke-linejoin="round"/>
<path d="M211.925 354.886C212.91 358.558 213.982 362.217 214.869 365.913" stroke="#242630" stroke-width="2" stroke-miterlimit="1.5" stroke-linecap="round" stroke-linejoin="round"/>
<path fill-rule="evenodd" clip-rule="evenodd" d="M143.766 389.963C143.766 394.521 143.667 399.115 142.725 403.572C141.872 407.612 140.406 410.458 138.282 413.99C137.081 415.987 135.779 418.218 133.88 419.648C127.057 424.783 118.214 421.59 114.968 414.149C112.926 409.47 113.311 404.52 114.226 399.632C115.682 391.844 117.717 384.702 122.764 378.568C126.575 375.448 128.208 383.576 128.981 386.184C129.051 386.423 129.227 385.752 129.348 385.535C129.647 385.003 129.93 384.463 130.228 383.93C130.693 383.101 133.44 377.899 135.194 378.328C137.362 378.858 137.574 382.289 137.729 384.052C137.781 384.633 137.74 385.213 137.711 385.794C137.697 386.068 137.414 386.746 137.656 386.617C138.223 386.314 141.759 382.25 142.463 383.093C143.293 384.087 143.661 385.215 143.759 386.39C143.759 387.576 143.766 388.768 143.766 389.963Z" fill="white" stroke="#242630" stroke-width="2" stroke-miterlimit="1.5" stroke-linecap="round" stroke-linejoin="round"/>
<path d="M141.762 371.813C141.117 375.906 140.155 379.921 139.408 383.992" stroke="#242630" stroke-width="2" stroke-miterlimit="1.5" stroke-linecap="round" stroke-linejoin="round"/>
<path d="M131.626 371.127C130.601 375.556 130.201 380.076 129.214 384.496" stroke="#242630" stroke-width="2" stroke-miterlimit="1.5" stroke-linecap="round" stroke-linejoin="round"/>
<path fill-rule="evenodd" clip-rule="evenodd" d="M103.165 301.325C102.691 306.444 101.77 311.33 99.214 315.945C97.216 319.551 94.547 322.609 91.983 325.808C87.882 330.922 82.231 331.055 76.252 329.759C71.973 328.832 68.37 327.856 66.772 323.2C65.087 318.29 66.82 313.282 68.908 308.804C72.552 300.992 77.78 290.099 87.647 288.982C89.338 288.543 90.654 289.911 91.032 292.177C91.13 292.772 91.173 293.38 91.182 293.983C91.185 294.23 90.883 294.711 91.13 294.722C92.506 294.783 95.028 291.286 96.788 292.455C97.978 293.246 97.966 294.998 97.926 296.244C97.911 296.718 97.232 297.661 97.706 297.65C100.026 297.593 103.015 296.062 103.371 298.738C103.312 299.606 103.245 300.469 103.165 301.325Z" fill="white" stroke="#242630" stroke-width="2" stroke-miterlimit="1.5" stroke-linecap="round" stroke-linejoin="round"/>
<path d="M108.051 285.385C105.164 289.979 101.328 293.788 98.3459 298.239" stroke="#242630" stroke-width="2" stroke-miterlimit="1.5" stroke-linecap="round" stroke-linejoin="round"/>
<path d="M97.7079 285.099C95.7589 287.814 93.9759 290.634 92.0449 293.355" stroke="#242630" stroke-width="2" stroke-miterlimit="1.5" stroke-linecap="round" stroke-linejoin="round"/>
<path d="M388.129 238.412C394.674 249.079 396.563 261.022 396.428 273.464" stroke="#242630" stroke-width="2" stroke-miterlimit="1.5" stroke-linecap="round" stroke-linejoin="round"/>
<path d="M385.84 281.65C386.981 285.005 388.075 287.173 390.309 289.838" stroke="#242630" stroke-width="2" stroke-miterlimit="1.5" stroke-linecap="round" stroke-linejoin="round"/>
<path d="M383.174 289.061C383.518 289.535 383.869 290.004 384.205 290.484" stroke="#242630" stroke-width="2" stroke-miterlimit="1.5" stroke-linecap="round" stroke-linejoin="round"/>
<path d="M345.584 205.681C349.546 204.274 353.847 202.713 358.137 202.817C371.558 203.143 379.058 213.555 385.764 223.661" stroke="#242630" stroke-width="2" stroke-miterlimit="1.5" stroke-linecap="round" stroke-linejoin="round"/>
<path d="M394.077 234.101C395.378 236.946 396.492 239.835 397.691 242.718" stroke="#242630" stroke-width="2" stroke-miterlimit="1.5" stroke-linecap="round" stroke-linejoin="round"/>
<path d="M319.897 192.858C325.036 182.393 330.548 173.479 338.505 165.067" stroke="#242630" stroke-width="2" stroke-miterlimit="1.5" stroke-linecap="round" stroke-linejoin="round"/>
<path d="M296.635 182.53C298.806 180.972 300.516 179.523 302.26 177.548" stroke="#242630" stroke-width="2" stroke-miterlimit="1.5" stroke-linecap="round" stroke-linejoin="round"/>
<path d="M259.643 186.197C273.721 165.848 287.603 144.961 297.795 122.284" stroke="#242630" stroke-width="2" stroke-miterlimit="1.5" stroke-linecap="round" stroke-linejoin="round"/>
<path d="M222.683 200.745C237.044 187.272 249.19 172.862 260.381 156.71" stroke="#242630" stroke-width="2" stroke-miterlimit="1.5" stroke-linecap="round" stroke-linejoin="round"/>
<path d="M215.436 208.187C223.784 207.418 231.751 209.578 239.349 212.848" stroke="#242630" stroke-width="2" stroke-miterlimit="1.5" stroke-linecap="round" stroke-linejoin="round"/>
<path d="M245.74 210.974C249.564 214.213 253.402 215.432 258.302 215.852" stroke="#242630" stroke-width="2" stroke-miterlimit="1.5" stroke-linecap="round" stroke-linejoin="round"/>
<path d="M170.938 306.708C169.527 298.156 168.15 289.27 165.796 280.909C164.67 276.912 161.539 270.372 162.385 266.001C164.299 256.112 172.895 250.517 179.044 243.386C183.628 238.07 188.5 233.045 193.187 227.823C197.503 223.016 201.417 217.644 206.795 213.932C216.352 207.335 227.987 205.162 238.066 199.593C243.654 196.505 247.381 191.7 252.241 187.715" stroke="#242630" stroke-width="2" stroke-miterlimit="1.5" stroke-linecap="round" stroke-linejoin="round"/>
<path d="M181.905 222.83C177.706 224.102 171.189 225.114 167.628 227.998C163.413 231.41 161.263 238.96 159.159 243.716C155.174 252.721 150.513 260.791 145.527 269.243" stroke="#242630" stroke-width="2" stroke-miterlimit="1.5" stroke-linecap="round" stroke-linejoin="round"/>
<path fill-rule="evenodd" clip-rule="evenodd" d="M378.43 382.106C380.409 386.342 381.79 389.912 380.942 394.792C380.009 400.166 375.58 407.209 370.236 409.037C367.307 410.039 363.543 409.21 360.794 407.915C356.069 405.688 354.599 401.291 354.176 396.414C353.608 389.87 354.712 380.569 360.469 376.215C362.083 374.994 363.799 375.012 365.638 374.483L365.633 374.482C371.034 375.324 374.862 377.141 378.415 382.074C378.42 382.085 378.425 382.096 378.43 382.106Z" fill="#242630" stroke="#242630" stroke-width="2" stroke-miterlimit="1.5" stroke-linecap="round" stroke-linejoin="round"/>
<path fill-rule="evenodd" clip-rule="evenodd" d="M269.068 389.884C270.039 390.098 271.035 390.245 272.069 390.285C276.673 390.562 281.154 389.725 285.431 387.454C292.143 383.892 294.867 393.498 295.682 399C297.213 409.331 292.256 417.408 282.646 421.143C280.388 422.021 278.068 422.697 275.627 422.436C272.873 422.142 270.254 420.802 267.721 419.793C261.894 417.473 256.469 414.662 253.549 408.803C252.368 406.433 251.701 403.773 251.165 401.193C250.74 399.149 250.645 397.157 250.824 395.074C250.934 393.794 251.262 392.592 251.752 391.408C253.114 388.112 255.485 386.815 258.195 386.565C262.009 387.257 265.361 389.065 269.068 389.884Z" fill="#242630" stroke="#242630" stroke-width="2" stroke-miterlimit="1.5" stroke-linecap="round" stroke-linejoin="round"/>
<path fill-rule="evenodd" clip-rule="evenodd" d="M211.686 389.003C212.501 388.39 213.436 387.91 214.505 387.599C216.181 387.092 217.926 387.455 219.923 389.103C222.135 390.927 224.721 392.153 226.277 394.618C229.481 399.696 229.119 407.211 223.058 409.789C221.649 410.389 220.076 410.681 218.563 410.843C216.459 411.068 213.917 411.233 211.835 410.724C208.968 410.023 207.229 407.046 206.601 404.359C206.411 399.23 207.363 392.254 211.686 389.003Z" fill="#242630" stroke="#242630" stroke-width="2" stroke-miterlimit="1.5" stroke-linecap="round" stroke-linejoin="round"/>
<path fill-rule="evenodd" clip-rule="evenodd" d="M135.745 399.375C137.03 398.633 138.362 398.045 139.621 398.513C144.7 400.401 142.027 407.913 140.183 410.978C139.182 412.641 138.17 414.618 136.741 415.969C132.567 419.917 124.647 421.812 119.158 419.777C113.027 417.505 111.561 408.993 112.165 403.446C112.417 401.129 113.502 397.229 116.059 396.407C119.884 395.178 122.38 399.437 124.698 400.625C127.108 401.887 130.029 401.993 132.602 401.059C133.564 400.768 134.637 400.014 135.745 399.375Z" fill="#242630" stroke="#242630" stroke-width="2" stroke-miterlimit="1.5" stroke-linecap="round" stroke-linejoin="round"/>
<path fill-rule="evenodd" clip-rule="evenodd" d="M85.0309 315.227C86.3699 317.575 87.6149 320.47 87.1729 322.673C86.0519 328.273 79.0249 327.791 75.1969 325.541C73.8359 324.741 72.7039 323.7 71.5819 322.601C70.4239 321.468 69.5129 319.997 68.9409 318.487C68.5389 317.426 68.3329 316.331 68.3609 315.203C68.5509 307.551 77.7849 309.198 81.1279 311.086C81.9819 311.475 82.7529 312 83.4169 312.658C83.8939 313.359 84.4699 314.245 85.0309 315.227Z" fill="#242630" stroke="#242630" stroke-width="2" stroke-miterlimit="1.5" stroke-linecap="round" stroke-linejoin="round"/>
</g>
<path fill-rule="evenodd" clip-rule="evenodd" d="M279.695 58.755H410.463C410.899 62.61 410.742 66.619 410.8 69.846C410.951 78.147 412.911 86.276 413.283 94.559C413.578 101.115 412.229 107.619 413.728 114.118C417.058 128.553 430.721 138.32 436.124 151.95C442.853 168.927 441.168 187.726 443.682 205.49C446.036 222.128 452.458 237.71 451.675 254.812C451.173 265.773 443.952 277.891 439.501 287.612C428.801 310.984 417.756 332.375 401.458 352.2C395.49 359.458 388.683 365.953 382.149 372.688C377.088 377.904 373.225 384.125 368.277 389.437C367.157 390.639 365.981 391.791 364.725 392.85C364.571 392.98 363.516 394.031 363.39 393.838C363.034 393.292 363.48 391.65 363.54 391.063C363.811 388.39 364.115 385.721 364.376 383.047C365.356 372.981 366.315 362.888 367.217 352.814C368.316 340.546 369.003 328.215 371.125 316.065C373.803 300.73 385.545 289.798 388.355 274.256C390.088 264.674 393.6 251.939 390.613 242.273C388.273 234.702 381.816 228.382 376.228 223.084C369.258 216.475 360.749 206.1 350.032 207.502C345.545 208.09 342.62 210.737 339.049 213.185C323.915 223.565 310.265 233.142 303.677 250.628C298.838 263.47 297.992 276.227 295.72 289.538C289.103 328.304 295.084 368.794 274.023 404.048C265.632 387.533 257.394 369.235 254.919 350.762C252.547 333.057 252.766 315.114 250.009 297.45C249.329 293.092 249.769 288.627 250.252 284.268C251.219 275.535 253.038 266.94 254.687 258.318C255.235 255.453 255.762 252.584 256.227 249.704C256.382 248.744 256.53 247.782 256.67 246.819C256.696 246.641 256.848 244.948 256.812 244.975C255.763 245.755 255.018 247.274 253.955 248.172C249.104 252.273 243.727 256.369 237.912 258.991C230.986 262.115 223.709 265.295 216.206 266.718C214.303 267.079 212.389 266.721 210.474 266.714C210.082 266.712 208.539 266.602 208.327 267.028C208.113 267.456 209.5 268.958 209.662 269.468C210.452 271.959 210.615 274.543 210.589 277.141C210.487 287.518 207.341 296.95 209.284 307.397C210.05 311.517 209.989 315.754 210.819 319.843C212.577 328.512 215.833 336.687 216.916 345.514C219.172 363.911 218.893 382.514 217.968 400.991C217.963 401.079 217.96 401.231 217.949 401.414C208.723 386.41 196.522 373.29 188.799 357.385C188.186 356.121 187.593 354.849 187.121 353.532C185.325 348.521 182.813 343.829 180.943 338.851C179.54 335.114 179.08 331.102 177.575 327.389C176.477 324.683 174.525 322.44 173.595 319.653C172.183 315.418 171.692 310.852 170.314 306.559C170.143 307.209 170.083 308.203 170.043 308.439C169.699 310.485 168.725 312.409 168.014 314.35C166.249 319.171 165.469 324.411 162.939 328.933C160.842 332.681 156.987 335.561 155.756 339.783C155.009 342.345 155.652 345.079 155.127 347.677C153.655 354.964 150.731 361.997 148.735 369.152C147.408 373.907 146.953 379.191 144.675 383.615C140.759 391.221 135.77 398.267 130.437 404.938C128.692 407.122 126.922 409.623 124.903 411.716C123.793 401.953 121.011 392.321 120.897 382.453C120.854 378.797 121.649 375.04 122.228 371.441C123.315 364.677 124.65 357.956 125.762 351.196C126.512 346.639 127.285 342.036 127.581 337.424C127.93 331.991 127.769 326.466 128.947 321.12C131.797 308.186 137.634 296.154 140.109 283.079C140.817 279.335 141.364 274.716 143.663 271.549C146.127 268.154 153.015 261.178 152.014 256.572C151.625 254.784 149.109 255.452 147.929 255.75C144.175 256.695 140.224 257.326 137.172 259.886C131.041 265.028 127.613 272.53 123.362 279.133C120.492 283.592 116.936 287.32 113.202 291.055C106.504 297.755 99.0289 303.438 91.4799 309.132C86.9929 312.517 81.4389 318.435 75.7839 319.504C78.0429 311.697 81.5199 304.522 84.1149 296.85C85.3409 293.222 86.4549 289.56 87.9179 286.009C91.1909 278.062 97.5789 271.62 102.726 264.899C112.369 252.308 121.554 234.352 137.081 228.312C150.064 223.261 163.834 218.634 177.216 214.9C182.146 213.524 184.668 209.699 188.454 206.554C194.097 201.867 200.799 197.836 205.174 191.854C212.882 181.313 216.438 168.457 224.37 157.989C238.266 139.65 256.697 124.164 267.804 103.826C274.77 91.072 278.003 76.875 279.411 62.503C279.519 61.398 279.589 60.112 279.695 58.755Z" stroke="#242630" stroke-width="2" stroke-miterlimit="1.5" stroke-linecap="round" stroke-linejoin="round"/>
<path d="M475.094 437.624C465.256 434.955 457.019 427.742 447.303 424.467C439.673 421.895 430.845 421.796 422.851 422.417C414.447 423.07 406.068 426.638 397.897 428.649C393.642 429.697 387.995 430.387 384.502 426.977C381.797 424.336 387.637 419.704 389.241 418.549C395.683 413.905 403.876 412.654 411.214 410.025C411.899 409.78 418.142 407.726 417.696 406.056C416.698 402.317 411.139 401.242 408.022 400.971C401.521 400.407 395.069 401.545 388.601 402.009C385.638 402.222 381.426 402.696 378.676 401.368C378.084 401.082 379.716 400.037 379.932 399.922C381.023 399.347 384.408 398.652 382.941 396.815C381.705 395.27 379.19 394.941 377.362 394.668C372.731 393.976 368.031 393.907 363.36 393.782" stroke="#242630" stroke-width="2" stroke-miterlimit="1.5" stroke-linecap="round" stroke-linejoin="round"/>
<path d="M327.004 478.085C310.312 476.046 294.456 470.795 278.893 464.62C275.294 463.192 271.282 462.084 268.158 459.72C266.903 458.77 265.418 457.242 266.097 455.525C267.148 452.87 271.162 451.678 273.618 450.897C280.733 448.635 288.514 448.143 295.413 445.325C299.095 443.822 304.658 440.685 302.586 435.861C301.216 432.674 297.902 431.161 294.669 430.496C287.793 429.083 280.509 429.878 273.784 427.694C272.228 427.189 267.102 425.958 268.631 423.371C270.916 419.507 275.244 420.236 278.892 419.302C280.235 418.958 282.894 418.003 283.384 416.486C283.972 414.664 280.065 413.723 278.988 413.416C273.713 411.911 268.198 411.493 262.801 410.62C261.309 410.379 259.785 410.143 258.344 409.675C258.068 409.586 257.183 409.368 257.172 408.956C257.125 407.25 260.38 406.701 261.574 406.485C265.166 405.835 268.823 406.832 272.4 407.13C273.91 407.256 276.126 407.512 277.547 406.841C278.073 406.593 276.633 406.121 276.16 405.783C275.439 405.268 274.686 404.78 274.004 404.214" stroke="#242630" stroke-width="2" stroke-miterlimit="1.5" stroke-linecap="round" stroke-linejoin="round"/>
<path d="M160.234 451.269C158.439 449.376 157.008 447.534 156.137 445.048C155.699 443.798 155.366 442.476 155.231 441.157C154.735 436.302 157.198 432.99 161.979 432.134C165.21 431.556 168.471 432.046 171.723 431.831C181.364 431.193 192.51 429.67 199.65 422.482C202.76 419.35 205.991 414.599 202.777 410.419C198.706 405.123 191.1 404.732 185.103 403.68C183.234 403.352 179.597 402.694 180.434 399.977C181.444 396.694 187.661 396.73 190.344 396.637C196.502 396.423 203.003 396.177 208.961 398.008C209.388 398.14 210.155 398.241 210.351 398.7C210.625 399.344 210.177 400.403 210.859 400.85C212.914 402.195 215.74 401.523 218.032 401.686" stroke="#242630" stroke-width="2" stroke-miterlimit="1.5" stroke-linecap="round" stroke-linejoin="round"/>
<path d="M23.177 443.321C34.418 442.572 45.662 440.995 56.951 441.44C72.074 442.036 87.412 444.121 102.546 443.526C110.406 443.216 117.828 442.488 125.407 440.28C127.379 439.705 132.728 437.926 131.371 434.892C129.679 431.107 123.343 429.197 119.994 427.332C118.77 426.65 116.201 425.515 116.093 423.856C115.823 419.698 123.296 418.498 126.215 417.579C126.473 417.497 129.93 416.537 129.907 416.144C129.819 414.63 125.845 412.317 124.719 411.516" stroke="#242630" stroke-width="2" stroke-miterlimit="1.5" stroke-linecap="round" stroke-linejoin="round"/>
<defs>
<filter id="filter0_d_556_194" x="6.99976" y="21.0004" width="497.979" height="477.492" filterUnits="userSpaceOnUse" color-interpolation-filters="sRGB">
<feFlood flood-opacity="0" result="BackgroundImageFix"/>
<feColorMatrix in="SourceAlpha" type="matrix" values="0 0 0 0 0 0 0 0 0 0 0 0 0 0 0 0 0 0 127 0" result="hardAlpha"/>
<feOffset dy="8"/>
<feComposite in2="hardAlpha" operator="out"/>
<feColorMatrix type="matrix" values="0 0 0 0 0 0 0 0 0 0 0 0 0 0 0 0 0 0 0.2 0"/>
<feBlend mode="normal" in2="BackgroundImageFix" result="effect1_dropShadow_556_194"/>
<feBlend mode="normal" in="SourceGraphic" in2="effect1_dropShadow_556_194" result="shape"/>
</filter>
</defs>
</svg>
