<svg width="512" height="512" viewBox="0 0 512 512" fill="none" xmlns="http://www.w3.org/2000/svg">
<g filter="url(#filter0_d_561_1597)">
<path fill-rule="evenodd" clip-rule="evenodd" d="M173.334 20.2573C129.485 29.3953 85.4232 47.3613 64.4362 88.3063C37.0862 141.664 56.0772 200.195 51.7322 256.541C48.3512 300.387 27.6112 340.964 26.2102 385.203C23.8822 458.683 88.6052 489.212 151.046 496.431C222.849 504.733 325.867 504.292 394.299 480.96C434.553 467.235 472.537 441.055 482.562 397.624C492.988 352.463 475.618 307.944 471.95 263.118C467.79 212.273 486.088 160.592 468.307 110.949C429.3 2.05029 266.842 0.768287 173.334 20.2573Z" fill="white"/>
</g>
<path fill-rule="evenodd" clip-rule="evenodd" d="M195.682 316.85C185.39 306.428 177.295 293.97 172.612 279.877C166.131 260.371 164.639 238.374 163.249 217.979C163.299 217.012 163.378 216.045 163.488 215.078C164.332 207.698 169.962 201.814 170.632 194.456C171.044 189.937 168.727 186.05 168.18 181.668C167.6 177.009 169.179 171.842 170.575 167.448C173.407 158.541 177.634 150.13 181.844 141.813C184.464 136.637 187.805 131.34 188.336 125.439C188.668 121.755 186.769 118.795 185.798 115.367C184.65 111.312 184.94 106.873 186.265 102.902C188.406 96.4881 193.066 91.7021 198.036 87.3391C207.812 78.7571 219.94 69.9261 232.968 67.3911C234.173 67.1571 235.71 66.7171 236.756 67.5911C238.867 69.3531 237.605 73.8651 241.589 71.8901C257.753 63.8751 275.998 45.9121 295.584 49.5481C298.534 50.0961 300.723 51.6841 301.628 54.5841C302.325 56.8151 302.282 59.9691 304.625 61.2301C310.966 64.6401 318.711 58.7591 325.324 61.4801C329.556 63.2211 327.558 69.4821 330.808 71.2801C332.546 72.2411 335.923 71.4591 337.77 71.1941C342.974 70.4461 349.754 68.5921 354.159 72.5921C357.829 75.9241 350.425 79.0331 353.412 81.7741C359.861 87.6901 372.299 79.9601 377.496 88.2621C381.745 95.0501 364.474 97.6271 368.918 104.57C372.205 109.705 381.355 108.347 386.49 109.288C389.385 109.819 392.456 110.995 393.338 114.1C394.318 117.551 392.304 120.28 389.669 122.282C385.11 125.746 374.966 128.817 375.432 135.965C375.583 138.279 377.578 138.801 379.583 139.057C382.867 139.475 389.909 138.367 391.538 142.208C393.734 147.384 383.199 150.734 382.916 155.845C382.494 163.477 393.561 162.269 394.598 168.242C395.017 170.658 392.99 173.042 391.568 174.734C387.995 178.983 382.358 182.069 379.671 186.945C377.033 191.732 381.129 197.161 378.484 201.958C376.583 205.404 371.18 207.536 370.454 211.569C370.077 213.668 372.599 214.914 373.397 216.568C374.402 218.652 373.392 220.589 371.93 222.158C369.103 225.192 365.266 226.955 362.075 229.534C361.065 230.351 359.937 231.558 359.986 232.948C360.069 235.337 362.286 236.938 360.576 239.456C357.832 243.497 350.804 243.784 351.505 250.008C351.889 253.412 357.21 255.563 355.426 259.366C353.841 262.746 347.767 260.579 346.577 264.021C345.357 267.547 349.031 271.273 346.925 274.722C346.827 274.882 346.335 275.717 346 275.654C345.461 275.553 344.967 272.595 344.672 272.054C343.192 269.342 339.505 269.639 337.521 271.578C334.904 274.136 333.901 278.386 332.904 281.788C330.589 289.681 329.406 297.839 327.762 305.884C325.983 314.584 323.043 324.812 328.821 332.784C333.798 339.649 346.315 339.69 345.311 350.349C345.078 352.819 344.095 355.01 343.169 357.292C340.329 364.292 335.632 369.097 330.431 374.392C320.428 384.577 310.674 394.456 296.562 398.644C287.975 401.192 278.933 401.933 270.128 403.376C245.573 407.402 223.278 406.626 200.609 395.095C195.155 392.321 188.296 389.233 184.221 384.482C181.984 381.875 180.344 378.713 179.374 375.345C178.897 373.667 178.531 372.026 178.431 370.284C178.355 368.949 178.586 367.594 178.971 366.322C181.245 358.798 188.705 359.097 194.25 355.058C199.941 350.915 204.019 345.945 208.264 340.379C210.22 337.813 211.862 335.121 213.553 332.38C213.965 331.712 214.38 331.03 214.685 330.305C214.776 330.089 214.973 329.693 214.858 329.453C214.6 328.918 213.653 328.833 213.154 328.673C206.246 326.468 200.704 321.936 195.682 316.85Z" fill="#FFE38C"/>
<mask id="mask0_561_1597" style="mask-type:luminance" maskUnits="userSpaceOnUse" x="163" y="49" width="232" height="357">
<path d="M195.682 316.85C185.39 306.428 177.295 293.97 172.612 279.877C166.131 260.371 164.639 238.374 163.249 217.979C163.299 217.012 163.378 216.045 163.488 215.078C164.332 207.698 169.962 201.814 170.632 194.456C171.044 189.937 168.727 186.05 168.18 181.668C167.6 177.009 169.179 171.842 170.575 167.448C173.407 158.541 177.634 150.13 181.844 141.813C184.464 136.637 187.805 131.34 188.336 125.439C188.668 121.755 186.769 118.795 185.798 115.367C184.65 111.312 184.94 106.873 186.265 102.902C188.406 96.4881 193.066 91.7021 198.036 87.3391C207.812 78.7571 219.94 69.9261 232.968 67.3911C234.173 67.1571 235.71 66.7171 236.756 67.5911C238.867 69.3531 237.605 73.8651 241.589 71.8901C257.753 63.8751 275.998 45.9121 295.584 49.5481C298.534 50.0961 300.723 51.6841 301.628 54.5841C302.325 56.8151 302.282 59.9691 304.625 61.2301C310.966 64.6401 318.711 58.7591 325.324 61.4801C329.556 63.2211 327.558 69.4821 330.808 71.2801C332.546 72.2411 335.923 71.4591 337.77 71.1941C342.974 70.4461 349.754 68.5921 354.159 72.5921C357.829 75.9241 350.425 79.0331 353.412 81.7741C359.861 87.6901 372.299 79.9601 377.496 88.2621C381.745 95.0501 364.474 97.6271 368.918 104.57C372.205 109.705 381.355 108.347 386.49 109.288C389.385 109.819 392.456 110.995 393.338 114.1C394.318 117.551 392.304 120.28 389.669 122.282C385.11 125.746 374.966 128.817 375.432 135.965C375.583 138.279 377.578 138.801 379.583 139.057C382.867 139.475 389.909 138.367 391.538 142.208C393.734 147.384 383.199 150.734 382.916 155.845C382.494 163.477 393.561 162.269 394.598 168.242C395.017 170.658 392.99 173.042 391.568 174.734C387.995 178.983 382.358 182.069 379.671 186.945C377.033 191.732 381.129 197.161 378.484 201.958C376.583 205.404 371.18 207.536 370.454 211.569C370.077 213.668 372.599 214.914 373.397 216.568C374.402 218.652 373.392 220.589 371.93 222.158C369.103 225.192 365.266 226.955 362.075 229.534C361.065 230.351 359.937 231.558 359.986 232.948C360.069 235.337 362.286 236.938 360.576 239.456C357.832 243.497 350.804 243.784 351.505 250.008C351.889 253.412 357.21 255.563 355.426 259.366C353.841 262.746 347.767 260.579 346.577 264.021C345.357 267.547 349.031 271.273 346.925 274.722C346.827 274.882 346.335 275.717 346 275.654C345.461 275.553 344.967 272.595 344.672 272.054C343.192 269.342 339.505 269.639 337.521 271.578C334.904 274.136 333.901 278.386 332.904 281.788C330.589 289.681 329.406 297.839 327.762 305.884C325.983 314.584 323.043 324.812 328.821 332.784C333.798 339.649 346.315 339.69 345.311 350.349C345.078 352.819 344.095 355.01 343.169 357.292C340.329 364.292 335.632 369.097 330.431 374.392C320.428 384.577 310.674 394.456 296.562 398.644C287.975 401.192 278.933 401.933 270.128 403.376C245.573 407.402 223.278 406.626 200.609 395.095C195.155 392.321 188.296 389.233 184.221 384.482C181.984 381.875 180.344 378.713 179.374 375.345C178.897 373.667 178.531 372.026 178.431 370.284C178.355 368.949 178.586 367.594 178.971 366.322C181.245 358.798 188.705 359.097 194.25 355.058C199.941 350.915 204.019 345.945 208.264 340.379C210.22 337.813 211.862 335.121 213.553 332.38C213.965 331.712 214.38 331.03 214.685 330.305C214.776 330.089 214.973 329.693 214.858 329.453C214.6 328.918 213.653 328.833 213.154 328.673C206.246 326.468 200.704 321.936 195.682 316.85Z" fill="white"/>
</mask>
<g mask="url(#mask0_561_1597)">
<path d="M215.986 194.323C212.146 208.814 211.036 224.06 206.376 238.331C204.755 243.294 199.254 250.167 201.697 255.603C204.288 261.365 213.757 262.402 218.885 264.706" stroke="#242630" stroke-width="2" stroke-miterlimit="1.5" stroke-linecap="round" stroke-linejoin="round"/>
<path d="M218.855 256.793C222.217 256.916 225.735 256.103 228.978 257.318C231.281 258.181 231.858 260.984 234.618 260.726C239.512 260.267 238.67 254.204 237.698 250.906" stroke="#242630" stroke-width="2" stroke-miterlimit="1.5" stroke-linecap="round" stroke-linejoin="round"/>
<path fill-rule="evenodd" clip-rule="evenodd" d="M203.967 280.437C207.209 283.729 211.841 283.506 216.029 282.448C222.05 280.927 227.892 278.439 233.956 277.153C237.022 276.504 240.183 276.56 243.291 276.259C245.06 276.087 246.875 275.819 248.533 275.15C248.794 275.044 250.737 273.727 250.801 273.833C251.131 274.382 249.351 276.585 249.034 276.985C247.65 278.729 246.113 280.367 244.237 281.586C236.853 286.383 228.323 285.491 219.981 286.223C216.503 286.529 213.053 287.879 209.617 286.589C207.273 285.709 205.398 282.378 203.967 280.437Z" fill="white" stroke="#242630" stroke-width="2" stroke-miterlimit="1.5" stroke-linecap="round" stroke-linejoin="round"/>
<path d="M252.175 266.023C255.033 266.039 258.465 265.34 258.94 269.111C259.025 269.787 259.034 270.452 258.975 271.131C258.887 272.132 258.727 273.12 258.557 274.11C258.23 276.008 257.812 277.883 257.375 279.759" stroke="#242630" stroke-width="2" stroke-miterlimit="1.5" stroke-linecap="round" stroke-linejoin="round"/>
<path d="M212.33 328.274C221.443 330.228 230.384 331.504 239.697 330.361C264.418 327.326 285.442 306.132 301.292 288.883" stroke="#242630" stroke-width="2" stroke-miterlimit="1.5" stroke-linecap="round" stroke-linejoin="round"/>
<path d="M348.374 189.563C349.31 189.428 350.233 189.452 351.17 189.536C357.333 190.089 356.602 196.925 356.039 201.461C355.151 208.602 353.106 216.334 348.292 221.886C346.083 224.433 343.13 226.17 340.63 228.404C337.612 231.101 335.499 234.691 332.835 237.718C330.48 240.392 327.02 243.207 323.457 243.942C320.028 244.648 317.565 243.387 318.081 239.625" stroke="#242630" stroke-width="2" stroke-miterlimit="1.5" stroke-linecap="round" stroke-linejoin="round"/>
<path d="M326.553 226.599C328.696 223.331 327.064 221.017 327.071 217.628C327.075 215.262 328.353 213.511 329.807 211.767C332.124 208.989 334.406 206.056 336.943 203.48C337.616 202.797 338.332 202.148 339.041 201.501C339.713 200.888 340.413 200.312 341.152 199.782C343.748 197.921 350.895 192.578 351.56 199.309C351.63 200.017 351.619 200.727 351.526 201.431C351.352 202.733 350.958 204.055 350.488 205.278C348.754 209.786 345.952 214.783 342.785 218.425C340.425 221.14 337.367 223.209 335.219 226.123C333.262 228.776 332.298 233.375 329.237 234.893" stroke="#242630" stroke-width="2" stroke-miterlimit="1.5" stroke-linecap="round" stroke-linejoin="round"/>
<path d="M325.13 233.422C330.531 230.193 331.521 224.587 335.055 219.784C336.678 217.577 339.755 216.389 340.711 213.708C342.041 209.979 339.437 206.475 335.742 205.939" stroke="#242630" stroke-width="2" stroke-miterlimit="1.5" stroke-linecap="round" stroke-linejoin="round"/>
<path d="M195.571 132.083C193.829 124.629 189.53 117.381 190.504 109.532" stroke="#242630" stroke-width="2" stroke-miterlimit="1.5" stroke-linecap="round" stroke-linejoin="round"/>
<path d="M202.373 138.535C200.137 125.27 191.034 113.889 199.255 100.486C200.333 98.7281 201.525 97.0701 203.135 95.7561" stroke="#242630" stroke-width="2" stroke-miterlimit="1.5" stroke-linecap="round" stroke-linejoin="round"/>
<path d="M206.723 145.919C208.334 129.238 195.202 115.059 204.741 98.9151C206.206 96.4361 207.886 94.3441 210.009 92.4011" stroke="#242630" stroke-width="2" stroke-miterlimit="1.5" stroke-linecap="round" stroke-linejoin="round"/>
<path d="M209.524 128.118C204.823 115.918 209.368 105.356 218.147 96.4052" stroke="#242630" stroke-width="2" stroke-miterlimit="1.5" stroke-linecap="round" stroke-linejoin="round"/>
<path d="M214.685 145.514C215.083 135.31 212.137 124.723 216.073 114.922" stroke="#242630" stroke-width="2" stroke-miterlimit="1.5" stroke-linecap="round" stroke-linejoin="round"/>
<path d="M220.935 148.338C220.537 143.513 220.046 138.716 219.87 133.878" stroke="#242630" stroke-width="2" stroke-miterlimit="1.5" stroke-linecap="round" stroke-linejoin="round"/>
<path d="M227.334 148.694C227.515 145.947 227.882 143.27 228.483 140.584" stroke="#242630" stroke-width="2" stroke-miterlimit="1.5" stroke-linecap="round" stroke-linejoin="round"/>
<path d="M238.881 152.492C234.628 143.219 235.884 136.751 242.55 129.626" stroke="#242630" stroke-width="2" stroke-miterlimit="1.5" stroke-linecap="round" stroke-linejoin="round"/>
<path d="M243.056 148.017C243.527 144.028 244.437 140.353 246.671 136.948C250.974 130.387 258.013 126.473 261.064 118.934C264.592 110.216 258.603 102.27 259.131 93.4561C259.753 83.0851 269.963 75.2991 277.731 70.1261" stroke="#242630" stroke-width="2" stroke-miterlimit="1.5" stroke-linecap="round" stroke-linejoin="round"/>
<path d="M250.369 141.116C253.895 135.113 259.922 132.667 264.872 128.1C267.225 125.929 269.141 123.095 270.684 120.301C272.706 116.638 274.178 113.016 274.646 108.797C275.551 100.635 274.503 93.6101 280.874 87.1701C284.079 83.9301 288.166 81.9281 292.156 79.8341" stroke="#242630" stroke-width="2" stroke-miterlimit="1.5" stroke-linecap="round" stroke-linejoin="round"/>
<path d="M251.057 151.332C255.42 138.455 267.66 135.726 277.404 128.094C283.5 123.319 286.708 116.036 288.183 108.624" stroke="#242630" stroke-width="2" stroke-miterlimit="1.5" stroke-linecap="round" stroke-linejoin="round"/>
<path d="M259.167 148.038C270.128 137.13 285.471 133.186 296.715 122.586C304.692 115.066 308.854 105.006 311.271 94.5791" stroke="#242630" stroke-width="2" stroke-miterlimit="1.5" stroke-linecap="round" stroke-linejoin="round"/>
<path d="M271.469 145.445C277.247 140.849 283.463 136.697 290.262 133.756C294.68 131.845 299.444 130.97 303.81 128.957C311.052 125.62 316.445 120.924 320.598 114.19" stroke="#242630" stroke-width="2" stroke-miterlimit="1.5" stroke-linecap="round" stroke-linejoin="round"/>
<path d="M272.155 149.437C278.49 144.902 284.795 141.296 292.309 139.153C300.616 136.785 309.79 136.673 317.731 133.133C322.931 130.815 327.035 126.845 330.933 122.807" stroke="#242630" stroke-width="2" stroke-miterlimit="1.5" stroke-linecap="round" stroke-linejoin="round"/>
<path d="M292.765 143.055C297.321 141.976 301.806 140.597 306.477 140.061C309.927 139.665 313.501 140.097 316.867 139.061C323.181 137.116 329.087 133.938 333.918 129.433" stroke="#242630" stroke-width="2" stroke-miterlimit="1.5" stroke-linecap="round" stroke-linejoin="round"/>
<path d="M315.257 142.949C324.224 142.373 330.124 137.525 336.46 131.57C340.729 127.558 345.449 121.758 351.563 120.788C353.741 120.442 355.838 120.892 357.959 121.361" stroke="#242630" stroke-width="2" stroke-miterlimit="1.5" stroke-linecap="round" stroke-linejoin="round"/>
<path d="M321.681 146.688C328.526 144.343 334.532 140.836 340.864 137.36" stroke="#242630" stroke-width="2" stroke-miterlimit="1.5" stroke-linecap="round" stroke-linejoin="round"/>
<path d="M323.796 151.08C327.5 149.961 330.942 148.416 334.421 146.727" stroke="#242630" stroke-width="2" stroke-miterlimit="1.5" stroke-linecap="round" stroke-linejoin="round"/>
<path d="M323.546 159.381C325.773 157.729 328.037 156.211 330.383 154.737" stroke="#242630" stroke-width="2" stroke-miterlimit="1.5" stroke-linecap="round" stroke-linejoin="round"/>
<path d="M310.676 177.753C317.951 171.959 325.305 166.133 331.612 159.273" stroke="#242630" stroke-width="2" stroke-miterlimit="1.5" stroke-linecap="round" stroke-linejoin="round"/>
<path d="M310.46 181.865C316.442 178.644 322.104 174.703 327.438 170.489" stroke="#242630" stroke-width="2" stroke-miterlimit="1.5" stroke-linecap="round" stroke-linejoin="round"/>
<path d="M318.12 182.33C321.395 180.597 324.704 178.919 327.704 176.73" stroke="#242630" stroke-width="2" stroke-miterlimit="1.5" stroke-linecap="round" stroke-linejoin="round"/>
<path d="M327.106 182.377C331.408 180.395 335.366 178.127 339.288 175.454" stroke="#242630" stroke-width="2" stroke-miterlimit="1.5" stroke-linecap="round" stroke-linejoin="round"/>
</g>
<path fill-rule="evenodd" clip-rule="evenodd" d="M195.682 316.85C185.39 306.428 177.295 293.97 172.612 279.877C166.131 260.371 164.639 238.374 163.249 217.979C163.299 217.012 163.378 216.045 163.488 215.078C164.332 207.698 169.962 201.814 170.632 194.456C171.044 189.937 168.727 186.05 168.18 181.668C167.6 177.009 169.179 171.842 170.575 167.448C173.407 158.541 177.634 150.13 181.844 141.813C184.464 136.637 187.805 131.34 188.336 125.439C188.668 121.755 186.769 118.795 185.798 115.367C184.65 111.312 184.94 106.873 186.265 102.902C188.406 96.4881 193.066 91.7021 198.036 87.3391C207.812 78.7571 219.94 69.9261 232.968 67.3911C234.173 67.1571 235.71 66.7171 236.756 67.5911C238.867 69.3531 237.605 73.8651 241.589 71.8901C257.753 63.8751 275.998 45.9121 295.584 49.5481C298.534 50.0961 300.723 51.6841 301.628 54.5841C302.325 56.8151 302.282 59.9691 304.625 61.2301C310.966 64.6401 318.711 58.7591 325.324 61.4801C329.556 63.2211 327.558 69.4821 330.808 71.2801C332.546 72.2411 335.923 71.4591 337.77 71.1941C342.974 70.4461 349.754 68.5921 354.159 72.5921C357.829 75.9241 350.425 79.0331 353.412 81.7741C359.861 87.6901 372.299 79.9601 377.496 88.2621C381.745 95.0501 364.474 97.6271 368.918 104.57C372.205 109.705 381.355 108.347 386.49 109.288C389.385 109.819 392.456 110.995 393.338 114.1C394.318 117.551 392.304 120.28 389.669 122.282C385.11 125.746 374.966 128.817 375.432 135.965C375.583 138.279 377.578 138.801 379.583 139.057C382.867 139.475 389.909 138.367 391.538 142.208C393.734 147.384 383.199 150.734 382.916 155.845C382.494 163.477 393.561 162.269 394.598 168.242C395.017 170.658 392.99 173.042 391.568 174.734C387.995 178.983 382.358 182.069 379.671 186.945C377.033 191.732 381.129 197.161 378.484 201.958C376.583 205.404 371.18 207.536 370.454 211.569C370.077 213.668 372.599 214.914 373.397 216.568C374.402 218.652 373.392 220.589 371.93 222.158C369.103 225.192 365.266 226.955 362.075 229.534C361.065 230.351 359.937 231.558 359.986 232.948C360.069 235.337 362.286 236.938 360.576 239.456C357.832 243.497 350.804 243.784 351.505 250.008C351.889 253.412 357.21 255.563 355.426 259.366C353.841 262.746 347.767 260.579 346.577 264.021C345.357 267.547 349.031 271.273 346.925 274.722C346.827 274.882 346.335 275.717 346 275.654C345.461 275.553 344.967 272.595 344.672 272.054C343.192 269.342 339.505 269.639 337.521 271.578C334.904 274.136 333.901 278.386 332.904 281.788C330.589 289.681 329.406 297.839 327.762 305.884C325.983 314.584 323.043 324.812 328.821 332.784C333.798 339.649 346.315 339.69 345.311 350.349C345.078 352.819 344.095 355.01 343.169 357.292C340.329 364.292 335.632 369.097 330.431 374.392C320.428 384.577 310.674 394.456 296.562 398.644C287.975 401.192 278.933 401.933 270.128 403.376C245.573 407.402 223.278 406.626 200.609 395.095C195.155 392.321 188.296 389.233 184.221 384.482C181.984 381.875 180.344 378.713 179.374 375.345C178.897 373.667 178.531 372.026 178.431 370.284C178.355 368.949 178.586 367.594 178.971 366.322C181.245 358.798 188.705 359.097 194.25 355.058C199.941 350.915 204.019 345.945 208.264 340.379C210.22 337.813 211.862 335.121 213.553 332.38C213.965 331.712 214.38 331.03 214.685 330.305C214.776 330.089 214.973 329.693 214.858 329.453C214.6 328.918 213.653 328.833 213.154 328.673C206.246 326.468 200.704 321.936 195.682 316.85Z" stroke="#242630" stroke-width="2" stroke-miterlimit="1.5" stroke-linecap="round" stroke-linejoin="round"/>
<path fill-rule="evenodd" clip-rule="evenodd" d="M201.308 348.579C200.86 350.007 203.224 351.99 204.093 352.91C207.557 356.575 212.052 359.256 216.293 361.919C234.472 373.338 256.591 375.825 277.591 373.875C294.134 372.338 312.207 366.181 325.229 355.699C330.133 351.752 336.723 346.592 339.987 341.134C340.433 340.389 340.567 339.789 339.961 339.096C339.688 338.783 338.167 338.163 338.539 337.836C340.152 336.416 342.698 336.301 344.733 336.212C350.303 335.967 355.779 337.749 361.121 339.076C364.48 339.91 368.067 340.398 371.165 342.022C372.172 342.55 373.101 343.209 373.609 344.257C374.05 345.167 374.183 346.64 375.011 347.304C376.46 348.466 378.962 348.264 380.712 348.379C385.349 348.685 389.995 348.857 394.641 348.951C412.298 349.309 429.979 348.559 447.613 349.787C449.407 349.912 452.311 350.013 453.554 351.576C454.517 352.786 446.356 354.058 445.409 354.194C440.316 354.924 432.42 354.995 428.27 358.408C426.381 359.963 427.21 362.282 428.109 364.144C429.737 367.515 432.335 371.403 428.965 374.614C419.791 383.355 399.949 379.609 396.3 394.515C395.579 397.461 398.221 400.32 399.99 402.334C404.87 407.889 412.835 415.167 405.487 422.225C390.522 436.6 365.399 435.133 346.409 438.74C332.183 441.442 319.458 448.76 305.993 453.733C292.55 458.697 277.547 460.453 263.322 461.696C251.173 462.757 238.634 461.649 226.446 461.407C211.056 461.101 194.935 460.204 180.842 453.39C174.745 450.442 173.398 444.298 169.755 439.202C167.536 436.097 164.501 434.102 160.994 432.708C153.397 429.688 145.129 428.95 137.159 427.44C127.503 425.609 117.811 422.773 109.173 417.999C104.947 415.663 99.9811 413.121 96.7221 409.444C90.3231 402.221 94.4601 394.996 99.2141 388.264C101.135 385.544 104.498 381.585 103.308 377.963C102.04 374.105 96.5011 373.383 93.0841 372.784C83.5741 371.116 73.9271 369.425 64.7361 366.399C62.4911 365.659 60.2141 364.74 58.3691 363.225C58.1401 363.037 56.8421 362.052 56.9771 361.71C57.0941 361.412 58.0071 361.657 58.2261 361.686C59.6141 361.872 61.0171 361.927 62.4161 361.919C68.0291 361.887 73.6281 361.517 79.2491 361.498C102.846 361.416 126.118 356.948 149.584 355.069C154.67 354.661 160.472 354.485 165.287 352.646C168.26 351.511 169.301 348.268 172.042 346.9C175.584 345.132 179.995 345.821 183.805 345.325C185.203 345.144 186.569 344.827 187.937 344.517C189.884 344.223 191.833 343.886 193.793 343.688C196.509 343.413 198.897 343.898 201.501 344.591C201.729 344.652 203.594 345.141 203.582 345.258C203.441 346.685 201.716 347.281 201.308 348.579Z" fill="#C1EDFC"/>
<mask id="mask1_561_1597" style="mask-type:luminance" maskUnits="userSpaceOnUse" x="56" y="336" width="398" height="127">
<path d="M201.308 348.579C200.86 350.007 203.224 351.99 204.093 352.91C207.557 356.575 212.052 359.256 216.293 361.919C234.472 373.338 256.591 375.825 277.591 373.875C294.134 372.338 312.207 366.181 325.229 355.699C330.133 351.752 336.723 346.592 339.987 341.134C340.433 340.389 340.567 339.789 339.961 339.096C339.688 338.783 338.167 338.163 338.539 337.836C340.152 336.416 342.698 336.301 344.733 336.212C350.303 335.967 355.779 337.749 361.121 339.076C364.48 339.91 368.067 340.398 371.165 342.022C372.172 342.55 373.101 343.209 373.609 344.257C374.05 345.167 374.183 346.64 375.011 347.304C376.46 348.466 378.962 348.264 380.712 348.379C385.349 348.685 389.995 348.857 394.641 348.951C412.298 349.309 429.979 348.559 447.613 349.787C449.407 349.912 452.311 350.013 453.554 351.576C454.517 352.786 446.356 354.058 445.409 354.194C440.316 354.924 432.42 354.995 428.27 358.408C426.381 359.963 427.21 362.282 428.109 364.144C429.737 367.515 432.335 371.403 428.965 374.614C419.791 383.355 399.949 379.609 396.3 394.515C395.579 397.461 398.221 400.32 399.99 402.334C404.87 407.889 412.835 415.167 405.487 422.225C390.522 436.6 365.399 435.133 346.409 438.74C332.183 441.442 319.458 448.76 305.993 453.733C292.55 458.697 277.547 460.453 263.322 461.696C251.173 462.757 238.634 461.649 226.446 461.407C211.056 461.101 194.935 460.204 180.842 453.39C174.745 450.442 173.398 444.298 169.755 439.202C167.536 436.097 164.501 434.102 160.994 432.708C153.397 429.688 145.129 428.95 137.159 427.44C127.503 425.609 117.811 422.773 109.173 417.999C104.947 415.663 99.9811 413.121 96.7221 409.444C90.3231 402.221 94.4601 394.996 99.2141 388.264C101.135 385.544 104.498 381.585 103.308 377.963C102.04 374.105 96.5011 373.383 93.0841 372.784C83.5741 371.116 73.9271 369.425 64.7361 366.399C62.4911 365.659 60.2141 364.74 58.3691 363.225C58.1401 363.037 56.8421 362.052 56.9771 361.71C57.0941 361.412 58.0071 361.657 58.2261 361.686C59.6141 361.872 61.0171 361.927 62.4161 361.919C68.0291 361.887 73.6281 361.517 79.2491 361.498C102.846 361.416 126.118 356.948 149.584 355.069C154.67 354.661 160.472 354.485 165.287 352.646C168.26 351.511 169.301 348.268 172.042 346.9C175.584 345.132 179.995 345.821 183.805 345.325C185.203 345.144 186.569 344.827 187.937 344.517C189.884 344.223 191.833 343.886 193.793 343.688C196.509 343.413 198.897 343.898 201.501 344.591C201.729 344.652 203.594 345.141 203.582 345.258C203.441 346.685 201.716 347.281 201.308 348.579Z" fill="white"/>
</mask>
<g mask="url(#mask1_561_1597)">
<path d="M168.625 356.533C176.423 370.958 187.438 380.594 201.489 388.991C256.515 421.875 328.998 402.796 368.699 355.481" stroke="#242630" stroke-width="2" stroke-miterlimit="1.5" stroke-linecap="round" stroke-linejoin="round"/>
</g>
<path fill-rule="evenodd" clip-rule="evenodd" d="M201.308 348.579C200.86 350.007 203.224 351.99 204.093 352.91C207.557 356.575 212.052 359.256 216.293 361.919C234.472 373.338 256.591 375.825 277.591 373.875C294.134 372.338 312.207 366.181 325.229 355.699C330.133 351.752 336.723 346.592 339.987 341.134C340.433 340.389 340.567 339.789 339.961 339.096C339.688 338.783 338.167 338.163 338.539 337.836C340.152 336.416 342.698 336.301 344.733 336.212C350.303 335.967 355.779 337.749 361.121 339.076C364.48 339.91 368.067 340.398 371.165 342.022C372.172 342.55 373.101 343.209 373.609 344.257C374.05 345.167 374.183 346.64 375.011 347.304C376.46 348.466 378.962 348.264 380.712 348.379C385.349 348.685 389.995 348.857 394.641 348.951C412.298 349.309 429.979 348.559 447.613 349.787C449.407 349.912 452.311 350.013 453.554 351.576C454.517 352.786 446.356 354.058 445.409 354.194C440.316 354.924 432.42 354.995 428.27 358.408C426.381 359.963 427.21 362.282 428.109 364.144C429.737 367.515 432.335 371.403 428.965 374.614C419.791 383.355 399.949 379.609 396.3 394.515C395.579 397.461 398.221 400.32 399.99 402.334C404.87 407.889 412.835 415.167 405.487 422.225C390.522 436.6 365.399 435.133 346.409 438.74C332.183 441.442 319.458 448.76 305.993 453.733C292.55 458.697 277.547 460.453 263.322 461.696C251.173 462.757 238.634 461.649 226.446 461.407C211.056 461.101 194.935 460.204 180.842 453.39C174.745 450.442 173.398 444.298 169.755 439.202C167.536 436.097 164.501 434.102 160.994 432.708C153.397 429.688 145.129 428.95 137.159 427.44C127.503 425.609 117.811 422.773 109.173 417.999C104.947 415.663 99.9811 413.121 96.7221 409.444C90.3231 402.221 94.4601 394.996 99.2141 388.264C101.135 385.544 104.498 381.585 103.308 377.963C102.04 374.105 96.5011 373.383 93.0841 372.784C83.5741 371.116 73.9271 369.425 64.7361 366.399C62.4911 365.659 60.2141 364.74 58.3691 363.225C58.1401 363.037 56.8421 362.052 56.9771 361.71C57.0941 361.412 58.0071 361.657 58.2261 361.686C59.6141 361.872 61.0171 361.927 62.4161 361.919C68.0291 361.887 73.6281 361.517 79.2491 361.498C102.846 361.416 126.118 356.948 149.584 355.069C154.67 354.661 160.472 354.485 165.287 352.646C168.26 351.511 169.301 348.268 172.042 346.9C175.584 345.132 179.995 345.821 183.805 345.325C185.203 345.144 186.569 344.827 187.937 344.517C189.884 344.223 191.833 343.886 193.793 343.688C196.509 343.413 198.897 343.898 201.501 344.591C201.729 344.652 203.594 345.141 203.582 345.258C203.441 346.685 201.716 347.281 201.308 348.579Z" stroke="#242630" stroke-width="2" stroke-miterlimit="1.5" stroke-linecap="round" stroke-linejoin="round"/>
<path fill-rule="evenodd" clip-rule="evenodd" d="M356.236 205.401C358.085 209.542 361.688 215.626 360.727 220.352C359.81 224.862 353.692 223.284 353.051 219.491C352.261 214.812 355.464 209.979 355.583 205.192C355.587 205.055 356.236 205.401 356.236 205.401Z" fill="#242630" stroke="#242630" stroke-width="2" stroke-miterlimit="1.5" stroke-linecap="round" stroke-linejoin="round"/>
<path fill-rule="evenodd" clip-rule="evenodd" d="M144.777 170.701C144.024 172.236 144.327 174.132 144.451 175.768C144.715 179.281 144.18 183.435 146.105 186.582C147.129 188.257 149.131 189.032 149.937 190.881C151.829 195.223 151.722 200.409 152.565 205.009C153.444 209.8 153.597 215.41 156.676 219.438C159.154 222.677 163.25 224.658 166.95 226.147C176.057 229.811 186.168 229.939 195.834 230.468C200.138 230.703 205.032 231.309 207.876 227.311C209.483 225.051 210.192 222.32 210.815 219.656C211.918 214.938 212.395 210.101 213.452 205.377C214.355 201.341 216.504 198.126 221.077 199.186C222.329 199.477 223.467 200.058 224.586 200.676C235.066 206.462 231.297 220.522 237.411 229.15C240.051 232.877 244.404 234.925 248.571 236.455C258.893 240.245 271.296 241.178 282.186 241.077C286.944 241.032 293.785 241.078 297.557 237.617C304.607 231.149 300.646 218.442 309.082 212.465C313.897 209.054 320.419 209.987 325.177 206.137C327.261 204.451 328.832 202.258 330.618 200.283C333.585 197.001 336.884 193.843 340.732 191.612C343.158 190.205 345.31 189.882 348.066 189.544C348.866 189.446 350.905 189.508 351.484 188.825C352.183 188 349.035 186.828 348.509 186.644C344.861 185.365 341.044 184.38 337.167 184.759C329.769 185.482 322.676 188.089 315.256 188.637C311.221 188.936 307.493 188.236 303.545 187.554C293.23 185.772 283.038 184.095 272.627 182.995C265.885 182.284 259.174 181.297 252.418 180.711C247.783 180.31 243.149 179.814 238.495 179.731C236.759 179.7 234.993 179.804 233.423 180.614C231.412 181.651 229.793 183.471 227.529 184.015C223.918 184.883 218.882 183.738 215.739 181.834C214.247 180.93 213.074 179.589 211.573 178.695C209.28 177.33 206.725 176.877 204.12 176.472C189.377 174.182 174.545 172.541 159.738 170.728C156.249 170.301 152.762 169.865 149.278 169.407C147.889 169.225 146.181 168.917 145.146 170.132C145 170.302 144.878 170.493 144.777 170.701Z" fill="#242630" stroke="#242630" stroke-width="2" stroke-miterlimit="1.5" stroke-linecap="round" stroke-linejoin="round"/>
<path fill-rule="evenodd" clip-rule="evenodd" d="M273.167 234.517C277.63 234.816 282.097 234.928 286.572 234.844C288.091 234.779 289.605 234.667 290.934 233.797C293.48 232.132 294.672 228.739 295.527 225.991C297.134 220.822 298.091 215.216 298.539 209.83C298.581 209.325 299.075 204.341 297.608 204.984C295.91 205.728 294.814 208.834 294.078 210.323C291.542 215.455 290.886 221.804 287.912 226.632C285.085 231.223 280.145 230.569 275.394 231.265C272.854 231.636 270.34 232.778 268.12 234.017C268.24 234.058 268.362 234.098 268.486 234.137C270.046 234.286 271.606 234.413 273.167 234.517Z" fill="white" stroke="#242630" stroke-width="2" stroke-miterlimit="1.5" stroke-linecap="round" stroke-linejoin="round"/>
<path fill-rule="evenodd" clip-rule="evenodd" d="M158.759 180.354C158.424 180.764 158.129 181.217 157.88 181.719C157.186 183.119 157.064 184.749 156.899 186.291C156.71 187.927 156.708 189.627 156.67 191.384C156.525 198.136 156.783 205.471 158.579 212.026C158.916 213.254 159.259 214.585 159.811 215.726C160.168 216.465 160.712 217.071 161.264 217.655C163.639 220.165 165.374 219.508 166.324 216.29C167.317 212.923 167.528 208.976 169.844 206.24C173.12 202.371 178.234 201.326 182.078 198.282C183.927 196.818 184.841 194.533 186.213 192.635C188.038 190.11 190.736 187.71 193.527 186.488C196.393 185.234 199.44 185.351 202.459 184.906C203.392 184.768 204.329 184.441 205.234 184.177C205.298 184.158 206.666 183.734 206.641 183.685C206.197 182.829 204.673 182.497 203.874 182.302C201.209 181.65 198.397 181.459 195.693 180.995C187.185 179.536 178.563 178.817 170.007 177.739C166.064 177.243 161.616 176.854 158.759 180.354Z" fill="white" stroke="#242630" stroke-width="2" stroke-miterlimit="1.5" stroke-linecap="round" stroke-linejoin="round"/>
<path fill-rule="evenodd" clip-rule="evenodd" d="M192.037 225.236C193.718 225.352 195.397 225.402 197.048 225.328C197.339 225.323 197.63 225.317 197.921 225.31C199.572 225.339 201.277 225.196 202.561 224.171C203.987 223.034 204.85 221.459 205.711 219.886C206.115 219.177 206.454 218.432 206.739 217.686C208.042 214.274 208.531 210.624 208.973 207.02C209.468 202.983 209.874 198.994 209.804 194.92C208.061 195.694 206.981 197.978 206.259 199.566C203.801 204.968 204.223 211.548 200.979 216.549C198.51 220.354 195.173 221.464 190.897 222.054C189.279 222.276 187.57 222.558 186.161 223.439C186.034 223.519 184.865 224.339 184.974 224.489C184.989 224.509 185.005 224.528 185.022 224.547C185.251 224.562 185.48 224.577 185.709 224.592C187.783 224.836 189.911 225.089 192.037 225.236Z" fill="white" stroke="#242630" stroke-width="2" stroke-miterlimit="1.5" stroke-linecap="round" stroke-linejoin="round"/>
<path fill-rule="evenodd" clip-rule="evenodd" d="M240.391 186.195C239.995 186.228 239.6 186.271 239.206 186.324C236.646 188.077 236.127 191.771 235.978 194.711C235.581 202.52 236.843 211.067 238.809 218.633C239.196 220.125 239.712 221.575 240.18 223.044C241.101 225.938 243.28 228.419 245.743 230.137C246.275 230.508 247.804 231.717 248.492 231.593C248.782 231.54 248.168 231.101 248.023 230.845C247.792 230.437 247.589 230.014 247.402 229.585C246.823 228.251 246.347 226.875 246.135 225.432C245.456 220.801 244.546 215.678 247.369 211.569C249.272 208.799 252.339 207.12 254.285 204.437C256.759 201.029 257.364 197.399 261.74 195.797C267.646 193.636 274.149 195.273 280.217 194.06C281.878 193.727 283.525 193.185 284.977 192.295C285.284 192.107 286.321 191.583 286.376 191.189C286.377 191.184 286.377 191.18 286.376 191.175C276.603 189.679 266.631 188.01 256.772 187.276C251.348 186.873 245.841 185.733 240.391 186.195Z" fill="white" stroke="#242630" stroke-width="2" stroke-miterlimit="1.5" stroke-linecap="round" stroke-linejoin="round"/>
<defs>
<filter id="filter0_d_561_1597" x="26.1492" y="10.6602" width="461.702" height="498.68" filterUnits="userSpaceOnUse" color-interpolation-filters="sRGB">
<feFlood flood-opacity="0" result="BackgroundImageFix"/>
<feColorMatrix in="SourceAlpha" type="matrix" values="0 0 0 0 0 0 0 0 0 0 0 0 0 0 0 0 0 0 127 0" result="hardAlpha"/>
<feOffset dx="2" dy="8"/>
<feComposite in2="hardAlpha" operator="out"/>
<feColorMatrix type="matrix" values="0 0 0 0 0 0 0 0 0 0 0 0 0 0 0 0 0 0 0.2 0"/>
<feBlend mode="normal" in2="BackgroundImageFix" result="effect1_dropShadow_561_1597"/>
<feBlend mode="normal" in="SourceGraphic" in2="effect1_dropShadow_561_1597" result="shape"/>
</filter>
</defs>
</svg>
