<svg width="512" height="512" viewBox="0 0 512 512" fill="none" xmlns="http://www.w3.org/2000/svg">
<g filter="url(#filter0_d_569_2815)">
<path fill-rule="evenodd" clip-rule="evenodd" d="M15.4328 243.242C16.3628 250.585 17.5858 257.947 18.8818 265.278C23.1198 289.622 29.6988 312.476 26.0788 339.704C17.7178 359.784 6.69378 378.888 2.65978 400.665C-4.12622 437.289 27.3648 467.141 57.8118 482.219C97.3058 501.778 146.403 502.937 189.341 496.964C204.162 494.902 219.554 492.76 234.011 488.867C248.155 485.058 261.769 479.147 276.551 478.203C309.091 476.124 340.761 487.242 373.43 483.849C452.633 475.621 494.954 416.045 507.459 342.321C511.786 316.807 511.837 291.497 502.493 267.041C484.94 221.099 481.825 171.034 490.51 122.926C494.998 98.0659 517.097 71.9939 507.752 46.3219C501.612 29.4539 486.534 20.1339 469.938 15.3769C441.3 7.1689 408.189 6.3209 378.765 9.7679C321.772 16.4459 271.899 45.9399 218.958 65.6369C160.534 87.3749 85.0618 88.4979 42.5858 140.114C36.5048 147.505 31.3608 155.637 27.1138 164.209C22.1458 174.235 17.9918 184.957 15.8078 195.957C12.7168 211.529 13.4478 227.579 15.4328 243.242Z" fill="white"/>
</g>
<path fill-rule="evenodd" clip-rule="evenodd" d="M194.779 249.309C188.222 254.958 183.558 262.981 175.269 266.325C166.157 270.001 154.47 268.044 146.797 274.957C136.848 283.922 138.522 301.27 126.595 308.471C119.962 312.475 107.09 305.254 113.355 297.352C114.094 296.421 115.005 295.704 116.021 295.098C115.517 294.567 111.992 295.738 111.437 295.935C101.512 299.459 102.987 314.511 112.496 317.599C119.93 320.014 125.72 313.683 131.245 309.879C134.917 307.351 139.44 305.854 142.275 310.345C144.733 314.239 141.457 318.995 139.012 321.98C132.843 329.512 124.028 336.924 115.871 342.258C104.54 349.668 89.0868 351.197 79.6138 361.408C71.9308 369.69 73.9318 384.852 64.0648 391.319C59.5868 394.255 53.5498 391.898 48.5908 392.069C36.1788 392.496 26.4908 399.241 24.1008 411.814C23.8488 413.136 23.7638 414.463 23.6928 415.806C23.6648 416.345 23.6388 416.884 23.6268 417.423C23.6218 417.626 23.5448 418.208 23.6458 418.032C28.4268 409.651 34.3128 400.348 45.2468 400.364C47.2198 400.367 49.1488 400.724 51.0338 401.29C56.7468 403.005 62.0458 408.231 68.3868 406.28C69.2488 406.015 70.0748 405.641 70.8468 405.175C75.1758 402.556 73.1078 397.202 73.5748 393.105C74.0968 388.531 77.4438 384.069 81.7498 382.39C90.6258 378.928 96.2808 390.683 93.3008 397.796C88.5228 409.198 75.9348 412.544 67.4448 420.349C64.4588 423.094 64.2438 427.526 61.7728 430.63C60.3748 432.386 57.7458 433.306 55.8418 434.392C55.4558 434.611 53.9058 435.262 53.8448 435.805C53.8118 436.1 57.1518 436.051 57.4078 436.049C61.1308 436.022 64.2368 435.127 67.3328 433.009C71.1078 430.427 72.6408 426.025 76.3488 423.515C82.6998 419.216 90.5418 418.597 97.5348 415.835C102.683 413.801 106.769 409.779 112.009 407.937C115.924 406.561 122.108 404.647 126.35 406.192C127.829 406.731 127.005 410.524 126.804 411.263C124.39 420.133 115.735 425.645 107.93 429.267C104.884 430.681 101.469 431.71 98.6318 433.517C95.9738 435.212 94.9028 437.867 94.0478 440.777C93.9288 441.183 92.9788 443.109 93.1858 443.374C93.2698 443.481 94.3998 442.495 94.5138 442.4C97.2068 440.154 99.3038 436.713 102.807 435.667C108.772 433.887 115.213 436.574 120.978 433.733C130.226 429.177 133.325 418.271 141.698 412.779C149.806 407.46 161.007 408.778 168.129 401.597C174.725 394.946 175.944 383.203 184.807 378.735C194.822 373.687 208.165 381.158 203.695 393.047C198.931 405.718 182.201 409.438 171.628 415.312C167.841 417.417 164.382 420.116 162.306 423.999C161.658 425.211 161.188 426.491 160.769 427.797C160.596 428.337 160.426 428.88 160.29 429.431C160.245 429.616 160.119 430.139 160.253 430.003C162.14 428.105 163.337 425.336 165.26 423.345C168.689 419.795 173.528 418.478 178.117 417.162C180.856 416.377 184.147 416.02 186.41 418.181C189.934 421.544 187.874 427.962 193.885 429.068C201.112 430.398 207.125 423.789 214.347 424.725C217.803 425.172 218.464 428.565 217.139 431.38C213.912 438.232 207.769 444.401 200.236 446.111C197.523 446.726 194.452 447.268 191.666 447.019C191.261 446.983 187.263 446.121 187.335 446.454C187.602 447.695 190.177 448.806 191.187 449.238C195.32 451.008 200.198 451.455 204.656 451.598C217.348 452.006 232.377 444.534 240.301 434.668C248.178 424.86 252.22 411.788 266.455 410.071C274.047 409.156 282.745 412.558 284.21 420.854C284.847 424.466 283.904 428.16 282.233 431.367C281.747 432.299 281.2 433.198 280.604 434.064C280.54 434.158 279.557 435.609 279.565 435.608C281.436 435.482 284.057 433.303 286.174 432.891C290.971 431.96 296.957 434.61 300.856 430.81C304.577 427.183 306.944 422.353 310.822 418.865C312.533 417.326 314.875 416.058 316.846 417.927C320.631 421.515 316.16 429.185 313.314 432.026C309.024 436.308 302.157 437.135 298.482 442.283C297.535 443.609 296.946 445.149 296.795 446.773C296.779 446.945 296.599 447.982 296.829 448.08C297.111 448.2 298.76 445.602 299.084 445.293C300.764 443.69 302.786 442.345 304.879 441.341C310.742 438.527 317.573 439.567 322.693 435.004C329.002 429.382 330.919 420.969 336.061 414.547C339.566 410.169 345.113 407.335 350.543 406.229C356.057 405.105 364.482 406.158 366.39 412.557C367.534 416.392 364.994 420.491 362.031 422.752C356.353 427.085 348.18 427.314 343.859 433.537C338.938 440.626 336.922 449.299 329.066 454.057C325.581 456.168 321.569 457.24 317.631 458.145C316.255 458.461 313.288 458.49 312.199 459.333C312.074 459.431 313.377 459.693 313.378 459.693C314.327 459.845 315.283 459.947 316.236 460.074C318.757 460.41 321.29 460.628 323.831 460.735C330.525 461.017 338.562 458.946 342.489 453.13C345.781 448.256 341.176 441.94 346 437.589C356.143 428.439 374.585 440.133 383.351 427.507C388.318 420.353 383.221 410.554 387.662 403.049C393.712 392.824 407.557 396.954 416.22 390.972C419.646 388.606 422.703 384.305 422.717 379.993C422.721 378.624 421.097 376.839 421.578 375.539C421.954 374.523 423.439 375.487 423.879 375.878C425.053 376.922 425.893 378.37 426.596 379.755C427.209 380.964 427.848 382.31 428.035 383.668C429.364 393.294 418.475 395.867 414.026 402.224C411.984 405.14 411.437 408.668 411.956 412.139C412.092 413.055 412.104 414.728 412.698 415.493C412.877 415.725 412.908 414.941 412.955 414.652C413.076 413.902 413.236 413.159 413.44 412.428C413.995 410.437 414.885 408.55 416.085 406.867C419.684 401.823 425.543 399.037 430.994 396.473C436.596 393.838 442.572 391.362 446.959 386.864C454.662 378.963 457.287 369.508 457.301 358.697C457.311 350.417 455.6 339.272 460.985 332.16C464.471 327.557 475.404 325.991 476.693 333.29C477.546 338.125 475.038 343.454 473.253 347.807C473.061 348.275 470.792 353.932 471.228 353.924C473.348 353.882 477.513 350.734 479.341 349.581C491.688 341.793 496.315 324.61 489.767 311.704C484.31 300.948 470.798 300.88 463.835 291.784C456.427 282.108 463.354 265.322 449.118 260.695C436.004 256.433 423.27 269.625 410.436 262.602C402.848 258.449 400.539 250.136 397.092 242.825C394.149 236.582 390.061 231.167 384.422 227.112C375.202 220.48 363.221 216.87 352.29 214.171C321.859 206.658 289.593 209.017 259.691 217.776C247.669 221.298 235.602 224.475 224.467 230.334C223.141 231.031 220.964 232.112 218.346 233.387C209.673 237.645 202.054 243.197 194.779 249.309Z" fill="#242630" stroke="#242630" stroke-width="2" stroke-miterlimit="1.5" stroke-linecap="round" stroke-linejoin="round"/>
<path fill-rule="evenodd" clip-rule="evenodd" d="M37.1397 237.78C42.0647 248.067 46.5977 258.538 51.7247 268.73C53.7247 272.708 55.4447 276.827 57.3637 280.843C58.1217 282.43 59.1117 284.672 60.9517 285.209C64.2417 286.168 68.0197 284.083 71.1007 283.158C74.9337 282.007 81.6407 278.959 81.1407 274.088C80.8317 271.078 78.5937 268.485 77.3517 265.817C77.3347 265.781 77.3217 265.743 77.3017 265.708C75.2157 261.988 73.4347 258.198 71.7197 254.29C74.9007 251.863 79.8767 249.519 83.9707 249.537C89.7857 249.562 96.4047 251.798 100.966 255.421C102.834 256.906 104.463 258.658 106.221 260.266C106.511 260.532 107.549 261.731 107.947 261.66C109.935 261.303 112.269 257.619 113.682 256.16C118.693 250.987 123.708 245.809 129.027 240.948C180.281 194.102 239.704 157.1 301.192 125.233C358.256 95.6589 417.991 69.8209 479.863 52.1159C481.48 51.6529 483.107 51.2379 484.734 50.8119C485.303 50.6619 486.962 50.6009 486.435 50.3379C473.709 43.9789 457.977 44.3709 444.149 45.2569C416.266 47.0449 388.16 52.9929 361.32 60.6789C311.954 74.8159 264.118 95.5199 218.046 118.003C175.793 138.622 133.399 161.387 96.4657 190.727C88.4227 197.117 80.6387 203.9 73.6077 211.402C69.6247 215.651 66.3247 220.674 62.0487 224.617C60.7797 225.786 58.1777 228.274 56.3067 227.552C55.2187 227.132 54.5997 226.076 53.4197 225.827C48.8947 224.872 42.8437 227.346 39.9197 230.823C39.3637 231.372 38.8397 231.969 38.3627 232.606C37.2667 234.134 36.8357 235.661 36.8497 237.177C36.9467 237.378 37.0437 237.579 37.1397 237.78Z" fill="white"/>
<mask id="mask0_569_2815" style="mask-type:luminance" maskUnits="userSpaceOnUse" x="36" y="44" width="451" height="242">
<path d="M37.1397 237.78C42.0647 248.067 46.5977 258.538 51.7247 268.73C53.7247 272.708 55.4447 276.827 57.3637 280.843C58.1217 282.43 59.1117 284.672 60.9517 285.209C64.2417 286.168 68.0197 284.083 71.1007 283.158C74.9337 282.007 81.6407 278.959 81.1407 274.088C80.8317 271.078 78.5937 268.485 77.3517 265.817C77.3347 265.781 77.3217 265.743 77.3017 265.708C75.2157 261.988 73.4347 258.198 71.7197 254.29C74.9007 251.863 79.8767 249.519 83.9707 249.537C89.7857 249.562 96.4047 251.798 100.966 255.421C102.834 256.906 104.463 258.658 106.221 260.266C106.511 260.532 107.549 261.731 107.947 261.66C109.935 261.303 112.269 257.619 113.682 256.16C118.693 250.987 123.708 245.809 129.027 240.948C180.281 194.102 239.704 157.1 301.192 125.233C358.256 95.6589 417.991 69.8209 479.863 52.1159C481.48 51.6529 483.107 51.2379 484.734 50.8119C485.303 50.6619 486.962 50.6009 486.435 50.3379C473.709 43.9789 457.977 44.3709 444.149 45.2569C416.266 47.0449 388.16 52.9929 361.32 60.6789C311.954 74.8159 264.118 95.5199 218.046 118.003C175.793 138.622 133.399 161.387 96.4657 190.727C88.4227 197.117 80.6387 203.9 73.6077 211.402C69.6247 215.651 66.3247 220.674 62.0487 224.617C60.7797 225.786 58.1777 228.274 56.3067 227.552C55.2187 227.132 54.5997 226.076 53.4197 225.827C48.8947 224.872 42.8437 227.346 39.9197 230.823C39.3637 231.372 38.8397 231.969 38.3627 232.606C37.2667 234.134 36.8357 235.661 36.8497 237.177C36.9467 237.378 37.0437 237.579 37.1397 237.78Z" fill="white"/>
</mask>
<g mask="url(#mask0_569_2815)">
<path fill-rule="evenodd" clip-rule="evenodd" d="M74.4097 314.395C78.1177 313.432 81.4937 311.475 84.2097 308.785C92.6827 300.394 96.6307 285.239 90.4827 274.426C88.0857 270.21 82.9607 268.175 81.0497 263.629C79.7197 260.464 81.6607 257.198 81.3547 253.965C80.8247 248.355 73.0737 241.469 77.7077 235.929C85.2557 226.906 98.7247 241.281 107.739 233.241C114.414 227.287 112.57 216.147 118.918 210.411C123 206.723 126.075 212.536 130.123 212.341C134.474 212.132 133.689 205.542 136.683 203.722C140.506 201.398 145.034 207.504 149.349 204.342C153.289 201.454 152.905 194.792 156.877 192.246C159.978 190.258 164.315 193.736 166.206 189.194C167.995 184.896 164.64 178.308 168.469 174.838C172.241 171.42 175.267 178.203 179.008 176.318C182.677 174.469 182.909 169.325 186.511 167.339C190.302 165.25 195.132 166.459 199.155 164.621C209.399 159.94 218.582 153.279 228.481 147.954C238.848 142.377 242.354 129.855 252.346 124.245C260.815 119.49 269.917 126.34 278.21 122.36C283.092 120.017 283.179 114.446 287.166 111.428C289.822 109.417 293.013 111.508 295.877 110.357C299.963 108.714 300.703 103.435 304.451 101.368C307.583 99.6409 311.198 101.851 314.427 100.239C318.708 98.0999 320.296 92.2049 325.248 91.3049C330.729 90.3099 336.913 95.1829 342.121 92.4319C346.313 90.2179 345.445 82.4409 350.166 81.2429C353.47 80.4059 355.787 84.6309 359.213 83.9289C363.305 83.0919 363.815 77.8169 367.702 76.6739C370.994 75.7049 374.108 78.0669 377.404 77.6879C381.128 77.2589 383.555 73.7669 386.983 72.5849C389.552 71.6989 392.404 73.3429 394.871 72.2309C398.405 70.6379 397.817 65.0479 401.697 63.6179C405.117 62.3569 407.237 66.9589 410.533 66.5709C415.455 65.9919 416.584 58.9629 421.192 57.4979C427.058 55.6319 432.616 60.2569 438.507 59.2989C443.533 58.4819 445.566 53.6349 449.372 50.9229C455.105 46.8389 461.432 51.3619 467.585 51.0269C471.413 50.8189 474.52 48.1429 478.271 47.6189C480.682 47.2829 486.51 48.8349 487.531 45.6679C488.578 42.4229 482.075 40.0599 479.961 39.2239C470.523 35.4919 460.545 33.1759 450.36 33.5029C417.934 34.5449 383.029 43.5129 352.192 53.1929C315.45 64.7259 277.486 73.9519 241.547 87.7219C209.224 100.106 179.024 117.11 149.093 134.306C129.146 145.766 106.875 156.144 89.4007 171.471C81.2547 178.617 76.4097 189.904 69.0747 197.987C63.8597 203.733 54.5187 206.178 50.1187 212.114C49.2807 213.246 48.6267 214.516 48.2627 215.88C48.1727 216.215 47.9967 216.539 48.0397 216.861C48.5247 220.456 47.5087 223.985 50.5307 226.563C51.4377 227.337 52.6267 227.96 53.7467 228.354C54.8857 228.755 56.3277 228.865 56.9827 230.051C58.0937 232.063 53.4337 229.768 53.6637 232.17C53.8517 234.137 56.1927 233.75 57.5357 234.048C59.2507 234.428 60.8687 235.502 61.6957 237.068C62.6877 238.947 61.2707 238.614 59.9277 238.768C59.4197 238.826 58.8647 238.953 59.0357 239.538C59.5337 241.243 60.8437 242.535 62.2757 243.496C63.5317 244.34 65.2747 245.531 65.2127 247.281C65.2127 247.298 64.1167 246.894 64.0887 246.882C63.7637 246.744 61.8677 245.811 61.5037 246.19C61.3397 246.361 62.3607 247.399 62.4157 247.454C63.7017 248.772 65.6617 249.176 66.8007 250.642C67.2587 251.231 67.8987 252.568 67.2437 253.256C66.9767 253.536 65.1027 252.945 65.5277 253.935C66.5427 256.292 69.5617 257.047 70.9687 259.064C71.1527 259.328 71.3057 259.623 71.4347 259.918C71.5467 260.173 71.6217 260.36 71.6637 260.634C71.9807 262.701 70.3627 261.749 69.2907 261.465C69.1837 261.742 69.1287 262.04 69.1887 262.382C69.6777 265.134 72.6707 265.821 73.7717 268.11C74.0077 268.599 74.1717 269.428 73.8417 269.912C73.6017 270.263 72.9817 270.181 73.0217 270.738C73.1557 272.608 75.2577 274.21 76.0957 275.816C77.5127 278.531 78.0227 281.534 78.5177 284.523C78.8447 286.499 79.1057 289.776 76.7607 290.681C74.5977 291.515 71.9387 290.048 70.1897 288.893C66.3987 286.392 62.1787 281.754 62.6037 276.842C62.7507 275.138 63.7667 273.99 64.5587 272.56C64.9197 271.907 65.3267 271.024 64.9437 270.292C63.1037 266.776 59.5957 275.23 57.7367 271.414C56.2687 268.402 60.5337 265.797 59.2967 262.808C58.3037 260.408 54.9367 262.734 53.9267 260.584C53.0587 258.736 56.0937 257.237 55.3137 255.582C54.3637 253.566 51.0637 254.875 49.9227 252.736C49.0217 251.047 50.9127 249.554 50.2427 247.924C49.5127 246.148 46.8127 246.721 46.8027 244.169C46.7957 242.139 49.7967 240.182 48.3827 238.143C47.2467 236.502 44.6577 237.851 43.1987 236.774C40.8397 235.033 44.3637 232.473 43.9817 230.496C43.7467 229.283 42.0657 228.995 41.5557 227.92C40.8247 226.379 41.3987 224.556 40.6797 223.007C38.9287 219.232 32.6417 217.19 28.9327 218.812C27.9777 219.23 27.1107 219.835 26.3087 220.5C25.0737 221.524 24.0507 222.738 23.2487 224.125C16.5167 235.754 25.5877 251.691 30.2827 262.358C35.2407 273.62 40.6997 284.56 46.5097 295.406C50.2047 302.305 54.8947 310.89 62.5347 314.224C66.4067 315.913 70.4327 315.701 74.4097 314.395Z" fill="#C1EDFC"/>
</g>
<path fill-rule="evenodd" clip-rule="evenodd" d="M37.1397 237.78C42.0647 248.067 46.5977 258.538 51.7247 268.73C53.7247 272.708 55.4447 276.827 57.3637 280.843C58.1217 282.43 59.1117 284.672 60.9517 285.209C64.2417 286.168 68.0197 284.083 71.1007 283.158C74.9337 282.007 81.6407 278.959 81.1407 274.088C80.8317 271.078 78.5937 268.485 77.3517 265.817C77.3347 265.781 77.3217 265.743 77.3017 265.708C75.2157 261.988 73.4347 258.198 71.7197 254.29C74.9007 251.863 79.8767 249.519 83.9707 249.537C89.7857 249.562 96.4047 251.798 100.966 255.421C102.834 256.906 104.463 258.658 106.221 260.266C106.511 260.532 107.549 261.731 107.947 261.66C109.935 261.303 112.269 257.619 113.682 256.16C118.693 250.987 123.708 245.809 129.027 240.948C180.281 194.102 239.704 157.1 301.192 125.233C358.256 95.6589 417.991 69.8209 479.863 52.1159C481.48 51.6529 483.107 51.2379 484.734 50.8119C485.303 50.6619 486.962 50.6009 486.435 50.3379C473.709 43.9789 457.977 44.3709 444.149 45.2569C416.266 47.0449 388.16 52.9929 361.32 60.6789C311.954 74.8159 264.118 95.5199 218.046 118.003C175.793 138.622 133.399 161.387 96.4657 190.727C88.4227 197.117 80.6387 203.9 73.6077 211.402C69.6247 215.651 66.3247 220.674 62.0487 224.617C60.7797 225.786 58.1777 228.274 56.3067 227.552C55.2187 227.132 54.5997 226.076 53.4197 225.827C48.8947 224.872 42.8437 227.346 39.9197 230.823C39.3637 231.372 38.8397 231.969 38.3627 232.606C37.2667 234.134 36.8357 235.661 36.8497 237.177C36.9467 237.378 37.0437 237.579 37.1397 237.78Z" stroke="#242630" stroke-width="2" stroke-miterlimit="1.5" stroke-linecap="round" stroke-linejoin="round"/>
<path fill-rule="evenodd" clip-rule="evenodd" d="M77.9937 274.544C71.2867 273.81 65.8957 276.364 62.2917 282.15L157.275 478.249C167.263 480.856 171.489 474.758 172.978 470.643L77.9937 274.544Z" fill="#FFE38C" stroke="#242630" stroke-width="2" stroke-miterlimit="1.5" stroke-linecap="round" stroke-linejoin="round"/>
<path fill-rule="evenodd" clip-rule="evenodd" d="M166.298 333.902C178.192 344.694 194.277 349.033 209.688 352.683C220.432 354.899 231.51 355.442 242.566 353.904C251.967 352.596 260.472 348.109 269.513 345.5C276.676 343.433 284.096 342.393 291.075 339.686C306.223 333.811 322.196 323.322 334.558 312.706C346.899 302.11 356.95 288.305 366.628 275.339C377.283 261.066 388.356 246.62 394.963 229.932C397.345 223.915 399.691 216.826 398.405 210.272C396.696 201.556 388.675 195.336 381.074 191.863C370.004 186.806 359.728 182.317 347.901 179.177C328.648 174.065 307.612 168.706 290.233 158.619C280.365 152.891 272.696 143.769 263.709 136.916C252.196 128.135 237.462 122.782 223.405 119.953C219.683 119.204 215.936 118.843 212.146 118.639C209.272 118.484 206.366 118.408 203.488 118.521C196.183 118.807 180.58 117.815 174.691 124.029C169.21 129.812 171.182 136.395 174.393 142.714C179.082 151.94 187.179 163.193 186.134 174.105C185.409 181.676 181.048 188.669 178.589 195.746C174.754 206.785 171.951 218.533 170.229 230.092C168.504 241.674 168.088 253.534 170.023 265.119C172.296 278.722 176.904 291.022 173.069 304.855C171.126 311.863 168.05 318.45 165.233 325.129C164.312 327.313 163.592 329.59 164.027 331.707C164.765 332.467 165.523 333.198 166.298 333.902Z" fill="#242630"/>
<mask id="mask1_569_2815" style="mask-type:luminance" maskUnits="userSpaceOnUse" x="163" y="118" width="236" height="237">
<path d="M166.298 333.902C178.192 344.694 194.277 349.033 209.688 352.683C220.432 354.899 231.51 355.442 242.566 353.904C251.967 352.596 260.472 348.109 269.513 345.5C276.676 343.433 284.096 342.393 291.075 339.686C306.223 333.811 322.196 323.322 334.558 312.706C346.899 302.11 356.95 288.305 366.628 275.339C377.283 261.066 388.356 246.62 394.963 229.932C397.345 223.915 399.691 216.826 398.405 210.272C396.696 201.556 388.675 195.336 381.074 191.863C370.004 186.806 359.728 182.317 347.901 179.177C328.648 174.065 307.612 168.706 290.233 158.619C280.365 152.891 272.696 143.769 263.709 136.916C252.196 128.135 237.462 122.782 223.405 119.953C219.683 119.204 215.936 118.843 212.146 118.639C209.272 118.484 206.366 118.408 203.488 118.521C196.183 118.807 180.58 117.815 174.691 124.029C169.21 129.812 171.182 136.395 174.393 142.714C179.082 151.94 187.179 163.193 186.134 174.105C185.409 181.676 181.048 188.669 178.589 195.746C174.754 206.785 171.951 218.533 170.229 230.092C168.504 241.674 168.088 253.534 170.023 265.119C172.296 278.722 176.904 291.022 173.069 304.855C171.126 311.863 168.05 318.45 165.233 325.129C164.312 327.313 163.592 329.59 164.027 331.707C164.765 332.467 165.523 333.198 166.298 333.902Z" fill="white"/>
</mask>
<g mask="url(#mask1_569_2815)">
<path d="M176.928 314.866C181.531 309.25 186.692 303.48 192.695 299.663C200.743 294.546 210.681 293.75 219.406 290.562" stroke="white" stroke-width="2" stroke-miterlimit="1.5" stroke-linecap="round" stroke-linejoin="round"/>
<path d="M363.741 219.727C369.452 218.557 375.154 217.396 380.934 216.61C383.605 216.247 386.298 215.352 388.917 216.477C391.385 217.537 392.191 220.219 392.117 222.711C391.98 227.397 389.534 232.152 386.152 235.323" stroke="white" stroke-width="1.79" stroke-miterlimit="1.5" stroke-linecap="round" stroke-linejoin="round"/>
</g>
<path fill-rule="evenodd" clip-rule="evenodd" d="M166.298 333.902C178.192 344.694 194.277 349.033 209.688 352.683C220.432 354.899 231.51 355.442 242.566 353.904C251.967 352.596 260.472 348.109 269.513 345.5C276.676 343.433 284.096 342.393 291.075 339.686C306.223 333.811 322.196 323.322 334.558 312.706C346.899 302.11 356.95 288.305 366.628 275.339C377.283 261.066 388.356 246.62 394.963 229.932C397.345 223.915 399.691 216.826 398.405 210.272C396.696 201.556 388.675 195.336 381.074 191.863C370.004 186.806 359.728 182.317 347.901 179.177C328.648 174.065 307.612 168.706 290.233 158.619C280.365 152.891 272.696 143.769 263.709 136.916C252.196 128.135 237.462 122.782 223.405 119.953C219.683 119.204 215.936 118.843 212.146 118.639C209.272 118.484 206.366 118.408 203.488 118.521C196.183 118.807 180.58 117.815 174.691 124.029C169.21 129.812 171.182 136.395 174.393 142.714C179.082 151.94 187.179 163.193 186.134 174.105C185.409 181.676 181.048 188.669 178.589 195.746C174.754 206.785 171.951 218.533 170.229 230.092C168.504 241.674 168.088 253.534 170.023 265.119C172.296 278.722 176.904 291.022 173.069 304.855C171.126 311.863 168.05 318.45 165.233 325.129C164.312 327.313 163.592 329.59 164.027 331.707C164.765 332.467 165.523 333.198 166.298 333.902Z" stroke="white" stroke-width="2" stroke-miterlimit="1.5" stroke-linecap="round" stroke-linejoin="round"/>
<path fill-rule="evenodd" clip-rule="evenodd" d="M228.437 286.784C234.346 284.99 239.701 281.778 244.918 278.545C272.964 261.166 296.238 236.626 328.402 226.528C336.533 223.975 344.892 221.032 353.36 219.879C354.211 219.763 355.056 219.617 355.902 219.472C359.665 229.892 361.701 239.731 361.927 250.807C362.087 258.651 362.293 266.494 361.647 274.318C361.179 279.993 360.381 285.335 358.461 290.715C356.194 297.07 352.988 302.634 351.379 309.31C350.382 313.448 351.965 317.98 348.644 321.35C346.103 323.928 342.508 325.185 338.939 325.433C336.173 325.626 332.28 325.104 330.192 327.427C328.057 329.802 328.419 333.415 328.39 336.386C328.356 339.893 327.721 343.699 325.937 346.744C324.684 348.882 323.079 350.823 321.512 352.738C321.1 353.241 320.21 354.828 319.513 355.047C318.006 355.519 316.825 355.393 315.414 356.548C313.88 357.804 313.136 359.57 311.761 360.908C310.659 361.98 309.049 361.566 308.178 362.968C306.603 365.501 307.504 368.651 306.277 371.324C305.517 372.98 303.953 374.095 303.269 375.794C301.277 380.743 301.738 386.264 299.805 391.229C299.298 392.534 298.799 394.488 297.76 395.479C296.663 396.524 292.825 395.888 291.331 396.182C284.042 397.618 276.168 400.742 271.07 393.32C270.029 391.805 269.248 390.151 268.519 388.47C264.622 379.481 260.133 370.282 255.224 361.801C253.73 359.218 252.234 356.576 249.969 354.587C247.035 352.01 243.186 350.067 241.554 346.316C240.13 343.043 241.862 340.054 241.334 336.789C240.666 332.66 237.216 329.555 237.714 325.147C238.236 320.527 241.837 316.413 241.206 311.672C240.578 306.954 237.678 302.126 234.337 297.787C232.653 295.989 231.147 293.997 229.392 292.271C227.815 290.721 226.009 289.453 224.402 287.984C224.371 287.956 224.367 287.937 224.383 287.925C224.651 287.818 224.92 287.711 225.189 287.604C226.284 287.386 227.367 287.109 228.437 286.784Z" fill="white"/>
<mask id="mask2_569_2815" style="mask-type:luminance" maskUnits="userSpaceOnUse" x="224" y="219" width="139" height="180">
<path d="M228.437 286.784C234.346 284.99 239.701 281.778 244.918 278.545C272.964 261.166 296.238 236.626 328.402 226.528C336.533 223.975 344.892 221.032 353.36 219.879C354.211 219.763 355.056 219.617 355.902 219.472C359.665 229.892 361.701 239.731 361.927 250.807C362.087 258.651 362.293 266.494 361.647 274.318C361.179 279.993 360.381 285.335 358.461 290.715C356.194 297.07 352.988 302.634 351.379 309.31C350.382 313.448 351.965 317.98 348.644 321.35C346.103 323.928 342.508 325.185 338.939 325.433C336.173 325.626 332.28 325.104 330.192 327.427C328.057 329.802 328.419 333.415 328.39 336.386C328.356 339.893 327.721 343.699 325.937 346.744C324.684 348.882 323.079 350.823 321.512 352.738C321.1 353.241 320.21 354.828 319.513 355.047C318.006 355.519 316.825 355.393 315.414 356.548C313.88 357.804 313.136 359.57 311.761 360.908C310.659 361.98 309.049 361.566 308.178 362.968C306.603 365.501 307.504 368.651 306.277 371.324C305.517 372.98 303.953 374.095 303.269 375.794C301.277 380.743 301.738 386.264 299.805 391.229C299.298 392.534 298.799 394.488 297.76 395.479C296.663 396.524 292.825 395.888 291.331 396.182C284.042 397.618 276.168 400.742 271.07 393.32C270.029 391.805 269.248 390.151 268.519 388.47C264.622 379.481 260.133 370.282 255.224 361.801C253.73 359.218 252.234 356.576 249.969 354.587C247.035 352.01 243.186 350.067 241.554 346.316C240.13 343.043 241.862 340.054 241.334 336.789C240.666 332.66 237.216 329.555 237.714 325.147C238.236 320.527 241.837 316.413 241.206 311.672C240.578 306.954 237.678 302.126 234.337 297.787C232.653 295.989 231.147 293.997 229.392 292.271C227.815 290.721 226.009 289.453 224.402 287.984C224.371 287.956 224.367 287.937 224.383 287.925C224.651 287.818 224.92 287.711 225.189 287.604C226.284 287.386 227.367 287.109 228.437 286.784Z" fill="white"/>
</mask>
<g mask="url(#mask2_569_2815)">
<path fill-rule="evenodd" clip-rule="evenodd" d="M271.943 297.001C269 297.715 269.825 299.556 271.982 301.098C275.08 303.314 279.429 306.215 283.134 307.302C286.383 308.255 289.784 307.098 292.639 305.607C294.768 304.496 296.532 303.486 293.87 301.395C290.445 298.703 285.03 300.136 280.993 299.301C279.164 298.923 271.943 297.001 271.943 297.001Z" fill="#242630" stroke="#242630" stroke-width="2" stroke-miterlimit="1.5" stroke-linecap="round" stroke-linejoin="round"/>
<path d="M266.002 304.566C270.553 310.139 278.608 317.218 286.522 315.427" stroke="#242630" stroke-width="2" stroke-miterlimit="1.5" stroke-linecap="round" stroke-linejoin="round"/>
<path d="M277.383 307.349C281.599 310.706 287.292 310.429 292.252 308.939" stroke="#242630" stroke-width="2" stroke-miterlimit="1.5" stroke-linecap="round" stroke-linejoin="round"/>
<path d="M322.648 309.137C324.618 313.065 329.651 315.726 334.074 315.589" stroke="#242630" stroke-width="2" stroke-miterlimit="1.5" stroke-linecap="round" stroke-linejoin="round"/>
<path d="M329.34 309.203C334.009 310.794 336.946 309.99 340.495 306.398" stroke="#242630" stroke-width="2" stroke-miterlimit="1.5" stroke-linecap="round" stroke-linejoin="round"/>
<path d="M282.89 320.362C287.077 318.936 291.386 316.873 293.797 312.985" stroke="#242630" stroke-width="2" stroke-miterlimit="1.5" stroke-linecap="round" stroke-linejoin="round"/>
<path fill-rule="evenodd" clip-rule="evenodd" d="M322.257 301.091C319.997 303.128 323.888 305.112 325.803 305.802C329.013 306.959 331.53 305.25 333.808 303.045C334.15 302.714 336.049 301.209 335.851 300.485C335.632 299.682 333.285 299.578 332.702 299.548C331.956 299.51 331.224 299.611 330.481 299.645C329.737 299.678 322.257 301.091 322.257 301.091Z" fill="#242630" stroke="#242630" stroke-width="2" stroke-miterlimit="1.5" stroke-linecap="round" stroke-linejoin="round"/>
<path d="M263.412 298.613C264.175 300.822 265.123 302.62 266.705 304.327" stroke="#242630" stroke-width="2" stroke-miterlimit="1.5" stroke-linecap="round" stroke-linejoin="round"/>
<path d="M265.77 297.905C267.147 301.024 268.475 304.116 270.204 307.052" stroke="#242630" stroke-width="2" stroke-miterlimit="1.5" stroke-linecap="round" stroke-linejoin="round"/>
<path d="M268.97 300.483C268.758 299.581 268.736 298.668 268.66 297.743C270.401 301.46 272 305.647 274.422 309.034" stroke="#242630" stroke-width="2" stroke-miterlimit="1.5" stroke-linecap="round" stroke-linejoin="round"/>
<path d="M263.281 302.366C265.015 300.948 266.648 299.335 268.837 298.696" stroke="#242630" stroke-width="2" stroke-miterlimit="1.5" stroke-linecap="round" stroke-linejoin="round"/>
<path d="M265.032 303.956C267.743 302.138 270.487 300.927 273.446 299.611" stroke="#242630" stroke-width="2" stroke-miterlimit="1.5" stroke-linecap="round" stroke-linejoin="round"/>
<path d="M292.262 305.919C293.381 306.005 294.545 306.185 295.65 305.926" stroke="#242630" stroke-width="2" stroke-miterlimit="1.5" stroke-linecap="round" stroke-linejoin="round"/>
<path d="M295.984 303.284C294.446 304.974 292.615 305.971 290.605 307.043C292.501 306.031 294.403 304.988 296.362 304.096" stroke="#242630" stroke-width="2" stroke-miterlimit="1.5" stroke-linecap="round" stroke-linejoin="round"/>
<path d="M295.594 301.753C296.742 301.364 296.679 301.414 297.833 300.942" stroke="#242630" stroke-width="2" stroke-miterlimit="1.5" stroke-linecap="round" stroke-linejoin="round"/>
<path d="M320.642 302.364C320.64 303.99 320.537 305.683 320.806 307.298" stroke="#242630" stroke-width="2" stroke-miterlimit="1.5" stroke-linecap="round" stroke-linejoin="round"/>
<path d="M323.641 302.528C323.413 303.964 323.214 305.356 323.373 306.809" stroke="#242630" stroke-width="2" stroke-miterlimit="1.5" stroke-linecap="round" stroke-linejoin="round"/>
<path d="M335.68 299.659C335.583 301.325 335.559 302.937 335.619 304.602" stroke="#242630" stroke-width="2" stroke-miterlimit="1.5" stroke-linecap="round" stroke-linejoin="round"/>
<path d="M338.67 297.563C338.218 299.885 338.136 302.245 338.022 304.604" stroke="#242630" stroke-width="2" stroke-miterlimit="1.5" stroke-linecap="round" stroke-linejoin="round"/>
<path d="M342.339 296.808C341.938 298.977 341.892 301.186 341.601 303.369" stroke="#242630" stroke-width="2" stroke-miterlimit="1.5" stroke-linecap="round" stroke-linejoin="round"/>
<path d="M345.527 295.591C345.173 297.459 345.279 299.315 345.004 301.181" stroke="#242630" stroke-width="2" stroke-miterlimit="1.5" stroke-linecap="round" stroke-linejoin="round"/>
<path d="M272.283 284.258C279.275 285.431 286.21 286.921 293.182 288.196" stroke="#242630" stroke-width="2" stroke-miterlimit="1.5" stroke-linecap="round" stroke-linejoin="round"/>
<path d="M299.735 288.013C302.923 288.292 304.584 289.295 306.112 292.043" stroke="#242630" stroke-width="2" stroke-miterlimit="1.5" stroke-linecap="round" stroke-linejoin="round"/>
<path d="M315.062 291.581C323.373 284.403 334.131 285.21 343.844 281.262" stroke="#242630" stroke-width="2" stroke-miterlimit="1.5" stroke-linecap="round" stroke-linejoin="round"/>
<path d="M351.123 281.311C353.377 283.332 354.411 285.275 354.13 288.422" stroke="#242630" stroke-width="2" stroke-miterlimit="1.5" stroke-linecap="round" stroke-linejoin="round"/>
<path fill-rule="evenodd" clip-rule="evenodd" d="M306.855 308.499C304.433 311.376 302.326 314.888 300.891 318.382C300.692 318.866 299.517 321.352 300.498 321.88C301.653 322.501 303.095 320.549 304.237 320.505C306.839 320.406 306.153 327.174 308.881 323.686C310.758 321.285 309.905 317.404 309.744 314.606C309.68 313.475 309.848 312.393 309.716 311.262C309.492 309.348 308.953 306.646 306.644 308.17C306.352 308.363 306.1 308.61 305.877 308.877C305.743 309.038 306.855 308.499 306.855 308.499Z" fill="#242630" stroke="#242630" stroke-width="2" stroke-miterlimit="1.5" stroke-linecap="round" stroke-linejoin="round"/>
<path d="M312.946 301.36C312.369 302.594 311.704 306.423 310.393 307.105C309.993 307.314 309.372 306.691 309.036 306.646C308.251 306.541 307.187 307.654 306.762 308.162C304.762 310.552 303.401 313.75 301.924 316.485C300.737 318.684 299.503 320.897 298.478 323.177C298.113 323.99 297.765 324.835 297.523 325.695C297.406 326.109 296.895 327.236 297.215 326.949C299.25 325.12 300.708 322.719 302.52 320.678C302.658 320.523 304.165 318.71 304.452 318.872C304.698 319.011 304.688 320.519 304.69 320.68C304.712 322.423 304.426 324.164 304.589 325.906C304.594 325.954 304.641 327.306 304.837 327.395C306.976 328.364 309.554 324.278 310.224 322.791C311.783 319.332 309.766 317.477 310.392 314.363C310.835 312.161 312.814 310.812 313.304 308.451" stroke="#242630" stroke-width="2" stroke-miterlimit="1.5" stroke-linecap="round" stroke-linejoin="round"/>
<path d="M320.499 309.133C320.081 308.352 319.748 307.598 319.498 306.744C317.78 300.885 326.433 299.994 330.157 299.785C331.248 299.724 332.356 299.747 333.441 299.608C334.848 299.428 336.266 299.145 337.629 298.753C340.206 298.011 344.571 294.711 347.325 296.107C348.556 296.731 347.248 299.584 346.866 300.299C345.597 302.67 341.882 305.847 339.076 304.931" stroke="#242630" stroke-width="2" stroke-miterlimit="1.5" stroke-linecap="round" stroke-linejoin="round"/>
<path d="M291.428 309.099C293.622 308.378 301.597 303.692 296.56 301.329C293.018 299.667 289.148 300.578 285.416 300.231C279.678 299.697 273.911 296.822 268.112 297.376C264.073 297.762 259.662 302.425 264.254 305.735" stroke="#242630" stroke-width="2" stroke-miterlimit="1.5" stroke-linecap="round" stroke-linejoin="round"/>
<path d="M233.455 324.633C241.315 335.128 256.726 341.77 265.726 329.48" stroke="#242630" stroke-width="2" stroke-miterlimit="1.5" stroke-linecap="round" stroke-linejoin="round"/>
<path d="M269.76 333.723C269.057 334.585 268.374 335.329 267.958 336.362C267.627 337.184 267.517 337.628 267.357 338.468C267.269 338.929 267.251 339.406 267.244 339.874C267.212 341.939 269.734 339.257 270.335 341.254C270.883 343.076 270.606 344.983 270.623 346.848C270.628 347.462 270.63 348.105 270.759 348.71C270.766 348.741 271.04 349.672 271.112 349.63C272.381 348.899 272.969 346.23 273.96 345.077C273.969 345.067 274.777 344.251 274.79 344.274C275.538 345.627 275.749 347.679 276.142 349.172C276.269 349.657 276.088 350.408 276.541 350.623C277.197 350.934 277.541 351.207 277.968 351.866C278.282 352.35 278.762 354.272 279.461 354.591C279.992 354.833 280.616 354.137 281.048 354.452C281.803 355.002 282.542 356.044 283.406 356.446C283.756 356.609 284.143 356.129 284.46 356.31C284.859 356.54 285.724 357.493 286.26 357.42C287.392 357.267 288.258 356.589 289.085 355.849C289.404 355.564 289.68 354.751 290.036 354.988C291.053 355.667 292.849 359.597 294.12 360.007C295.913 360.584 296.95 356.279 297.927 356.657C298.897 357.033 298.791 359.169 299.761 359.472C301.491 360.013 303.155 358.461 304.871 358.323C307.418 358.118 309.514 359.418 311.965 359.306C315.724 359.135 317.855 356.848 320.454 354.54" stroke="#242630" stroke-width="2" stroke-miterlimit="1.5" stroke-linecap="round" stroke-linejoin="round"/>
<path d="M262.009 333.294C261.108 334.757 260.35 336.037 260.938 337.792C261.807 340.382 265.042 341.085 266.954 339.279" stroke="#242630" stroke-width="2" stroke-miterlimit="1.5" stroke-linecap="round" stroke-linejoin="round"/>
<path d="M272.494 335.862C272.237 337.368 271.964 338.703 271.458 340.13C271.344 340.452 271.221 340.77 271.1 341.089C271.01 341.327 270.918 341.565 270.825 341.802C270.782 341.911 270.592 342.138 270.709 342.134C271.462 342.109 271.985 340.691 272.97 340.755C274.012 340.823 274.585 341.962 274.828 342.836C274.932 343.21 274.617 344.008 275.004 343.987C276.268 343.917 276.885 343.501 277.976 344.547C278.73 345.271 279.05 346.378 279.124 347.396C279.15 347.762 279.168 348.13 279.178 348.497C279.181 348.634 279.064 348.977 279.182 348.907C280.474 348.141 282.406 345.581 284.004 346.632C285.248 347.449 285.385 349.677 285.421 350.974C285.438 351.578 284.965 352.398 285.427 352.787C285.51 352.857 285.622 352.684 285.696 352.605C286.05 352.229 286.408 351.858 286.745 351.467C287.676 350.387 287.575 350.342 288.542 349.321C288.682 349.173 288.81 348.837 288.998 348.915C289.81 349.254 289.898 351.514 289.937 352.099C289.986 352.844 289.991 353.095 289.997 353.669C289.999 353.867 289.808 354.296 290.002 354.262C290.968 354.089 291.798 353.263 292.45 352.585C292.786 352.235 293.107 351.872 293.44 351.519C293.673 351.274 293.893 350.61 294.165 350.811C294.971 351.406 295.269 352.518 295.479 353.453C295.564 353.832 295.477 354.811 295.788 354.578C297.079 353.611 297.92 352.281 298.921 351.042C299.102 350.818 299.247 350.312 299.516 350.415C300.464 350.775 300.78 352.469 300.984 353.275C300.984 353.278 301.18 354.614 301.374 354.525C302.823 353.86 303.993 351.225 304.773 350.029C305.063 349.583 305.192 348.814 305.72 348.743C306.057 348.699 305.997 349.367 306.082 349.696C306.329 350.64 306.484 351.639 306.498 352.617C306.506 353.144 306.493 353.671 306.49 354.198C306.489 354.385 306.322 354.833 306.493 354.758C307.849 354.163 308.6 352.462 309.32 351.276C309.857 350.391 310.593 348.395 310.988 350.272C311.052 350.573 311.115 350.875 311.148 351.181C311.181 351.488 311.183 351.797 311.186 352.106C311.194 352.957 311.011 353.833 311.056 354.676C311.07 354.941 311.429 354.296 311.598 354.09C311.793 353.852 311.991 353.615 312.166 353.361C312.737 352.537 313.158 351.608 313.691 350.76C313.871 350.475 314.052 349.685 314.278 349.935C314.84 350.558 314.532 351.598 314.55 352.437C314.56 352.887 314.534 353.337 314.519 353.787C314.515 353.905 314.434 354.238 314.502 354.141C315.299 353.01 315.792 351.609 316.317 350.341C316.542 349.796 316.762 349.249 316.991 348.706C317.134 348.368 317.197 347.432 317.444 347.703C317.951 348.26 317.939 349.712 317.964 350.389C317.977 350.738 317.664 351.633 317.953 351.436C318.564 351.02 318.675 350.144 318.981 349.471C319.556 348.208 319.998 346.887 320.595 345.631C320.726 345.355 320.864 345.082 321.017 344.816C321.107 344.66 321.183 344.292 321.34 344.382C322.523 345.054 322.462 347.86 322.467 349.026C322.47 349.515 322.456 350.006 322.471 350.495C322.478 350.734 322.317 351.327 322.524 351.209C322.873 351.009 323.406 349.55 323.525 349.272C323.664 348.949 323.789 348.619 323.928 348.295C324.247 347.552 324.629 346.848 324.974 346.119C325.401 345.216 325.634 343.84 326.428 343.118" stroke="#242630" stroke-width="2" stroke-miterlimit="1.5" stroke-linecap="round" stroke-linejoin="round"/>
<path d="M327.493 322.402C329.046 322.656 331.508 322.533 332.935 323.322C334.357 324.108 335.565 325.922 336.714 327.104" stroke="#242630" stroke-width="2" stroke-miterlimit="1.5" stroke-linecap="round" stroke-linejoin="round"/>
<path d="M268.605 327.02C273.411 326.166 277.903 328.886 282.569 329.649" stroke="#242630" stroke-width="2" stroke-miterlimit="1.5" stroke-linecap="round" stroke-linejoin="round"/>
<path d="M285.898 325.614C286.627 325.237 287.308 324.772 288.011 324.347" stroke="#242630" stroke-width="2" stroke-miterlimit="1.5" stroke-linecap="round" stroke-linejoin="round"/>
<path d="M286.328 338.686C288.34 337.775 290.099 336.865 291.771 335.433" stroke="#242630" stroke-width="2" stroke-miterlimit="1.5" stroke-linecap="round" stroke-linejoin="round"/>
<path d="M298.534 337.774C298.222 338.616 297.924 339.46 297.553 340.277" stroke="#242630" stroke-width="2" stroke-miterlimit="1.5" stroke-linecap="round" stroke-linejoin="round"/>
<path d="M314.547 342.268C314.479 342.394 314.41 342.52 314.342 342.646" stroke="#242630" stroke-width="2" stroke-miterlimit="1.5" stroke-linecap="round" stroke-linejoin="round"/>
<path d="M321.134 333.439C321.345 334.367 321.528 335.298 321.826 336.202" stroke="#242630" stroke-width="2" stroke-miterlimit="1.5" stroke-linecap="round" stroke-linejoin="round"/>
<path d="M312.082 315.76C312.752 318.109 314.781 321.236 314.819 323.711C314.851 325.747 312.984 327.723 311.442 328.848" stroke="#242630" stroke-width="2" stroke-miterlimit="1.5" stroke-linecap="round" stroke-linejoin="round"/>
<path d="M232.93 278.98C237.427 282.679 240.938 286.146 243.623 291.436C244.899 293.951 245.257 298.691 247.963 300.135C249.209 300.8 250.329 299.276 250.935 298.401C252.138 296.663 251.673 294.746 253.578 293.579C255.753 292.247 259.068 292.555 260.731 290.649C263.7 287.244 262.824 282.349 263.166 278.197C263.426 275.043 263.926 271.918 264.304 268.779" stroke="#242630" stroke-width="2" stroke-miterlimit="1.5" stroke-linecap="round" stroke-linejoin="round"/>
<path d="M247.817 286.039C250.352 286.932 252.807 287.275 255.475 287.311" stroke="#242630" stroke-width="2" stroke-miterlimit="1.5" stroke-linecap="round" stroke-linejoin="round"/>
<path d="M243.102 280.728C247.697 279.689 250.903 283.599 250.362 288.188C250.053 290.808 248.487 292.66 247.288 294.865" stroke="#242630" stroke-width="2" stroke-miterlimit="1.5" stroke-linecap="round" stroke-linejoin="round"/>
<path d="M262.861 345.122C262.333 346.822 261.08 349.283 261.393 351.059C261.645 352.488 263.557 352.681 264.193 354.001C265.168 356.02 265.554 358.421 265.878 360.642C266.364 363.971 267.372 364.407 268.213 367.769C268.526 369.02 268.44 368.962 268.784 370.264C268.786 370.269 268.973 370.889 269.006 370.867C269.926 370.251 270.278 369.849 270.957 368.923C271.1 368.728 271.318 368.075 271.354 368.315C271.535 369.498 271.488 370.705 271.48 371.899C271.477 372.485 271.46 373.072 271.458 373.658C271.456 374.061 271.189 375.119 271.502 374.865C272.064 374.411 272.547 373.826 273.013 373.276C273.245 373.003 273.592 372.093 273.69 372.439C273.849 373.003 273.99 373.572 274.103 374.147C274.425 375.781 274.484 377.455 274.728 379.101C274.786 379.494 275.173 381.49 275.472 381.457C276.935 381.296 278.135 379.125 278.717 378.084C278.998 377.582 279.118 376.067 279.464 376.527C280.192 377.497 280.095 379.455 280.334 380.637C280.348 380.709 280.6 381.527 280.66 381.496C282.018 380.78 282.665 378.565 283.079 377.222C283.216 376.777 283.172 375.516 283.46 375.88C284.311 376.957 284.166 379.947 284.299 381.343C284.343 381.8 284.373 382.258 284.407 382.715C284.426 382.973 284.287 383.682 284.46 383.489C285.708 382.098 286.46 380.337 287.35 378.71C287.611 378.232 288.087 376.752 288.162 377.291C288.311 378.375 288.271 378.732 288.264 379.813C288.263 380.107 287.969 380.794 288.246 380.695C289.756 380.152 290.943 377.886 291.703 376.652C291.985 376.194 292.242 375.721 292.511 375.254C292.614 375.074 292.815 374.504 292.82 374.712C292.872 376.836 292.46 378.977 292.278 381.089C292.217 381.796 291.58 383.656 292.134 383.213C293.579 382.059 294.738 380.084 295.596 378.488C295.941 377.848 296.238 377.184 296.544 376.525C296.844 375.877 296.867 374.098 297.407 374.565C297.689 374.81 296.429 379.9 296.722 379.963C297.445 380.12 297.743 378.881 298.145 378.26C299.118 376.757 300.397 371.432 301.044 375.238C301.167 375.964 301.189 376.679 301.422 377.38" stroke="#242630" stroke-width="2" stroke-miterlimit="1.5" stroke-linecap="round" stroke-linejoin="round"/>
<path fill-rule="evenodd" clip-rule="evenodd" d="M265.679 340.285C265.261 342.881 264.811 346.28 266.249 348.725C266.532 349.207 267.275 349.222 267.697 349.546C268.43 350.109 268.674 351.036 268.803 351.914C269.017 353.37 268.643 354.847 268.774 356.313C268.778 356.359 268.879 357.849 268.998 357.874C270.295 358.137 270.917 358.773 271.407 360.135C271.871 361.426 271.505 363.485 272.229 364.617C272.891 365.65 274.545 363.778 275.459 365.489C276.082 366.655 276.142 368.043 276.156 369.332C276.161 369.832 275.765 370.671 276.239 370.829C276.887 371.043 277.259 370.575 277.83 371.062C278.285 371.449 278.604 372.274 279.217 372.471C280.297 372.817 281.03 371.156 281.985 371.052C282.919 370.95 283.215 372.146 283.931 372.334C285.068 372.632 286.454 371.944 287.685 372.129C291.504 372.701 295.006 373.258 298.637 371.553C299.108 371.331 299.909 371.354 300.282 371.018C301.516 369.909 297.68 368.083 296.802 367.719C296.424 367.562 296.021 367.441 295.649 367.272C295.424 367.17 295.681 366.006 295.71 365.872C296.013 364.503 296.719 363.346 296.675 361.9C296.669 361.687 296.705 360.737 296.541 360.637C295.476 359.984 294.062 359.985 292.994 359.177C292.175 358.557 291.304 356.665 290.168 356.439C289.357 356.278 288.5 356.715 287.672 356.701C285.586 356.664 281.279 356.089 279.714 354.561C277.861 352.751 276.837 350.143 274.858 348.337C273.61 347.197 271.745 347.404 270.654 345.968C269.476 344.419 269.1 340.855 266.746 340.484C266.532 340.45 265.679 340.285 265.679 340.285Z" fill="#242630" stroke="#242630" stroke-width="2" stroke-miterlimit="1.5" stroke-linecap="round" stroke-linejoin="round"/>
<path d="M255.238 335.132C254.287 339.958 257.899 343.848 262.834 344.031" stroke="#242630" stroke-width="2" stroke-miterlimit="1.5" stroke-linecap="round" stroke-linejoin="round"/>
<path d="M302.998 367.215C302.977 366.414 302.917 364.42 302.938 363.696C302.988 362.032 303.74 360.61 302.875 358.965" stroke="#242630" stroke-width="2" stroke-miterlimit="1.5" stroke-linecap="round" stroke-linejoin="round"/>
<path d="M260.093 310.682C262.72 312.098 265.016 313.241 268.003 313.663" stroke="#242630" stroke-width="2" stroke-miterlimit="1.5" stroke-linecap="round" stroke-linejoin="round"/>
<path d="M262.038 307.102C262.712 307.558 262.675 307.517 263.377 307.899" stroke="#242630" stroke-width="2" stroke-miterlimit="1.5" stroke-linecap="round" stroke-linejoin="round"/>
<path d="M265.122 292.919C266.319 292.716 267.207 292.56 268.374 292.561" stroke="#242630" stroke-width="2" stroke-miterlimit="1.5" stroke-linecap="round" stroke-linejoin="round"/>
<path d="M307.04 291.312C307.076 294.345 306.96 297.156 305.86 300.015" stroke="#242630" stroke-width="2" stroke-miterlimit="1.5" stroke-linecap="round" stroke-linejoin="round"/>
<path d="M314.01 289.808C313.39 296.149 311.862 300.866 306.94 305.15" stroke="#242630" stroke-width="2" stroke-miterlimit="1.5" stroke-linecap="round" stroke-linejoin="round"/>
<path d="M299.365 309.168C302.077 307.497 306.93 304.83 310.418 305.31C312.15 305.548 313.442 306.325 314.702 307.497C316.285 308.969 317.671 311.031 319.37 308.702" stroke="#242630" stroke-width="2" stroke-miterlimit="1.5" stroke-linecap="round" stroke-linejoin="round"/>
<path d="M329.77 299.823C330.511 300.565 330.501 300.477 331.386 301.121" stroke="#242630" stroke-width="2" stroke-miterlimit="1.5" stroke-linecap="round" stroke-linejoin="round"/>
<path d="M337.263 298.406C339.564 300.022 342.58 299.143 344.997 298.166" stroke="#242630" stroke-width="2" stroke-miterlimit="1.5" stroke-linecap="round" stroke-linejoin="round"/>
<path d="M336.977 316.06C337.862 316.52 337.801 316.485 338.759 316.927" stroke="#242630" stroke-width="2" stroke-miterlimit="1.5" stroke-linecap="round" stroke-linejoin="round"/>
<path d="M347.339 306.474C347.739 306.746 347.882 306.853 348.264 307.044" stroke="#242630" stroke-width="2" stroke-miterlimit="1.5" stroke-linecap="round" stroke-linejoin="round"/>
<path d="M355.32 296.012C352.188 299.125 349.887 302.249 352.647 306.545" stroke="#242630" stroke-width="2" stroke-miterlimit="1.5" stroke-linecap="round" stroke-linejoin="round"/>
<path d="M353.77 283.717C354.686 284.447 355.402 285.225 356.605 285.255" stroke="#242630" stroke-width="2" stroke-miterlimit="1.5" stroke-linecap="round" stroke-linejoin="round"/>
<path d="M358.033 271.68C358.746 273.385 359.697 274.97 360.392 276.681" stroke="#242630" stroke-width="2" stroke-miterlimit="1.5" stroke-linecap="round" stroke-linejoin="round"/>
<path d="M338.065 261.794C339.443 262.989 339.402 262.953 340.877 263.943" stroke="#242630" stroke-width="2" stroke-miterlimit="1.5" stroke-linecap="round" stroke-linejoin="round"/>
<path d="M332.413 248.367C334.476 249.649 334.376 249.659 336.621 250.761" stroke="#242630" stroke-width="2" stroke-miterlimit="1.5" stroke-linecap="round" stroke-linejoin="round"/>
<path d="M349.433 245.574C350.551 246.595 350.49 246.586 351.416 247.354" stroke="#242630" stroke-width="2" stroke-miterlimit="1.5" stroke-linecap="round" stroke-linejoin="round"/>
<path d="M240.291 316.586C242.561 315.225 245.045 314.386 247.13 312.754" stroke="#242630" stroke-width="2" stroke-miterlimit="1.5" stroke-linecap="round" stroke-linejoin="round"/>
<path d="M241.988 309.569C244.175 308.896 246.249 307.692 247.652 305.845" stroke="#242630" stroke-width="2" stroke-miterlimit="1.5" stroke-linecap="round" stroke-linejoin="round"/>
<path d="M239.569 306.588C240.248 305.924 240.804 305.361 241.331 304.589" stroke="#242630" stroke-width="2" stroke-miterlimit="1.5" stroke-linecap="round" stroke-linejoin="round"/>
<path d="M252.556 347.552C254.054 351.145 255.685 354.717 256.884 358.423" stroke="#242630" stroke-width="2" stroke-miterlimit="1.5" stroke-linecap="round" stroke-linejoin="round"/>
<path d="M254.518 275.579C255.874 277.259 258.37 282.673 260.97 283.542" stroke="#242630" stroke-width="2" stroke-miterlimit="1.5" stroke-linecap="round" stroke-linejoin="round"/>
<path d="M255.938 271.196C257.767 274.219 259.649 278.494 262.469 280.992" stroke="#242630" stroke-width="2" stroke-miterlimit="1.5" stroke-linecap="round" stroke-linejoin="round"/>
<path d="M258.956 268.868C260.073 271.081 261.111 273.319 262.49 275.382" stroke="#242630" stroke-width="2" stroke-miterlimit="1.5" stroke-linecap="round" stroke-linejoin="round"/>
<path d="M261.147 267.113C261.757 267.736 262.33 268.317 262.883 268.978" stroke="#242630" stroke-width="2" stroke-miterlimit="1.5" stroke-linecap="round" stroke-linejoin="round"/>
<path d="M300.503 325.503C303.965 328.905 305.416 330.851 304.886 335.744" stroke="#242630" stroke-width="2" stroke-miterlimit="1.5" stroke-linecap="round" stroke-linejoin="round"/>
<path d="M299.234 328.826C300.128 329.705 301.003 330.415 302.052 331.08" stroke="#242630" stroke-width="2" stroke-miterlimit="1.5" stroke-linecap="round" stroke-linejoin="round"/>
<path d="M306.673 330.933C309.98 331.984 312.991 333.177 315.504 330.314" stroke="#242630" stroke-width="2" stroke-miterlimit="1.5" stroke-linecap="round" stroke-linejoin="round"/>
<path d="M293.43 329.943C296.013 331.623 298.96 331.534 301.928 331.682" stroke="#242630" stroke-width="2" stroke-miterlimit="1.5" stroke-linecap="round" stroke-linejoin="round"/>
<path d="M308.242 333.979C308.637 335.662 309.044 337.009 309.193 338.641" stroke="#242630" stroke-width="2" stroke-miterlimit="1.5" stroke-linecap="round" stroke-linejoin="round"/>
<path d="M305.594 330.134C305.977 333.188 306.264 336.21 306.381 339.286" stroke="#242630" stroke-width="2" stroke-miterlimit="1.5" stroke-linecap="round" stroke-linejoin="round"/>
<path d="M264.876 330.618C264.736 333.04 264.359 335.634 264.473 338.064" stroke="#242630" stroke-width="2" stroke-miterlimit="1.5" stroke-linecap="round" stroke-linejoin="round"/>
<path d="M268.04 326.898C267.618 330.307 267.517 333.599 267.632 337.026" stroke="#242630" stroke-width="2" stroke-miterlimit="1.5" stroke-linecap="round" stroke-linejoin="round"/>
<path d="M270.578 326.624C270.622 330.449 270.088 334.238 270.073 338.06" stroke="#242630" stroke-width="2" stroke-miterlimit="1.5" stroke-linecap="round" stroke-linejoin="round"/>
<path d="M274.198 326.624C273.834 330.17 273.534 333.806 273.467 337.37" stroke="#242630" stroke-width="2" stroke-miterlimit="1.5" stroke-linecap="round" stroke-linejoin="round"/>
<path d="M276.856 327.915C276.664 329.277 276.447 330.596 276.37 331.963" stroke="#242630" stroke-width="2" stroke-miterlimit="1.5" stroke-linecap="round" stroke-linejoin="round"/>
<path d="M262.492 333.076C263.947 333.294 265.597 333.837 267.077 333.959" stroke="#242630" stroke-width="2" stroke-miterlimit="1.5" stroke-linecap="round" stroke-linejoin="round"/>
<path d="M265.183 329.42C266.446 330.166 267.646 330.965 268.888 331.738" stroke="#242630" stroke-width="2" stroke-miterlimit="1.5" stroke-linecap="round" stroke-linejoin="round"/>
<path d="M267.829 327.46C268.642 328.158 269.422 328.948 270.292 329.574" stroke="#242630" stroke-width="2" stroke-miterlimit="1.5" stroke-linecap="round" stroke-linejoin="round"/>
<path d="M243.205 332.812C242.616 336.102 242.159 339.919 240.517 342.901" stroke="#242630" stroke-width="2" stroke-miterlimit="1.5" stroke-linecap="round" stroke-linejoin="round"/>
<path d="M241.647 331.648C241.557 332.984 241.572 332.898 241.375 334.243" stroke="#242630" stroke-width="2" stroke-miterlimit="1.5" stroke-linecap="round" stroke-linejoin="round"/>
<path d="M246.416 334.682C245.825 335.971 245.186 337.214 244.521 338.464" stroke="#242630" stroke-width="2" stroke-miterlimit="1.5" stroke-linecap="round" stroke-linejoin="round"/>
<path d="M248.352 335.78C247.867 337.52 247.942 337.478 247.461 338.833" stroke="#242630" stroke-width="2" stroke-miterlimit="1.5" stroke-linecap="round" stroke-linejoin="round"/>
</g>
<path fill-rule="evenodd" clip-rule="evenodd" d="M228.437 286.784C234.346 284.99 239.701 281.778 244.918 278.545C272.964 261.166 296.238 236.626 328.402 226.528C336.533 223.975 344.892 221.032 353.36 219.879C354.211 219.763 355.056 219.617 355.902 219.472C359.665 229.892 361.701 239.731 361.927 250.807C362.087 258.651 362.293 266.494 361.647 274.318C361.179 279.993 360.381 285.335 358.461 290.715C356.194 297.07 352.988 302.634 351.379 309.31C350.382 313.448 351.965 317.98 348.644 321.35C346.103 323.928 342.508 325.185 338.939 325.433C336.173 325.626 332.28 325.104 330.192 327.427C328.057 329.802 328.419 333.415 328.39 336.386C328.356 339.893 327.721 343.699 325.937 346.744C324.684 348.882 323.079 350.823 321.512 352.738C321.1 353.241 320.21 354.828 319.513 355.047C318.006 355.519 316.825 355.393 315.414 356.548C313.88 357.804 313.136 359.57 311.761 360.908C310.659 361.98 309.049 361.566 308.178 362.968C306.603 365.501 307.504 368.651 306.277 371.324C305.517 372.98 303.953 374.095 303.269 375.794C301.277 380.743 301.738 386.264 299.805 391.229C299.298 392.534 298.799 394.488 297.76 395.479C296.663 396.524 292.825 395.888 291.331 396.182C284.042 397.618 276.168 400.742 271.07 393.32C270.029 391.805 269.248 390.151 268.519 388.47C264.622 379.481 260.133 370.282 255.224 361.801C253.73 359.218 252.234 356.576 249.969 354.587C247.035 352.01 243.186 350.067 241.554 346.316C240.13 343.043 241.862 340.054 241.334 336.789C240.666 332.66 237.216 329.555 237.714 325.147C238.236 320.527 241.837 316.413 241.206 311.672C240.578 306.954 237.678 302.126 234.337 297.787C232.653 295.989 231.147 293.997 229.392 292.271C227.815 290.721 226.009 289.453 224.402 287.984C224.371 287.956 224.367 287.937 224.383 287.925C224.651 287.818 224.92 287.711 225.189 287.604C226.284 287.386 227.367 287.109 228.437 286.784Z" stroke="#242630" stroke-width="2" stroke-miterlimit="1.5" stroke-linecap="round" stroke-linejoin="round"/>
<defs>
<filter id="filter0_d_569_2815" x="1.72803" y="7.85779" width="508.544" height="500.285" filterUnits="userSpaceOnUse" color-interpolation-filters="sRGB">
<feFlood flood-opacity="0" result="BackgroundImageFix"/>
<feColorMatrix in="SourceAlpha" type="matrix" values="0 0 0 0 0 0 0 0 0 0 0 0 0 0 0 0 0 0 127 0" result="hardAlpha"/>
<feOffset dy="8"/>
<feComposite in2="hardAlpha" operator="out"/>
<feColorMatrix type="matrix" values="0 0 0 0 0 0 0 0 0 0 0 0 0 0 0 0 0 0 0.2 0"/>
<feBlend mode="normal" in2="BackgroundImageFix" result="effect1_dropShadow_569_2815"/>
<feBlend mode="normal" in="SourceGraphic" in2="effect1_dropShadow_569_2815" result="shape"/>
</filter>
</defs>
</svg>
