<svg width="24" height="25" viewBox="0 0 24 25" fill="none" xmlns="http://www.w3.org/2000/svg">
<g filter="url(#filter0_d_540_1637)">
<path fill-rule="evenodd" clip-rule="evenodd" d="M7.02033 1C7.02033 1 6.99533 10.8035 7.00078 15.095C7.0083 20.8471 7.57667 22.0515 10 16C10.701 14.2496 11 15 12.5 19C13.25 21 13.5042 22 15.5 21C17.3037 20.0963 16.6438 18.9232 16.5 18.5C15.414 15.3005 13.5 13 15.5 13.5C20.6676 15.3388 22.0018 16.0843 17.3037 11.1194C13.824 7.44254 7.02033 1 7.02033 1Z" fill="white"/>
<path fill-rule="evenodd" clip-rule="evenodd" d="M7.02033 1C7.02033 1 6.99533 10.8035 7.00078 15.095C7.0083 20.8471 7.57667 22.0515 10 16C10.701 14.2496 11 15 12.5 19C13.25 21 13.5042 22 15.5 21C17.3037 20.0963 16.6438 18.9232 16.5 18.5C15.414 15.3005 13.5 13 15.5 13.5C20.6676 15.3388 22.0018 16.0843 17.3037 11.1194C13.824 7.44254 7.02033 1 7.02033 1Z" stroke="#242630" stroke-width="1.5" stroke-miterlimit="1.5" stroke-linecap="round" stroke-linejoin="round"/>
</g>
<defs>
<filter id="filter0_d_540_1637" x="6.25" y="0.249985" width="14.694" height="23.8923" filterUnits="userSpaceOnUse" color-interpolation-filters="sRGB">
<feFlood flood-opacity="0" result="BackgroundImageFix"/>
<feColorMatrix in="SourceAlpha" type="matrix" values="0 0 0 0 0 0 0 0 0 0 0 0 0 0 0 0 0 0 127 0" result="hardAlpha"/>
<feOffset dy="2"/>
<feComposite in2="hardAlpha" operator="out"/>
<feColorMatrix type="matrix" values="0 0 0 0 0 0 0 0 0 0 0 0 0 0 0 0 0 0 0.2 0"/>
<feBlend mode="normal" in2="BackgroundImageFix" result="effect1_dropShadow_540_1637"/>
<feBlend mode="normal" in="SourceGraphic" in2="effect1_dropShadow_540_1637" result="shape"/>
</filter>
</defs>
</svg>
