<svg width="512" height="512" viewBox="0 0 512 512" fill="none" xmlns="http://www.w3.org/2000/svg">
<g filter="url(#filter0_d_556_254)">
<path fill-rule="evenodd" clip-rule="evenodd" d="M295.558 38.6619C292.452 36.5459 289.259 34.5449 285.964 32.6799C265.92 21.3319 245.179 21.8599 222.982 19.2809C190.987 15.5639 153.517 4.85291 122.787 19.4489C91.4731 34.3229 82.5131 71.5519 69.3101 100.574C63.9431 112.373 57.7841 123.6 50.0631 134.03C38.2251 150.023 23.3701 164.707 16.5111 183.76C-4.95088 243.378 56.3521 291.731 70.8051 344.754C81.9681 385.708 71.8941 440.443 106.4 471.313C124.558 487.558 149.55 493.185 173.192 495.167C215.919 498.748 258.4 491.023 301.087 491.089C347.765 491.163 392.734 504.071 439.713 498.351C465.069 495.264 490.124 485.912 496.447 458.646C498.795 448.526 498.852 437.957 498.342 427.632C497.281 406.175 493.779 384.851 490.834 363.596C487.93 342.641 491.158 321.424 488.935 300.418C484.916 262.451 465.267 222.303 443.024 188.799C422.56 159.236 384.3 147.621 357.782 124.103C330.868 100.232 318.619 65.5259 295.558 38.6619Z" fill="white"/>
</g>
<path fill-rule="evenodd" clip-rule="evenodd" d="M290.482 457.284C290.505 457.177 290.527 457.07 290.546 456.965C291.499 451.909 293.714 446.71 293.2 441.486C293.15 440.977 293.13 440.192 292.795 439.774C292.336 439.201 291.38 439.658 291.017 438.869C290.538 437.824 291.735 436.289 291.675 435.142C291.544 432.667 289.955 430.46 290.051 427.95C290.156 425.168 292.716 422.997 292.948 420.179C293.098 418.347 291.521 417.06 291.652 415.245C291.859 412.363 294.225 409.713 293.732 406.76C293.502 405.383 291.496 405.226 291.357 404.184C290.5 397.761 294.774 391.45 294.331 384.848C293.678 375.118 285.76 367.325 280.585 359.661C278.96 357.254 277.431 354.74 276.386 352.02C276.15 351.406 275.813 349.097 275.202 348.839C275.118 348.803 274.475 354.316 272.953 354.125C272.573 354.078 272.288 351.894 272.237 351.649C272.02 350.607 271.561 343.97 270.504 343.611C270.192 343.505 268.422 349.93 268.022 347.977C267.301 344.456 268.496 339.283 266.122 336.271C265.57 335.571 265.111 337.521 264.825 336.738C264.141 334.865 264.065 332.708 263.731 330.756C263.622 330.118 263.513 328.78 263.097 328.275C263.036 328.201 262.729 329.095 262.708 329.146C262.525 329.591 261.918 331.272 261.142 330.914C260.468 330.604 260.241 329.385 260.078 328.76C259.515 326.604 259.239 324.362 258.855 322.169C258.761 321.629 258.681 319.072 258.24 318.809C257.881 318.595 255.775 323.686 255.443 323.223C254.737 322.238 255.136 319.892 255.039 318.743C254.793 315.828 253.895 312.667 253.169 309.824C251.518 303.364 247.165 297.736 246.369 291.037C245.81 286.335 247.807 281.929 248.843 277.442C250.059 272.172 250.455 266.728 251.706 261.442C251.688 259.059 251.472 256.652 250.924 254.217C248.642 244.085 245.405 234.413 245.293 223.908C245.249 219.765 246.047 215.654 247.241 211.7C247.626 210.424 247.933 208.526 248.716 207.438C249.505 206.342 251.739 207.191 252.349 205.905C253.107 204.304 251.543 202.552 251.608 200.925C251.709 198.35 253.802 195.974 255.309 194.049C257.874 190.771 261.391 188.696 265.384 187.62C268.048 186.902 270.831 186.513 273.592 186.547C291.933 186.771 300.811 207.18 312.705 217.957C316.414 221.318 320.367 225.397 324.989 227.499C332.559 230.941 338.071 224.404 345.707 226.077C358.1 228.791 363.266 241.02 371.449 249.284C381.055 258.985 394.628 263.425 403.769 273.746C412.391 283.481 414.974 297.423 417.461 309.825C423.942 342.142 423.003 376.021 432.125 407.495C435.095 417.743 440.046 427.874 445.515 437.034C448.082 441.333 453.454 444.412 455.307 448.887C456.417 451.567 455.584 454.488 455.792 457.284H290.482Z" fill="#FFE38C"/>
<mask id="mask0_556_254" style="mask-type:luminance" maskUnits="userSpaceOnUse" x="245" y="186" width="211" height="272">
<path d="M290.482 457.284C290.505 457.177 290.527 457.07 290.546 456.965C291.499 451.909 293.714 446.71 293.2 441.486C293.15 440.977 293.13 440.192 292.795 439.774C292.336 439.201 291.38 439.658 291.017 438.869C290.538 437.824 291.735 436.289 291.675 435.142C291.544 432.667 289.955 430.46 290.051 427.95C290.156 425.168 292.716 422.997 292.948 420.179C293.098 418.347 291.521 417.06 291.652 415.245C291.859 412.363 294.225 409.713 293.732 406.76C293.502 405.383 291.496 405.226 291.357 404.184C290.5 397.761 294.774 391.45 294.331 384.848C293.678 375.118 285.76 367.325 280.585 359.661C278.96 357.254 277.431 354.74 276.386 352.02C276.15 351.406 275.813 349.097 275.202 348.839C275.118 348.803 274.475 354.316 272.953 354.125C272.573 354.078 272.288 351.894 272.237 351.649C272.02 350.607 271.561 343.97 270.504 343.611C270.192 343.505 268.422 349.93 268.022 347.977C267.301 344.456 268.496 339.283 266.122 336.271C265.57 335.571 265.111 337.521 264.825 336.738C264.141 334.865 264.065 332.708 263.731 330.756C263.622 330.118 263.513 328.78 263.097 328.275C263.036 328.201 262.729 329.095 262.708 329.146C262.525 329.591 261.918 331.272 261.142 330.914C260.468 330.604 260.241 329.385 260.078 328.76C259.515 326.604 259.239 324.362 258.855 322.169C258.761 321.629 258.681 319.072 258.24 318.809C257.881 318.595 255.775 323.686 255.443 323.223C254.737 322.238 255.136 319.892 255.039 318.743C254.793 315.828 253.895 312.667 253.169 309.824C251.518 303.364 247.165 297.736 246.369 291.037C245.81 286.335 247.807 281.929 248.843 277.442C250.059 272.172 250.455 266.728 251.706 261.442C251.688 259.059 251.472 256.652 250.924 254.217C248.642 244.085 245.405 234.413 245.293 223.908C245.249 219.765 246.047 215.654 247.241 211.7C247.626 210.424 247.933 208.526 248.716 207.438C249.505 206.342 251.739 207.191 252.349 205.905C253.107 204.304 251.543 202.552 251.608 200.925C251.709 198.35 253.802 195.974 255.309 194.049C257.874 190.771 261.391 188.696 265.384 187.62C268.048 186.902 270.831 186.513 273.592 186.547C291.933 186.771 300.811 207.18 312.705 217.957C316.414 221.318 320.367 225.397 324.989 227.499C332.559 230.941 338.071 224.404 345.707 226.077C358.1 228.791 363.266 241.02 371.449 249.284C381.055 258.985 394.628 263.425 403.769 273.746C412.391 283.481 414.974 297.423 417.461 309.825C423.942 342.142 423.003 376.021 432.125 407.495C435.095 417.743 440.046 427.874 445.515 437.034C448.082 441.333 453.454 444.412 455.307 448.887C456.417 451.567 455.584 454.488 455.792 457.284H290.482Z" fill="white"/>
</mask>
<g mask="url(#mask0_556_254)">
<path fill-rule="evenodd" clip-rule="evenodd" d="M245.365 201.157C247.482 204.613 250.642 205.985 253.382 208.693C254.97 210.262 255.995 212.435 257.131 214.329C258.037 215.838 258.609 217.522 259.515 219.032C259.626 219.219 259.925 219.789 260.226 220.086C263.788 217.115 267.027 213.7 270.52 210.631C270.587 210.573 270.665 210.531 270.738 210.481C276.559 206.534 283.557 207.378 290.154 206.054C294.284 205.225 298.13 203.254 299.235 198.874C299.603 197.414 299.619 195.923 299.537 194.429C299.179 187.915 292.493 184.213 286.858 182.703C275.607 179.688 258.469 177.035 250.681 188.411C249.121 190.69 245.365 201.157 245.365 201.157Z" fill="#242630"/>
<mask id="mask1_556_254" style="mask-type:luminance" maskUnits="userSpaceOnUse" x="245" y="180" width="55" height="41">
<path d="M245.365 201.157C247.482 204.613 250.642 205.985 253.382 208.693C254.97 210.262 255.995 212.435 257.131 214.329C258.037 215.838 258.609 217.522 259.515 219.032C259.626 219.219 259.925 219.789 260.226 220.086C263.788 217.115 267.027 213.7 270.52 210.631C270.587 210.573 270.665 210.531 270.738 210.481C276.559 206.534 283.557 207.378 290.154 206.054C294.284 205.225 298.13 203.254 299.235 198.874C299.603 197.414 299.619 195.923 299.537 194.429C299.179 187.915 292.493 184.213 286.858 182.703C275.607 179.688 258.469 177.035 250.681 188.411C249.121 190.69 245.365 201.157 245.365 201.157Z" fill="white"/>
</mask>
<g mask="url(#mask1_556_254)">
<path d="M261.739 208.097C260.438 211.657 260.314 216.147 260.601 220.097" stroke="white" stroke-width="2" stroke-miterlimit="1.5" stroke-linecap="round" stroke-linejoin="round"/>
<path d="M253.96 206.057C255.012 206.252 256.128 206.148 256.972 205.442C259.468 203.356 261.002 198.421 260.074 195.306C259.327 192.796 256.318 193.245 255.078 195.092C253.905 196.842 254.39 199.218 254.837 201.122" stroke="white" stroke-width="2" stroke-miterlimit="1.5" stroke-linecap="round" stroke-linejoin="round"/>
<path d="M270.266 204.624C268.835 201.144 266.011 196.697 269.516 193.48C269.994 193.041 270.55 192.691 271.149 192.443C271.922 192.124 272.755 191.973 273.588 191.947C274.302 191.924 275.017 192.08 275.668 192.371C278.718 193.737 278.078 196.162 277.096 198.753C276.782 199.581 275.991 201.175 276.731 201.984C277.926 203.29 281.115 202.677 282.656 202.526C288.578 201.946 294.297 199.807 298.813 195.863" stroke="white" stroke-width="2" stroke-miterlimit="1.5" stroke-linecap="round" stroke-linejoin="round"/>
</g>
<path fill-rule="evenodd" clip-rule="evenodd" d="M245.365 201.157C247.482 204.613 250.642 205.985 253.382 208.693C254.97 210.262 255.995 212.435 257.131 214.329C258.037 215.838 258.609 217.522 259.515 219.032C259.626 219.219 259.925 219.789 260.226 220.086C263.788 217.115 267.027 213.7 270.52 210.631C270.587 210.573 270.665 210.531 270.738 210.481C276.559 206.534 283.557 207.378 290.154 206.054C294.284 205.225 298.13 203.254 299.235 198.874C299.603 197.414 299.619 195.923 299.537 194.429C299.179 187.915 292.493 184.213 286.858 182.703C275.607 179.688 258.469 177.035 250.681 188.411C249.121 190.69 245.365 201.157 245.365 201.157Z" stroke="#242630" stroke-width="2" stroke-miterlimit="1.5" stroke-linecap="round" stroke-linejoin="round"/>
<path d="M321.745 285.867C327.58 293.76 333.237 301.991 336.264 311.4" stroke="#242630" stroke-width="2" stroke-miterlimit="1.5" stroke-linecap="round" stroke-linejoin="round"/>
<path d="M332.95 287.833C337.192 297.83 339.765 307.477 341.978 318.039" stroke="#242630" stroke-width="2" stroke-miterlimit="1.5" stroke-linecap="round" stroke-linejoin="round"/>
<path d="M329.228 320.681C331.04 319.597 331.795 318.174 332.21 316.094" stroke="#242630" stroke-width="2" stroke-miterlimit="1.5" stroke-linecap="round" stroke-linejoin="round"/>
<path d="M253.998 282.293C249.402 293.48 257.727 300.356 261.223 310.26" stroke="#242630" stroke-width="2" stroke-miterlimit="1.5" stroke-linecap="round" stroke-linejoin="round"/>
<path d="M271.601 279.064C284.57 285.762 285.681 297.637 288.956 310.453" stroke="#242630" stroke-width="2" stroke-miterlimit="1.5" stroke-linecap="round" stroke-linejoin="round"/>
<path d="M291.523 299.93C294.102 307.289 296.477 314.727 298.75 322.187" stroke="#242630" stroke-width="2" stroke-miterlimit="1.5" stroke-linecap="round" stroke-linejoin="round"/>
<path d="M274.81 324.514C279.627 331.681 286.329 337.282 291.041 344.603C293.13 347.848 292.921 351.902 294.879 355.256C296.497 358.028 299.012 359.822 300.378 362.879" stroke="#242630" stroke-width="2" stroke-miterlimit="1.5" stroke-linecap="round" stroke-linejoin="round"/>
<path d="M304.479 410.452C303.664 414.287 302.55 417.858 301.401 421.592" stroke="#242630" stroke-width="2" stroke-miterlimit="1.5" stroke-linecap="round" stroke-linejoin="round"/>
<path d="M307.064 420.332C306.049 424.4 304.049 427.847 301.922 431.414" stroke="#242630" stroke-width="2" stroke-miterlimit="1.5" stroke-linecap="round" stroke-linejoin="round"/>
<path d="M311.181 414.815C311.77 425.865 309.96 435.331 306.563 445.78" stroke="#242630" stroke-width="2" stroke-miterlimit="1.5" stroke-linecap="round" stroke-linejoin="round"/>
<path d="M331.017 390.907C333.929 395.936 338.729 400.75 344.047 403.223" stroke="#242630" stroke-width="2" stroke-miterlimit="1.5" stroke-linecap="round" stroke-linejoin="round"/>
<path d="M336.956 407.429C340.291 409.521 343.59 411.59 347.33 412.873" stroke="#242630" stroke-width="2" stroke-miterlimit="1.5" stroke-linecap="round" stroke-linejoin="round"/>
<path d="M348.146 425.339C349.967 425.65 351.714 426.157 353.502 426.613" stroke="#242630" stroke-width="2" stroke-miterlimit="1.5" stroke-linecap="round" stroke-linejoin="round"/>
<path d="M280.671 221.104C280.798 221.533 280.925 221.963 281.05 222.393" stroke="#242630" stroke-width="2" stroke-miterlimit="1.5" stroke-linecap="round" stroke-linejoin="round"/>
<path d="M281.518 230.054C281.676 230.388 281.824 230.725 281.982 231.059" stroke="#242630" stroke-width="2" stroke-miterlimit="1.5" stroke-linecap="round" stroke-linejoin="round"/>
<path d="M287.475 228.376C287.901 229.472 287.844 229.381 288.238 230.289" stroke="#242630" stroke-width="2" stroke-miterlimit="1.5" stroke-linecap="round" stroke-linejoin="round"/>
<path d="M285.657 239.466C285.792 239.66 285.926 239.855 286.061 240.05" stroke="#242630" stroke-width="2" stroke-miterlimit="1.5" stroke-linecap="round" stroke-linejoin="round"/>
<path d="M291.708 240.634C291.736 240.675 291.765 240.716 291.793 240.756" stroke="#242630" stroke-width="2" stroke-miterlimit="1.5" stroke-linecap="round" stroke-linejoin="round"/>
<path d="M289.362 249.266C289.547 249.555 289.727 249.846 289.921 250.129" stroke="#242630" stroke-width="2" stroke-miterlimit="1.5" stroke-linecap="round" stroke-linejoin="round"/>
<path d="M298.167 238.843C298.34 239.109 298.516 239.373 298.691 239.638" stroke="#242630" stroke-width="2" stroke-miterlimit="1.5" stroke-linecap="round" stroke-linejoin="round"/>
<path d="M293.934 227.182C294.189 227.663 294.438 228.146 294.703 228.621" stroke="#242630" stroke-width="2" stroke-miterlimit="1.5" stroke-linecap="round" stroke-linejoin="round"/>
<path d="M297.201 246.856C297.691 247.668 298.154 248.506 298.732 249.261" stroke="#242630" stroke-width="2" stroke-miterlimit="1.5" stroke-linecap="round" stroke-linejoin="round"/>
<path d="M305.867 249.061C306.457 249.749 307.032 250.446 307.611 251.143" stroke="#242630" stroke-width="2" stroke-miterlimit="1.5" stroke-linecap="round" stroke-linejoin="round"/>
<path d="M299.64 258.173C299.957 258.561 299.868 258.46 300.221 258.869" stroke="#242630" stroke-width="2" stroke-miterlimit="1.5" stroke-linecap="round" stroke-linejoin="round"/>
<path d="M249.771 227.688C249.8 228.403 249.831 229.119 249.856 229.835" stroke="#242630" stroke-width="2" stroke-miterlimit="1.5" stroke-linecap="round" stroke-linejoin="round"/>
<path d="M251.77 219.012C251.704 219.781 251.638 220.55 251.572 221.319" stroke="#242630" stroke-width="2" stroke-miterlimit="1.5" stroke-linecap="round" stroke-linejoin="round"/>
<path d="M255.426 228.333C255.145 230.189 254.878 232.05 254.583 233.905" stroke="#242630" stroke-width="2" stroke-miterlimit="1.5" stroke-linecap="round" stroke-linejoin="round"/>
<path d="M251.52 240.59C251.532 240.678 251.544 240.766 251.556 240.853" stroke="#242630" stroke-width="2" stroke-miterlimit="1.5" stroke-linecap="round" stroke-linejoin="round"/>
<path d="M285.312 213.112C285.511 213.634 285.709 214.157 285.903 214.681" stroke="#242630" stroke-width="2" stroke-miterlimit="1.5" stroke-linecap="round" stroke-linejoin="round"/>
<path d="M274.438 227.091C274.635 227.54 274.832 227.99 275.04 228.436" stroke="#242630" stroke-width="2" stroke-miterlimit="1.5" stroke-linecap="round" stroke-linejoin="round"/>
<path d="M274.739 213.94C274.99 214.759 275.224 215.592 275.514 216.4" stroke="#242630" stroke-width="2" stroke-miterlimit="1.5" stroke-linecap="round" stroke-linejoin="round"/>
<path d="M279.104 237.971C279.449 238.701 279.788 239.436 280.146 240.159" stroke="#242630" stroke-width="2" stroke-miterlimit="1.5" stroke-linecap="round" stroke-linejoin="round"/>
</g>
<path fill-rule="evenodd" clip-rule="evenodd" d="M290.482 457.284C290.505 457.177 290.527 457.07 290.546 456.965C291.499 451.909 293.714 446.71 293.2 441.486C293.15 440.977 293.13 440.192 292.795 439.774C292.336 439.201 291.38 439.658 291.017 438.869C290.538 437.824 291.735 436.289 291.675 435.142C291.544 432.667 289.955 430.46 290.051 427.95C290.156 425.168 292.716 422.997 292.948 420.179C293.098 418.347 291.521 417.06 291.652 415.245C291.859 412.363 294.225 409.713 293.732 406.76C293.502 405.383 291.496 405.226 291.357 404.184C290.5 397.761 294.774 391.45 294.331 384.848C293.678 375.118 285.76 367.325 280.585 359.661C278.96 357.254 277.431 354.74 276.386 352.02C276.15 351.406 275.813 349.097 275.202 348.839C275.118 348.803 274.475 354.316 272.953 354.125C272.573 354.078 272.288 351.894 272.237 351.649C272.02 350.607 271.561 343.97 270.504 343.611C270.192 343.505 268.422 349.93 268.022 347.977C267.301 344.456 268.496 339.283 266.122 336.271C265.57 335.571 265.111 337.521 264.825 336.738C264.141 334.865 264.065 332.708 263.731 330.756C263.622 330.118 263.513 328.78 263.097 328.275C263.036 328.201 262.729 329.095 262.708 329.146C262.525 329.591 261.918 331.272 261.142 330.914C260.468 330.604 260.241 329.385 260.078 328.76C259.515 326.604 259.239 324.362 258.855 322.169C258.761 321.629 258.681 319.072 258.24 318.809C257.881 318.595 255.775 323.686 255.443 323.223C254.737 322.238 255.136 319.892 255.039 318.743C254.793 315.828 253.895 312.667 253.169 309.824C251.518 303.364 247.165 297.736 246.369 291.037C245.81 286.335 247.807 281.929 248.843 277.442C250.059 272.172 250.455 266.728 251.706 261.442C251.688 259.059 251.472 256.652 250.924 254.217C248.642 244.085 245.405 234.413 245.293 223.908C245.249 219.765 246.047 215.654 247.241 211.7C247.626 210.424 247.933 208.526 248.716 207.438C249.505 206.342 251.739 207.191 252.349 205.905C253.107 204.304 251.543 202.552 251.608 200.925C251.709 198.35 253.802 195.974 255.309 194.049C257.874 190.771 261.391 188.696 265.384 187.62C268.048 186.902 270.831 186.513 273.592 186.547C291.933 186.771 300.811 207.18 312.705 217.957C316.414 221.318 320.367 225.397 324.989 227.499C332.559 230.941 338.071 224.404 345.707 226.077C358.1 228.791 363.266 241.02 371.449 249.284C381.055 258.985 394.628 263.425 403.769 273.746C412.391 283.481 414.974 297.423 417.461 309.825C423.942 342.142 423.003 376.021 432.125 407.495C435.095 417.743 440.046 427.874 445.515 437.034C448.082 441.333 453.454 444.412 455.307 448.887C456.417 451.567 455.584 454.488 455.792 457.284H290.482Z" stroke="#242630" stroke-width="2" stroke-miterlimit="1.5" stroke-linecap="round" stroke-linejoin="round"/>
<path fill-rule="evenodd" clip-rule="evenodd" d="M333.574 235.296C335.033 238.907 336.985 242.965 340.032 245.537C341.948 247.155 344.579 248.08 346.873 249.071C348.298 249.687 349.824 250.47 351.369 250.702C354.93 251.239 357.504 248.463 356.641 244.974C355.669 241.046 352.828 237.247 349.006 235.74C346.698 234.831 344.033 234.752 341.59 235.181C340.162 235.432 338.336 236.265 336.858 236.013C336.195 235.9 333.574 235.296 333.574 235.296Z" fill="white"/>
<mask id="mask2_556_254" style="mask-type:luminance" maskUnits="userSpaceOnUse" x="333" y="234" width="24" height="17">
<path d="M333.574 235.296C335.033 238.907 336.985 242.965 340.032 245.537C341.948 247.155 344.579 248.08 346.873 249.071C348.298 249.687 349.824 250.47 351.369 250.702C354.93 251.239 357.504 248.463 356.641 244.974C355.669 241.046 352.828 237.247 349.006 235.74C346.698 234.831 344.033 234.752 341.59 235.181C340.162 235.432 338.336 236.265 336.858 236.013C336.195 235.9 333.574 235.296 333.574 235.296Z" fill="white"/>
</mask>
<g mask="url(#mask2_556_254)">
<path fill-rule="evenodd" clip-rule="evenodd" d="M338.075 236.635C336.363 238.183 335.614 240.402 337.728 242.813C340.974 246.515 347.92 246.074 351.595 243.593C354.829 241.41 353.021 237.606 350.148 235.944C346.519 233.845 341.228 233.784 338.075 236.635Z" fill="white" stroke="#242630" stroke-width="2" stroke-miterlimit="1.5" stroke-linecap="round" stroke-linejoin="round"/>
<path fill-rule="evenodd" clip-rule="evenodd" d="M341.92 237.019C341.506 237.557 341.407 238.252 342.15 238.878C343.291 239.839 345.286 239.399 346.221 238.495C347.044 237.7 346.315 236.645 345.392 236.276C344.225 235.811 342.684 236.028 341.92 237.019Z" fill="#242630" stroke="#242630" stroke-width="2" stroke-miterlimit="1.5" stroke-linecap="round" stroke-linejoin="round"/>
</g>
<path fill-rule="evenodd" clip-rule="evenodd" d="M333.574 235.296C335.033 238.907 336.985 242.965 340.032 245.537C341.948 247.155 344.579 248.08 346.873 249.071C348.298 249.687 349.824 250.47 351.369 250.702C354.93 251.239 357.504 248.463 356.641 244.974C355.669 241.046 352.828 237.247 349.006 235.74C346.698 234.831 344.033 234.752 341.59 235.181C340.162 235.432 338.336 236.265 336.858 236.013C336.195 235.9 333.574 235.296 333.574 235.296Z" stroke="#242630" stroke-width="2" stroke-miterlimit="1.5" stroke-linecap="round" stroke-linejoin="round"/>
<path fill-rule="evenodd" clip-rule="evenodd" d="M369.555 322.55C369.628 321.079 369.759 319.606 369.951 318.133C371.835 303.729 380.62 291.773 382.825 277.761C383.834 271.348 379.174 257.3 380.42 256.431C386.539 252.165 394.977 256.989 399.422 261.415C408.087 270.044 413.66 281.237 423.322 288.928C429.781 294.069 439.786 296.916 445.204 303.028C448.228 306.44 447.996 311.828 450.79 315.003C453.104 317.632 457.244 317.978 459.36 320.887C461.818 324.266 464.274 327.651 466.559 331.152C479.372 350.78 470.581 356.648 456.638 371.527C452.285 376.173 448.281 382.529 442.489 385.514C435.785 388.97 427.537 388.012 420.643 391.161C416.147 393.215 412.929 399.234 408.773 402.98C390.131 416.043 385.681 408.03 375.629 389.69C365.163 370.593 368.387 343.561 369.555 322.55Z" fill="#FFE38C"/>
<mask id="mask3_556_254" style="mask-type:luminance" maskUnits="userSpaceOnUse" x="368" y="254" width="105" height="156">
<path d="M369.555 322.55C369.628 321.079 369.759 319.606 369.951 318.133C371.835 303.729 380.62 291.773 382.825 277.761C383.834 271.348 379.174 257.3 380.42 256.431C386.539 252.165 394.977 256.989 399.422 261.415C408.087 270.044 413.66 281.237 423.322 288.928C429.781 294.069 439.786 296.916 445.204 303.028C448.228 306.44 447.996 311.828 450.79 315.003C453.104 317.632 457.244 317.978 459.36 320.887C461.818 324.266 464.274 327.651 466.559 331.152C479.372 350.78 470.581 356.648 456.638 371.527C452.285 376.173 448.281 382.529 442.489 385.514C435.785 388.97 427.537 388.012 420.643 391.161C416.147 393.215 412.929 399.234 408.773 402.98C390.131 416.043 385.681 408.03 375.629 389.69C365.163 370.593 368.387 343.561 369.555 322.55Z" fill="white"/>
</mask>
<g mask="url(#mask3_556_254)">
<path d="M390.308 263.914C394.38 284.718 378.749 299.473 374.119 318.505" stroke="#242630" stroke-width="2" stroke-miterlimit="1.5" stroke-linecap="round" stroke-linejoin="round"/>
<path d="M381.636 365.347C382.038 368.499 382.483 371.676 383.345 374.743" stroke="#242630" stroke-width="2" stroke-miterlimit="1.5" stroke-linecap="round" stroke-linejoin="round"/>
<path d="M391.293 373.464C392.025 375.281 392.749 376.999 393.642 378.731" stroke="#242630" stroke-width="2" stroke-miterlimit="1.5" stroke-linecap="round" stroke-linejoin="round"/>
<path d="M388.949 389.566C391.214 392.596 393.346 395.541 396.288 397.936" stroke="#242630" stroke-width="2" stroke-miterlimit="1.5" stroke-linecap="round" stroke-linejoin="round"/>
<path d="M451.74 351.013C450.963 356.724 448.844 361.475 446.027 366.486" stroke="#242630" stroke-width="2" stroke-miterlimit="1.5" stroke-linecap="round" stroke-linejoin="round"/>
<path d="M435.534 370.264C434.696 371.584 433.936 372.781 433.003 374" stroke="#242630" stroke-width="2" stroke-miterlimit="1.5" stroke-linecap="round" stroke-linejoin="round"/>
</g>
<path fill-rule="evenodd" clip-rule="evenodd" d="M369.555 322.55C369.628 321.079 369.759 319.606 369.951 318.133C371.835 303.729 380.62 291.773 382.825 277.761C383.834 271.348 379.174 257.3 380.42 256.431C386.539 252.165 394.977 256.989 399.422 261.415C408.087 270.044 413.66 281.237 423.322 288.928C429.781 294.069 439.786 296.916 445.204 303.028C448.228 306.44 447.996 311.828 450.79 315.003C453.104 317.632 457.244 317.978 459.36 320.887C461.818 324.266 464.274 327.651 466.559 331.152C479.372 350.78 470.581 356.648 456.638 371.527C452.285 376.173 448.281 382.529 442.489 385.514C435.785 388.97 427.537 388.012 420.643 391.161C416.147 393.215 412.929 399.234 408.773 402.98C390.131 416.043 385.681 408.03 375.629 389.69C365.163 370.593 368.387 343.561 369.555 322.55Z" stroke="#242630" stroke-width="2" stroke-miterlimit="1.5" stroke-linecap="round" stroke-linejoin="round"/>
<path fill-rule="evenodd" clip-rule="evenodd" d="M261.45 229.486C263.727 235.132 268.429 239.576 272.695 244.061C275.837 247.365 278.531 250.943 281.46 254.431C285.403 262.598 286.43 271.974 293.763 278.248C304.241 287.214 317.99 289.979 326.338 301.825C328.044 304.245 334.292 314.137 327.01 313.329C315.775 312.084 308.985 302.947 302.586 294.899C296.633 287.411 289.799 280.149 281.745 274.907C274.398 270.126 265.562 267.759 257.371 271.942C255.893 272.697 254.489 273.553 253.25 274.621C252.461 275.3 251.735 276.054 250.97 276.76C250.515 277.179 250.066 277.609 249.53 277.917C247.657 278.993 247.794 276.553 247.92 275.303C248.224 272.296 249.476 269.503 249.898 266.524C250.382 263.114 249.978 259.659 250.277 256.237C250.408 254.729 250.697 253.222 251.021 251.745C251.057 251.585 251.24 250.319 251.491 250.313C252.49 250.288 253.25 251.881 253.601 252.595C254.644 254.718 255.18 257.043 255.961 259.265C256.103 259.668 256.346 261.175 256.658 261.377C256.768 261.448 256.993 260.717 257.014 260.653C257.32 259.691 257.402 258.666 257.419 257.662C257.483 253.737 256.337 249.759 256.895 245.847C257.812 239.423 260.233 234.557 259.682 227.897C259.607 226.985 259.696 226.101 259.83 225.198C259.906 224.691 260.069 223.173 260.104 223.685C260.245 225.767 260.724 227.687 261.45 229.486Z" fill="#242630"/>
<mask id="mask4_556_254" style="mask-type:luminance" maskUnits="userSpaceOnUse" x="247" y="223" width="84" height="91">
<path d="M261.45 229.486C263.727 235.132 268.429 239.576 272.695 244.061C275.837 247.365 278.531 250.943 281.46 254.431C285.403 262.598 286.43 271.974 293.763 278.248C304.241 287.214 317.99 289.979 326.338 301.825C328.044 304.245 334.292 314.137 327.01 313.329C315.775 312.084 308.985 302.947 302.586 294.899C296.633 287.411 289.799 280.149 281.745 274.907C274.398 270.126 265.562 267.759 257.371 271.942C255.893 272.697 254.489 273.553 253.25 274.621C252.461 275.3 251.735 276.054 250.97 276.76C250.515 277.179 250.066 277.609 249.53 277.917C247.657 278.993 247.794 276.553 247.92 275.303C248.224 272.296 249.476 269.503 249.898 266.524C250.382 263.114 249.978 259.659 250.277 256.237C250.408 254.729 250.697 253.222 251.021 251.745C251.057 251.585 251.24 250.319 251.491 250.313C252.49 250.288 253.25 251.881 253.601 252.595C254.644 254.718 255.18 257.043 255.961 259.265C256.103 259.668 256.346 261.175 256.658 261.377C256.768 261.448 256.993 260.717 257.014 260.653C257.32 259.691 257.402 258.666 257.419 257.662C257.483 253.737 256.337 249.759 256.895 245.847C257.812 239.423 260.233 234.557 259.682 227.897C259.607 226.985 259.696 226.101 259.83 225.198C259.906 224.691 260.069 223.173 260.104 223.685C260.245 225.767 260.724 227.687 261.45 229.486Z" fill="white"/>
</mask>
<g mask="url(#mask4_556_254)">
<path fill-rule="evenodd" clip-rule="evenodd" d="M250.17 257.446C249.827 259.7 250.703 261.959 251.025 264.172C251.374 266.566 251.212 269.013 251.554 271.389C251.597 271.689 251.687 272.333 252.115 272.295C252.775 272.236 252.979 271.865 253.441 271.49C253.767 271.225 254.167 271.063 254.434 270.728C254.976 270.047 255.264 269.076 255.676 268.313C255.955 267.796 256.441 266.665 257.112 266.544C257.468 266.479 257.795 266.88 257.955 267.144C258.328 267.763 258.494 269.163 259.408 269.221C260.397 269.283 260.957 267.803 261.327 267.099C261.407 266.948 261.758 266.055 261.996 266.087C262.727 266.183 263.033 267.212 263.315 267.764C263.451 268.032 263.667 268.507 264.034 268.488C264.92 268.443 265.326 267.114 265.666 266.476C265.842 266.145 266.101 265.625 266.554 265.811C267.585 266.235 267.635 268.325 268.706 268.496C270.311 268.751 269.654 265.339 271.018 265.52C271.877 265.635 272.198 266.535 272.593 267.211C273.308 268.436 274.261 269.524 275.33 270.45C275.761 270.824 276.371 271.682 277.022 271.513C277.621 271.357 277.977 270.777 278.195 270.239C278.69 269.013 278.791 267.555 278.716 266.245C278.57 263.707 277.323 261.43 276.797 258.975C276.108 255.757 276.505 252.121 274.409 249.358C274.168 249.041 273.665 248.539 273.274 248.957C273.034 249.214 272.995 249.651 272.962 249.982C272.875 250.847 272.992 251.716 272.922 252.58C272.695 255.352 272.223 258.186 271.567 260.887C271.336 261.839 271.17 263.211 270.34 263.845C269.939 264.151 269.618 263.628 269.453 263.322C269.123 262.712 268.818 261.181 268.071 260.941C267.638 260.801 267.504 261.347 267.456 261.654C267.359 262.276 267.331 262.87 267.091 263.464C267.013 263.657 266.894 263.957 266.672 264.029C266.333 264.139 266.08 263.542 265.975 263.323C265.636 262.612 265.357 261.141 264.211 261.559C263.164 261.94 263.667 264.35 262.336 264.265C261.184 264.191 261.248 261.6 259.824 262.144C258.963 262.472 258.784 263.799 258.514 264.556C258.295 265.168 258.056 265.574 257.343 265.448C257.005 265.389 256.801 265.023 256.669 264.741C256.318 263.992 256.189 263.146 255.935 262.362C254.851 259.015 254.298 255.524 253.139 252.199C252.951 251.659 252.545 250.163 251.685 250.604C251.3 250.802 251.178 251.372 251.097 251.754C250.891 252.727 250.907 253.728 250.702 254.702C250.513 255.604 250.321 256.521 250.17 257.446Z" fill="white"/>
</g>
<path fill-rule="evenodd" clip-rule="evenodd" d="M261.45 229.486C263.727 235.132 268.429 239.576 272.695 244.061C275.837 247.365 278.531 250.943 281.46 254.431C285.403 262.598 286.43 271.974 293.763 278.248C304.241 287.214 317.99 289.979 326.338 301.825C328.044 304.245 334.292 314.137 327.01 313.329C315.775 312.084 308.985 302.947 302.586 294.899C296.633 287.411 289.799 280.149 281.745 274.907C274.398 270.126 265.562 267.759 257.371 271.942C255.893 272.697 254.489 273.553 253.25 274.621C252.461 275.3 251.735 276.054 250.97 276.76C250.515 277.179 250.066 277.609 249.53 277.917C247.657 278.993 247.794 276.553 247.92 275.303C248.224 272.296 249.476 269.503 249.898 266.524C250.382 263.114 249.978 259.659 250.277 256.237C250.408 254.729 250.697 253.222 251.021 251.745C251.057 251.585 251.24 250.319 251.491 250.313C252.49 250.288 253.25 251.881 253.601 252.595C254.644 254.718 255.18 257.043 255.961 259.265C256.103 259.668 256.346 261.175 256.658 261.377C256.768 261.448 256.993 260.717 257.014 260.653C257.32 259.691 257.402 258.666 257.419 257.662C257.483 253.737 256.337 249.759 256.895 245.847C257.812 239.423 260.233 234.557 259.682 227.897C259.607 226.985 259.696 226.101 259.83 225.198C259.906 224.691 260.069 223.173 260.104 223.685C260.245 225.767 260.724 227.687 261.45 229.486Z" stroke="#242630" stroke-width="2" stroke-miterlimit="1.5" stroke-linecap="round" stroke-linejoin="round"/>
<path fill-rule="evenodd" clip-rule="evenodd" d="M285.95 274.977C288.083 280.978 290.012 286.895 292.645 292.719C296.71 301.71 301.587 310.938 302.894 320.849C304.242 331.078 295.916 341.101 305.087 349.648C306.925 351.361 309.056 352.785 311.458 353.566C322.754 357.236 331.613 345.231 329.639 334.852C328.426 328.468 325.498 322.102 323.151 316.08C321.428 311.66 319.89 306.562 316.834 302.843C311.272 296.073 303.558 291.561 297.283 285.533C292.717 281.146 289.693 274.229 284.307 270.887C283.967 270.676 284.585 271.636 284.734 272.007C285.05 272.792 285.421 273.551 285.719 274.343C285.798 274.554 285.875 274.765 285.95 274.977Z" fill="white" stroke="#242630" stroke-width="2" stroke-miterlimit="1.5" stroke-linecap="round" stroke-linejoin="round"/>
<path fill-rule="evenodd" clip-rule="evenodd" d="M226.537 307.145C223.389 313.471 222.024 319.865 222.266 326.906C222.324 328.581 222.492 330.271 222.856 331.908C222.893 332.073 223.316 333.371 223.398 333.344C224.817 332.876 225.818 330.605 226.224 329.331C227.607 324.988 226.893 320.303 226.959 315.832C226.985 314.093 226.537 307.145 226.537 307.145Z" fill="white" stroke="#242630" stroke-width="2" stroke-miterlimit="1.5" stroke-linecap="round" stroke-linejoin="round"/>
<path fill-rule="evenodd" clip-rule="evenodd" d="M204.729 264.802C195.461 267.47 186.714 270.177 181.964 279.167C179.949 282.979 178.923 287.224 179.734 291.531C180.004 292.965 181.535 295.923 183.411 295.615C187.544 294.935 188.647 289.719 189.461 286.396C191.077 279.804 193.045 272.93 199.174 269.209C200.386 268.473 204.729 264.802 204.729 264.802Z" fill="white" stroke="#242630" stroke-width="2" stroke-miterlimit="1.5" stroke-linecap="round" stroke-linejoin="round"/>
<path fill-rule="evenodd" clip-rule="evenodd" d="M216.638 237.394C214.149 235.646 211.749 233.716 209.067 232.269C207.05 231.18 204.523 229.762 202.157 229.705C199.774 229.648 199.04 231.827 200.943 233.43C203.691 235.745 208.06 235.716 211.336 236.892C212.339 237.252 216.638 237.394 216.638 237.394Z" fill="white" stroke="#242630" stroke-width="2" stroke-miterlimit="1.5" stroke-linecap="round" stroke-linejoin="round"/>
<path fill-rule="evenodd" clip-rule="evenodd" d="M246.175 315.542C245.018 329.834 247.154 344.196 245.532 358.589C245.235 361.223 242.777 371.375 246.29 373.17C248.597 374.348 250.372 366.07 250.411 365.147C250.781 356.246 248.892 346.875 248.214 337.988C247.871 333.493 246.175 315.542 246.175 315.542Z" fill="white" stroke="#242630" stroke-width="2" stroke-miterlimit="1.5" stroke-linecap="round" stroke-linejoin="round"/>
<path fill-rule="evenodd" clip-rule="evenodd" d="M313.143 361.076C313.808 364.839 313.907 368.417 313.397 372.201C312.922 375.717 311.798 379.469 312.414 383.031C312.945 386.106 315.965 390.562 317.126 385.11C317.945 381.265 316.628 377.509 315.933 373.779C315.457 371.222 313.143 361.076 313.143 361.076Z" fill="white" stroke="#242630" stroke-width="2" stroke-miterlimit="1.5" stroke-linecap="round" stroke-linejoin="round"/>
<path fill-rule="evenodd" clip-rule="evenodd" d="M335.875 337.592C339.342 341.749 342.313 346.426 343.248 351.821C343.33 352.294 343.773 356.61 342.861 356.592C342.104 356.577 341.187 354.633 340.943 354.098C339.667 351.307 339.904 348.233 339.212 345.313C338.824 343.676 335.875 337.592 335.875 337.592Z" fill="white" stroke="#242630" stroke-width="2" stroke-miterlimit="1.5" stroke-linecap="round" stroke-linejoin="round"/>
<path fill-rule="evenodd" clip-rule="evenodd" d="M229.378 272.835C225.751 275.227 221.515 277.863 218.498 281.058C216.996 282.649 215.933 284.718 216.817 286.866C217.01 287.334 217.749 289.003 218.398 288.75C221.865 287.395 223.246 283.146 225.483 280.515C226.599 279.203 229.378 272.835 229.378 272.835Z" fill="white" stroke="#242630" stroke-width="2" stroke-miterlimit="1.5" stroke-linecap="round" stroke-linejoin="round"/>
<path fill-rule="evenodd" clip-rule="evenodd" d="M238.233 237.381C236.082 233.165 233.72 228.117 229.795 225.23C228.832 224.521 227.789 223.904 226.703 223.403C219.1 219.899 222.036 227.51 226.144 230.197C228.498 231.737 238.233 237.381 238.233 237.381Z" fill="white" stroke="#242630" stroke-width="2" stroke-miterlimit="1.5" stroke-linecap="round" stroke-linejoin="round"/>
<path fill-rule="evenodd" clip-rule="evenodd" d="M229.679 64.128C230.495 65.347 231.302 66.572 232.032 67.835C233.225 70.189 233.277 72.962 232.164 75.362L160.354 230.241C157.038 237.392 149.38 241.474 141.596 240.241L66.7861 228.392C62.8361 227.726 60.2551 224.297 58.3621 221.046C56.4071 217.688 54.7511 214.222 56.5321 210.382L128.342 55.503C131.658 48.352 139.315 44.27 147.1 45.503L221.91 57.351C224.018 57.685 225.905 58.784 227.233 60.405C228.013 61.663 228.851 62.893 229.679 64.128Z" fill="#C1EDFC" stroke="#242630" stroke-width="2" stroke-miterlimit="1.5" stroke-linecap="round" stroke-linejoin="round"/>
<path d="M227.424 67.689C227.658 71.838 225.575 75.557 223.883 79.205L156.574 224.375C153.259 231.526 145.601 235.609 137.816 234.376L68.5629 223.407C64.6389 222.785 60.9879 221.713 58.8589 218.326" stroke="#242630" stroke-width="2" stroke-miterlimit="1.5" stroke-linecap="round" stroke-linejoin="round"/>
<path fill-rule="evenodd" clip-rule="evenodd" d="M110.456 232.66C110.416 231.827 109.729 231.05 108.922 230.925L93.7912 228.581C92.9842 228.456 92.3612 229.03 92.4012 229.863C92.4412 230.695 93.1292 231.473 93.9362 231.598L109.067 233.942C109.874 234.067 110.497 233.493 110.456 232.66Z" fill="#242630" stroke="#242630" stroke-width="2" stroke-miterlimit="1.5" stroke-linecap="round" stroke-linejoin="round"/>
<path fill-rule="evenodd" clip-rule="evenodd" d="M209.297 123.017C208.435 122.272 207.365 122.475 206.91 123.47L200.957 136.478C200.502 137.473 200.832 138.886 201.694 139.631C202.557 140.376 203.626 140.174 204.081 139.179L210.034 126.17C210.49 125.175 210.159 123.762 209.297 123.017Z" fill="white" stroke="#242630" stroke-width="2" stroke-miterlimit="1.5" stroke-linecap="round" stroke-linejoin="round"/>
<path fill-rule="evenodd" clip-rule="evenodd" d="M218.855 102.363C217.993 101.618 216.924 101.82 216.468 102.815L210.516 115.824C210.06 116.819 210.391 118.231 211.253 118.977C212.115 119.722 213.185 119.519 213.64 118.524L219.593 105.516C220.048 104.521 219.718 103.108 218.855 102.363Z" fill="white" stroke="#242630" stroke-width="2" stroke-miterlimit="1.5" stroke-linecap="round" stroke-linejoin="round"/>
<path fill-rule="evenodd" clip-rule="evenodd" d="M148.517 55.712C153.996 56.379 157.094 61.27 155.43 66.627C153.767 71.985 147.968 75.793 142.489 75.126C137.01 74.46 133.913 69.569 135.577 64.211C137.24 58.854 143.039 55.046 148.517 55.712Z" fill="#242630" stroke="#242630" stroke-width="2" stroke-miterlimit="1.5" stroke-linecap="round" stroke-linejoin="round"/>
<path fill-rule="evenodd" clip-rule="evenodd" d="M147.361 59.436C150.739 59.846 152.648 62.861 151.623 66.164C150.597 69.467 147.023 71.814 143.645 71.403C140.268 70.992 138.358 67.977 139.384 64.675C140.409 61.372 143.984 59.025 147.361 59.436Z" fill="#242630" stroke="white" stroke-width="2" stroke-miterlimit="1.5" stroke-linecap="round" stroke-linejoin="round"/>
<path fill-rule="evenodd" clip-rule="evenodd" d="M137.322 78.844C142.801 79.511 145.899 84.401 144.235 89.759C142.572 95.116 136.773 98.925 131.294 98.258C125.815 97.591 122.718 92.701 124.382 87.343C126.045 81.986 131.844 78.177 137.322 78.844Z" fill="#242630" stroke="#242630" stroke-width="2" stroke-miterlimit="1.5" stroke-linecap="round" stroke-linejoin="round"/>
<path fill-rule="evenodd" clip-rule="evenodd" d="M136.166 82.567C139.544 82.978 141.453 85.993 140.428 89.296C139.402 92.598 135.828 94.946 132.45 94.535C129.073 94.124 127.164 91.109 128.189 87.806C129.214 84.504 132.789 82.156 136.166 82.567Z" fill="#242630" stroke="white" stroke-width="2" stroke-miterlimit="1.5" stroke-linecap="round" stroke-linejoin="round"/>
<path d="M226.157 41.825L236.541 41.501L233.441 48.802L243.863 49.388L239.997 55.838L247.856 60.75L242.926 64.623L249.654 69.948L241.116 75.248L248.676 80.121L240.473 83.98L246.043 89.217L236.479 97.853" stroke="#242630" stroke-width="2" stroke-miterlimit="1.5" stroke-linecap="round" stroke-linejoin="round"/>
<path d="M244.284 102.563L238.097 107.087L239.855 113.156L233.707 118.116L233.379 124.291L226.897 128.411L229.212 134.537L222.716 138.674L224.422 143.859L214.248 152.312" stroke="#242630" stroke-width="2" stroke-miterlimit="1.5" stroke-linecap="round" stroke-linejoin="round"/>
<path d="M240.369 133.76L245.368 131.115L244.513 124.525L251.032 120.698L250.196 114.731L256.535 110.712L255.855 105.023L259.709 101.04L257.913 95.787L261.971 92.204L260.559 85.352" stroke="#242630" stroke-width="2" stroke-miterlimit="1.5" stroke-linecap="round" stroke-linejoin="round"/>
<path d="M104.986 64.181L112.09 59.936L110.228 53.255L116.341 50.612L117.533 45.552L123.083 43.627L122.026 38.188L129.791 38.308L131.309 31.235L141.124 35.836L146.077 31.455L154.406 35.668L158.983 31.85L165.194 34.797" stroke="#242630" stroke-width="2" stroke-miterlimit="1.5" stroke-linecap="round" stroke-linejoin="round"/>
<path d="M52.6341 191.056L43.2941 198.165L47.3571 203.166L39.8301 210.746L45.6561 214.72L41.9841 220.557L48.5491 222.688L43.9711 229.572L51.8731 230.882L52.0801 235.059L58.5431 235.817L56.9431 241.125L72.7181 239.978L76.8881 243.746L84.8451 242.949" stroke="#242630" stroke-width="2" stroke-miterlimit="1.5" stroke-linecap="round" stroke-linejoin="round"/>
<path d="M40.3481 189.446L45.5191 184.675L45.0881 175.66L49.4581 172.627L50.5891 165.969L58.8771 161.175L60.5001 153.762" stroke="#242630" stroke-width="2" stroke-miterlimit="1.5" stroke-linecap="round" stroke-linejoin="round"/>
<path d="M42.875 244.531L50.429 246.415L50.104 253.214L59.27 251.286L60.477 258.183L67.9 254.307L74.567 260.161L84.663 255.595L87.817 260.579L95.92 257.988L100.654 263.744" stroke="#242630" stroke-width="2" stroke-miterlimit="1.5" stroke-linecap="round" stroke-linejoin="round"/>
<path d="M133.757 250.736L138.195 256.238L145.173 251.562L150.803 254.082L156.015 249.882L163.562 250.993L165.502 244.882L173.441 244.056L173.293 237.674L180.948 235.668" stroke="#242630" stroke-width="2" stroke-miterlimit="1.5" stroke-linecap="round" stroke-linejoin="round"/>
<path d="M124.309 270.874L132.123 267.681L139.072 271.045L143.634 267.686L149.886 269.165L154.424 264.886L161.465 265.992" stroke="#242630" stroke-width="2" stroke-miterlimit="1.5" stroke-linecap="round" stroke-linejoin="round"/>
<defs>
<filter id="filter0_d_556_254" x="12" y="12" width="486.602" height="495.813" filterUnits="userSpaceOnUse" color-interpolation-filters="sRGB">
<feFlood flood-opacity="0" result="BackgroundImageFix"/>
<feColorMatrix in="SourceAlpha" type="matrix" values="0 0 0 0 0 0 0 0 0 0 0 0 0 0 0 0 0 0 127 0" result="hardAlpha"/>
<feOffset dy="8"/>
<feComposite in2="hardAlpha" operator="out"/>
<feColorMatrix type="matrix" values="0 0 0 0 0 0 0 0 0 0 0 0 0 0 0 0 0 0 0.2 0"/>
<feBlend mode="normal" in2="BackgroundImageFix" result="effect1_dropShadow_556_254"/>
<feBlend mode="normal" in="SourceGraphic" in2="effect1_dropShadow_556_254" result="shape"/>
</filter>
</defs>
</svg>
