<svg width="24" height="24" viewBox="0 0 24 24" fill="none" xmlns="http://www.w3.org/2000/svg">
<path d="M6 5L5 3" stroke="#B1B2B5" stroke-width="1.5" stroke-miterlimit="1.5" stroke-linecap="round" stroke-linejoin="round"/>
<path d="M6 20L5 22" stroke="#B1B2B5" stroke-width="1.5" stroke-miterlimit="1.5" stroke-linecap="round" stroke-linejoin="round"/>
<path d="M12 4V2" stroke="#B1B2B5" stroke-width="1.5" stroke-miterlimit="1.5" stroke-linecap="round" stroke-linejoin="round"/>
<path d="M12 21V23" stroke="#B1B2B5" stroke-width="1.5" stroke-miterlimit="1.5" stroke-linecap="round" stroke-linejoin="round"/>
<path d="M18 5L19 3" stroke="#B1B2B5" stroke-width="1.5" stroke-miterlimit="1.5" stroke-linecap="round" stroke-linejoin="round"/>
<path d="M18 20L19 22" stroke="#B1B2B5" stroke-width="1.5" stroke-miterlimit="1.5" stroke-linecap="round" stroke-linejoin="round"/>
<g filter="url(#filter0_d_549_938)">
<path fill-rule="evenodd" clip-rule="evenodd" d="M2 12C3.739 9.64 7.565 8 12 8C16.435 8 20.261 9.64 22 12C20.261 14.36 16.435 16 12 16C7.565 16 3.739 14.36 2 12Z" fill="white"/>
<mask id="mask0_549_938" style="mask-type:luminance" maskUnits="userSpaceOnUse" x="2" y="8" width="20" height="8">
<path d="M2 12C3.739 9.64 7.565 8 12 8C16.435 8 20.261 9.64 22 12C20.261 14.36 16.435 16 12 16C7.565 16 3.739 14.36 2 12Z" fill="white"/>
</mask>
<g mask="url(#mask0_549_938)">
<path d="M12 14C14.2091 14 16 12.2091 16 10C16 7.79086 14.2091 6 12 6C9.79086 6 8 7.79086 8 10C8 12.2091 9.79086 14 12 14Z" fill="#242630"/>
</g>
<path fill-rule="evenodd" clip-rule="evenodd" d="M2 12C3.739 9.64 7.565 8 12 8C16.435 8 20.261 9.64 22 12C20.261 14.36 16.435 16 12 16C7.565 16 3.739 14.36 2 12Z" stroke="#242630" stroke-width="1.5" stroke-miterlimit="1.5" stroke-linecap="round" stroke-linejoin="round"/>
</g>
<defs>
<filter id="filter0_d_549_938" x="1.25" y="7.25" width="21.5" height="11.5" filterUnits="userSpaceOnUse" color-interpolation-filters="sRGB">
<feFlood flood-opacity="0" result="BackgroundImageFix"/>
<feColorMatrix in="SourceAlpha" type="matrix" values="0 0 0 0 0 0 0 0 0 0 0 0 0 0 0 0 0 0 127 0" result="hardAlpha"/>
<feOffset dy="2"/>
<feComposite in2="hardAlpha" operator="out"/>
<feColorMatrix type="matrix" values="0 0 0 0 0 0 0 0 0 0 0 0 0 0 0 0 0 0 0.2 0"/>
<feBlend mode="normal" in2="BackgroundImageFix" result="effect1_dropShadow_549_938"/>
<feBlend mode="normal" in="SourceGraphic" in2="effect1_dropShadow_549_938" result="shape"/>
</filter>
</defs>
</svg>
