<svg width="24" height="24" viewBox="0 0 24 24" fill="none" xmlns="http://www.w3.org/2000/svg">
<path d="M6 5L5 3" stroke="#888888" stroke-width="1.5" stroke-miterlimit="1.5" stroke-linecap="round" stroke-linejoin="round"/>
<path d="M6 19L5 21" stroke="#888888" stroke-width="1.5" stroke-miterlimit="1.5" stroke-linecap="round" stroke-linejoin="round"/>
<path d="M12 4V2" stroke="#888888" stroke-width="1.5" stroke-miterlimit="1.5" stroke-linecap="round" stroke-linejoin="round"/>
<path d="M12 20V22" stroke="#888888" stroke-width="1.5" stroke-miterlimit="1.5" stroke-linecap="round" stroke-linejoin="round"/>
<path d="M18 5L19 3" stroke="#888888" stroke-width="1.5" stroke-miterlimit="1.5" stroke-linecap="round" stroke-linejoin="round"/>
<path d="M18 19L19 21" stroke="#888888" stroke-width="1.5" stroke-miterlimit="1.5" stroke-linecap="round" stroke-linejoin="round"/>
<path fill-rule="evenodd" clip-rule="evenodd" d="M2 12C3.739 9.64 7.565 8 12 8C16.435 8 20.261 9.64 22 12C20.261 14.36 16.435 16 12 16C7.565 16 3.739 14.36 2 12Z" fill="white"/>
<mask id="mask0_549_938" style="mask-type:luminance" maskUnits="userSpaceOnUse" x="2" y="8" width="20" height="8">
<path d="M2 12C3.739 9.64 7.565 8 12 8C16.435 8 20.261 9.64 22 12C20.261 14.36 16.435 16 12 16C7.565 16 3.739 14.36 2 12Z" fill="white"/>
</mask>
<g mask="url(#mask0_549_938)">
<path d="M12 14C14.2091 14 16 12.2091 16 10C16 7.79086 14.2091 6 12 6C9.79086 6 8 7.79086 8 10C8 12.2091 9.79086 14 12 14Z" fill="#111111"/>
</g>
<path fill-rule="evenodd" clip-rule="evenodd" d="M2 12C3.739 9.64 7.565 8 12 8C16.435 8 20.261 9.64 22 12C20.261 14.36 16.435 16 12 16C7.565 16 3.739 14.36 2 12Z" stroke="#111111" stroke-width="1.5" stroke-miterlimit="1.5" stroke-linecap="round" stroke-linejoin="round"/>
</svg>
