<svg width="24" height="25" viewBox="0 0 24 25" fill="none" xmlns="http://www.w3.org/2000/svg">
<g filter="url(#filter0_d_540_1621)">
<path fill-rule="evenodd" clip-rule="evenodd" d="M6.63063 4.33552C8.01042 4.17319 8.69222 4.82721 10.0458 7.27172C10.6531 8.36855 10.9304 9.27472 10.9304 9.27472C10.9304 9.27472 10.8777 8.69789 10.6222 6.50055C10.4447 4.9733 10.0995 3.2712 11.5375 3.02302C12.8165 2.80228 13.9753 4.19341 14.3507 6.15817C14.6023 7.47428 14.6871 9.07787 14.6871 9.07787C14.6871 9.07787 15.0209 8.34002 15.3896 6.79303C15.6166 5.84055 16.0554 4.70464 17.1554 4.82721C18.2652 4.95088 18.6759 6.20931 18.523 7.73205C18.3514 9.44131 17.2687 11.0084 17.2687 11.0084C17.2687 11.0084 18.0271 10.6023 18.6646 10.028C19.5008 9.27472 20.0948 8.19137 21.1424 8.70729C22.1901 9.2232 22.2057 10.9507 20.6248 12.5787C19.3764 13.8642 18.9238 14.1919 18.6646 15.718C18.3312 17.6818 19.191 20.4744 15.9451 20.7484C13.7848 20.9306 9.81299 23.2281 7.8879 19.9254C7.10068 18.5749 5.61241 17.2225 4.51096 16.3673C2.47644 14.7877 1.04962 13.6958 1.39445 12.0314C1.69659 10.5731 3.02902 10.0378 4.51095 11.0084C5.47322 11.6386 7.24552 13.2994 7.45001 13.0258C7.971 12.3288 7.67183 10.7285 6.63063 9.07787C4.42967 5.58862 5.73775 4.44056 6.63063 4.33552Z" fill="white"/>
<path fill-rule="evenodd" clip-rule="evenodd" d="M6.63063 4.33552C8.01042 4.17319 8.69222 4.82721 10.0458 7.27172C10.6531 8.36855 10.9304 9.27472 10.9304 9.27472C10.9304 9.27472 10.8777 8.69789 10.6222 6.50055C10.4447 4.9733 10.0995 3.2712 11.5375 3.02302C12.8165 2.80228 13.9753 4.19341 14.3507 6.15817C14.6023 7.47428 14.6871 9.07787 14.6871 9.07787C14.6871 9.07787 15.0209 8.34002 15.3896 6.79303C15.6166 5.84055 16.0554 4.70464 17.1554 4.82721C18.2652 4.95088 18.6759 6.20931 18.523 7.73205C18.3514 9.44131 17.2687 11.0084 17.2687 11.0084C17.2687 11.0084 18.0271 10.6023 18.6646 10.028C19.5008 9.27472 20.0948 8.19137 21.1424 8.70729C22.1901 9.2232 22.2057 10.9507 20.6248 12.5787C19.3764 13.8642 18.9238 14.1919 18.6646 15.718C18.3312 17.6818 19.191 20.4744 15.9451 20.7484C13.7848 20.9306 9.81299 23.2281 7.8879 19.9254C7.10068 18.5749 5.61241 17.2225 4.51096 16.3673C2.47644 14.7877 1.04962 13.6958 1.39445 12.0314C1.69659 10.5731 3.02902 10.0378 4.51095 11.0084C5.47322 11.6386 7.24552 13.2994 7.45001 13.0258C7.971 12.3288 7.67183 10.7285 6.63063 9.07787C4.42967 5.58862 5.73775 4.44056 6.63063 4.33552Z" stroke="#111111" stroke-width="1.5" stroke-miterlimit="1.5" stroke-linecap="round" stroke-linejoin="round"/>
</g>
<path d="M12.2858 13.798C12.2858 13.798 12.7712 15.9075 12.8271 17.5322" stroke="#111111" stroke-width="1.5" stroke-miterlimit="1.5" stroke-linecap="round" stroke-linejoin="round"/>
<path d="M15.3875 13.7865C15.3875 13.7865 15.4548 15.7964 15.3833 17.4793" stroke="#111111" stroke-width="1.5" stroke-miterlimit="1.5" stroke-linecap="round" stroke-linejoin="round"/>
<defs>
<filter id="filter0_d_540_1621" x="0.592651" y="2.24948" width="22.0354" height="22.1958" filterUnits="userSpaceOnUse" color-interpolation-filters="sRGB">
<feFlood flood-opacity="0" result="BackgroundImageFix"/>
<feColorMatrix in="SourceAlpha" type="matrix" values="0 0 0 0 0 0 0 0 0 0 0 0 0 0 0 0 0 0 127 0" result="hardAlpha"/>
<feOffset dy="2"/>
<feComposite in2="hardAlpha" operator="out"/>
<feColorMatrix type="matrix" values="0 0 0 0 0 0 0 0 0 0 0 0 0 0 0 0 0 0 0.2 0"/>
<feBlend mode="normal" in2="BackgroundImageFix" result="effect1_dropShadow_540_1621"/>
<feBlend mode="normal" in="SourceGraphic" in2="effect1_dropShadow_540_1621" result="shape"/>
</filter>
</defs>
</svg>
