<svg width="24" height="25" viewBox="0 0 24 25" fill="none" xmlns="http://www.w3.org/2000/svg">
<g filter="url(#filter0_d_540_1621)">
<path fill-rule="evenodd" clip-rule="evenodd" d="M7.06983 4.00657C8.19477 3.87423 8.91988 4.44088 10.2735 6.88538C10.8808 7.98222 11.3696 8.94578 11.3696 8.94578C11.3696 8.94578 11.3169 8.36895 11.0614 6.17161C10.8839 4.64436 10.5387 2.94225 11.9767 2.69407C13.2557 2.47334 14.4145 3.86447 14.7899 5.82923C15.0415 7.14534 15.1263 8.74892 15.1263 8.74892C15.1263 8.74892 15.4601 8.01108 15.8288 6.46409C16.0558 5.5116 16.4946 4.3757 17.5946 4.49827C18.7044 4.62194 19.1151 5.88037 18.9622 7.40311C18.7906 9.11237 17.7079 10.6795 17.7079 10.6795C17.7079 10.6795 18.4663 10.2734 19.1038 9.69909C19.94 8.94578 20.534 7.86243 21.5816 8.37835C22.6293 8.89426 22.6449 10.6217 21.064 12.2498C19.8156 13.5352 19.3631 13.8629 19.1038 15.3891C18.7704 17.3529 19.6302 20.1455 16.3843 20.4194C14.224 20.6016 10.6311 22.9824 8.3879 19.887C7.24597 18.3113 6.50317 18.3016 5.21837 17.6117C2.94912 16.3931 1.53009 15.034 1.87492 13.3696C2.17706 11.9113 3.55126 11.4037 5.21837 12.566C6.18643 13.241 7.6811 13.9296 7.88559 13.6561C8.40658 12.9591 7.47278 10.4761 6.61522 8.74892C4.78062 5.05389 6.17695 4.11162 7.06983 4.00657Z" fill="white"/>
<path fill-rule="evenodd" clip-rule="evenodd" d="M7.06983 4.00657C8.19477 3.87423 8.91988 4.44088 10.2735 6.88538C10.8808 7.98222 11.3696 8.94578 11.3696 8.94578C11.3696 8.94578 11.3169 8.36895 11.0614 6.17161C10.8839 4.64436 10.5387 2.94225 11.9767 2.69407C13.2557 2.47334 14.4145 3.86447 14.7899 5.82923C15.0415 7.14534 15.1263 8.74892 15.1263 8.74892C15.1263 8.74892 15.4601 8.01108 15.8288 6.46409C16.0558 5.5116 16.4946 4.3757 17.5946 4.49827C18.7044 4.62194 19.1151 5.88037 18.9622 7.40311C18.7906 9.11237 17.7079 10.6795 17.7079 10.6795C17.7079 10.6795 18.4663 10.2734 19.1038 9.69909C19.94 8.94578 20.534 7.86243 21.5816 8.37835C22.6293 8.89426 22.6449 10.6217 21.064 12.2498C19.8156 13.5352 19.3631 13.8629 19.1038 15.3891C18.7704 17.3529 19.6302 20.1455 16.3843 20.4194C14.224 20.6016 10.6311 22.9824 8.3879 19.887C7.24597 18.3113 6.50317 18.3016 5.21837 17.6117C2.94912 16.3931 1.53009 15.034 1.87492 13.3696C2.17706 11.9113 3.55126 11.4037 5.21837 12.566C6.18643 13.241 7.6811 13.9296 7.88559 13.6561C8.40658 12.9591 7.47278 10.4761 6.61522 8.74892C4.78062 5.05389 6.17695 4.11162 7.06983 4.00657Z" stroke="#242630" stroke-width="1.5" stroke-miterlimit="1.5" stroke-linecap="round" stroke-linejoin="round"/>
</g>
<path d="M12.725 13.4691C12.725 13.4691 13.2104 15.5786 13.2663 17.2032" stroke="#242630" stroke-width="1.5" stroke-miterlimit="1.5" stroke-linecap="round" stroke-linejoin="round"/>
<path d="M15.8268 13.4576C15.8268 13.4576 15.8941 15.4675 15.8226 17.1504" stroke="#242630" stroke-width="1.5" stroke-miterlimit="1.5" stroke-linecap="round" stroke-linejoin="round"/>
<defs>
<filter id="filter0_d_540_1621" x="1.07312" y="1.92054" width="21.9941" height="22.2946" filterUnits="userSpaceOnUse" color-interpolation-filters="sRGB">
<feFlood flood-opacity="0" result="BackgroundImageFix"/>
<feColorMatrix in="SourceAlpha" type="matrix" values="0 0 0 0 0 0 0 0 0 0 0 0 0 0 0 0 0 0 127 0" result="hardAlpha"/>
<feOffset dy="2"/>
<feComposite in2="hardAlpha" operator="out"/>
<feColorMatrix type="matrix" values="0 0 0 0 0 0 0 0 0 0 0 0 0 0 0 0 0 0 0.2 0"/>
<feBlend mode="normal" in2="BackgroundImageFix" result="effect1_dropShadow_540_1621"/>
<feBlend mode="normal" in="SourceGraphic" in2="effect1_dropShadow_540_1621" result="shape"/>
</filter>
</defs>
</svg>
