<svg width="512" height="512" viewBox="0 0 512 512" fill="none" xmlns="http://www.w3.org/2000/svg">
<g filter="url(#filter0_d_570_2980)">
<path fill-rule="evenodd" clip-rule="evenodd" d="M30.8717 176.219C42.2687 158.622 58.2117 143.54 77.7117 133.073C98.8667 122.981 122.2 118.539 147.84 116.087C160.901 114.839 174.726 114.866 187.32 110.888C215.532 101.976 230.183 75.092 253.963 59.579C266.215 51.586 278.821 43.923 292.954 39.752C340.484 25.725 408.958 38.527 437.838 82.396C480.618 147.375 425.493 206.656 433.925 271.829C441.33 329.063 506.959 349.683 500.476 415.261C499.265 427.509 496.383 438.778 488.631 448.488C449.219 497.859 345.713 470.484 290.211 466.77C254.075 464.351 219.589 466.409 183.685 470.004C151.614 473.215 120.119 478.69 89.8177 463.728C27.0397 432.729 58.8447 388.728 50.5637 342.122C47.9547 327.44 39.7127 316.271 31.2017 305.136C2.79967 264.666 6.08267 214.493 30.8717 176.219Z" fill="white"/>
</g>
<path fill-rule="evenodd" clip-rule="evenodd" d="M158.582 171.6C174.206 180.938 190.894 188.823 206.238 198.563C211.576 201.952 214.553 208.036 220.017 211.257C223.92 213.559 228.812 212.681 232.725 215.015C237.512 217.87 240.458 222.977 245.405 225.626C250.466 228.335 256.402 228.716 261.626 231.065C274.497 236.851 286.712 243.967 299.484 249.959C306.073 253.05 313.121 255.459 320.301 256.711C331.913 258.736 344.404 257.988 355.364 262.89C359.554 264.764 365.142 268.286 365.902 273.234C366.886 279.633 358.238 282.908 353.428 284.063C352.173 284.365 350.9 284.594 349.618 284.744C347.549 284.987 345.429 285.045 343.363 284.734C342.606 284.619 341.853 284.452 341.129 284.2C340.973 284.146 340.185 283.908 340.246 283.961C341.535 285.073 344.27 285.598 345.862 286.206C350.189 287.857 354.555 289.401 358.909 290.979C372.165 295.784 385.885 300.875 396.836 310.033C398.503 311.428 400.314 313.065 401.072 315.159C401.674 316.822 400.457 318.257 399.016 319.552C402.582 321.26 406.558 323.873 407.995 327.75C410.485 334.467 402.906 339.045 397.371 340.081C393.632 340.78 389.805 340.323 386.12 339.529C383.954 339.063 381.317 337.921 379.091 338.548C378.924 338.595 379.708 339.091 379.72 339.102C379.989 339.32 380.232 339.586 380.482 339.827C381.523 340.829 382.565 341.829 383.255 343.119C384.964 346.313 384.102 350.557 381.498 352.983C373.843 360.114 362.122 354.408 354.812 349.679C352.893 348.438 351 347.153 349.033 345.988C348.915 345.918 348.736 345.792 348.53 345.649C351.669 351.741 345.015 356.84 339.334 357.139C335.905 357.32 331.845 355.087 328.821 353.654C318.308 348.67 308.831 342.041 298.79 336.24C282.417 326.782 265.739 318.418 248.575 310.546C228.462 301.321 207.07 293.916 186.218 286.556C175.816 282.884 164.752 279.964 154.898 274.913C138.055 266.279 122.266 255.228 108.757 241.913C103.948 237.172 97.2498 232.919 100.333 225.608C102.635 220.149 107.286 216.861 113.248 216.752C115.601 216.709 118.176 217.873 120.49 217.14C121.188 216.919 121.402 215.909 121.56 215.301C121.934 213.863 121.983 211.852 123.258 210.877C126.664 208.271 131.799 209.049 134.897 205.904C136.592 204.183 133.55 201.111 135.303 199.313C136.888 197.688 140.598 197.455 142.662 196.686C143.393 196.413 144.654 196.048 145.038 195.278C145.32 194.713 144.802 193.692 144.589 193.168C144.059 191.862 142.932 189.917 143.729 188.491C144.064 187.891 145.886 188.063 146.503 187.998C148.791 187.756 152.655 188.258 154.559 186.71C154.588 186.686 153.668 185.366 153.617 185.289C152.934 184.265 151.13 182.375 151.06 181.1C151.045 180.824 151.61 181.144 151.886 181.166C152.391 181.205 152.896 181.241 153.401 181.272C154.701 181.353 157.534 181.931 158.682 181.113C159.129 180.794 158.431 179.871 158.244 179.607C157.516 178.581 155.693 177.213 155.579 175.891C155.515 175.134 156.856 175.399 157.234 175.463C158.815 175.732 160.379 176.096 161.963 176.362C163.115 176.556 158.582 171.6 158.582 171.6Z" fill="#C1EDFC"/>
<mask id="mask0_570_2980" style="mask-type:luminance" maskUnits="userSpaceOnUse" x="99" y="171" width="310" height="187">
<path d="M158.582 171.6C174.206 180.938 190.894 188.823 206.238 198.563C211.576 201.952 214.553 208.036 220.017 211.257C223.92 213.559 228.812 212.681 232.725 215.015C237.512 217.87 240.458 222.977 245.405 225.626C250.466 228.335 256.402 228.716 261.626 231.065C274.497 236.851 286.712 243.967 299.484 249.959C306.073 253.05 313.121 255.459 320.301 256.711C331.913 258.736 344.404 257.988 355.364 262.89C359.554 264.764 365.142 268.286 365.902 273.234C366.886 279.633 358.238 282.908 353.428 284.063C352.173 284.365 350.9 284.594 349.618 284.744C347.549 284.987 345.429 285.045 343.363 284.734C342.606 284.619 341.853 284.452 341.129 284.2C340.973 284.146 340.185 283.908 340.246 283.961C341.535 285.073 344.27 285.598 345.862 286.206C350.189 287.857 354.555 289.401 358.909 290.979C372.165 295.784 385.885 300.875 396.836 310.033C398.503 311.428 400.314 313.065 401.072 315.159C401.674 316.822 400.457 318.257 399.016 319.552C402.582 321.26 406.558 323.873 407.995 327.75C410.485 334.467 402.906 339.045 397.371 340.081C393.632 340.78 389.805 340.323 386.12 339.529C383.954 339.063 381.317 337.921 379.091 338.548C378.924 338.595 379.708 339.091 379.72 339.102C379.989 339.32 380.232 339.586 380.482 339.827C381.523 340.829 382.565 341.829 383.255 343.119C384.964 346.313 384.102 350.557 381.498 352.983C373.843 360.114 362.122 354.408 354.812 349.679C352.893 348.438 351 347.153 349.033 345.988C348.915 345.918 348.736 345.792 348.53 345.649C351.669 351.741 345.015 356.84 339.334 357.139C335.905 357.32 331.845 355.087 328.821 353.654C318.308 348.67 308.831 342.041 298.79 336.24C282.417 326.782 265.739 318.418 248.575 310.546C228.462 301.321 207.07 293.916 186.218 286.556C175.816 282.884 164.752 279.964 154.898 274.913C138.055 266.279 122.266 255.228 108.757 241.913C103.948 237.172 97.2498 232.919 100.333 225.608C102.635 220.149 107.286 216.861 113.248 216.752C115.601 216.709 118.176 217.873 120.49 217.14C121.188 216.919 121.402 215.909 121.56 215.301C121.934 213.863 121.983 211.852 123.258 210.877C126.664 208.271 131.799 209.049 134.897 205.904C136.592 204.183 133.55 201.111 135.303 199.313C136.888 197.688 140.598 197.455 142.662 196.686C143.393 196.413 144.654 196.048 145.038 195.278C145.32 194.713 144.802 193.692 144.589 193.168C144.059 191.862 142.932 189.917 143.729 188.491C144.064 187.891 145.886 188.063 146.503 187.998C148.791 187.756 152.655 188.258 154.559 186.71C154.588 186.686 153.668 185.366 153.617 185.289C152.934 184.265 151.13 182.375 151.06 181.1C151.045 180.824 151.61 181.144 151.886 181.166C152.391 181.205 152.896 181.241 153.401 181.272C154.701 181.353 157.534 181.931 158.682 181.113C159.129 180.794 158.431 179.871 158.244 179.607C157.516 178.581 155.693 177.213 155.579 175.891C155.515 175.134 156.856 175.399 157.234 175.463C158.815 175.732 160.379 176.096 161.963 176.362C163.115 176.556 158.582 171.6 158.582 171.6Z" fill="white"/>
</mask>
<g mask="url(#mask0_570_2980)">
<path d="M327.804 303.354C333.781 304.734 338.667 307.502 344.154 309.97C356.349 315.456 368.275 321.95 381.909 322.772C387.691 323.121 397.476 323.494 401.074 317.557" stroke="#242630" stroke-width="2" stroke-miterlimit="1.5" stroke-linecap="round" stroke-linejoin="round"/>
<path d="M302.066 306.657C317.677 314.918 335.194 318.729 351.449 325.358C365.11 330.93 377.572 339.69 392.428 341.38" stroke="#242630" stroke-width="2" stroke-miterlimit="1.5" stroke-linecap="round" stroke-linejoin="round"/>
<path d="M285.001 313.575C297.899 320.987 311.823 326.925 325.101 333.634C330.568 336.396 335.826 339.559 341.288 342.318C343.726 343.549 346.386 344.327 348.769 345.652C353.201 348.116 357.249 351.062 361.814 353.351" stroke="#242630" stroke-width="2" stroke-miterlimit="1.5" stroke-linecap="round" stroke-linejoin="round"/>
<path d="M245.815 268.492C255.768 271.498 266.016 272.831 276.075 275.303C287.23 278.046 298.542 281.478 309.871 283.468C317.051 284.729 324.436 284.347 331.684 284.909C342.216 285.726 353.148 287.422 363.461 289.67" stroke="#242630" stroke-width="2" stroke-miterlimit="1.5" stroke-linecap="round" stroke-linejoin="round"/>
<path d="M214.251 220.76C220.367 225.321 226.327 230.478 233.792 232.638" stroke="#242630" stroke-width="2" stroke-miterlimit="1.5" stroke-linecap="round" stroke-linejoin="round"/>
</g>
<path fill-rule="evenodd" clip-rule="evenodd" d="M158.582 171.6C174.206 180.938 190.894 188.823 206.238 198.563C211.576 201.952 214.553 208.036 220.017 211.257C223.92 213.559 228.812 212.681 232.725 215.015C237.512 217.87 240.458 222.977 245.405 225.626C250.466 228.335 256.402 228.716 261.626 231.065C274.497 236.851 286.712 243.967 299.484 249.959C306.073 253.05 313.121 255.459 320.301 256.711C331.913 258.736 344.404 257.988 355.364 262.89C359.554 264.764 365.142 268.286 365.902 273.234C366.886 279.633 358.238 282.908 353.428 284.063C352.173 284.365 350.9 284.594 349.618 284.744C347.549 284.987 345.429 285.045 343.363 284.734C342.606 284.619 341.853 284.452 341.129 284.2C340.973 284.146 340.185 283.908 340.246 283.961C341.535 285.073 344.27 285.598 345.862 286.206C350.189 287.857 354.555 289.401 358.909 290.979C372.165 295.784 385.885 300.875 396.836 310.033C398.503 311.428 400.314 313.065 401.072 315.159C401.674 316.822 400.457 318.257 399.016 319.552C402.582 321.26 406.558 323.873 407.995 327.75C410.485 334.467 402.906 339.045 397.371 340.081C393.632 340.78 389.805 340.323 386.12 339.529C383.954 339.063 381.317 337.921 379.091 338.548C378.924 338.595 379.708 339.091 379.72 339.102C379.989 339.32 380.232 339.586 380.482 339.827C381.523 340.829 382.565 341.829 383.255 343.119C384.964 346.313 384.102 350.557 381.498 352.983C373.843 360.114 362.122 354.408 354.812 349.679C352.893 348.438 351 347.153 349.033 345.988C348.915 345.918 348.736 345.792 348.53 345.649C351.669 351.741 345.015 356.84 339.334 357.139C335.905 357.32 331.845 355.087 328.821 353.654C318.308 348.67 308.831 342.041 298.79 336.24C282.417 326.782 265.739 318.418 248.575 310.546C228.462 301.321 207.07 293.916 186.218 286.556C175.816 282.884 164.752 279.964 154.898 274.913C138.055 266.279 122.266 255.228 108.757 241.913C103.948 237.172 97.2498 232.919 100.333 225.608C102.635 220.149 107.286 216.861 113.248 216.752C115.601 216.709 118.176 217.873 120.49 217.14C121.188 216.919 121.402 215.909 121.56 215.301C121.934 213.863 121.983 211.852 123.258 210.877C126.664 208.271 131.799 209.049 134.897 205.904C136.592 204.183 133.55 201.111 135.303 199.313C136.888 197.688 140.598 197.455 142.662 196.686C143.393 196.413 144.654 196.048 145.038 195.278C145.32 194.713 144.802 193.692 144.589 193.168C144.059 191.862 142.932 189.917 143.729 188.491C144.064 187.891 145.886 188.063 146.503 187.998C148.791 187.756 152.655 188.258 154.559 186.71C154.588 186.686 153.668 185.366 153.617 185.289C152.934 184.265 151.13 182.375 151.06 181.1C151.045 180.824 151.61 181.144 151.886 181.166C152.391 181.205 152.896 181.241 153.401 181.272C154.701 181.353 157.534 181.931 158.682 181.113C159.129 180.794 158.431 179.871 158.244 179.607C157.516 178.581 155.693 177.213 155.579 175.891C155.515 175.134 156.856 175.399 157.234 175.463C158.815 175.732 160.379 176.096 161.963 176.362C163.115 176.556 158.582 171.6 158.582 171.6Z" stroke="#242630" stroke-width="2" stroke-miterlimit="1.5" stroke-linecap="round" stroke-linejoin="round"/>
<path fill-rule="evenodd" clip-rule="evenodd" d="M151.616 423.371C151.501 423.343 151.386 423.315 151.271 423.288C150.42 423.084 150.198 423.033 149.368 422.847C148.881 422.738 147.602 422.916 147.907 422.52C148.994 421.107 151.922 420.702 153.561 420.346C158.246 419.33 163.001 419.2 167.687 418.103C168.841 417.837 170 417.617 171.16 417.473C175.36 416.953 179.662 417.882 183.809 417.276C188.344 416.614 191.642 412.849 196.337 412.558C200.516 412.299 204.721 414.616 208.758 414.221C212.443 413.86 216.461 410.746 220.516 410.258C224.528 409.775 228.907 410.927 232.577 408.823C238.223 405.585 239.774 397.77 245.856 394.241C256.906 387.831 270.826 387.597 280.394 378.398C283.185 375.714 284.592 371.962 287.446 369.337C290.335 366.681 294.099 365.731 296.829 362.582C299.65 359.328 301.884 355.715 305.629 353.379C307.112 352.454 308.781 351.787 310.489 351.419C323.123 348.697 320.634 366.592 328.061 371.251C336.041 376.257 346.107 379.326 354.774 382.934C358.163 384.344 363.241 387.558 367.027 387.542C372.59 387.519 377.248 383.606 382.909 384.056C385.852 384.29 392.188 385.358 394.206 388.103C396.166 390.768 395.575 393.867 398.502 396.03C402.297 398.836 407.091 396.821 411.23 398.151C414.006 399.043 415.245 401.804 418.546 402.427C420.317 402.761 423.856 401.71 425.376 402.771C428.298 404.81 429.054 409.123 432.699 410.226C440.754 412.663 449.468 411.499 457.736 412.458C460.529 412.783 465.349 413.269 466.465 416.429C466.905 417.678 465.589 418.43 464.62 418.827C462.069 419.872 459.129 420.104 456.401 420.27C449.24 420.707 442.992 417.672 436.175 416.115C432.139 415.194 428.046 415.589 423.948 415.428C423.806 415.422 419.196 415.619 419.208 415.634C420.332 417.1 429.762 419.982 428.921 422.295C427.925 425.034 422.791 425.329 420.574 425.269C412.147 425.044 404.021 421.908 395.612 421.489C392.171 421.317 388.664 420.367 385.227 420.521C385.12 420.526 382.456 420.762 382.457 420.93C382.464 424.053 390.203 425.733 384.544 427.266C384.022 427.407 383.492 427.518 382.96 427.608C363.132 430.953 343.823 423.322 324.133 424.515C323.432 424.558 325.141 425.494 325.642 425.986C326.265 426.597 327.97 428.07 328.058 429.028C328.333 432.013 319.888 434.338 318.132 434.711C307.803 436.906 296.78 435.738 286.413 434.616C285.21 434.486 276.361 433.071 277.132 431.151C277.681 429.787 278.948 428.76 280.106 427.917C280.539 427.602 281.84 427.471 281.476 427.08C278.251 423.617 267.123 423.69 262.792 423.522C250.828 423.06 238.703 425.817 226.672 425.696C219.03 425.618 212.252 422.61 204.306 423.191C197.52 423.687 190.845 425.474 184.037 425.66C179.3 425.789 175.155 424.138 170.526 424.095C166.037 424.054 161.571 424.556 157.114 424.312C155.225 424.329 153.434 423.818 151.616 423.371Z" fill="#242630" stroke="#242630" stroke-width="2" stroke-miterlimit="1.5" stroke-linecap="round" stroke-linejoin="round"/>
<path fill-rule="evenodd" clip-rule="evenodd" d="M119.662 414.937C117.146 414.893 114.599 414.783 112.089 415.006C110.176 415.176 99.9704 415.847 104.491 419.614C104.853 419.916 105.248 420.18 105.659 420.411C106.539 420.904 107.729 421.323 108.696 421.552C112.853 422.535 117.31 421.985 121.458 421.271C122.91 421.021 129.251 421.329 128.048 418.373C127.364 416.695 119.662 414.937 119.662 414.937Z" fill="#242630" stroke="#242630" stroke-width="2" stroke-miterlimit="1.5" stroke-linecap="round" stroke-linejoin="round"/>
<path fill-rule="evenodd" clip-rule="evenodd" d="M147.677 410.997C154.163 411.733 160.699 412.359 167.238 412.012C168.77 411.93 170.253 411.676 171.74 411.316C171.747 411.314 173.175 410.966 173.157 410.919C171.876 407.55 166.722 407.516 163.794 406.804C160.866 406.091 147.677 410.997 147.677 410.997Z" fill="#242630" stroke="#242630" stroke-width="2" stroke-miterlimit="1.5" stroke-linecap="round" stroke-linejoin="round"/>
<path fill-rule="evenodd" clip-rule="evenodd" d="M427.934 437.864C425.911 437.487 424.453 437.225 422.491 436.592C417.251 434.903 412.886 432.378 407.286 433.687C403.376 434.601 401.801 435.521 404.429 438.555C407.058 441.589 427.934 437.864 427.934 437.864Z" fill="#242630" stroke="#242630" stroke-width="2" stroke-miterlimit="1.5" stroke-linecap="round" stroke-linejoin="round"/>
<path fill-rule="evenodd" clip-rule="evenodd" d="M312.2 309.181C317.671 302.8 325.478 299.322 333.622 297.704C340.114 296.413 346.478 295.652 352.055 291.752C355.302 289.48 357.74 286.527 360.318 283.566C361.369 282.36 362.65 280.907 364.144 280.252C364.419 280.131 366.969 279.496 366.818 279.1C366.638 278.625 365.144 278.185 364.701 277.995C362.496 277.052 360.15 276.458 357.769 276.187C347.921 275.069 337.752 279.111 330.207 285.275C325.572 289.063 312.2 309.181 312.2 309.181Z" fill="#FFE38C" stroke="#242630" stroke-width="2" stroke-miterlimit="1.5" stroke-linecap="round" stroke-linejoin="round"/>
<path fill-rule="evenodd" clip-rule="evenodd" d="M316.302 282.061C317.817 278.053 319.779 273.992 322.801 270.892C327.738 265.828 335.607 263.892 342.187 262.442C344.791 261.868 347.547 260.981 350.227 260.943C353.658 260.895 356.711 261.7 360.174 261.117C368.974 259.637 375.566 254.807 381.859 248.746C383.448 247.215 385.004 245.442 386.864 244.23C387.339 243.92 389.901 243.564 389.879 242.903C389.845 241.846 387.517 241.4 386.795 241.295C383.547 240.826 380.267 241.584 377.049 241.94C362.837 243.509 352.893 252.042 341.424 259.672C339.749 260.787 338.022 262.066 336.22 262.952C331.539 265.254 326.493 266.845 322.642 270.529C320.74 272.348 316.302 282.061 316.302 282.061Z" fill="#FFE38C" stroke="#242630" stroke-width="2" stroke-miterlimit="1.5" stroke-linecap="round" stroke-linejoin="round"/>
<path fill-rule="evenodd" clip-rule="evenodd" d="M325.872 253.62C330.915 243.679 334.468 233.174 336.682 222.24C337.611 217.652 338.743 212.825 337.679 208.148C336.234 201.794 333.482 194.588 328.893 189.785C327.808 188.649 326.51 187.83 325.142 187.08C324.914 186.955 323.156 185.967 323.149 185.978C322.491 186.939 322.255 189.678 322.097 190.589C321.326 195.033 321.924 199.493 322.263 203.945C322.626 208.715 322.9 213.533 323.919 218.219C325.168 223.967 327.562 229.407 328.66 235.205C329.766 241.04 329.255 246.787 327.709 252.478C327.596 252.895 325.872 253.62 325.872 253.62Z" fill="#FFE38C" stroke="#242630" stroke-width="2" stroke-miterlimit="1.5" stroke-linecap="round" stroke-linejoin="round"/>
<path fill-rule="evenodd" clip-rule="evenodd" d="M323.34 263.94C328.371 253.866 337.343 246.113 346.131 239.308C351.87 234.864 359.429 230.704 363.268 224.312C364.727 221.883 366.165 218.02 365.408 215.107C365.177 214.217 364.938 213.35 364.801 212.436C364.728 211.942 364.822 210.549 364.539 210.96C362.105 214.488 361.273 218.708 358.367 222.089C354.381 226.727 349.197 230.068 344.716 234.169C339.774 238.692 335.174 244.178 331.765 249.953C330.105 252.766 323.34 263.94 323.34 263.94Z" fill="#FFE38C" stroke="#242630" stroke-width="2" stroke-miterlimit="1.5" stroke-linecap="round" stroke-linejoin="round"/>
<path fill-rule="evenodd" clip-rule="evenodd" d="M322.881 260.516C322.893 256.338 323.2 252.137 321.263 248.294C318.744 243.297 314.326 239.438 310.661 235.326C304.14 228.009 298.861 220.381 299.903 210.074C300.178 207.363 301.924 208.061 304.094 209.573C306.719 211.401 308.689 214.471 310.324 217.176C316.471 227.349 321.79 239.098 323.747 250.934C324.061 252.832 322.881 260.516 322.881 260.516Z" fill="#FFE38C" stroke="#242630" stroke-width="2" stroke-miterlimit="1.5" stroke-linecap="round" stroke-linejoin="round"/>
<path fill-rule="evenodd" clip-rule="evenodd" d="M335.795 228.522C341.215 222.323 348.232 217.706 353.72 211.541C358.177 206.534 362.183 201.557 364.503 195.177C365.304 192.973 365.807 190.599 365.915 188.257C365.949 187.501 365.906 186.744 365.878 185.989C365.856 185.408 366.327 183.973 365.813 184.246C362.658 185.921 359.85 188.708 357.185 191.079C351.652 196.003 345.98 201.183 343.204 208.255C341.101 213.612 340.561 219.43 338.063 224.674C337.678 225.48 335.795 228.522 335.795 228.522Z" fill="#FFE38C" stroke="#242630" stroke-width="2" stroke-miterlimit="1.5" stroke-linecap="round" stroke-linejoin="round"/>
<path fill-rule="evenodd" clip-rule="evenodd" d="M339.084 205.895C336.036 194.806 332.154 183.617 324.278 174.906C314.516 164.11 300.974 155.947 288.444 148.798C285.248 146.974 282.006 145.216 278.67 143.659C278.435 143.549 275.725 142.288 275.675 142.43C275.589 142.671 276.412 143.486 276.512 143.61C277.333 144.631 277.874 145.785 278.467 146.945C281.1 152.093 284.531 157.878 288.811 161.821C299.611 171.769 316.629 169.29 327.449 179.434C330.082 181.903 331.613 185.693 333.035 188.894C335.595 194.657 338.096 200.871 338.887 207.175C338.919 207.432 339.084 205.895 339.084 205.895Z" fill="#FFE38C" stroke="#242630" stroke-width="2" stroke-miterlimit="1.5" stroke-linecap="round" stroke-linejoin="round"/>
<path fill-rule="evenodd" clip-rule="evenodd" d="M338.078 219.414C340.55 210.509 339.819 201.075 342.505 192.265C345.055 183.897 350.281 177.266 356.174 170.977C360.9 165.933 364.027 159.64 365.381 152.872C365.828 150.64 366.088 148.371 366.175 146.096C366.207 145.257 366.216 144.418 366.202 143.579C366.196 143.235 366.383 142.311 366.135 142.549C365.605 143.06 365.337 144.672 364.912 145.387C363.626 147.549 362.135 149.603 360.728 151.687C357.057 157.124 353.291 162.44 350.418 168.362C347.62 174.128 345.811 180.234 343.869 186.322C341.793 192.833 339.805 199.396 339.351 206.263C339.177 208.9 338.078 219.414 338.078 219.414Z" fill="#FFE38C" stroke="#242630" stroke-width="2" stroke-miterlimit="1.5" stroke-linecap="round" stroke-linejoin="round"/>
<path fill-rule="evenodd" clip-rule="evenodd" d="M312.837 295.343C312.65 290.579 312.176 285.314 310.642 280.774C308.159 273.425 302.174 267.702 295.535 264.103C291.346 261.833 286.223 260.5 281.463 260.103C280.444 260.018 279.424 260.12 278.416 260.265C278.062 260.316 277.313 260.06 277.356 260.414C277.545 262.002 278.448 263.474 279.351 264.754C282.482 269.193 287.443 272.25 292.387 274.315C296.497 276.031 300.948 277.603 304.592 280.236C310.936 284.821 314.207 293.393 312.548 301.003C312.307 302.11 312.837 295.343 312.837 295.343Z" fill="#FFE38C" stroke="#242630" stroke-width="2" stroke-miterlimit="1.5" stroke-linecap="round" stroke-linejoin="round"/>
<path fill-rule="evenodd" clip-rule="evenodd" d="M337.557 200.8C336.346 184.618 322.124 170.918 306.635 167.78C301.33 166.705 295.893 166.707 290.503 166.553C289.07 166.512 287.637 166.532 286.205 166.572C286.034 166.577 284.88 166.537 284.917 166.731C285.647 170.52 289.424 172.746 292.59 174.424C302.071 179.451 312.041 177.238 322.058 179.137C331.459 180.919 334.504 188.807 336.497 197.207C337.323 200.69 338.116 203.97 338.158 207.571C338.174 208.93 337.557 200.8 337.557 200.8Z" fill="#FFE38C" stroke="#242630" stroke-width="2" stroke-miterlimit="1.5" stroke-linecap="round" stroke-linejoin="round"/>
<path fill-rule="evenodd" clip-rule="evenodd" d="M347.997 149.243C350.286 143.642 350.369 138.046 350.531 132.06C350.916 117.767 347.764 104.185 337.915 93.3682C332.349 87.2552 326.256 82.7962 319.02 78.8952C317.397 78.0202 315.829 77.0452 314.19 76.1982C313.65 75.9182 312.827 74.8232 312.563 75.3712C311.203 78.1992 312.231 82.7072 312.943 85.5662C313.926 89.5082 315.297 93.7572 318.201 96.7272C325.316 104.003 337.09 104.817 343.863 112.203C352.233 121.331 349.619 133.533 348.701 144.801C348.628 145.697 347.997 149.243 347.997 149.243Z" fill="#FFE38C" stroke="#242630" stroke-width="2" stroke-miterlimit="1.5" stroke-linecap="round" stroke-linejoin="round"/>
<path fill-rule="evenodd" clip-rule="evenodd" d="M341.215 169.72C344.289 157.094 351.858 146.194 355.553 133.847C358.527 123.913 357.775 112.563 363.078 103.426C366.335 97.8113 372.451 92.2593 379.195 91.4683C382.11 91.1263 385.005 91.7573 387.693 92.9043C388.3 93.1623 388.496 93.2723 389.087 93.5663C389.4 93.7213 390.25 93.7533 390.03 94.0253C388.981 95.3233 385.282 95.9123 383.77 96.7553C379.696 99.0273 375.668 101.402 372.49 104.878C368.127 109.649 365.725 115.97 362.741 121.617C354.833 136.585 346.788 151.84 342.204 168.252C342.109 168.593 341.215 169.72 341.215 169.72Z" fill="#FFE38C" stroke="#242630" stroke-width="2" stroke-miterlimit="1.5" stroke-linecap="round" stroke-linejoin="round"/>
<path fill-rule="evenodd" clip-rule="evenodd" d="M318.98 270.032C318.401 261.314 312.024 256.801 306.572 250.881C300.903 244.726 295.048 239.67 287.515 235.95C285.714 235.061 283.849 234.088 281.855 233.722C281.378 233.635 280.037 233.385 279.683 233.885C279.371 234.325 280.652 235.348 280.884 235.599C282.27 237.101 283.072 239.35 283.953 241.174C286.138 245.693 288.3 250.79 291.974 254.328C295.391 257.619 300.18 259.583 304.54 261.255C309.635 263.208 317.935 264.973 318.457 271.7C318.547 272.857 318.211 273.956 317.955 275.071C317.724 276.073 318.98 270.032 318.98 270.032Z" fill="#FFE38C" stroke="#242630" stroke-width="2" stroke-miterlimit="1.5" stroke-linecap="round" stroke-linejoin="round"/>
<path fill-rule="evenodd" clip-rule="evenodd" d="M341.917 164.576C343.178 160.939 345.411 157.269 345.974 153.418C347.103 145.69 344.901 135.215 339.11 129.55C333.845 124.4 327.969 121.717 320.837 120.094C319.516 119.793 314.384 118.127 313.949 119.583C312.491 124.466 315.316 128.982 318.772 132.184C322.409 135.554 327.092 138.463 331.745 140.186C335.741 141.666 340.923 143.101 343.664 146.61C347.781 151.88 343.178 159.876 341.57 165.361C341.522 165.526 341.917 164.576 341.917 164.576Z" fill="#FFE38C" stroke="#242630" stroke-width="2" stroke-miterlimit="1.5" stroke-linecap="round" stroke-linejoin="round"/>
<path fill-rule="evenodd" clip-rule="evenodd" d="M314.589 357.716C313.505 333.437 311.011 307.803 317.276 284.001C324.502 256.545 341.14 230.82 339.462 201.46C338.981 193.05 338.648 184.826 340.4 176.516C342.426 166.906 346.724 157.976 348.639 148.323C349.341 144.786 349.707 141.19 349.776 137.59C348.166 152.537 339.826 165.694 337.902 180.615C336.017 195.235 338.822 210.448 335.423 224.802C330.679 244.843 320.417 263.111 315.139 282.999C308.101 309.516 308.261 337.845 313.327 364.678C313.88 367.61 314.589 357.716 314.589 357.716Z" fill="#242630" stroke="#242630" stroke-width="2" stroke-miterlimit="1.5" stroke-linecap="round" stroke-linejoin="round"/>
<path fill-rule="evenodd" clip-rule="evenodd" d="M32.5396 245.731C37.5666 250.199 42.5976 254.667 47.5376 259.227C51.9226 262.85 56.1476 267.173 61.0846 270.028C66.6576 273.251 73.1556 274.799 78.2556 278.85C83.5296 283.04 85.4436 289.857 89.7906 294.816C95.2526 301.046 102.902 304.863 109.082 310.283C112.936 313.663 113.006 319.416 116.813 322.598C120.391 325.588 125.654 324.997 129.222 328.102C134.315 332.533 136.327 339.492 141.194 344.174C157.526 359.886 176.176 373.035 195.638 384.567C207.94 391.856 220.999 398.477 235.067 401.523C241.158 402.841 248.109 403.95 254.143 401.813C256.075 401.129 258.357 399.969 259.141 397.942C259.506 396.997 259.534 396.146 259.252 395.205C264.471 398.604 271.28 399.934 277.374 398.253C279.775 397.591 282.729 396.123 283.809 393.713C284.749 391.616 284.313 388.194 283.822 385.97C288.734 387.127 293.862 387.536 298.63 385.504C301.533 384.266 303.904 381.945 304.02 378.634C304.057 377.577 303.9 376.507 303.604 375.493C302.889 373.043 301.324 371.018 299.724 369.061C305.163 370.536 311.521 367.121 312.024 361.176C312.267 358.293 310.884 355.436 309.115 353.236C306.182 349.59 301.733 347.805 297.456 346.26C292.27 344.386 286.97 342.73 281.914 340.519C274.25 337.169 267.77 332.31 260.857 327.722C262.577 327.245 264.964 327.58 266.501 327.577C270.53 327.568 274.404 327.572 278.08 325.763C280.025 324.807 281.762 323.67 283.292 322.124C284.322 321.082 285.276 319.944 286.008 318.67C288.865 313.698 285.866 309.34 281.68 306.435C274.09 301.167 264.83 299.686 256.72 295.561C239.216 286.659 225.017 272.775 208.001 263.147C202.792 260.199 196.06 264.251 191.182 260.572C187.271 257.621 185.271 252.932 182.225 249.224C179.692 246.142 176.163 244.178 173.118 241.659C169.649 238.791 167.343 234.594 163.512 232.157C160.292 230.108 155.994 230.612 152.952 228.234C146.91 223.512 143.726 215.694 138.481 210.181C129.022 200.238 117.939 192.13 109.073 181.534C106.645 178.632 104.229 175.708 101.518 173.063C100.891 172.451 100.249 171.855 99.5886 171.279C99.5326 171.23 99.1216 170.794 99.0336 170.845C98.9206 170.909 99.3686 171.787 99.3986 171.858C99.6476 172.444 100.586 174.946 99.9506 175.464C99.6486 175.711 98.7106 174.872 98.4596 174.74C97.6136 174.296 95.5846 173.648 94.6816 174.195C93.8016 174.727 95.7296 177.093 95.2896 177.989C95.2026 178.167 92.5796 177.55 92.0696 177.554C91.5166 177.557 89.7766 177.616 89.5806 178.338C89.3166 179.311 90.6446 182.093 89.4436 182.684C87.6906 183.547 83.8426 181.29 82.4546 183.198C81.1756 184.955 84.0536 187.341 81.5146 188.996C79.9346 190.026 77.0726 187.294 75.4416 188.764C73.8246 190.221 76.9046 193.872 74.3386 195.125C72.9636 195.796 70.9036 195.043 69.4506 195.011C68.8906 194.999 67.8546 194.963 67.4246 195.412C66.4506 196.43 66.8656 199.387 66.6636 200.696C66.5816 201.229 66.4816 202.226 65.9736 202.56C64.2506 203.692 60.9366 201.47 59.3656 202.982C58.8956 203.435 59.0806 204.485 59.1226 205.05C59.2366 206.578 59.8126 209.119 58.4406 210.267C56.3696 212 52.3976 209.211 50.4676 211.4C50.0156 211.913 50.1056 212.851 50.1296 213.476C50.1936 215.117 50.9576 218.18 49.5106 219.442C47.3076 221.362 43.3506 219.181 40.9716 220.998C39.2106 222.343 40.6906 226.013 39.3946 227.811C38.9096 228.484 37.9046 228.457 37.1566 228.495C34.7866 228.617 32.9046 228.349 32.9316 231.356C32.9376 231.954 33.5656 233.534 33.1726 233.99C32.3946 234.894 30.5206 234.882 29.4466 234.844C29.2106 234.835 27.8506 234.548 27.7546 234.679C26.6766 236.134 29.4226 238.129 29.3756 239.211C29.3476 239.841 28.4106 239.439 28.1076 239.375C26.7996 239.099 25.5436 238.761 24.2886 238.307C24.6616 238.91 25.7806 239.684 26.0756 239.951C28.2176 241.891 30.3786 243.81 32.5396 245.731Z" fill="#C1EDFC"/>
<mask id="mask1_570_2980" style="mask-type:luminance" maskUnits="userSpaceOnUse" x="24" y="170" width="289" height="234">
<path d="M32.5396 245.731C37.5666 250.199 42.5976 254.667 47.5376 259.227C51.9226 262.85 56.1476 267.173 61.0846 270.028C66.6576 273.251 73.1556 274.799 78.2556 278.85C83.5296 283.04 85.4436 289.857 89.7906 294.816C95.2526 301.046 102.902 304.863 109.082 310.283C112.936 313.663 113.006 319.416 116.813 322.598C120.391 325.588 125.654 324.997 129.222 328.102C134.315 332.533 136.327 339.492 141.194 344.174C157.526 359.886 176.176 373.035 195.638 384.567C207.94 391.856 220.999 398.477 235.067 401.523C241.158 402.841 248.109 403.95 254.143 401.813C256.075 401.129 258.357 399.969 259.141 397.942C259.506 396.997 259.534 396.146 259.252 395.205C264.471 398.604 271.28 399.934 277.374 398.253C279.775 397.591 282.729 396.123 283.809 393.713C284.749 391.616 284.313 388.194 283.822 385.97C288.734 387.127 293.862 387.536 298.63 385.504C301.533 384.266 303.904 381.945 304.02 378.634C304.057 377.577 303.9 376.507 303.604 375.493C302.889 373.043 301.324 371.018 299.724 369.061C305.163 370.536 311.521 367.121 312.024 361.176C312.267 358.293 310.884 355.436 309.115 353.236C306.182 349.59 301.733 347.805 297.456 346.26C292.27 344.386 286.97 342.73 281.914 340.519C274.25 337.169 267.77 332.31 260.857 327.722C262.577 327.245 264.964 327.58 266.501 327.577C270.53 327.568 274.404 327.572 278.08 325.763C280.025 324.807 281.762 323.67 283.292 322.124C284.322 321.082 285.276 319.944 286.008 318.67C288.865 313.698 285.866 309.34 281.68 306.435C274.09 301.167 264.83 299.686 256.72 295.561C239.216 286.659 225.017 272.775 208.001 263.147C202.792 260.199 196.06 264.251 191.182 260.572C187.271 257.621 185.271 252.932 182.225 249.224C179.692 246.142 176.163 244.178 173.118 241.659C169.649 238.791 167.343 234.594 163.512 232.157C160.292 230.108 155.994 230.612 152.952 228.234C146.91 223.512 143.726 215.694 138.481 210.181C129.022 200.238 117.939 192.13 109.073 181.534C106.645 178.632 104.229 175.708 101.518 173.063C100.891 172.451 100.249 171.855 99.5886 171.279C99.5326 171.23 99.1216 170.794 99.0336 170.845C98.9206 170.909 99.3686 171.787 99.3986 171.858C99.6476 172.444 100.586 174.946 99.9506 175.464C99.6486 175.711 98.7106 174.872 98.4596 174.74C97.6136 174.296 95.5846 173.648 94.6816 174.195C93.8016 174.727 95.7296 177.093 95.2896 177.989C95.2026 178.167 92.5796 177.55 92.0696 177.554C91.5166 177.557 89.7766 177.616 89.5806 178.338C89.3166 179.311 90.6446 182.093 89.4436 182.684C87.6906 183.547 83.8426 181.29 82.4546 183.198C81.1756 184.955 84.0536 187.341 81.5146 188.996C79.9346 190.026 77.0726 187.294 75.4416 188.764C73.8246 190.221 76.9046 193.872 74.3386 195.125C72.9636 195.796 70.9036 195.043 69.4506 195.011C68.8906 194.999 67.8546 194.963 67.4246 195.412C66.4506 196.43 66.8656 199.387 66.6636 200.696C66.5816 201.229 66.4816 202.226 65.9736 202.56C64.2506 203.692 60.9366 201.47 59.3656 202.982C58.8956 203.435 59.0806 204.485 59.1226 205.05C59.2366 206.578 59.8126 209.119 58.4406 210.267C56.3696 212 52.3976 209.211 50.4676 211.4C50.0156 211.913 50.1056 212.851 50.1296 213.476C50.1936 215.117 50.9576 218.18 49.5106 219.442C47.3076 221.362 43.3506 219.181 40.9716 220.998C39.2106 222.343 40.6906 226.013 39.3946 227.811C38.9096 228.484 37.9046 228.457 37.1566 228.495C34.7866 228.617 32.9046 228.349 32.9316 231.356C32.9376 231.954 33.5656 233.534 33.1726 233.99C32.3946 234.894 30.5206 234.882 29.4466 234.844C29.2106 234.835 27.8506 234.548 27.7546 234.679C26.6766 236.134 29.4226 238.129 29.3756 239.211C29.3476 239.841 28.4106 239.439 28.1076 239.375C26.7996 239.099 25.5436 238.761 24.2886 238.307C24.6616 238.91 25.7806 239.684 26.0756 239.951C28.2176 241.891 30.3786 243.81 32.5396 245.731Z" fill="white"/>
</mask>
<g mask="url(#mask1_570_2980)">
<path d="M227.526 305.287C241.231 316.193 256.33 325.337 271.659 333.766" stroke="#242630" stroke-width="2" stroke-miterlimit="1.5" stroke-linecap="round" stroke-linejoin="round"/>
<path d="M211.881 333.735C217.697 333.061 222.903 335.553 227.703 338.48C235.297 343.109 242.382 348.561 249.862 353.376C265.723 363.585 285.48 368.427 304.394 369.195" stroke="#242630" stroke-width="2" stroke-miterlimit="1.5" stroke-linecap="round" stroke-linejoin="round"/>
<path d="M198.74 345.54C213.133 349.879 224.346 360.981 237.393 368.146C252.224 376.291 268.158 380.082 283.822 385.97" stroke="#242630" stroke-width="2" stroke-miterlimit="1.5" stroke-linecap="round" stroke-linejoin="round"/>
<path d="M184.042 359.335C199.995 365.686 213.624 375.749 228.817 383.601C238.246 388.474 249.121 391.987 259.252 395.205" stroke="#242630" stroke-width="2" stroke-miterlimit="1.5" stroke-linecap="round" stroke-linejoin="round"/>
<path d="M124.435 264.013C126.668 265.724 128.878 267.461 131.093 269.193" stroke="#242630" stroke-width="2" stroke-miterlimit="1.5" stroke-linecap="round" stroke-linejoin="round"/>
<path d="M102.816 295.231C104.85 299.385 107.6 305.237 111.67 307.688C117.041 310.922 122.232 311.087 126.855 315.954" stroke="#242630" stroke-width="2" stroke-miterlimit="1.5" stroke-linecap="round" stroke-linejoin="round"/>
<path d="M147.235 336.623C149.807 338.166 151.732 340.063 153.864 342.135" stroke="#242630" stroke-width="2" stroke-miterlimit="1.5" stroke-linecap="round" stroke-linejoin="round"/>
<path d="M163.706 330.85C165.274 331.752 166.882 332.596 168.436 333.524" stroke="#242630" stroke-width="2" stroke-miterlimit="1.5" stroke-linecap="round" stroke-linejoin="round"/>
<path d="M170.066 357.441C171.065 358.132 172.05 358.798 172.92 359.65" stroke="#242630" stroke-width="2" stroke-miterlimit="1.5" stroke-linecap="round" stroke-linejoin="round"/>
<path d="M90.3428 274.129C95.1518 274.991 98.1518 277.499 101.9 280.223" stroke="#242630" stroke-width="2" stroke-miterlimit="1.5" stroke-linecap="round" stroke-linejoin="round"/>
</g>
<path fill-rule="evenodd" clip-rule="evenodd" d="M32.5396 245.731C37.5666 250.199 42.5976 254.667 47.5376 259.227C51.9226 262.85 56.1476 267.173 61.0846 270.028C66.6576 273.251 73.1556 274.799 78.2556 278.85C83.5296 283.04 85.4436 289.857 89.7906 294.816C95.2526 301.046 102.902 304.863 109.082 310.283C112.936 313.663 113.006 319.416 116.813 322.598C120.391 325.588 125.654 324.997 129.222 328.102C134.315 332.533 136.327 339.492 141.194 344.174C157.526 359.886 176.176 373.035 195.638 384.567C207.94 391.856 220.999 398.477 235.067 401.523C241.158 402.841 248.109 403.95 254.143 401.813C256.075 401.129 258.357 399.969 259.141 397.942C259.506 396.997 259.534 396.146 259.252 395.205C264.471 398.604 271.28 399.934 277.374 398.253C279.775 397.591 282.729 396.123 283.809 393.713C284.749 391.616 284.313 388.194 283.822 385.97C288.734 387.127 293.862 387.536 298.63 385.504C301.533 384.266 303.904 381.945 304.02 378.634C304.057 377.577 303.9 376.507 303.604 375.493C302.889 373.043 301.324 371.018 299.724 369.061C305.163 370.536 311.521 367.121 312.024 361.176C312.267 358.293 310.884 355.436 309.115 353.236C306.182 349.59 301.733 347.805 297.456 346.26C292.27 344.386 286.97 342.73 281.914 340.519C274.25 337.169 267.77 332.31 260.857 327.722C262.577 327.245 264.964 327.58 266.501 327.577C270.53 327.568 274.404 327.572 278.08 325.763C280.025 324.807 281.762 323.67 283.292 322.124C284.322 321.082 285.276 319.944 286.008 318.67C288.865 313.698 285.866 309.34 281.68 306.435C274.09 301.167 264.83 299.686 256.72 295.561C239.216 286.659 225.017 272.775 208.001 263.147C202.792 260.199 196.06 264.251 191.182 260.572C187.271 257.621 185.271 252.932 182.225 249.224C179.692 246.142 176.163 244.178 173.118 241.659C169.649 238.791 167.343 234.594 163.512 232.157C160.292 230.108 155.994 230.612 152.952 228.234C146.91 223.512 143.726 215.694 138.481 210.181C129.022 200.238 117.939 192.13 109.073 181.534C106.645 178.632 104.229 175.708 101.518 173.063C100.891 172.451 100.249 171.855 99.5886 171.279C99.5326 171.23 99.1216 170.794 99.0336 170.845C98.9206 170.909 99.3686 171.787 99.3986 171.858C99.6476 172.444 100.586 174.946 99.9506 175.464C99.6486 175.711 98.7106 174.872 98.4596 174.74C97.6136 174.296 95.5846 173.648 94.6816 174.195C93.8016 174.727 95.7296 177.093 95.2896 177.989C95.2026 178.167 92.5796 177.55 92.0696 177.554C91.5166 177.557 89.7766 177.616 89.5806 178.338C89.3166 179.311 90.6446 182.093 89.4436 182.684C87.6906 183.547 83.8426 181.29 82.4546 183.198C81.1756 184.955 84.0536 187.341 81.5146 188.996C79.9346 190.026 77.0726 187.294 75.4416 188.764C73.8246 190.221 76.9046 193.872 74.3386 195.125C72.9636 195.796 70.9036 195.043 69.4506 195.011C68.8906 194.999 67.8546 194.963 67.4246 195.412C66.4506 196.43 66.8656 199.387 66.6636 200.696C66.5816 201.229 66.4816 202.226 65.9736 202.56C64.2506 203.692 60.9366 201.47 59.3656 202.982C58.8956 203.435 59.0806 204.485 59.1226 205.05C59.2366 206.578 59.8126 209.119 58.4406 210.267C56.3696 212 52.3976 209.211 50.4676 211.4C50.0156 211.913 50.1056 212.851 50.1296 213.476C50.1936 215.117 50.9576 218.18 49.5106 219.442C47.3076 221.362 43.3506 219.181 40.9716 220.998C39.2106 222.343 40.6906 226.013 39.3946 227.811C38.9096 228.484 37.9046 228.457 37.1566 228.495C34.7866 228.617 32.9046 228.349 32.9316 231.356C32.9376 231.954 33.5656 233.534 33.1726 233.99C32.3946 234.894 30.5206 234.882 29.4466 234.844C29.2106 234.835 27.8506 234.548 27.7546 234.679C26.6766 236.134 29.4226 238.129 29.3756 239.211C29.3476 239.841 28.4106 239.439 28.1076 239.375C26.7996 239.099 25.5436 238.761 24.2886 238.307C24.6616 238.91 25.7806 239.684 26.0756 239.951C28.2176 241.891 30.3786 243.81 32.5396 245.731Z" stroke="#242630" stroke-width="2" stroke-miterlimit="1.5" stroke-linecap="round" stroke-linejoin="round"/>
<defs>
<filter id="filter0_d_570_2980" x="11.0747" y="34.3252" width="489.851" height="451.35" filterUnits="userSpaceOnUse" color-interpolation-filters="sRGB">
<feFlood flood-opacity="0" result="BackgroundImageFix"/>
<feColorMatrix in="SourceAlpha" type="matrix" values="0 0 0 0 0 0 0 0 0 0 0 0 0 0 0 0 0 0 127 0" result="hardAlpha"/>
<feOffset dy="8"/>
<feComposite in2="hardAlpha" operator="out"/>
<feColorMatrix type="matrix" values="0 0 0 0 0 0 0 0 0 0 0 0 0 0 0 0 0 0 0.2 0"/>
<feBlend mode="normal" in2="BackgroundImageFix" result="effect1_dropShadow_570_2980"/>
<feBlend mode="normal" in="SourceGraphic" in2="effect1_dropShadow_570_2980" result="shape"/>
</filter>
</defs>
</svg>
