<svg width="512" height="512" viewBox="0 0 512 512" fill="none" xmlns="http://www.w3.org/2000/svg">
<g filter="url(#filter0_d_566_2371)">
<path fill-rule="evenodd" clip-rule="evenodd" d="M95.0726 29.7267C59.5346 38.9997 28.6666 60.4037 13.7126 98.4867C-6.34844 149.581 24.4946 202.961 30.8386 253.59C38.6696 316.094 -7.05344 386.545 52.6036 435.627C93.5256 469.295 153.252 453.284 201.61 459.662C254.274 466.609 300.365 496.653 355.12 485.366C461.832 463.367 548.387 306.878 481.469 211.296C449.392 165.48 388.686 167.31 342.333 145.374C294.46 122.718 268.334 74.9977 225.066 46.5817C200.745 30.6107 172.626 24.3727 143.846 24.1467C127.323 23.9077 110.744 25.6377 95.0726 29.7267Z" fill="white"/>
</g>
<path fill-rule="evenodd" clip-rule="evenodd" d="M99.4526 181.832C98.1856 175.528 98.8146 168.904 103.201 164.211C105.329 161.934 108.844 161.647 110.872 159.534C111.603 158.772 112.204 157.276 112.186 156.201C112.181 155.875 111.812 154.658 112.147 154.464C113.548 153.652 116.552 155.128 117.867 155.678C118.324 155.868 119.469 156.518 119.999 156.307C120.732 156.015 120.362 154.266 120.245 153.81C119.626 151.371 117.453 149.103 118.407 146.466C119.292 144.019 122.932 145.689 124.771 144.826C128.073 143.275 126.629 136.538 126.534 134.065C126.134 130.242 125.302 126.368 125.266 122.801C125.123 108.436 131.74 92.2807 144.306 84.5187C155.313 77.7187 170.912 74.0627 183.511 78.0447C189.182 79.8377 194.229 83.3717 198.565 87.3717C211.74 99.5257 224.042 121.418 217.485 139.725C215.118 146.333 210.169 151.837 204.754 156.168C202.112 158.281 199.399 160.289 196.721 162.353C191.379 166.467 185.68 170.129 180.534 174.484C176.775 177.664 173.084 180.942 169.27 184.054C161.712 190.224 153.646 195.905 144.95 200.333C140.534 202.582 136.133 205.266 131.165 206.122C120.614 207.94 108.91 202.92 103.936 193.359C103.892 193.274 103.845 193.178 103.797 193.072C101.89 189.867 100.274 185.916 99.4526 181.832Z" fill="#242630"/>
<mask id="mask0_566_2371" style="mask-type:luminance" maskUnits="userSpaceOnUse" x="98" y="76" width="122" height="131">
<path d="M99.4526 181.832C98.1856 175.528 98.8146 168.904 103.201 164.211C105.329 161.934 108.844 161.647 110.872 159.534C111.603 158.772 112.204 157.276 112.186 156.201C112.181 155.875 111.812 154.658 112.147 154.464C113.548 153.652 116.552 155.128 117.867 155.678C118.324 155.868 119.469 156.518 119.999 156.307C120.732 156.015 120.362 154.266 120.245 153.81C119.626 151.371 117.453 149.103 118.407 146.466C119.292 144.019 122.932 145.689 124.771 144.826C128.073 143.275 126.629 136.538 126.534 134.065C126.134 130.242 125.302 126.368 125.266 122.801C125.123 108.436 131.74 92.2807 144.306 84.5187C155.313 77.7187 170.912 74.0627 183.511 78.0447C189.182 79.8377 194.229 83.3717 198.565 87.3717C211.74 99.5257 224.042 121.418 217.485 139.725C215.118 146.333 210.169 151.837 204.754 156.168C202.112 158.281 199.399 160.289 196.721 162.353C191.379 166.467 185.68 170.129 180.534 174.484C176.775 177.664 173.084 180.942 169.27 184.054C161.712 190.224 153.646 195.905 144.95 200.333C140.534 202.582 136.133 205.266 131.165 206.122C120.614 207.94 108.91 202.92 103.936 193.359C103.892 193.274 103.845 193.178 103.797 193.072C101.89 189.867 100.274 185.916 99.4526 181.832Z" fill="white"/>
</mask>
<g mask="url(#mask0_566_2371)">
<path d="M188.766 85.5917C191.843 87.8007 195.084 89.9467 197.587 92.8217C210.433 107.572 213.496 126.719 215.733 145.352" stroke="white" stroke-width="2" stroke-miterlimit="1.5" stroke-linecap="round" stroke-linejoin="round"/>
<path d="M195.669 98.6897C201.914 106.779 207.219 116.249 209.751 126.196C212.025 135.125 212.451 144.441 214.313 153.464" stroke="white" stroke-width="2" stroke-miterlimit="1.5" stroke-linecap="round" stroke-linejoin="round"/>
<path d="M195.656 105.858C202.792 116.787 207.812 129.406 210.6 142.15" stroke="white" stroke-width="2" stroke-miterlimit="1.5" stroke-linecap="round" stroke-linejoin="round"/>
<path d="M213.24 114.11C215.169 119.943 217.104 125.948 217.908 132.057C218.646 137.668 218.258 143.407 218.365 149.046" stroke="white" stroke-width="2" stroke-miterlimit="1.5" stroke-linecap="round" stroke-linejoin="round"/>
<path d="M182.062 91.9526C193.354 107.224 201.55 124.332 207.571 142.335" stroke="white" stroke-width="2" stroke-miterlimit="1.5" stroke-linecap="round" stroke-linejoin="round"/>
<path d="M134.667 111.39C138.625 118.108 142.341 124.968 146.457 131.591C149.489 136.468 153.114 141.189 155.564 146.404" stroke="white" stroke-width="2" stroke-miterlimit="1.5" stroke-linecap="round" stroke-linejoin="round"/>
<path d="M136.344 106.006C140.781 115.914 145.824 125.716 151.715 134.85C154.38 138.983 157.467 142.797 159.864 147.104" stroke="white" stroke-width="2" stroke-miterlimit="1.5" stroke-linecap="round" stroke-linejoin="round"/>
<path d="M144.417 113.617C150.761 124.597 158.024 135.015 164.963 145.623" stroke="white" stroke-width="2" stroke-miterlimit="1.5" stroke-linecap="round" stroke-linejoin="round"/>
<path d="M140.523 97.6837C145.856 107.174 151.107 116.894 157.19 125.932C159.962 130.052 163.435 133.763 165.857 138.113" stroke="white" stroke-width="2" stroke-miterlimit="1.5" stroke-linecap="round" stroke-linejoin="round"/>
<path d="M152.088 111.193C154.672 115.66 157.558 119.802 160.432 124.07" stroke="white" stroke-width="2" stroke-miterlimit="1.5" stroke-linecap="round" stroke-linejoin="round"/>
<path d="M130.983 129.432C131.136 134.969 133.817 143.89 129.484 148.516C128.172 149.916 125.952 149.141 124.317 149.005C123.314 148.922 122.16 148.773 121.803 149.958C121.057 152.434 124.12 154.821 125.182 156.781C125.921 158.145 126.595 159.557 124.887 160.597C123.83 161.241 122.222 160.904 121.096 160.643C118.345 160.004 114.508 158.429 112.18 161.004C109.259 164.236 113.745 167.094 114.173 170.101C114.41 171.768 112.479 173.772 111.58 175.06" stroke="white" stroke-width="2" stroke-miterlimit="1.5" stroke-linecap="round" stroke-linejoin="round"/>
<path d="M126.113 165.729C124.971 165.413 123.853 165.024 122.698 164.753C121.858 164.556 121.008 164.383 120.148 164.308C118.12 164.132 115.955 164.909 116.701 167.433C117.567 170.365 119.671 172.825 120.808 175.641C121.254 176.748 121.344 177.403 121.612 178.597" stroke="white" stroke-width="2" stroke-miterlimit="1.5" stroke-linecap="round" stroke-linejoin="round"/>
</g>
<path fill-rule="evenodd" clip-rule="evenodd" d="M99.4526 181.832C98.1856 175.528 98.8146 168.904 103.201 164.211C105.329 161.934 108.844 161.647 110.872 159.534C111.603 158.772 112.204 157.276 112.186 156.201C112.181 155.875 111.812 154.658 112.147 154.464C113.548 153.652 116.552 155.128 117.867 155.678C118.324 155.868 119.469 156.518 119.999 156.307C120.732 156.015 120.362 154.266 120.245 153.81C119.626 151.371 117.453 149.103 118.407 146.466C119.292 144.019 122.932 145.689 124.771 144.826C128.073 143.275 126.629 136.538 126.534 134.065C126.134 130.242 125.302 126.368 125.266 122.801C125.123 108.436 131.74 92.2807 144.306 84.5187C155.313 77.7187 170.912 74.0627 183.511 78.0447C189.182 79.8377 194.229 83.3717 198.565 87.3717C211.74 99.5257 224.042 121.418 217.485 139.725C215.118 146.333 210.169 151.837 204.754 156.168C202.112 158.281 199.399 160.289 196.721 162.353C191.379 166.467 185.68 170.129 180.534 174.484C176.775 177.664 173.084 180.942 169.27 184.054C161.712 190.224 153.646 195.905 144.95 200.333C140.534 202.582 136.133 205.266 131.165 206.122C120.614 207.94 108.91 202.92 103.936 193.359C103.892 193.274 103.845 193.178 103.797 193.072C101.89 189.867 100.274 185.916 99.4526 181.832Z" stroke="#242630" stroke-width="2" stroke-miterlimit="1.5" stroke-linecap="round" stroke-linejoin="round"/>
<path fill-rule="evenodd" clip-rule="evenodd" d="M243.527 367.902C245.12 364.572 246.786 361.272 248.305 357.92C252.964 347.643 257.123 337.015 261.174 326.479C262.943 321.875 264.506 317.201 266.356 312.628C267.241 310.441 268.232 307.637 270.318 306.313C277.347 301.854 287.264 310.584 291.582 315.23C296.662 320.696 299.718 327.392 302.749 334.121C306.007 341.352 308.873 348.866 310.141 356.727C311.767 366.806 311.27 376.884 307.4 386.411C304.425 393.736 301.03 400.986 296.537 407.516C294.76 410.099 292.71 413.381 289.525 414.32C283.033 416.236 276.372 408.263 270.493 406.41C264.479 404.515 256.474 406.018 251.042 402.771C247.694 400.769 246.281 396.698 245.371 393.122C243.3 384.992 243.475 376.24 243.527 367.902Z" fill="#C1EDFC"/>
<mask id="mask1_566_2371" style="mask-type:luminance" maskUnits="userSpaceOnUse" x="243" y="305" width="69" height="110">
<path d="M243.527 367.902C245.12 364.572 246.786 361.272 248.305 357.92C252.964 347.643 257.123 337.015 261.174 326.479C262.943 321.875 264.506 317.201 266.356 312.628C267.241 310.441 268.232 307.637 270.318 306.313C277.347 301.854 287.264 310.584 291.582 315.23C296.662 320.696 299.718 327.392 302.749 334.121C306.007 341.352 308.873 348.866 310.141 356.727C311.767 366.806 311.27 376.884 307.4 386.411C304.425 393.736 301.03 400.986 296.537 407.516C294.76 410.099 292.71 413.381 289.525 414.32C283.033 416.236 276.372 408.263 270.493 406.41C264.479 404.515 256.474 406.018 251.042 402.771C247.694 400.769 246.281 396.698 245.371 393.122C243.3 384.992 243.475 376.24 243.527 367.902Z" fill="white"/>
</mask>
<g mask="url(#mask1_566_2371)">
<path d="M290.382 379.888C293.923 382.24 299.094 385.636 303.745 384.091C305.002 383.673 306.018 382.717 306.95 381.855C307.926 380.952 308.823 380.039 309.529 378.927C310.382 377.583 311.036 376.106 311.438 374.588C312.253 371.503 312.186 368.427 312.026 365.291" stroke="#242630" stroke-width="2" stroke-miterlimit="1.5" stroke-linecap="round" stroke-linejoin="round"/>
</g>
<path fill-rule="evenodd" clip-rule="evenodd" d="M243.527 367.902C245.12 364.572 246.786 361.272 248.305 357.92C252.964 347.643 257.123 337.015 261.174 326.479C262.943 321.875 264.506 317.201 266.356 312.628C267.241 310.441 268.232 307.637 270.318 306.313C277.347 301.854 287.264 310.584 291.582 315.23C296.662 320.696 299.718 327.392 302.749 334.121C306.007 341.352 308.873 348.866 310.141 356.727C311.767 366.806 311.27 376.884 307.4 386.411C304.425 393.736 301.03 400.986 296.537 407.516C294.76 410.099 292.71 413.381 289.525 414.32C283.033 416.236 276.372 408.263 270.493 406.41C264.479 404.515 256.474 406.018 251.042 402.771C247.694 400.769 246.281 396.698 245.371 393.122C243.3 384.992 243.475 376.24 243.527 367.902Z" stroke="#242630" stroke-width="2" stroke-miterlimit="1.5" stroke-linecap="round" stroke-linejoin="round"/>
<path fill-rule="evenodd" clip-rule="evenodd" d="M269.272 312.213C269.179 312.457 269.093 312.695 269.013 312.925C266.221 321.009 266.063 329.583 267.367 337.987C267.528 338.852 267.692 339.716 267.859 340.58C269.211 347.583 270.84 354.337 273.853 360.826C277.712 369.138 283.461 375.834 291.45 380.324C293.563 381.511 297.042 384.282 299.614 383.209C300.36 382.899 300.696 381.766 300.982 381.09C301.77 379.226 302.393 377.294 303.039 375.378C305.558 367.9 308.958 360.807 311.129 353.182C312.325 348.979 313.346 344.964 312.128 340.653C311.404 338.092 309.993 335.81 308.515 333.61C302.982 325.376 296.681 318.3 288.543 312.536C287.564 311.842 286.531 311.115 285.456 310.398C282.525 308.594 279.427 305.478 275.7 305.677C272.385 305.854 270.358 309.381 269.272 312.213Z" fill="white"/>
<mask id="mask2_566_2371" style="mask-type:luminance" maskUnits="userSpaceOnUse" x="266" y="305" width="47" height="79">
<path d="M269.272 312.213C269.179 312.457 269.093 312.695 269.013 312.925C266.221 321.009 266.063 329.583 267.367 337.987C267.528 338.852 267.692 339.716 267.859 340.58C269.211 347.583 270.84 354.337 273.853 360.826C277.712 369.138 283.461 375.834 291.45 380.324C293.563 381.511 297.042 384.282 299.614 383.209C300.36 382.899 300.696 381.766 300.982 381.09C301.77 379.226 302.393 377.294 303.039 375.378C305.558 367.9 308.958 360.807 311.129 353.182C312.325 348.979 313.346 344.964 312.128 340.653C311.404 338.092 309.993 335.81 308.515 333.61C302.982 325.376 296.681 318.3 288.543 312.536C287.564 311.842 286.531 311.115 285.456 310.398C282.525 308.594 279.427 305.478 275.7 305.677C272.385 305.854 270.358 309.381 269.272 312.213Z" fill="white"/>
</mask>
<g mask="url(#mask2_566_2371)">
<path d="M288.482 355.284C299.555 358.307 311.79 351.659 315.894 340.948C317.064 337.893 317.089 334.475 317.295 331.263" stroke="#242630" stroke-width="2" stroke-miterlimit="1.5" stroke-linecap="round" stroke-linejoin="round"/>
</g>
<path fill-rule="evenodd" clip-rule="evenodd" d="M269.272 312.213C269.179 312.457 269.093 312.695 269.013 312.925C266.221 321.009 266.063 329.583 267.367 337.987C267.528 338.852 267.692 339.716 267.859 340.58C269.211 347.583 270.84 354.337 273.853 360.826C277.712 369.138 283.461 375.834 291.45 380.324C293.563 381.511 297.042 384.282 299.614 383.209C300.36 382.899 300.696 381.766 300.982 381.09C301.77 379.226 302.393 377.294 303.039 375.378C305.558 367.9 308.958 360.807 311.129 353.182C312.325 348.979 313.346 344.964 312.128 340.653C311.404 338.092 309.993 335.81 308.515 333.61C302.982 325.376 296.681 318.3 288.543 312.536C287.564 311.842 286.531 311.115 285.456 310.398C282.525 308.594 279.427 305.478 275.7 305.677C272.385 305.854 270.358 309.381 269.272 312.213Z" stroke="#242630" stroke-width="2" stroke-miterlimit="1.5" stroke-linecap="round" stroke-linejoin="round"/>
<path fill-rule="evenodd" clip-rule="evenodd" d="M296.916 355.9C298.028 350.926 298.255 345.398 299.928 340.603C304.663 327.032 315.624 322.731 327.995 317.788C331.187 316.512 335.192 314.944 337.109 311.857C340.082 307.071 337.131 297.158 334.729 292.115C334.237 291.083 332.437 289.899 332.206 288.966C331.733 287.061 333.28 283.356 333.552 281.373C334.451 274.815 333.619 267.436 328.361 262.945C326.524 261.377 324.365 260.261 322.21 259.197C319.23 257.725 316.048 256.62 312.935 255.454C308.64 253.846 303.829 252.759 299.304 254.107C292.213 256.221 290.089 265.691 286.024 270.885C282.55 275.324 278.949 278.827 276.9 284.226C273.811 292.364 273.975 302.268 273.64 310.89C273.138 323.81 268.735 342.663 281.207 351.671C283.057 353.007 285.12 354.062 287.258 354.855C290.301 355.985 293.706 356.691 296.916 355.9Z" fill="#FFE38C"/>
<mask id="mask3_566_2371" style="mask-type:luminance" maskUnits="userSpaceOnUse" x="272" y="253" width="67" height="104">
<path d="M296.916 355.9C298.028 350.926 298.255 345.398 299.928 340.603C304.663 327.032 315.624 322.731 327.995 317.788C331.187 316.512 335.192 314.944 337.109 311.857C340.082 307.071 337.131 297.158 334.729 292.115C334.237 291.083 332.437 289.899 332.206 288.966C331.733 287.061 333.28 283.356 333.552 281.373C334.451 274.815 333.619 267.436 328.361 262.945C326.524 261.377 324.365 260.261 322.21 259.197C319.23 257.725 316.048 256.62 312.935 255.454C308.64 253.846 303.829 252.759 299.304 254.107C292.213 256.221 290.089 265.691 286.024 270.885C282.55 275.324 278.949 278.827 276.9 284.226C273.811 292.364 273.975 302.268 273.64 310.89C273.138 323.81 268.735 342.663 281.207 351.671C283.057 353.007 285.12 354.062 287.258 354.855C290.301 355.985 293.706 356.691 296.916 355.9Z" fill="white"/>
</mask>
<g mask="url(#mask3_566_2371)">
<path d="M328.929 306.473C329.344 303.598 329.536 300.739 328.654 297.939C328.38 297.067 327.918 296.371 327.326 295.684C326.063 294.222 319.299 286.504 325.772 286.896C326.411 286.934 327.038 287.039 327.651 287.223C328.566 287.498 329.458 287.922 330.284 288.397C331.56 289.131 332.848 289.953 334.001 290.874" stroke="#242630" stroke-width="2" stroke-miterlimit="1.5" stroke-linecap="round" stroke-linejoin="round"/>
<path d="M333.283 296.795C331.257 297.755 329.227 296.893 327.74 295.454" stroke="#242630" stroke-width="2" stroke-miterlimit="1.5" stroke-linecap="round" stroke-linejoin="round"/>
<path d="M325.652 279.212C321.784 276.802 317.46 276.782 313.09 277.741C309.768 278.47 306.28 279.096 302.876 279.256C301.389 279.326 298.809 279.043 297.559 279.938C293.981 282.501 296.372 286.241 299.32 287.955C305.542 291.573 311.278 291.797 316.53 286.643" stroke="#242630" stroke-width="2" stroke-miterlimit="1.5" stroke-linecap="round" stroke-linejoin="round"/>
<path d="M323.244 290.721C321.587 290.968 319.962 291.311 318.297 290.908C316.516 290.476 314.939 289.357 313.106 289.118" stroke="#242630" stroke-width="2" stroke-miterlimit="1.5" stroke-linecap="round" stroke-linejoin="round"/>
<path d="M299.421 278.714C298.077 275.372 301.419 273.67 304.129 272.477C310.658 269.602 317.274 267.038 324.233 265.35" stroke="#242630" stroke-width="2" stroke-miterlimit="1.5" stroke-linecap="round" stroke-linejoin="round"/>
<path d="M288.82 320.89C290.66 324.791 293.42 328.079 297.672 329.382" stroke="#242630" stroke-width="2" stroke-miterlimit="1.5" stroke-linecap="round" stroke-linejoin="round"/>
<path d="M299.462 304.527C290.924 307.83 283.847 314.131 282.886 323.579" stroke="#242630" stroke-width="2" stroke-miterlimit="1.5" stroke-linecap="round" stroke-linejoin="round"/>
<path d="M276.938 321.038C279.182 316.894 282.624 312.517 287.443 311.321" stroke="#242630" stroke-width="2" stroke-miterlimit="1.5" stroke-linecap="round" stroke-linejoin="round"/>
</g>
<path fill-rule="evenodd" clip-rule="evenodd" d="M296.916 355.9C298.028 350.926 298.255 345.398 299.928 340.603C304.663 327.032 315.624 322.731 327.995 317.788C331.187 316.512 335.192 314.944 337.109 311.857C340.082 307.071 337.131 297.158 334.729 292.115C334.237 291.083 332.437 289.899 332.206 288.966C331.733 287.061 333.28 283.356 333.552 281.373C334.451 274.815 333.619 267.436 328.361 262.945C326.524 261.377 324.365 260.261 322.21 259.197C319.23 257.725 316.048 256.62 312.935 255.454C308.64 253.846 303.829 252.759 299.304 254.107C292.213 256.221 290.089 265.691 286.024 270.885C282.55 275.324 278.949 278.827 276.9 284.226C273.811 292.364 273.975 302.268 273.64 310.89C273.138 323.81 268.735 342.663 281.207 351.671C283.057 353.007 285.12 354.062 287.258 354.855C290.301 355.985 293.706 356.691 296.916 355.9Z" stroke="#242630" stroke-width="2" stroke-miterlimit="1.5" stroke-linecap="round" stroke-linejoin="round"/>
<path fill-rule="evenodd" clip-rule="evenodd" d="M158.666 210.473C166.164 229.553 175.339 247.684 183.779 266.321C187.083 273.618 189.877 281.13 193.279 288.395C194.673 291.373 195.834 295.007 197.976 297.604C199.566 299.533 202.602 299.882 204.902 300.306C212.925 301.784 220.546 299.556 227.626 295.678C229.833 294.469 231.95 293.082 234.117 291.801C234.759 291.421 235.941 291.029 235.892 290.128C235.633 285.331 229.758 282.12 226.511 279.667C221.632 275.982 217.565 271.395 212.948 267.415C193.676 250.807 178.156 230.233 161.356 211.238C160.986 210.819 158.666 210.473 158.666 210.473Z" fill="#C1EDFC" stroke="#242630" stroke-width="2" stroke-miterlimit="1.5" stroke-linecap="round" stroke-linejoin="round"/>
<path fill-rule="evenodd" clip-rule="evenodd" d="M100.44 185.629C103.757 182.898 106.916 179.98 109.883 176.868C112.019 174.628 113.491 171.993 116.717 171.543C128.566 169.89 133.428 181.943 139.501 190.153C143.418 195.449 148.092 200.048 152.351 205.049C157.193 210.733 161.951 217.243 166.198 223.399C172.088 231.936 176.592 241.557 181.355 250.735C186.869 261.362 192.739 271.833 197.189 282.959C198.11 285.261 198.941 287.597 199.856 289.903C200.268 290.941 200.917 292.017 200.2 293.075C192.099 305.022 178.947 290.232 173.026 284.159C171.398 282.49 169.838 280.765 168.236 279.072C166.095 276.81 163.9 274.6 161.75 272.347C154.409 264.648 147.838 256.325 140.759 248.405C134.023 240.87 128.332 232.669 122.147 224.691C117.876 219.182 113.216 214.196 109.79 208.075C107.414 203.831 100.44 185.629 100.44 185.629Z" fill="white"/>
<mask id="mask4_566_2371" style="mask-type:luminance" maskUnits="userSpaceOnUse" x="100" y="171" width="101" height="127">
<path d="M100.44 185.629C103.757 182.898 106.916 179.98 109.883 176.868C112.019 174.628 113.491 171.993 116.717 171.543C128.566 169.89 133.428 181.943 139.501 190.153C143.418 195.449 148.092 200.048 152.351 205.049C157.193 210.733 161.951 217.243 166.198 223.399C172.088 231.936 176.592 241.557 181.355 250.735C186.869 261.362 192.739 271.833 197.189 282.959C198.11 285.261 198.941 287.597 199.856 289.903C200.268 290.941 200.917 292.017 200.2 293.075C192.099 305.022 178.947 290.232 173.026 284.159C171.398 282.49 169.838 280.765 168.236 279.072C166.095 276.81 163.9 274.6 161.75 272.347C154.409 264.648 147.838 256.325 140.759 248.405C134.023 240.87 128.332 232.669 122.147 224.691C117.876 219.182 113.216 214.196 109.79 208.075C107.414 203.831 100.44 185.629 100.44 185.629Z" fill="white"/>
</mask>
<g mask="url(#mask4_566_2371)">
<path fill-rule="evenodd" clip-rule="evenodd" d="M149.544 211.139C147.528 210.949 145.542 211.336 143.886 212.925C142.87 213.899 141.958 214.949 141.02 215.997C140.674 216.384 140.134 216.926 140.139 217.488C140.143 217.929 140.721 218.281 141.027 218.521C141.962 219.253 143.017 219.833 143.936 220.583C146.502 222.677 150.516 224.648 152.253 227.489C153.466 229.473 153.229 232.166 153.004 234.372C152.682 237.533 152.31 240.463 153.086 243.592C154.523 249.393 157.361 254.709 159.713 260.166C164.06 270.257 167.929 280.581 176.696 287.755C179.602 290.133 182.447 292.803 185.971 294.247C187.12 294.718 188.783 295.247 190.116 294.994C186.861 286.547 182.498 278.506 179.994 269.777C177.885 262.421 177.17 254.674 174.314 247.534C172.546 243.114 169.79 239.08 166.578 235.581C164.544 233.365 161.949 231.504 160.566 228.767C158.709 225.094 161.597 220.985 159.768 217.271C159.174 216.064 158.335 214.903 157.422 213.815C155.096 212.752 152.274 211.396 149.544 211.139Z" fill="#242630" stroke="#242630" stroke-width="2" stroke-miterlimit="1.5" stroke-linecap="round" stroke-linejoin="round"/>
<path d="M168.215 241.531C164.861 241.398 162.376 240.561 159.377 237.482C158.037 236.107 156.694 234.366 156.13 232.015" stroke="white" stroke-width="2" stroke-miterlimit="1.5" stroke-linecap="round" stroke-linejoin="round"/>
<path d="M160.99 227.313C161.904 231.547 163.303 235.656 164.358 239.856" stroke="white" stroke-width="2" stroke-miterlimit="1.5" stroke-linecap="round" stroke-linejoin="round"/>
<path d="M150.513 231.279C151.066 229.684 151.909 227.607 153.307 226.513C156.057 224.361 159.859 226.145 162.174 228.111" stroke="white" stroke-width="2" stroke-miterlimit="1.5" stroke-linecap="round" stroke-linejoin="round"/>
<path d="M134.414 224.437C136.192 221.742 138.218 219.337 140.291 216.877C142.696 214.021 144.977 210.427 149.274 210.778C150.618 210.888 152.098 211.3 153.366 211.765" stroke="#242630" stroke-width="2" stroke-miterlimit="1.5" stroke-linecap="round" stroke-linejoin="round"/>
</g>
<path fill-rule="evenodd" clip-rule="evenodd" d="M100.44 185.629C103.757 182.898 106.916 179.98 109.883 176.868C112.019 174.628 113.491 171.993 116.717 171.543C128.566 169.89 133.428 181.943 139.501 190.153C143.418 195.449 148.092 200.048 152.351 205.049C157.193 210.733 161.951 217.243 166.198 223.399C172.088 231.936 176.592 241.557 181.355 250.735C186.869 261.362 192.739 271.833 197.189 282.959C198.11 285.261 198.941 287.597 199.856 289.903C200.268 290.941 200.917 292.017 200.2 293.075C192.099 305.022 178.947 290.232 173.026 284.159C171.398 282.49 169.838 280.765 168.236 279.072C166.095 276.81 163.9 274.6 161.75 272.347C154.409 264.648 147.838 256.325 140.759 248.405C134.023 240.87 128.332 232.669 122.147 224.691C117.876 219.182 113.216 214.196 109.79 208.075C107.414 203.831 100.44 185.629 100.44 185.629Z" stroke="#242630" stroke-width="2" stroke-miterlimit="1.5" stroke-linecap="round" stroke-linejoin="round"/>
<path fill-rule="evenodd" clip-rule="evenodd" d="M82.9346 183.637C81.8486 183.538 80.7646 183.42 79.6806 183.279C76.5676 183.057 73.4886 182.906 70.3586 182.758C62.5406 182.629 54.6866 181.48 47.0286 180.325C42.6296 179.662 38.2946 178.633 33.8896 178.01C32.4396 177.805 30.9886 177.599 29.5386 177.394C29.0626 177.327 28.5856 177.262 28.1076 177.211C28.0766 177.208 27.3656 177.15 27.3786 177.191C27.4866 177.553 28.1546 177.859 28.4466 178.025C29.4976 178.622 30.6646 179.016 31.6936 179.647C35.5756 182.031 39.2686 184.82 42.7806 187.717C50.4526 194.045 62.9716 202.099 65.2326 212.414C66.6066 218.68 59.6626 223.854 63.1576 229.975C70.9266 243.58 88.1406 247.044 97.9556 258.478C101.888 263.058 96.0286 268.132 98.8026 273.233C101.803 278.752 106.887 283.55 111.365 287.852C121.631 297.714 134.067 308.185 147.866 312.553C150.12 313.266 152.541 313.631 154.902 313.379C156.843 313.172 158.743 312.584 160.62 312.067C166.728 310.384 177.28 307.846 179.419 300.717C181.321 294.377 175.062 287.584 171.438 283.147C161.647 271.161 151.426 259.303 142.251 246.835C132.091 233.029 122.484 218.829 112.456 204.928C108.326 199.202 104.764 190.767 98.5686 186.906C93.9586 184.033 88.1546 184.113 82.9346 183.637Z" fill="#C1EDFC" stroke="#242630" stroke-width="2" stroke-miterlimit="1.5" stroke-linecap="round" stroke-linejoin="round"/>
<path fill-rule="evenodd" clip-rule="evenodd" d="M180.078 289.472C175.442 282.57 169.961 276.304 165.165 269.528C153.987 253.738 142.326 238.151 131.557 222.082C125.165 212.544 119.182 202.854 113.193 193.07C110.706 189.006 108.634 183.534 105.527 179.884C104.166 178.285 101.522 178.012 99.5754 178.003C91.1144 177.963 81.8894 178.885 73.8434 181.643C73.8004 181.658 73.3334 181.77 73.3724 181.865C73.4774 182.113 74.5924 182.557 74.8664 182.743C76.4424 183.816 78.1904 184.62 79.6934 185.799C84.7164 189.742 90.2084 192.996 95.9644 195.765C97.2274 196.372 98.5254 196.877 99.8054 197.446C100.017 197.54 101.163 197.919 101.174 198.224C101.201 198.959 99.7244 199.866 99.2654 200.344C97.1144 202.586 91.5704 205.458 93.7124 209.275C95.7804 212.959 99.6834 215.917 102.584 218.957C110.52 227.276 118.977 234.897 127.619 242.467C146.976 259.423 169.796 287.235 188.125 305.291C189.127 306.277 180.078 289.472 180.078 289.472Z" fill="#C1EDFC" stroke="#242630" stroke-width="2" stroke-miterlimit="1.5" stroke-linecap="round" stroke-linejoin="round"/>
<path fill-rule="evenodd" clip-rule="evenodd" d="M171.505 224.093C177.569 219.675 182.842 214.235 187.619 208.473C192.488 202.601 196.887 196.373 200.244 189.505C201.647 186.634 203.019 183.689 203.894 180.608C205.087 176.408 205.545 172.006 207.721 168.141C209.994 164.102 214.143 161.665 216.798 157.95C220.941 152.153 221.222 146.158 220.285 139.311C220.051 137.598 219.951 134.783 219.145 133.219C219.084 133.099 219.015 132.985 218.939 132.875C216.284 133.525 213.517 134.157 210.772 133.759C206.362 133.119 202.91 129.805 200.097 126.591C194.129 119.775 190.665 110.733 183.016 105.449C179.269 102.86 174.356 100.937 169.748 101.932C163.417 103.299 157.906 110.958 156.206 116.884C155.034 120.971 155.135 125.356 155.491 129.553C155.741 132.502 156.55 135.755 155.575 138.645C153.675 144.279 148.216 148.032 146.243 153.739C146.148 153.655 145.27 151.222 145.209 151.042C144.632 149.363 144.035 147.69 143.371 146.044C141.632 141.734 137.254 131.692 131.415 137.018C128.063 140.074 128.713 145.327 129.717 149.272C130.008 150.415 131.323 152.91 130.897 154.201C129.226 159.259 125.474 163.212 122.077 167.174C120.994 168.436 119.908 169.697 118.843 170.975C118.559 171.316 117.847 171.913 117.749 172.368C117.016 175.809 119.273 179.713 120.83 182.624C125.31 191.001 132.957 197.794 140.806 202.959C143.708 204.869 147.49 205.624 150.117 207.923C155.716 212.822 159.962 220.819 166.938 224.111C168.298 225.253 169.597 225.166 170.917 224.511C171.114 224.374 171.31 224.234 171.505 224.093Z" fill="#FFE38C"/>
<mask id="mask5_566_2371" style="mask-type:luminance" maskUnits="userSpaceOnUse" x="117" y="101" width="104" height="124">
<path d="M171.505 224.093C177.569 219.675 182.842 214.235 187.619 208.473C192.488 202.601 196.887 196.373 200.244 189.505C201.647 186.634 203.019 183.689 203.894 180.608C205.087 176.408 205.545 172.006 207.721 168.141C209.994 164.102 214.143 161.665 216.798 157.95C220.941 152.153 221.222 146.158 220.285 139.311C220.051 137.598 219.951 134.783 219.145 133.219C219.084 133.099 219.015 132.985 218.939 132.875C216.284 133.525 213.517 134.157 210.772 133.759C206.362 133.119 202.91 129.805 200.097 126.591C194.129 119.775 190.665 110.733 183.016 105.449C179.269 102.86 174.356 100.937 169.748 101.932C163.417 103.299 157.906 110.958 156.206 116.884C155.034 120.971 155.135 125.356 155.491 129.553C155.741 132.502 156.55 135.755 155.575 138.645C153.675 144.279 148.216 148.032 146.243 153.739C146.148 153.655 145.27 151.222 145.209 151.042C144.632 149.363 144.035 147.69 143.371 146.044C141.632 141.734 137.254 131.692 131.415 137.018C128.063 140.074 128.713 145.327 129.717 149.272C130.008 150.415 131.323 152.91 130.897 154.201C129.226 159.259 125.474 163.212 122.077 167.174C120.994 168.436 119.908 169.697 118.843 170.975C118.559 171.316 117.847 171.913 117.749 172.368C117.016 175.809 119.273 179.713 120.83 182.624C125.31 191.001 132.957 197.794 140.806 202.959C143.708 204.869 147.49 205.624 150.117 207.923C155.716 212.822 159.962 220.819 166.938 224.111C168.298 225.253 169.597 225.166 170.917 224.511C171.114 224.374 171.31 224.234 171.505 224.093Z" fill="white"/>
</mask>
<g mask="url(#mask5_566_2371)">
<path d="M192.116 188.331C192.998 188.414 193.876 188.35 194.732 188.109C196.685 187.557 198.992 187.525 200.504 185.987C201.626 184.845 201.776 183.215 201.582 181.699C201.217 178.853 199.926 176.226 199.305 173.439C198.788 171.121 199.44 169.293 200.13 167.09C201.412 162.995 201.079 154.301 207.441 155.322C208.289 155.458 209.048 155.724 209.805 156.125C210.816 156.66 211.595 157.224 212.301 158.134" stroke="#242630" stroke-width="2" stroke-miterlimit="1.5" stroke-linecap="round" stroke-linejoin="round"/>
<path d="M172 141.373C180.129 140.047 190.222 145.301 194.29 152.567" stroke="#242630" stroke-width="2" stroke-miterlimit="1.5" stroke-linecap="round" stroke-linejoin="round"/>
<path d="M174.292 153.074C176.271 154.919 178.793 156.376 181.406 157.125C183.202 157.641 184.937 157.229 186.452 158.49" stroke="#242630" stroke-width="2" stroke-miterlimit="1.5" stroke-linecap="round" stroke-linejoin="round"/>
<path d="M201.158 162.915C202.404 164.188 203.99 164.97 205.77 164.533" stroke="#242630" stroke-width="2" stroke-miterlimit="1.5" stroke-linecap="round" stroke-linejoin="round"/>
<path d="M171.482 190.581C171.378 191.018 171.28 191.456 171.177 191.894C171.128 192.1 171.316 191.492 171.4 191.297C171.622 190.778 171.705 190.616 172.361 190.605C173.678 190.583 174.981 191.231 176.112 191.838C180.66 194.28 184.079 197.49 189.322 198.54" stroke="#242630" stroke-width="2" stroke-miterlimit="1.5" stroke-linecap="round" stroke-linejoin="round"/>
<path d="M185.159 174.7C184.179 175.396 183.293 176.081 182.528 176.952C181.338 178.304 179.714 181.032 181.865 182.453C183.273 183.383 185.654 182.948 187.247 183.131C189.193 183.354 190.865 184.218 192.673 184.812" stroke="#242630" stroke-width="2" stroke-miterlimit="1.5" stroke-linecap="round" stroke-linejoin="round"/>
<path d="M160.627 191.176C161.722 188.089 162.807 184.775 165.477 182.679" stroke="#242630" stroke-width="2" stroke-miterlimit="1.5" stroke-linecap="round" stroke-linejoin="round"/>
<path d="M149.39 190.584C147.959 180.609 152.616 165.745 165.419 167.691" stroke="#242630" stroke-width="2" stroke-miterlimit="1.5" stroke-linecap="round" stroke-linejoin="round"/>
<path d="M138.662 177.379C138.821 191.026 147.107 202.143 154.746 212.797" stroke="#242630" stroke-width="2" stroke-miterlimit="1.5" stroke-linecap="round" stroke-linejoin="round"/>
<path d="M130.815 151.383C132.238 155.125 132.583 160.068 135.203 163.23C137.44 165.931 140.209 165.124 141.189 161.92" stroke="#242630" stroke-width="2" stroke-miterlimit="1.5" stroke-linecap="round" stroke-linejoin="round"/>
<path d="M140.678 156.478C138.422 154.777 139.286 151.912 139.322 149.487C139.365 146.602 137.16 140.67 133.815 139.701" stroke="#242630" stroke-width="2" stroke-miterlimit="1.5" stroke-linecap="round" stroke-linejoin="round"/>
<path d="M137.382 157.901C137.104 156.815 136.718 155.885 136.182 154.902C134.857 152.469 131.39 150.065 133.978 147.161C134.294 146.807 134.699 146.486 135.129 146.278C135.772 145.966 136.537 145.723 137.239 145.579" stroke="#242630" stroke-width="2" stroke-miterlimit="1.5" stroke-linecap="round" stroke-linejoin="round"/>
<path d="M132.438 141.891C131.835 144.74 132.414 147.372 133.476 150.021" stroke="#242630" stroke-width="2" stroke-miterlimit="1.5" stroke-linecap="round" stroke-linejoin="round"/>
</g>
<path fill-rule="evenodd" clip-rule="evenodd" d="M171.505 224.093C177.569 219.675 182.842 214.235 187.619 208.473C192.488 202.601 196.887 196.373 200.244 189.505C201.647 186.634 203.019 183.689 203.894 180.608C205.087 176.408 205.545 172.006 207.721 168.141C209.994 164.102 214.143 161.665 216.798 157.95C220.941 152.153 221.222 146.158 220.285 139.311C220.051 137.598 219.951 134.783 219.145 133.219C219.084 133.099 219.015 132.985 218.939 132.875C216.284 133.525 213.517 134.157 210.772 133.759C206.362 133.119 202.91 129.805 200.097 126.591C194.129 119.775 190.665 110.733 183.016 105.449C179.269 102.86 174.356 100.937 169.748 101.932C163.417 103.299 157.906 110.958 156.206 116.884C155.034 120.971 155.135 125.356 155.491 129.553C155.741 132.502 156.55 135.755 155.575 138.645C153.675 144.279 148.216 148.032 146.243 153.739C146.148 153.655 145.27 151.222 145.209 151.042C144.632 149.363 144.035 147.69 143.371 146.044C141.632 141.734 137.254 131.692 131.415 137.018C128.063 140.074 128.713 145.327 129.717 149.272C130.008 150.415 131.323 152.91 130.897 154.201C129.226 159.259 125.474 163.212 122.077 167.174C120.994 168.436 119.908 169.697 118.843 170.975C118.559 171.316 117.847 171.913 117.749 172.368C117.016 175.809 119.273 179.713 120.83 182.624C125.31 191.001 132.957 197.794 140.806 202.959C143.708 204.869 147.49 205.624 150.117 207.923C155.716 212.822 159.962 220.819 166.938 224.111C168.298 225.253 169.597 225.166 170.917 224.511C171.114 224.374 171.31 224.234 171.505 224.093Z" stroke="#242630" stroke-width="2" stroke-miterlimit="1.5" stroke-linecap="round" stroke-linejoin="round"/>
<path fill-rule="evenodd" clip-rule="evenodd" d="M302.56 243.118C303.262 241.5 303.982 239.893 304.766 238.314C305.246 237.35 305.714 236.377 306.242 235.439C306.476 235.021 306.914 234.032 307.334 233.812C308.585 233.154 311.051 234.065 311.462 235.484C311.854 236.836 311.086 238.431 310.476 239.61C309.173 242.129 308.059 245.031 304.888 245.148C304.271 245.171 302.56 243.118 302.56 243.118Z" fill="#FFE38C" stroke="#242630" stroke-width="2" stroke-miterlimit="1.5" stroke-linecap="round" stroke-linejoin="round"/>
<path fill-rule="evenodd" clip-rule="evenodd" d="M314.858 238.868C312.706 237.77 310.453 236.892 308.314 235.754C306.961 235.034 305.548 234.409 304.234 233.618C303.438 233.139 301.766 232.545 301.316 231.714C299.795 228.902 303.806 226.628 305.944 226.52C307.481 226.442 308.957 227.054 310.36 227.604C312.275 228.356 313.968 229.479 315.767 230.458C318.999 232.216 321.051 233.491 319.339 237.511C319.012 238.277 318.587 238.959 317.963 239.52C317.491 239.944 314.858 238.868 314.858 238.868Z" fill="#FFE38C" stroke="#242630" stroke-width="2" stroke-miterlimit="1.5" stroke-linecap="round" stroke-linejoin="round"/>
<path fill-rule="evenodd" clip-rule="evenodd" d="M238.004 225.545C228.009 220.862 216.091 225.175 211.408 235.17C206.725 245.166 211.038 257.083 221.033 261.767L259.066 279.586L256.52 285.019L218.488 267.2C205.493 261.112 199.887 245.619 205.975 232.625C212.063 219.631 227.556 214.024 240.55 220.112L280.005 238.598L277.459 244.031L238.004 225.545Z" fill="#FFE38C"/>
<mask id="mask6_566_2371" style="mask-type:luminance" maskUnits="userSpaceOnUse" x="203" y="217" width="78" height="69">
<path d="M238.004 225.545C228.009 220.862 216.091 225.175 211.408 235.17C206.725 245.166 211.038 257.083 221.033 261.767L259.066 279.586L256.52 285.019L218.488 267.2C205.493 261.112 199.887 245.619 205.975 232.625C212.063 219.631 227.556 214.024 240.55 220.112L280.005 238.598L277.459 244.031L238.004 225.545Z" fill="white"/>
</mask>
<g mask="url(#mask6_566_2371)">
<path fill-rule="evenodd" clip-rule="evenodd" d="M276.117 295.577C275.117 292.805 272.162 291.201 269.711 289.885C267.897 288.91 266.4 287.092 264.507 286.361C261.738 285.292 258.306 285.276 255.699 283.947C254.451 283.311 253.397 282.001 252.061 281.588C250.338 281.056 248.569 281.068 246.957 280.185C245.557 279.419 244.802 277.822 243.423 277.154C242.274 276.597 240.961 276.597 239.824 275.974C238.381 275.183 237.616 272.733 236.268 272.265C235.317 271.935 234.293 272.182 233.368 271.843C232.657 271.583 232.313 270.607 231.606 270.432C230.243 270.095 228.934 270.564 227.584 270.371C226.662 270.239 226.878 268.29 226.322 268.02C225.265 267.508 223.896 268.858 222.929 268.336C221.969 267.817 221.832 266.264 221.044 265.81C220.527 265.513 218.549 266.491 218.314 266.119C218.02 265.654 217.336 263.225 217.021 263.096C215.936 262.651 214.888 263.721 213.871 263.581C212.938 263.453 210.972 261.035 210.025 260.474C208.343 259.478 205.752 257.734 203.945 257.434C202.998 257.277 201.724 257.675 200.845 257.298C200.161 257.005 199.799 255.621 199.287 255.493C197.913 255.148 196.028 255.611 194.899 254.535C194.434 254.092 194.228 253.109 193.781 252.774C191.517 251.078 185.539 253.712 183.996 255.348C182.304 257.142 185.493 260.991 186.913 262.116C193.347 267.211 201.258 268.763 208.787 271.59C217.005 274.675 224.62 279.012 232.807 282.093C241.31 285.293 250.272 287.598 258.527 291.416C264.383 294.124 269.342 297.719 274.818 300.885C275.764 301.432 276.117 295.577 276.117 295.577Z" fill="#242630" stroke="#242630" stroke-width="2" stroke-miterlimit="1.5" stroke-linecap="round" stroke-linejoin="round"/>
<path fill-rule="evenodd" clip-rule="evenodd" d="M215.218 252.848C212.026 251.855 209.473 248.672 209.188 244.724C209.115 243.701 209.575 242.794 209.669 241.787C209.744 240.986 209.428 240.155 209.567 239.365C209.781 238.148 210.494 236.916 210.852 235.721C211.053 235.052 211.091 234.049 211.451 233.436C213.17 230.516 215.312 229.065 216.473 225.739C217.376 225.088 218.407 225.111 219.396 224.571C220.525 223.954 221.158 222.558 222.353 222.081C224.552 221.204 228.101 221.47 230.504 221.213C234.955 220.737 240.788 226.777 240.422 231.104C240.207 233.639 237.698 236.171 235.799 237.609C233.453 239.385 230.779 240.465 228.698 242.641C226.337 245.112 224.702 248.245 222.595 250.927C222.543 250.994 222.478 251.063 222.401 251.134C220.075 253.152 217.485 253.553 215.218 252.848Z" fill="#242630" stroke="#242630" stroke-width="2" stroke-miterlimit="1.5" stroke-linecap="round" stroke-linejoin="round"/>
</g>
<path fill-rule="evenodd" clip-rule="evenodd" d="M238.004 225.545C228.009 220.862 216.091 225.175 211.408 235.17C206.725 245.166 211.038 257.083 221.033 261.767L259.066 279.586L256.52 285.019L218.488 267.2C205.493 261.112 199.887 245.619 205.975 232.625C212.063 219.631 227.556 214.024 240.55 220.112L280.005 238.598L277.459 244.031L238.004 225.545Z" stroke="#242630" stroke-width="2" stroke-miterlimit="1.5" stroke-linecap="round" stroke-linejoin="round"/>
<path fill-rule="evenodd" clip-rule="evenodd" d="M338.754 316.922C340.159 313.923 338.865 310.348 335.866 308.943L234.446 261.425C231.448 260.02 227.873 261.314 226.468 264.312C225.063 267.311 226.356 270.886 229.355 272.291L330.775 319.81C333.774 321.214 337.349 319.921 338.754 316.922Z" fill="#FFE38C"/>
<mask id="mask7_566_2371" style="mask-type:luminance" maskUnits="userSpaceOnUse" x="225" y="260" width="115" height="61">
<path d="M338.754 316.922C340.159 313.923 338.865 310.348 335.866 308.943L234.446 261.425C231.448 260.02 227.873 261.314 226.468 264.312C225.063 267.311 226.356 270.886 229.355 272.291L330.775 319.81C333.774 321.214 337.349 319.921 338.754 316.922Z" fill="white"/>
</mask>
<g mask="url(#mask7_566_2371)">
<path fill-rule="evenodd" clip-rule="evenodd" d="M248.03 275C250.821 274.055 253.917 275.365 256.474 276.46C258.367 277.271 260.722 277.308 262.474 278.333C265.036 279.831 267.188 282.505 269.852 283.715C271.128 284.294 272.808 284.301 273.965 285.089C275.455 286.104 276.548 287.494 278.244 288.205C279.716 288.821 281.435 288.416 282.817 289.077C283.969 289.628 284.787 290.656 285.984 291.156C287.501 291.791 289.893 290.862 291.1 291.624C291.951 292.162 292.396 293.117 293.238 293.629C293.885 294.022 294.862 293.683 295.44 294.126C296.553 294.982 297.002 296.298 297.995 297.233C298.673 297.872 300.062 296.487 300.62 296.754C301.679 297.262 301.478 299.174 302.488 299.604C303.492 300.032 304.792 299.17 305.638 299.504C306.193 299.722 306.662 301.879 307.098 301.831C307.645 301.771 309.971 300.791 310.268 300.957C311.293 301.527 311.11 303.014 311.853 303.722C312.535 304.372 315.651 304.401 316.68 304.792C318.507 305.486 321.486 306.425 322.847 307.651C323.561 308.293 324.043 309.537 324.887 309.99C325.542 310.341 326.85 309.762 327.269 310.082C328.395 310.941 329.209 312.704 330.753 312.916C331.39 313.003 332.287 312.552 332.827 312.692C335.565 313.404 337.232 319.721 336.915 321.948C336.567 324.389 331.57 324.295 329.805 323.886C321.81 322.032 315.664 316.814 308.761 312.69C301.225 308.189 293.087 304.938 285.574 300.457C277.771 295.804 270.381 290.234 262.25 286.16C256.481 283.269 250.579 281.634 244.689 279.325C243.672 278.927 248.03 275 248.03 275Z" fill="#242630" stroke="#242630" stroke-width="2" stroke-miterlimit="1.5" stroke-linecap="round" stroke-linejoin="round"/>
</g>
<path fill-rule="evenodd" clip-rule="evenodd" d="M338.754 316.922C340.159 313.923 338.865 310.348 335.866 308.943L234.446 261.425C231.448 260.02 227.873 261.314 226.468 264.312C225.063 267.311 226.356 270.886 229.355 272.291L330.775 319.81C333.774 321.214 337.349 319.921 338.754 316.922Z" stroke="#242630" stroke-width="2" stroke-miterlimit="1.5" stroke-linecap="round" stroke-linejoin="round"/>
<path fill-rule="evenodd" clip-rule="evenodd" d="M308.337 256.29L289.964 247.682C290.39 246.645 290.82 245.611 291.258 244.579C291.688 243.873 292.123 243.359 292.567 243C294.398 241.521 296.393 242.682 298.918 243.947C301.084 245.032 303.247 246.075 305.451 247.078C336.787 261.347 368.188 278.002 402.523 283.66C418.255 286.253 436.27 286.978 450.573 278.759C470.428 267.349 436.031 307.284 436.031 307.284L432.705 314.384C432.705 314.384 424.033 366.371 420.093 343.813C414.519 311.899 369.721 285.905 354.463 277.901L320.498 261.987C319.366 260.819 318.309 259.5 316.898 258.699C314.344 257.25 311.36 256.467 308.337 256.29Z" fill="#FFE38C"/>
<mask id="mask8_566_2371" style="mask-type:luminance" maskUnits="userSpaceOnUse" x="289" y="242" width="168" height="108">
<path d="M308.337 256.29L289.964 247.682C290.39 246.645 290.82 245.611 291.258 244.579C291.688 243.873 292.123 243.359 292.567 243C294.398 241.521 296.393 242.682 298.918 243.947C301.084 245.032 303.247 246.075 305.451 247.078C336.787 261.347 368.188 278.002 402.523 283.66C418.255 286.253 436.27 286.978 450.573 278.759C470.428 267.349 436.031 307.284 436.031 307.284L432.705 314.384C432.705 314.384 424.033 366.371 420.093 343.813C414.519 311.899 369.721 285.905 354.463 277.901L320.498 261.987C319.366 260.819 318.309 259.5 316.898 258.699C314.344 257.25 311.36 256.467 308.337 256.29Z" fill="white"/>
</mask>
<g mask="url(#mask8_566_2371)">
<path fill-rule="evenodd" clip-rule="evenodd" d="M356.63 275.138C365.363 281.113 376.342 283.648 385.962 287.921C390.07 289.746 395.652 292.308 398.692 295.703C400.653 297.893 400.58 301.67 403.163 303.368C405.041 304.602 407.234 302.314 409.251 303.381C413.16 305.45 410.744 310.755 413.505 313.466C414.828 314.764 416.757 312.136 418.506 313.007C421.804 314.649 422.696 321.223 423.756 324.336C424.101 325.348 425.153 327.186 425.028 328.28C424.829 330.019 421.251 326.655 420.098 325.653C416.161 322.23 413.374 317.497 409.876 313.64C396.889 299.32 377.081 294.473 361.255 284.497C359.489 283.383 356.63 275.138 356.63 275.138Z" fill="#242630" stroke="#242630" stroke-width="2" stroke-miterlimit="1.5" stroke-linecap="round" stroke-linejoin="round"/>
</g>
<path fill-rule="evenodd" clip-rule="evenodd" d="M308.337 256.29L289.964 247.682C290.39 246.645 290.82 245.611 291.258 244.579C291.688 243.873 292.123 243.359 292.567 243C294.398 241.521 296.393 242.682 298.918 243.947C301.084 245.032 303.247 246.075 305.451 247.078C336.787 261.347 368.188 278.002 402.523 283.66C418.255 286.253 436.27 286.978 450.573 278.759C470.428 267.349 436.031 307.284 436.031 307.284L432.705 314.384C432.705 314.384 424.033 366.371 420.093 343.813C414.519 311.899 369.721 285.905 354.463 277.901L320.498 261.987C319.366 260.819 318.309 259.5 316.898 258.699C314.344 257.25 311.36 256.467 308.337 256.29Z" stroke="#242630" stroke-width="2" stroke-miterlimit="1.5" stroke-linecap="round" stroke-linejoin="round"/>
<path fill-rule="evenodd" clip-rule="evenodd" d="M288.87 249.494C263.209 237.471 237.554 225.435 211.887 213.425C206.059 210.698 199.852 208.874 193.427 208.342C190.916 208.135 186.748 208.963 185.17 206.456C184.447 205.306 184.881 203.558 185.217 202.357C185.685 200.68 186.401 199.071 187.239 197.547C187.819 196.493 188.492 195.494 189.312 194.611C189.904 193.974 190.551 193.37 191.264 192.87C195.532 189.88 198.426 195.677 200.743 198.414C202.527 200.521 204.72 202.203 207.024 203.702C215.036 208.913 223.953 212.481 232.588 216.498C252.144 225.597 271.651 234.8 291.182 243.951C292.997 244.802 289.6 247.631 288.87 249.494Z" fill="#FFE38C"/>
<mask id="mask9_566_2371" style="mask-type:luminance" maskUnits="userSpaceOnUse" x="184" y="192" width="108" height="58">
<path d="M288.87 249.494C263.209 237.471 237.554 225.435 211.887 213.425C206.059 210.698 199.852 208.874 193.427 208.342C190.916 208.135 186.748 208.963 185.17 206.456C184.447 205.306 184.881 203.558 185.217 202.357C185.685 200.68 186.401 199.071 187.239 197.547C187.819 196.493 188.492 195.494 189.312 194.611C189.904 193.974 190.551 193.37 191.264 192.87C195.532 189.88 198.426 195.677 200.743 198.414C202.527 200.521 204.72 202.203 207.024 203.702C215.036 208.913 223.953 212.481 232.588 216.498C252.144 225.597 271.651 234.8 291.182 243.951C292.997 244.802 289.6 247.631 288.87 249.494Z" fill="white"/>
</mask>
<g mask="url(#mask9_566_2371)">
<path fill-rule="evenodd" clip-rule="evenodd" d="M179.802 198.671C183.479 195.499 186.6 200.636 190.052 201.476C191.56 201.843 193.152 201.474 194.652 201.893C195.83 202.223 196.416 203.185 197.363 203.86C198.219 204.471 199.322 204.546 200.202 205.11C201.67 206.049 202.221 207.958 203.794 208.786C206.259 210.083 209.166 210.468 211.652 211.625C214.357 212.884 216.77 214.66 219.317 216.196C223.235 218.56 227.323 220.726 231.595 222.379" fill="#242630"/>
<path d="M179.802 198.671C183.479 195.499 186.6 200.636 190.052 201.476C191.56 201.843 193.152 201.474 194.652 201.893C195.83 202.223 196.416 203.185 197.363 203.86C198.219 204.471 199.322 204.546 200.202 205.11C201.67 206.049 202.221 207.958 203.794 208.786C206.259 210.083 209.166 210.468 211.652 211.625C214.357 212.884 216.77 214.66 219.317 216.196C223.235 218.56 227.323 220.726 231.595 222.379" stroke="#242630" stroke-width="2" stroke-miterlimit="1.5" stroke-linecap="round" stroke-linejoin="round"/>
</g>
<path fill-rule="evenodd" clip-rule="evenodd" d="M288.87 249.494C263.209 237.471 237.554 225.435 211.887 213.425C206.059 210.698 199.852 208.874 193.427 208.342C190.916 208.135 186.748 208.963 185.17 206.456C184.447 205.306 184.881 203.558 185.217 202.357C185.685 200.68 186.401 199.071 187.239 197.547C187.819 196.493 188.492 195.494 189.312 194.611C189.904 193.974 190.551 193.37 191.264 192.87C195.532 189.88 198.426 195.677 200.743 198.414C202.527 200.521 204.72 202.203 207.024 203.702C215.036 208.913 223.953 212.481 232.588 216.498C252.144 225.597 271.651 234.8 291.182 243.951C292.997 244.802 289.6 247.631 288.87 249.494Z" stroke="#242630" stroke-width="2" stroke-miterlimit="1.5" stroke-linecap="round" stroke-linejoin="round"/>
<path fill-rule="evenodd" clip-rule="evenodd" d="M305.31 256.312C303.552 256.441 301.825 256.77 300.208 257.287C297.657 258.102 294.573 259.381 295.14 262.715C295.544 265.086 297.926 266.202 300.099 267.433L278.802 312.889C274.166 313.715 270.479 312.181 267.935 307.798L300.088 239.173L310.955 244.264L305.31 256.312Z" fill="#FFE38C"/>
<mask id="mask10_566_2371" style="mask-type:luminance" maskUnits="userSpaceOnUse" x="267" y="239" width="44" height="75">
<path d="M305.31 256.312C303.552 256.441 301.825 256.77 300.208 257.287C297.657 258.102 294.573 259.381 295.14 262.715C295.544 265.086 297.926 266.202 300.099 267.433L278.802 312.889C274.166 313.715 270.479 312.181 267.935 307.798L300.088 239.173L310.955 244.264L305.31 256.312Z" fill="white"/>
</mask>
<g mask="url(#mask10_566_2371)">
<path fill-rule="evenodd" clip-rule="evenodd" d="M265.924 309.849C267.943 313.495 271.181 309.478 272.969 307.732C276.788 304.144 277.75 299.37 279.134 293.869C279.811 291.176 280.958 288.457 282.524 286.165C283.703 284.438 285.299 283.178 286.157 281.233C287.037 279.239 286.775 276.999 287.59 275.022C288.096 273.796 289.341 273.358 289.953 272.263C291.075 270.254 291.206 268.49 293.078 266.865C296.421 263.962 301.805 262.2 303.356 257.666C305.029 252.773 299.907 247.98 301.865 243.238C302.583 241.497 305.94 240.41 305.177 238.205C304.001 234.807 300.809 236.451 299 238.715C294.61 244.212 291.501 250.575 288.318 256.796C284.745 263.779 282.356 270.806 279.713 278.156C277.112 285.387 273.951 292.576 270.482 299.433C268.976 302.41 267.091 305.231 265.71 308.283C265.731 308.704 265.694 309.427 265.909 309.821C265.914 309.83 265.919 309.839 265.924 309.849Z" fill="#242630" stroke="#242630" stroke-width="2" stroke-miterlimit="1.5" stroke-linecap="round" stroke-linejoin="round"/>
</g>
<path fill-rule="evenodd" clip-rule="evenodd" d="M305.31 256.312C303.552 256.441 301.825 256.77 300.208 257.287C297.657 258.102 294.573 259.381 295.14 262.715C295.544 265.086 297.926 266.202 300.099 267.433L278.802 312.889C274.166 313.715 270.479 312.181 267.935 307.798L300.088 239.173L310.955 244.264L305.31 256.312Z" stroke="#242630" stroke-width="2" stroke-miterlimit="1.5" stroke-linecap="round" stroke-linejoin="round"/>
<path fill-rule="evenodd" clip-rule="evenodd" d="M300.087 239.173L289.221 234.081L257.068 302.706C259.611 307.089 263.299 308.624 267.934 307.798L300.087 239.173Z" fill="#FFE38C"/>
<mask id="mask11_566_2371" style="mask-type:luminance" maskUnits="userSpaceOnUse" x="257" y="234" width="44" height="75">
<path d="M300.087 239.173L289.221 234.081L257.068 302.706C259.611 307.089 263.299 308.624 267.934 307.798L300.087 239.173Z" fill="white"/>
</mask>
<g mask="url(#mask11_566_2371)">
<path fill-rule="evenodd" clip-rule="evenodd" d="M283.524 243.23C284.493 241.087 285.645 239.042 287.256 237.275C288.376 236.045 289.701 234.904 291.092 233.99C296.307 230.56 300.445 236.061 300.81 240.813C301.037 243.763 298.911 247.319 297.292 249.604C294.847 253.057 291.716 255.538 288.403 258.047C287.979 258.211 287.566 258.37 287.182 258.538C285.311 259.354 283.719 260.722 282.268 262.137C279.794 264.549 277.549 267.443 276.306 270.694C275.493 272.82 275.506 275.208 274.421 277.234C273.392 279.156 271.466 280.329 270.411 282.189C269.756 283.342 270.178 284.593 269.692 285.749C268.917 287.593 267.034 288.682 266.166 290.475C265.522 291.805 266.014 293.232 265.321 294.616C264.329 296.599 262.675 298.002 262.005 300.179C261.037 303.327 261.088 307.002 258.971 309.71C257.783 311.23 255.122 311.125 254.162 313.01C253.308 314.689 254.444 317.962 252.237 318.719C248.836 319.886 248.165 316.358 248.835 313.539C250.461 306.695 253.56 300.327 256.5 293.988C259.801 286.871 263.866 280.662 268.028 274.052C272.123 267.55 275.84 260.632 279.105 253.676C280.249 251.24 281.16 248.672 282.286 246.212C282.678 245.209 283.082 244.21 283.524 243.23Z" fill="#242630" stroke="#242630" stroke-width="2" stroke-miterlimit="1.5" stroke-linecap="round" stroke-linejoin="round"/>
</g>
<path fill-rule="evenodd" clip-rule="evenodd" d="M300.087 239.173L289.221 234.081L257.068 302.706C259.611 307.089 263.299 308.624 267.934 307.798L300.087 239.173Z" stroke="#242630" stroke-width="2" stroke-miterlimit="1.5" stroke-linecap="round" stroke-linejoin="round"/>
<path fill-rule="evenodd" clip-rule="evenodd" d="M289.221 234.081L278.354 228.99L246.201 297.615C248.745 301.998 252.433 303.532 257.068 302.706L289.221 234.081Z" fill="#FFE38C" stroke="#242630" stroke-width="2" stroke-miterlimit="1.5" stroke-linecap="round" stroke-linejoin="round"/>
<path fill-rule="evenodd" clip-rule="evenodd" d="M468.339 276.04C480.334 281.66 481.327 304.887 470.556 327.877C459.784 350.867 441.301 364.969 429.306 359.349C417.312 353.729 416.319 330.502 427.09 307.512C437.861 284.522 456.345 270.42 468.339 276.04Z" fill="#FFE38C"/>
<mask id="mask12_566_2371" style="mask-type:luminance" maskUnits="userSpaceOnUse" x="419" y="274" width="60" height="87">
<path d="M468.339 276.04C480.334 281.66 481.327 304.887 470.556 327.877C459.784 350.867 441.301 364.969 429.306 359.349C417.312 353.729 416.319 330.502 427.09 307.512C437.861 284.522 456.345 270.42 468.339 276.04Z" fill="white"/>
</mask>
<g mask="url(#mask12_566_2371)">
<path fill-rule="evenodd" clip-rule="evenodd" d="M441.815 270.145C433.432 278.378 427.176 288.654 422.453 299.387C420.331 304.209 418.399 310.838 420.229 316.08C422.656 323.03 430.517 326.411 437.502 325.949C450.303 325.102 463.176 318.338 472.36 309.565C479.001 303.22 486.484 294.078 485.63 284.249C485.192 279.212 483.165 274.454 479.436 271.019C476.89 268.674 474.225 266.072 471.05 264.604C460.943 259.933 449.588 263.722 441.287 270.005C441.199 270.071 441.815 270.145 441.815 270.145Z" fill="#242630" stroke="#242630" stroke-width="2" stroke-miterlimit="1.5" stroke-linecap="round" stroke-linejoin="round"/>
</g>
<path fill-rule="evenodd" clip-rule="evenodd" d="M468.339 276.04C480.334 281.66 481.327 304.887 470.556 327.877C459.784 350.867 441.301 364.969 429.306 359.349C417.312 353.729 416.319 330.502 427.09 307.512C437.861 284.522 456.345 270.42 468.339 276.04Z" stroke="#242630" stroke-width="2" stroke-miterlimit="1.5" stroke-linecap="round" stroke-linejoin="round"/>
<path fill-rule="evenodd" clip-rule="evenodd" d="M303.967 256.45L272.416 241.668L274.961 236.234L369.137 280.359C382.131 286.447 387.738 301.939 381.65 314.934C375.561 327.928 360.069 333.535 347.075 327.446L285.498 298.596L288.044 293.163L349.62 322.013C359.616 326.696 371.533 322.384 376.216 312.388C380.9 302.392 376.587 290.475 366.591 285.792L332.95 270.03C331.498 265.484 326.485 265.821 322.731 263.798C320.517 262.604 319.164 259.985 316.899 258.699C313.11 256.549 308.374 255.865 303.967 256.45Z" fill="#FFE38C"/>
<mask id="mask13_566_2371" style="mask-type:luminance" maskUnits="userSpaceOnUse" x="272" y="236" width="113" height="94">
<path d="M303.967 256.45L272.416 241.668L274.961 236.234L369.137 280.359C382.131 286.447 387.738 301.939 381.65 314.934C375.561 327.928 360.069 333.535 347.075 327.446L285.498 298.596L288.044 293.163L349.62 322.013C359.616 326.696 371.533 322.384 376.216 312.388C380.9 302.392 376.587 290.475 366.591 285.792L332.95 270.03C331.498 265.484 326.485 265.821 322.731 263.798C320.517 262.604 319.164 259.985 316.899 258.699C313.11 256.549 308.374 255.865 303.967 256.45Z" fill="white"/>
</mask>
<g mask="url(#mask13_566_2371)">
<path fill-rule="evenodd" clip-rule="evenodd" d="M283.958 247.681C286.747 246.729 289.846 248.032 292.406 249.121C294.301 249.928 296.656 249.959 298.41 250.979C300.976 252.471 303.134 255.14 305.801 256.344C307.078 256.92 308.759 256.923 309.917 257.708C311.41 258.719 312.507 260.107 314.204 260.814C315.677 261.427 317.395 261.018 318.779 261.675C319.932 262.224 320.753 263.249 321.951 263.747C323.469 264.378 325.86 263.443 327.068 264.203C327.92 264.738 328.368 265.692 329.211 266.202C329.858 266.594 330.835 266.252 331.414 266.694C332.53 267.547 332.981 268.862 333.976 269.795C334.656 270.432 336.042 269.044 336.6 269.31C337.66 269.815 337.464 271.727 338.475 272.155C339.481 272.58 340.778 271.716 341.625 272.047C342.181 272.264 342.654 274.42 343.091 274.371C343.637 274.309 345.961 273.325 346.259 273.489C347.284 274.057 347.105 275.545 347.85 276.251C348.533 276.899 351.649 276.921 352.68 277.31C354.508 277.999 357.489 278.931 358.853 280.153C359.568 280.794 360.054 282.037 360.899 282.488C361.555 282.838 362.861 282.255 363.281 282.574C364.409 283.431 365.227 285.192 366.772 285.4C367.409 285.485 368.305 285.032 368.845 285.171C371.585 285.877 373.267 292.19 372.955 294.417C372.613 296.859 367.616 296.777 365.85 296.372C357.851 294.537 351.692 289.334 344.779 285.226C337.232 280.743 329.087 277.511 321.563 273.049C313.749 268.414 306.346 262.862 298.205 258.807C292.429 255.93 286.523 254.309 280.628 252.014C279.61 251.618 283.958 247.681 283.958 247.681Z" fill="#242630" stroke="#242630" stroke-width="2" stroke-miterlimit="1.5" stroke-linecap="round" stroke-linejoin="round"/>
<path fill-rule="evenodd" clip-rule="evenodd" d="M276.434 294.887C279.223 293.934 282.322 295.237 284.881 296.326C286.777 297.133 289.131 297.164 290.886 298.184C293.451 299.676 295.61 302.345 298.277 303.549C299.554 304.125 301.235 304.128 302.393 304.913C303.885 305.925 304.982 307.313 306.679 308.019C308.153 308.632 309.871 308.223 311.254 308.881C312.408 309.429 313.229 310.454 314.426 310.952C315.945 311.583 318.335 310.648 319.544 311.408C320.396 311.943 320.843 312.897 321.686 313.407C322.334 313.799 323.311 313.457 323.889 313.899C325.005 314.753 325.457 316.067 326.452 317C327.132 317.637 328.517 316.249 329.076 316.515C330.136 317.02 329.939 318.932 330.951 319.36C331.956 319.786 333.253 318.921 334.101 319.252C334.656 319.47 335.13 321.625 335.566 321.576C336.113 321.515 338.436 320.53 338.734 320.694C339.76 321.262 339.58 322.75 340.325 323.456C341.008 324.104 344.125 324.126 345.155 324.515C346.984 325.204 349.964 326.136 351.328 327.358C352.044 327.999 352.529 329.242 353.374 329.693C354.03 330.043 355.336 329.461 355.756 329.78C356.884 330.636 357.702 332.397 359.247 332.605C359.884 332.691 360.78 332.237 361.321 332.376C364.06 333.082 365.743 339.395 365.431 341.622C365.089 344.064 360.092 343.982 358.325 343.577C350.326 341.743 344.168 336.539 337.254 332.432C329.708 327.948 321.562 324.716 314.039 320.254C306.224 315.619 298.821 310.067 290.68 306.012C284.905 303.135 278.998 301.514 273.104 299.219C272.085 298.823 276.434 294.887 276.434 294.887Z" fill="#242630" stroke="#242630" stroke-width="2" stroke-miterlimit="1.5" stroke-linecap="round" stroke-linejoin="round"/>
</g>
<path fill-rule="evenodd" clip-rule="evenodd" d="M303.967 256.45L272.416 241.668L274.961 236.234L369.137 280.359C382.131 286.447 387.738 301.939 381.65 314.934C375.561 327.928 360.069 333.535 347.075 327.446L285.498 298.596L288.044 293.163L349.62 322.013C359.616 326.696 371.533 322.384 376.216 312.388C380.9 302.392 376.587 290.475 366.591 285.792L332.95 270.03C331.498 265.484 326.485 265.821 322.731 263.798C320.517 262.604 319.164 259.985 316.899 258.699C313.11 256.549 308.374 255.865 303.967 256.45Z" stroke="#242630" stroke-width="2" stroke-miterlimit="1.5" stroke-linecap="round" stroke-linejoin="round"/>
<path fill-rule="evenodd" clip-rule="evenodd" d="M193.629 285.746C195.528 285.372 197.423 284.968 199.3 284.563C202.418 283.934 205.547 283.489 208.068 282.851C211.245 282.204 214.406 281.494 217.528 280.66C220.61 279.836 224.981 279.245 227.384 276.912C234.12 270.372 237.154 257.845 238.517 248.662C238.99 245.475 238.24 240.919 239.653 237.922C241.518 233.964 246.847 233.129 249.827 230.226C253.743 226.412 256.831 221.315 261.332 218.147C263.631 216.529 266.485 216.932 268.742 215.424C272.627 212.828 274.558 210.191 279.331 208.819C283.711 207.56 288.251 206.915 292.677 205.837C294.766 205.328 297.159 204.201 299.285 205.124C303.523 206.966 304.453 212.678 306.221 216.435C307.732 216.448 309.557 215.241 310.676 214.636C313.869 212.908 317.163 210.021 320.694 209.189C324.185 208.366 324.565 212.491 323.999 214.968C323.31 217.982 320.585 219.464 318.151 221.02C317.647 221.342 316.06 221.614 316.586 221.897C318.146 222.737 319.608 222.411 321.265 222.194C323.899 221.849 326.651 221.452 329.312 221.518C331.212 221.566 332.189 222.47 331.222 224.338C331.019 224.73 330.781 225.102 330.529 225.464C330.158 226 329.658 226.431 329.166 226.851C328.35 227.546 327.477 228.158 326.496 228.598C318.417 232.217 308.411 228.602 301.307 235.02C295.959 239.85 291.391 245.32 288.021 251.704C282.357 262.43 279.084 274.589 270.538 283.54C256.678 298.054 236.087 302.258 218.286 309.88C210.878 313.052 201.256 317.713 195.859 309.225C192.552 304.026 188.686 299.148 185.909 293.625C185.145 292.106 183.47 289.097 184.842 287.478C185.433 286.781 188.075 286.733 188.981 286.586C190.528 286.336 192.08 286.051 193.629 285.746Z" fill="#FFE38C"/>
<mask id="mask14_566_2371" style="mask-type:luminance" maskUnits="userSpaceOnUse" x="184" y="204" width="148" height="111">
<path d="M193.629 285.746C195.528 285.372 197.423 284.968 199.3 284.563C202.418 283.934 205.547 283.489 208.068 282.851C211.245 282.204 214.406 281.494 217.528 280.66C220.61 279.836 224.981 279.245 227.384 276.912C234.12 270.372 237.154 257.845 238.517 248.662C238.99 245.475 238.24 240.919 239.653 237.922C241.518 233.964 246.847 233.129 249.827 230.226C253.743 226.412 256.831 221.315 261.332 218.147C263.631 216.529 266.485 216.932 268.742 215.424C272.627 212.828 274.558 210.191 279.331 208.819C283.711 207.56 288.251 206.915 292.677 205.837C294.766 205.328 297.159 204.201 299.285 205.124C303.523 206.966 304.453 212.678 306.221 216.435C307.732 216.448 309.557 215.241 310.676 214.636C313.869 212.908 317.163 210.021 320.694 209.189C324.185 208.366 324.565 212.491 323.999 214.968C323.31 217.982 320.585 219.464 318.151 221.02C317.647 221.342 316.06 221.614 316.586 221.897C318.146 222.737 319.608 222.411 321.265 222.194C323.899 221.849 326.651 221.452 329.312 221.518C331.212 221.566 332.189 222.47 331.222 224.338C331.019 224.73 330.781 225.102 330.529 225.464C330.158 226 329.658 226.431 329.166 226.851C328.35 227.546 327.477 228.158 326.496 228.598C318.417 232.217 308.411 228.602 301.307 235.02C295.959 239.85 291.391 245.32 288.021 251.704C282.357 262.43 279.084 274.589 270.538 283.54C256.678 298.054 236.087 302.258 218.286 309.88C210.878 313.052 201.256 317.713 195.859 309.225C192.552 304.026 188.686 299.148 185.909 293.625C185.145 292.106 183.47 289.097 184.842 287.478C185.433 286.781 188.075 286.733 188.981 286.586C190.528 286.336 192.08 286.051 193.629 285.746Z" fill="white"/>
</mask>
<g mask="url(#mask14_566_2371)">
<path d="M278.343 243.336C282.265 238.686 286.077 233.919 290.103 229.36C291.967 227.249 293.975 224.509 296.665 223.324C301.062 221.386 305.999 222.505 310.625 222.727C316.093 222.989 321.759 222.654 326.985 220.977" stroke="#242630" stroke-width="2" stroke-miterlimit="1.5" stroke-linecap="round" stroke-linejoin="round"/>
<path d="M268.564 238.574C270.284 236.202 271.694 233.637 273.956 231.719C275.602 230.323 277.864 229.529 279.706 228.417C291.146 221.507 304.642 219.193 315.716 211.62" stroke="#242630" stroke-width="2" stroke-miterlimit="1.5" stroke-linecap="round" stroke-linejoin="round"/>
<path d="M255.407 237.27C255.285 235.505 255.045 233.763 255.729 232.076C257.048 228.819 260.642 226.628 262.839 223.969C266.155 219.955 268.553 215.525 272.421 211.92" stroke="#242630" stroke-width="2" stroke-miterlimit="1.5" stroke-linecap="round" stroke-linejoin="round"/>
<path d="M279.951 227.886C280.898 226.396 281.953 224.747 282.433 223.019C282.489 222.815 282.664 221.222 282.793 221.141C283.296 220.826 284.577 220.896 285.182 220.671C287.803 219.694 290.549 217.92 292.628 216.054C293.187 215.552 293.838 215.081 294.328 214.514C294.399 214.431 294.752 213.897 294.912 213.966C295.048 214.024 295.012 214.539 295.015 214.651C295.039 215.378 294.892 216.08 294.734 216.785C294.354 218.481 295.073 219.27 296.575 220.051" stroke="#242630" stroke-width="2" stroke-miterlimit="1.5" stroke-linecap="round" stroke-linejoin="round"/>
<path d="M289.542 219.102C290.549 220.111 291.495 221.118 292.553 222.08C291.922 221.484 291.303 220.875 290.671 220.28" stroke="#242630" stroke-width="2" stroke-miterlimit="1.5" stroke-linecap="round" stroke-linejoin="round"/>
</g>
<path fill-rule="evenodd" clip-rule="evenodd" d="M193.629 285.746C195.528 285.372 197.423 284.968 199.3 284.563C202.418 283.934 205.547 283.489 208.068 282.851C211.245 282.204 214.406 281.494 217.528 280.66C220.61 279.836 224.981 279.245 227.384 276.912C234.12 270.372 237.154 257.845 238.517 248.662C238.99 245.475 238.24 240.919 239.653 237.922C241.518 233.964 246.847 233.129 249.827 230.226C253.743 226.412 256.831 221.315 261.332 218.147C263.631 216.529 266.485 216.932 268.742 215.424C272.627 212.828 274.558 210.191 279.331 208.819C283.711 207.56 288.251 206.915 292.677 205.837C294.766 205.328 297.159 204.201 299.285 205.124C303.523 206.966 304.453 212.678 306.221 216.435C307.732 216.448 309.557 215.241 310.676 214.636C313.869 212.908 317.163 210.021 320.694 209.189C324.185 208.366 324.565 212.491 323.999 214.968C323.31 217.982 320.585 219.464 318.151 221.02C317.647 221.342 316.06 221.614 316.586 221.897C318.146 222.737 319.608 222.411 321.265 222.194C323.899 221.849 326.651 221.452 329.312 221.518C331.212 221.566 332.189 222.47 331.222 224.338C331.019 224.73 330.781 225.102 330.529 225.464C330.158 226 329.658 226.431 329.166 226.851C328.35 227.546 327.477 228.158 326.496 228.598C318.417 232.217 308.411 228.602 301.307 235.02C295.959 239.85 291.391 245.32 288.021 251.704C282.357 262.43 279.084 274.589 270.538 283.54C256.678 298.054 236.087 302.258 218.286 309.88C210.878 313.052 201.256 317.713 195.859 309.225C192.552 304.026 188.686 299.148 185.909 293.625C185.145 292.106 183.47 289.097 184.842 287.478C185.433 286.781 188.075 286.733 188.981 286.586C190.528 286.336 192.08 286.051 193.629 285.746Z" stroke="#242630" stroke-width="2" stroke-miterlimit="1.5" stroke-linecap="round" stroke-linejoin="round"/>
<path fill-rule="evenodd" clip-rule="evenodd" d="M171.053 287.846C170.997 287.63 170.941 287.413 170.886 287.196C170.893 287.178 170.907 287.166 170.929 287.164C175.416 286.722 179.902 286.251 184.362 285.585C188.017 285.038 191.586 283.986 195.269 283.622C196.645 283.486 198.513 283.216 199.847 283.674C202.032 284.423 202.875 287.577 204.132 289.369C210.67 298.691 214.113 309.829 218.269 320.323C219.246 322.79 220.222 325.272 220.992 327.814C221.201 328.508 221.999 330.207 221.429 330.839C219.646 332.816 215.228 332.691 212.742 333.552C209.55 334.657 206.302 335.742 202.93 336.13C189.4 337.684 185.062 323.328 180.451 313.517C178.332 309.01 176.483 304.388 174.825 299.695C173.424 295.775 172.109 291.87 171.053 287.846Z" fill="white" stroke="#242630" stroke-width="2" stroke-miterlimit="1.5" stroke-linecap="round" stroke-linejoin="round"/>
<path fill-rule="evenodd" clip-rule="evenodd" d="M86.3098 294.416C118.072 290.295 149.943 287.103 181.673 282.714C183.345 282.483 185.022 282.279 186.705 282.14C187.059 282.111 187.552 281.998 187.983 282.014C189.772 285.934 191.472 289.927 193.341 293.814C194.982 297.227 196.546 300.663 198.191 304.107C203.631 315.498 209.215 327.05 212.907 339.148C214.298 343.705 216.117 348.514 216.356 353.303C214.579 353.887 212.5 354.083 211.125 354.311C200.206 356.12 189.185 357.172 178.213 358.589C170.929 359.53 163.704 360.816 156.441 361.901C151.649 362.616 146.807 363.003 142.022 363.723C138.423 364.266 134.99 365.209 131.387 364.041C130.64 363.799 130.039 362.413 129.64 361.798C126.3 356.644 121.526 351.877 116.032 349.055C111.954 346.961 107.321 346.193 103.748 343.128C97.9368 338.144 106.036 331.301 109.109 327.434C110.507 325.674 112.113 323.681 110.858 321.438C109.567 319.132 106.541 318.054 104.222 317.14C97.6138 314.534 89.7588 311.495 86.1468 304.922C84.3368 301.629 83.5428 297.434 86.3098 294.416Z" fill="#C1EDFC" stroke="#242630" stroke-width="2" stroke-miterlimit="1.5" stroke-linecap="round" stroke-linejoin="round"/>
<defs>
<filter id="filter0_d_566_2371" x="7.02246" y="24.125" width="499.955" height="471.75" filterUnits="userSpaceOnUse" color-interpolation-filters="sRGB">
<feFlood flood-opacity="0" result="BackgroundImageFix"/>
<feColorMatrix in="SourceAlpha" type="matrix" values="0 0 0 0 0 0 0 0 0 0 0 0 0 0 0 0 0 0 127 0" result="hardAlpha"/>
<feOffset dx="2" dy="8"/>
<feComposite in2="hardAlpha" operator="out"/>
<feColorMatrix type="matrix" values="0 0 0 0 0 0 0 0 0 0 0 0 0 0 0 0 0 0 0.2 0"/>
<feBlend mode="normal" in2="BackgroundImageFix" result="effect1_dropShadow_566_2371"/>
<feBlend mode="normal" in="SourceGraphic" in2="effect1_dropShadow_566_2371" result="shape"/>
</filter>
</defs>
</svg>
