<svg width="512" height="512" viewBox="0 0 512 512" fill="none" xmlns="http://www.w3.org/2000/svg">
<g filter="url(#filter0_d_556_366)">
<path fill-rule="evenodd" clip-rule="evenodd" d="M479.491 49.92C479.491 40.03 471.462 32 461.571 32H49.42C39.53 32 31.5 40.03 31.5 49.92V462.08C31.5 471.97 39.53 480 49.42 480H461.571C471.462 480 479.491 471.97 479.491 462.08V49.92Z" fill="white"/>
</g>
<path fill-rule="evenodd" clip-rule="evenodd" d="M308.958 448C308.964 447.965 308.97 447.93 308.975 447.896C309.526 444.598 310.661 441.439 311.612 438.245C314.698 427.884 320.069 417.846 327.642 410.069C330.289 407.349 333.841 405.889 336.586 403.402C337.101 402.861 337.574 402.299 338.01 401.718C340.645 398.201 341.9 393.988 342.824 389.654C344.675 380.965 345.021 371.811 345.84 362.976C346.273 360.722 347.272 358.671 349.3 357.038C354.847 352.57 362.102 360.525 366.998 362.549C370.68 364.072 374.382 362.879 375.409 358.782C375.711 357.58 375.855 356.318 375.819 355.078C375.772 353.478 374.96 350.515 376.261 349.199C377.215 348.235 379.906 349.118 380.98 349.392C385.51 350.546 388.61 354.411 392.12 357.322C393.788 358.705 396.714 361.764 398.664 359.131C400.14 357.138 399.165 354.319 398.105 352.372C396.039 348.572 391.361 344.026 392.777 339.295C394.844 332.387 402.766 335.884 407.372 332.496C412.292 328.877 414.825 322.225 418.691 317.61C420.443 315.518 422.618 313.329 425.368 312.68C432.752 310.939 437.481 318.921 440.715 324.191C442.846 327.664 445.286 331.154 447.491 334.771V448H308.958Z" fill="#FFE38C" stroke="#242630" stroke-width="2" stroke-miterlimit="1.5" stroke-linecap="round" stroke-linejoin="round"/>
<path fill-rule="evenodd" clip-rule="evenodd" d="M360.783 415.089C356.754 414.206 355.299 413.777 350.945 412.327C349.507 411.848 347.95 411.202 346.996 410.533C346.507 410.191 346.165 409.779 346.385 409.303C346.893 408.205 347.206 407.655 348.804 406.082C351.151 403.773 353.463 402.325 354.637 403.937C357.649 408.07 358.76 410.966 360.783 415.089Z" stroke="#242630" stroke-width="2" stroke-miterlimit="1.5" stroke-linecap="round" stroke-linejoin="round"/>
<path d="M371.127 378.392C371.849 377.393 372.488 376.332 373.031 375.224C376.596 367.956 366.51 367.282 362.336 365.066C360.966 364.338 360.004 363.179 359.116 361.945" stroke="#242630" stroke-width="2" stroke-miterlimit="1.5" stroke-linecap="round" stroke-linejoin="round"/>
<path d="M389.899 367.684C396.051 365.057 401.003 361.181 406.363 357.292" stroke="#242630" stroke-width="2" stroke-miterlimit="1.5" stroke-linecap="round" stroke-linejoin="round"/>
<path d="M357.981 425.899C349.457 423.516 341.901 418.663 338.785 410.05" stroke="#242630" stroke-width="2" stroke-miterlimit="1.5" stroke-linecap="round" stroke-linejoin="round"/>
<path d="M352.565 401.642C356.308 398.935 361.109 402.701 364.714 403.99" stroke="#242630" stroke-width="2" stroke-miterlimit="1.5" stroke-linecap="round" stroke-linejoin="round"/>
<path d="M358.542 417.981C354.885 416.848 350.802 415.419 347.809 412.914C345.812 411.243 344.911 408.238 342.31 407.352" stroke="#242630" stroke-width="2" stroke-miterlimit="1.5" stroke-linecap="round" stroke-linejoin="round"/>
<path d="M353.236 402.833C352.009 401.849 350.651 400.587 350.185 399.024" stroke="#242630" stroke-width="2" stroke-miterlimit="1.5" stroke-linecap="round" stroke-linejoin="round"/>
<path d="M425.432 421.746C427.154 421.821 428.91 421.99 430.553 422.384C436.404 423.787 438.259 427.501 437.318 431.632C436.041 437.234 433.064 442.501 431.278 448" stroke="#242630" stroke-width="2" stroke-miterlimit="1.5" stroke-linecap="round" stroke-linejoin="round"/>
<path d="M410.199 441.063C413.827 438.847 414.979 433.87 419.216 432.635C420.336 432.309 421.759 435.701 422.091 436.27C424.699 440.73 426.75 442.372 425.251 448" stroke="#242630" stroke-width="2" stroke-miterlimit="1.5" stroke-linecap="round" stroke-linejoin="round"/>
<path d="M417.979 443.03C415.817 441.879 413.638 441.207 411.182 441.156" stroke="#242630" stroke-width="2" stroke-miterlimit="1.5" stroke-linecap="round" stroke-linejoin="round"/>
<path fill-rule="evenodd" clip-rule="evenodd" d="M63.491 309.467C63.526 309.473 63.561 309.479 63.595 309.484C66.893 310.035 70.052 311.17 73.246 312.121C83.607 315.207 93.645 320.578 101.423 328.151C104.142 330.798 105.602 334.35 108.089 337.095C108.63 337.61 109.192 338.083 109.773 338.519C113.29 341.154 117.503 342.409 121.837 343.333C130.526 345.184 139.68 345.53 148.515 346.349C150.769 346.782 152.82 347.781 154.453 349.809C158.921 355.356 150.966 362.611 148.942 367.507C147.419 371.189 148.612 374.891 152.709 375.918C153.911 376.22 155.173 376.364 156.413 376.328C158.013 376.281 160.976 375.469 162.292 376.77C163.257 377.724 162.373 380.415 162.099 381.489C160.945 386.019 157.081 389.119 154.169 392.629C152.786 394.297 149.727 397.223 152.36 399.173C154.353 400.649 157.172 399.674 159.119 398.614C162.919 396.548 167.465 391.87 172.196 393.286C179.104 395.353 175.607 403.275 178.995 407.881C182.614 412.801 189.266 415.333 193.881 419.2C195.973 420.952 198.162 423.127 198.811 425.877C200.552 433.261 192.57 437.99 187.3 441.224C183.827 443.355 180.337 445.795 176.72 448H63.491V309.467Z" fill="#FFE38C" stroke="#242630" stroke-width="2" stroke-miterlimit="1.5" stroke-linecap="round" stroke-linejoin="round"/>
<mask id="mask0_556_366" style="mask-type:luminance" maskUnits="userSpaceOnUse" x="96" y="346" width="13" height="16">
<path d="M96.4019 361.292C97.2849 357.263 97.7139 355.808 99.1639 351.454C99.6429 350.016 100.289 348.459 100.958 347.505C101.3 347.016 101.712 346.674 102.188 346.894C103.286 347.402 103.836 347.715 105.409 349.313C107.718 351.66 109.166 353.972 107.554 355.146C103.421 358.158 100.525 359.269 96.4019 361.292Z" fill="white"/>
</mask>
<g mask="url(#mask0_556_366)">
<path fill-rule="evenodd" clip-rule="evenodd" d="M98.7798 350.176C99.5278 351.456 100.29 352.392 101.462 353.238C102.247 353.805 103.075 354.255 103.966 354.543C105.831 355.146 109.475 355.087 108.676 351.901C107.683 347.938 102.328 344.616 99.2538 347.335C98.8498 347.693 98.7798 350.176 98.7798 350.176Z" stroke="#242630" stroke-width="2" stroke-miterlimit="1.5" stroke-linecap="round" stroke-linejoin="round"/>
</g>
<path fill-rule="evenodd" clip-rule="evenodd" d="M96.4019 361.292C97.2849 357.263 97.7139 355.808 99.1639 351.454C99.6429 350.016 100.289 348.459 100.958 347.505C101.3 347.016 101.712 346.674 102.188 346.894C103.286 347.402 103.836 347.715 105.409 349.313C107.718 351.66 109.166 353.972 107.554 355.146C103.421 358.158 100.525 359.269 96.4019 361.292Z" stroke="#242630" stroke-width="2" stroke-miterlimit="1.5" stroke-linecap="round" stroke-linejoin="round"/>
<path d="M133.099 371.636C134.098 372.358 135.159 372.997 136.267 373.54C143.535 377.105 144.209 367.019 146.425 362.845C147.153 361.475 148.312 360.513 149.546 359.625" stroke="#242630" stroke-width="2" stroke-miterlimit="1.5" stroke-linecap="round" stroke-linejoin="round"/>
<path d="M143.807 390.408C146.434 396.56 150.31 401.512 154.199 406.872" stroke="#242630" stroke-width="2" stroke-miterlimit="1.5" stroke-linecap="round" stroke-linejoin="round"/>
<path d="M85.592 358.49C87.975 349.966 92.829 342.41 101.441 339.294" stroke="#242630" stroke-width="2" stroke-miterlimit="1.5" stroke-linecap="round" stroke-linejoin="round"/>
<path d="M109.849 353.074C112.556 356.817 108.79 361.618 107.501 365.223" stroke="#242630" stroke-width="2" stroke-miterlimit="1.5" stroke-linecap="round" stroke-linejoin="round"/>
<path d="M93.51 359.051C94.643 355.394 96.072 351.311 98.577 348.318C100.248 346.321 103.253 345.42 104.139 342.819" stroke="#242630" stroke-width="2" stroke-miterlimit="1.5" stroke-linecap="round" stroke-linejoin="round"/>
<path d="M108.658 353.745C109.642 352.518 110.904 351.159 112.467 350.694" stroke="#242630" stroke-width="2" stroke-miterlimit="1.5" stroke-linecap="round" stroke-linejoin="round"/>
<path d="M89.745 425.941C89.67 427.663 89.501 429.419 89.107 431.062C87.704 436.913 83.99 438.768 79.859 437.827C74.257 436.55 68.99 433.573 63.491 431.787" stroke="#242630" stroke-width="2" stroke-miterlimit="1.5" stroke-linecap="round" stroke-linejoin="round"/>
<path d="M70.428 410.708C72.644 414.336 77.621 415.488 78.856 419.725C79.183 420.845 75.79 422.268 75.221 422.6C70.761 425.208 69.119 427.259 63.491 425.76" stroke="#242630" stroke-width="2" stroke-miterlimit="1.5" stroke-linecap="round" stroke-linejoin="round"/>
<path d="M68.4609 418.488C69.6119 416.326 70.2839 414.147 70.3349 411.691" stroke="#242630" stroke-width="2" stroke-miterlimit="1.5" stroke-linecap="round" stroke-linejoin="round"/>
<path fill-rule="evenodd" clip-rule="evenodd" d="M202.024 64C202.018 64.035 202.012 64.07 202.007 64.104C201.456 67.402 200.321 70.561 199.37 73.755C196.284 84.116 190.913 94.154 183.34 101.931C180.693 104.651 177.141 106.111 174.396 108.598C173.881 109.139 173.408 109.701 172.972 110.282C170.337 113.799 169.082 118.012 168.158 122.346C166.307 131.035 165.961 140.189 165.143 149.024C164.709 151.278 163.71 153.329 161.682 154.962C156.135 159.43 148.88 151.475 143.984 149.451C140.302 147.928 136.6 149.121 135.573 153.218C135.271 154.42 135.127 155.682 135.163 156.922C135.21 158.522 136.022 161.485 134.721 162.801C133.768 163.765 131.076 162.882 130.002 162.608C125.472 161.454 122.372 157.589 118.862 154.678C117.194 153.295 114.268 150.236 112.318 152.869C110.842 154.862 111.817 157.681 112.877 159.628C114.943 163.428 119.621 167.974 118.205 172.705C116.138 179.613 108.216 176.116 103.61 179.504C98.69 183.123 96.158 189.775 92.291 194.39C90.539 196.482 88.364 198.671 85.614 199.32C78.23 201.061 73.501 193.079 70.267 187.809C68.136 184.336 65.696 180.846 63.491 177.229V64H202.024Z" fill="#FFE38C" stroke="#242630" stroke-width="2" stroke-miterlimit="1.5" stroke-linecap="round" stroke-linejoin="round"/>
<mask id="mask1_556_366" style="mask-type:luminance" maskUnits="userSpaceOnUse" x="150" y="96" width="15" height="13">
<path d="M150.199 96.911C154.228 97.794 155.683 98.223 160.037 99.673C161.475 100.152 163.032 100.798 163.986 101.467C164.475 101.809 164.817 102.221 164.597 102.697C164.089 103.795 163.776 104.345 162.178 105.918C159.831 108.227 157.519 109.675 156.345 108.063C153.333 103.93 152.222 101.034 150.199 96.911Z" fill="white"/>
</mask>
<g mask="url(#mask1_556_366)">
<path fill-rule="evenodd" clip-rule="evenodd" d="M161.315 99.289C160.035 100.037 159.1 100.799 158.253 101.971C157.686 102.756 157.236 103.584 156.948 104.475C156.345 106.34 156.404 109.984 159.59 109.185C163.553 108.192 166.875 102.837 164.156 99.763C163.798 99.359 161.315 99.289 161.315 99.289Z" stroke="#242630" stroke-width="2" stroke-miterlimit="1.5" stroke-linecap="round" stroke-linejoin="round"/>
</g>
<path fill-rule="evenodd" clip-rule="evenodd" d="M150.199 96.911C154.228 97.794 155.683 98.223 160.037 99.673C161.475 100.152 163.032 100.798 163.986 101.467C164.475 101.809 164.817 102.221 164.597 102.697C164.089 103.795 163.776 104.345 162.178 105.918C159.831 108.227 157.519 109.675 156.345 108.063C153.333 103.93 152.222 101.034 150.199 96.911Z" stroke="#242630" stroke-width="2" stroke-miterlimit="1.5" stroke-linecap="round" stroke-linejoin="round"/>
<path d="M139.855 133.608C139.133 134.607 138.494 135.668 137.951 136.776C134.386 144.044 144.472 144.718 148.646 146.934C150.016 147.662 150.978 148.821 151.866 150.055" stroke="#242630" stroke-width="2" stroke-miterlimit="1.5" stroke-linecap="round" stroke-linejoin="round"/>
<path d="M121.083 144.316C114.931 146.943 109.979 150.819 104.619 154.708" stroke="#242630" stroke-width="2" stroke-miterlimit="1.5" stroke-linecap="round" stroke-linejoin="round"/>
<path d="M153.001 86.101C161.525 88.484 169.081 93.337 172.197 101.95" stroke="#242630" stroke-width="2" stroke-miterlimit="1.5" stroke-linecap="round" stroke-linejoin="round"/>
<path d="M158.417 110.358C154.674 113.065 149.873 109.299 146.268 108.01" stroke="#242630" stroke-width="2" stroke-miterlimit="1.5" stroke-linecap="round" stroke-linejoin="round"/>
<path d="M152.44 94.019C156.097 95.152 160.18 96.581 163.173 99.086C165.17 100.757 166.071 103.762 168.672 104.648" stroke="#242630" stroke-width="2" stroke-miterlimit="1.5" stroke-linecap="round" stroke-linejoin="round"/>
<path d="M157.746 109.167C158.973 110.151 160.332 111.413 160.797 112.976" stroke="#242630" stroke-width="2" stroke-miterlimit="1.5" stroke-linecap="round" stroke-linejoin="round"/>
<path d="M85.55 90.254C83.828 90.179 82.072 90.01 80.429 89.616C74.578 88.213 72.723 84.499 73.664 80.368C74.941 74.766 77.918 69.499 79.704 64" stroke="#242630" stroke-width="2" stroke-miterlimit="1.5" stroke-linecap="round" stroke-linejoin="round"/>
<path d="M100.783 70.937C97.1549 73.153 96.0029 78.13 91.7659 79.365C90.6459 79.691 89.2229 76.299 88.8909 75.73C86.2829 71.27 84.2319 69.628 85.7309 64" stroke="#242630" stroke-width="2" stroke-miterlimit="1.5" stroke-linecap="round" stroke-linejoin="round"/>
<path d="M93.0029 68.97C95.1649 70.121 97.3439 70.793 99.7999 70.844" stroke="#242630" stroke-width="2" stroke-miterlimit="1.5" stroke-linecap="round" stroke-linejoin="round"/>
<path fill-rule="evenodd" clip-rule="evenodd" d="M447.491 202.533C447.456 202.527 447.421 202.521 447.387 202.516C444.089 201.965 440.93 200.83 437.736 199.879C427.375 196.793 417.337 191.422 409.56 183.849C406.84 181.202 405.38 177.65 402.893 174.905C402.352 174.39 401.79 173.917 401.209 173.481C397.692 170.846 393.479 169.591 389.145 168.667C380.456 166.816 371.302 166.47 362.467 165.651C360.213 165.218 358.162 164.219 356.529 162.191C352.061 156.644 360.016 149.389 362.04 144.493C363.563 140.811 362.37 137.109 358.273 136.082C357.071 135.78 355.809 135.636 354.569 135.672C352.969 135.719 350.006 136.531 348.69 135.23C347.726 134.276 348.609 131.585 348.883 130.511C350.037 125.981 353.902 122.881 356.813 119.371C358.196 117.703 361.255 114.777 358.622 112.827C356.629 111.351 353.81 112.326 351.863 113.386C348.063 115.452 343.517 120.13 338.786 118.714C331.878 116.647 335.375 108.725 331.987 104.119C328.368 99.199 321.716 96.667 317.101 92.8C315.009 91.048 312.82 88.873 312.172 86.123C310.43 78.739 318.412 74.01 323.682 70.776C327.155 68.645 330.645 66.205 334.262 64H447.491V202.533Z" fill="#FFE38C" stroke="#242630" stroke-width="2" stroke-miterlimit="1.5" stroke-linecap="round" stroke-linejoin="round"/>
<mask id="mask2_556_366" style="mask-type:luminance" maskUnits="userSpaceOnUse" x="402" y="150" width="13" height="16">
<path d="M414.58 150.708C413.697 154.737 413.268 156.192 411.818 160.546C411.339 161.984 410.693 163.541 410.024 164.495C409.682 164.984 409.27 165.326 408.794 165.106C407.696 164.598 407.146 164.285 405.573 162.687C403.264 160.34 401.816 158.028 403.428 156.854C407.561 153.842 410.457 152.731 414.58 150.708Z" fill="white"/>
</mask>
<g mask="url(#mask2_556_366)">
<path fill-rule="evenodd" clip-rule="evenodd" d="M412.202 161.824C411.454 160.544 410.692 159.608 409.52 158.762C408.735 158.195 407.907 157.745 407.016 157.457C405.151 156.854 401.507 156.913 402.306 160.099C403.299 164.062 408.654 167.384 411.728 164.665C412.132 164.307 412.202 161.824 412.202 161.824Z" stroke="#242630" stroke-width="2" stroke-miterlimit="1.5" stroke-linecap="round" stroke-linejoin="round"/>
</g>
<path fill-rule="evenodd" clip-rule="evenodd" d="M414.58 150.708C413.697 154.737 413.268 156.192 411.818 160.546C411.339 161.984 410.693 163.541 410.024 164.495C409.682 164.984 409.27 165.326 408.794 165.106C407.696 164.598 407.146 164.285 405.573 162.687C403.264 160.34 401.816 158.028 403.428 156.854C407.561 153.842 410.457 152.731 414.58 150.708Z" stroke="#242630" stroke-width="2" stroke-miterlimit="1.5" stroke-linecap="round" stroke-linejoin="round"/>
<path d="M377.883 140.364C376.884 139.642 375.823 139.003 374.716 138.46C367.447 134.895 366.773 144.981 364.557 149.155C363.829 150.525 362.67 151.487 361.436 152.375" stroke="#242630" stroke-width="2" stroke-miterlimit="1.5" stroke-linecap="round" stroke-linejoin="round"/>
<path d="M367.175 121.592C364.548 115.44 360.672 110.488 356.783 105.128" stroke="#242630" stroke-width="2" stroke-miterlimit="1.5" stroke-linecap="round" stroke-linejoin="round"/>
<path d="M425.39 153.51C423.007 162.034 418.154 169.59 409.541 172.706" stroke="#242630" stroke-width="2" stroke-miterlimit="1.5" stroke-linecap="round" stroke-linejoin="round"/>
<path d="M401.133 158.926C398.427 155.183 402.192 150.382 403.481 146.777" stroke="#242630" stroke-width="2" stroke-miterlimit="1.5" stroke-linecap="round" stroke-linejoin="round"/>
<path d="M417.473 152.949C416.339 156.606 414.91 160.689 412.405 163.682C410.734 165.679 407.729 166.58 406.843 169.181" stroke="#242630" stroke-width="2" stroke-miterlimit="1.5" stroke-linecap="round" stroke-linejoin="round"/>
<path d="M402.324 158.255C401.341 159.482 400.078 160.841 398.515 161.306" stroke="#242630" stroke-width="2" stroke-miterlimit="1.5" stroke-linecap="round" stroke-linejoin="round"/>
<path d="M421.237 86.059C421.312 84.337 421.481 82.581 421.875 80.938C423.278 75.087 426.992 73.232 431.123 74.173C436.725 75.45 441.992 78.427 447.491 80.213" stroke="#242630" stroke-width="2" stroke-miterlimit="1.5" stroke-linecap="round" stroke-linejoin="round"/>
<path d="M440.555 101.292C438.338 97.664 433.361 96.512 432.126 92.275C431.8 91.155 435.192 89.732 435.761 89.4C440.221 86.792 441.863 84.741 447.491 86.24" stroke="#242630" stroke-width="2" stroke-miterlimit="1.5" stroke-linecap="round" stroke-linejoin="round"/>
<path d="M442.521 93.512C441.37 95.674 440.698 97.853 440.647 100.309" stroke="#242630" stroke-width="2" stroke-miterlimit="1.5" stroke-linecap="round" stroke-linejoin="round"/>
<path fill-rule="evenodd" clip-rule="evenodd" d="M286.323 198.12C289.96 199.528 293.49 201.056 297.565 202.918C314.915 210.848 330.773 221.592 341.341 237.72C345.505 244.075 348.691 251.258 350.882 258.523C351.958 262.092 352.729 265.795 353.05 269.53C364.744 273.13 375.763 282.585 381.272 293.028C383.997 298.192 385.579 304.002 385.516 309.87C385.494 311.935 385.206 313.941 384.774 315.957C384.615 316.695 384.43 317.415 384.298 318.157C384.237 318.5 384.205 319.538 384.154 319.193C381.743 302.906 367.568 289.72 351.802 283.967C345.709 306.898 321.318 322 299.046 326.292C288.194 328.383 276.849 328.099 265.862 327.732C259.399 327.516 252.963 327.043 246.615 325.751C245.809 325.587 245.004 325.418 244.199 325.244C241.713 341.788 229.062 352.693 213.991 359.835C210.041 361.708 206.004 363.373 201.783 364.516C200.248 364.932 197.977 365.703 196.342 365.308C195.679 365.148 197.562 364.697 198.176 364.398C200.007 363.503 201.761 362.514 203.268 361.118C207.115 357.556 210.431 353.503 213.555 349.298C220.216 340.335 225.238 330.74 226.677 320.307C225.321 319.816 223.975 319.299 222.641 318.752C190.786 305.696 155.63 278.868 159.835 240.316C159.895 239.759 159.965 239.203 160.043 238.65C152.881 235.294 146.794 230.029 143.071 222.621C140.694 217.891 139.387 212.387 138.372 207.228C137.438 202.485 136.75 197.216 137.617 192.399C137.665 192.132 137.87 192.88 137.991 193.123C138.165 193.475 138.322 193.834 138.464 194.2C138.93 195.407 139.392 196.605 139.965 197.769C141.954 201.812 144.857 205.655 148.133 208.739C153.578 213.863 159.711 218.475 166.416 221.479C169.887 216.049 174.271 211.185 179.228 207.081C195.781 193.376 215.276 188.83 235.347 188.072C248.121 187.589 258.53 189.63 266.613 191.783C264.542 182.277 266.121 171.995 271.437 163.585C276.703 155.254 285.114 149.057 293.592 144.291C300.829 140.224 308.545 135.886 317.089 136.787C317.344 136.814 316.603 136.948 316.359 137.027C315.184 137.407 314.971 137.454 313.778 137.934C311.678 138.779 309.675 139.782 307.73 140.944C301.344 144.762 296.899 150.296 293.215 156.74C285.894 169.549 282.654 183.776 286.323 198.12Z" fill="#242630" stroke="#242630" stroke-width="2" stroke-miterlimit="1.5" stroke-linecap="round" stroke-linejoin="round"/>
<path fill-rule="evenodd" clip-rule="evenodd" d="M237.555 226.59C235.068 227.534 232.65 228.71 230.355 230.078C229.992 230.401 229.631 230.726 229.272 231.05C228.125 232.054 227.097 233.259 226.124 234.341C219.403 241.82 218.297 251.677 222.8 260.693C224.857 264.81 228.158 268.629 231.932 271.255C234.808 273.256 238.067 274.545 240.997 276.427C242.845 277.614 244.409 279.179 246.106 280.559C247.378 282.699 248.36 285.033 249.738 287.107C251.14 289.217 253.502 290.137 254.791 292.453C256.395 295.333 257.172 299.005 259.47 301.441C261.188 303.261 263.112 302.468 265.247 303.055C268.1 303.839 269.996 306.69 273.129 304.904C274.413 304.172 275.028 302.178 275.726 300.941C276.705 299.207 278.086 297.82 278.473 295.798C279.41 290.908 276.004 286.567 275.136 281.989C274.837 280.409 275.847 278.592 275.698 276.903C275.444 274.034 274.02 271.484 273.495 268.684C272.126 261.382 276.742 254.677 276.342 247.406C276.299 244.704 275.678 242.052 274.903 239.469C273.943 236.273 272.432 233.624 269.971 231.322C260.863 222.805 248.529 222.429 237.555 226.59Z" fill="white"/>
<mask id="mask3_556_366" style="mask-type:luminance" maskUnits="userSpaceOnUse" x="220" y="224" width="59" height="82">
<path d="M237.555 226.59C235.068 227.534 232.65 228.71 230.355 230.078C229.992 230.401 229.631 230.726 229.272 231.05C228.125 232.054 227.097 233.259 226.124 234.341C219.403 241.82 218.297 251.677 222.8 260.693C224.857 264.81 228.158 268.629 231.932 271.255C234.808 273.256 238.067 274.545 240.997 276.427C242.845 277.614 244.409 279.179 246.106 280.559C247.378 282.699 248.36 285.033 249.738 287.107C251.14 289.217 253.502 290.137 254.791 292.453C256.395 295.333 257.172 299.005 259.47 301.441C261.188 303.261 263.112 302.468 265.247 303.055C268.1 303.839 269.996 306.69 273.129 304.904C274.413 304.172 275.028 302.178 275.726 300.941C276.705 299.207 278.086 297.82 278.473 295.798C279.41 290.908 276.004 286.567 275.136 281.989C274.837 280.409 275.847 278.592 275.698 276.903C275.444 274.034 274.02 271.484 273.495 268.684C272.126 261.382 276.742 254.677 276.342 247.406C276.299 244.704 275.678 242.052 274.903 239.469C273.943 236.273 272.432 233.624 269.971 231.322C260.863 222.805 248.529 222.429 237.555 226.59Z" fill="white"/>
</mask>
<g mask="url(#mask3_556_366)">
<path d="M246.538 286.107C255.008 291.251 268.384 289.36 273.761 280.383C275.29 277.831 275.879 274.603 275.955 271.669" stroke="#242630" stroke-width="2" stroke-miterlimit="1.5" stroke-linecap="round" stroke-linejoin="round"/>
<path d="M252.275 294.078C263.002 295.423 272.572 287.96 275.638 277.891" stroke="#242630" stroke-width="2" stroke-miterlimit="1.5" stroke-linecap="round" stroke-linejoin="round"/>
<path d="M253.914 298.753C264.719 297.708 275.383 290.635 277.349 279.244" stroke="#242630" stroke-width="2" stroke-miterlimit="1.5" stroke-linecap="round" stroke-linejoin="round"/>
<path d="M255.076 301.657C264.448 301.345 273.147 295.555 278.486 288.156C280.331 285.599 281.474 282.582 282.697 279.692" stroke="#242630" stroke-width="2" stroke-miterlimit="1.5" stroke-linecap="round" stroke-linejoin="round"/>
<path d="M274.23 296.887C279.469 293.02 283.07 288.332 286.09 282.663" stroke="#242630" stroke-width="2" stroke-miterlimit="1.5" stroke-linecap="round" stroke-linejoin="round"/>
<path d="M260.258 283.568C259.66 282.447 259.074 281.203 258.949 279.917C258.786 278.248 259.237 276.791 258.527 275.175C256.37 270.266 251.94 265.729 249 261.244C247.26 258.59 245.285 256.112 243.451 253.526C242.936 252.8 242.434 252.067 241.942 251.326C241.729 251.006 241.512 250.689 241.3 250.37C241.201 250.221 240.858 249.97 241.026 249.909C241.654 249.679 242.367 248.95 243.056 249.097C243.806 249.257 244.683 250.344 245.457 250.206C246.081 250.094 245.984 248.005 246.141 248.009C246.985 248.027 247.875 249.997 248.682 249.589C249.839 249.004 248.21 247.088 248.772 246.4C248.991 246.131 250.419 247.632 250.691 247.575C251.176 247.473 249.947 245.315 250.913 245.102C251.648 244.94 251.744 246.831 252.177 246.738C252.344 246.703 252.372 246.311 252.523 246.198C253.479 245.485 253.846 245.725 254.053 244.301C254.111 243.905 254.078 242.777 254.531 242.568C255.42 242.156 256.458 244.649 256.637 245.165C257.711 248.263 257.488 251.592 258.008 254.787C258.499 257.811 259.155 260.866 259.471 263.919C259.842 267.501 260.087 271.196 261.709 274.483C262.299 275.68 263.812 275.728 264.778 276.494C265.979 277.446 266.622 279.033 267.243 280.398" stroke="#242630" stroke-width="2" stroke-miterlimit="1.5" stroke-linecap="round" stroke-linejoin="round"/>
<path d="M251.574 284.661C252.485 283.145 253.9 281.812 255.348 280.809" stroke="#242630" stroke-width="2" stroke-miterlimit="1.5" stroke-linecap="round" stroke-linejoin="round"/>
<path d="M267.284 275.297C268.722 275.189 270.284 275.085 271.674 275.563" stroke="#242630" stroke-width="2" stroke-miterlimit="1.5" stroke-linecap="round" stroke-linejoin="round"/>
</g>
<path fill-rule="evenodd" clip-rule="evenodd" d="M237.555 226.59C235.068 227.534 232.65 228.71 230.355 230.078C229.992 230.401 229.631 230.726 229.272 231.05C228.125 232.054 227.097 233.259 226.124 234.341C219.403 241.82 218.297 251.677 222.8 260.693C224.857 264.81 228.158 268.629 231.932 271.255C234.808 273.256 238.067 274.545 240.997 276.427C242.845 277.614 244.409 279.179 246.106 280.559C247.378 282.699 248.36 285.033 249.738 287.107C251.14 289.217 253.502 290.137 254.791 292.453C256.395 295.333 257.172 299.005 259.47 301.441C261.188 303.261 263.112 302.468 265.247 303.055C268.1 303.839 269.996 306.69 273.129 304.904C274.413 304.172 275.028 302.178 275.726 300.941C276.705 299.207 278.086 297.82 278.473 295.798C279.41 290.908 276.004 286.567 275.136 281.989C274.837 280.409 275.847 278.592 275.698 276.903C275.444 274.034 274.02 271.484 273.495 268.684C272.126 261.382 276.742 254.677 276.342 247.406C276.299 244.704 275.678 242.052 274.903 239.469C273.943 236.273 272.432 233.624 269.971 231.322C260.863 222.805 248.529 222.429 237.555 226.59Z" stroke="#242630" stroke-width="2" stroke-miterlimit="1.5" stroke-linecap="round" stroke-linejoin="round"/>
<path d="M236.181 282.862C235.375 284.58 234.513 286.272 233.732 288.002" stroke="white" stroke-width="2" stroke-miterlimit="1.5" stroke-linecap="round" stroke-linejoin="round"/>
<path d="M215.564 283.345C217.229 281.637 219.118 280.227 220.845 278.604" stroke="white" stroke-width="2" stroke-miterlimit="1.5" stroke-linecap="round" stroke-linejoin="round"/>
<path d="M205.934 266.16C207.576 265.534 209.167 264.78 210.871 264.334" stroke="white" stroke-width="2" stroke-miterlimit="1.5" stroke-linecap="round" stroke-linejoin="round"/>
<path d="M207.355 249.186C208.167 249.159 208.98 249.187 209.788 249.1" stroke="white" stroke-width="2" stroke-miterlimit="1.5" stroke-linecap="round" stroke-linejoin="round"/>
<path d="M212.014 228.974C213.658 230.179 215.399 231.228 217.067 232.394" stroke="white" stroke-width="2" stroke-miterlimit="1.5" stroke-linecap="round" stroke-linejoin="round"/>
<path d="M226.242 216.993C226.949 218.342 227.687 219.673 228.451 220.989" stroke="white" stroke-width="2" stroke-miterlimit="1.5" stroke-linecap="round" stroke-linejoin="round"/>
<path d="M242.828 214.253C242.885 214.833 242.969 215.404 243.052 215.98" stroke="white" stroke-width="2" stroke-miterlimit="1.5" stroke-linecap="round" stroke-linejoin="round"/>
<path d="M262.441 211.098C261.908 212.647 261.426 214.21 260.818 215.731" stroke="white" stroke-width="2" stroke-miterlimit="1.5" stroke-linecap="round" stroke-linejoin="round"/>
<path d="M276.282 227.008C277.091 225.862 277.941 224.81 278.944 223.819" stroke="white" stroke-width="2" stroke-miterlimit="1.5" stroke-linecap="round" stroke-linejoin="round"/>
<path d="M284.54 236.593C286.05 236.178 287.529 235.705 289.048 235.329" stroke="white" stroke-width="2" stroke-miterlimit="1.5" stroke-linecap="round" stroke-linejoin="round"/>
<path d="M283.59 252.246C285.324 252.441 287.073 252.556 288.816 252.643" stroke="white" stroke-width="2" stroke-miterlimit="1.5" stroke-linecap="round" stroke-linejoin="round"/>
<path d="M281.152 263.953C281.616 264.095 282.129 264.29 282.622 264.363" stroke="white" stroke-width="2" stroke-miterlimit="1.5" stroke-linecap="round" stroke-linejoin="round"/>
<defs>
<filter id="filter0_d_556_366" x="31.5" y="32" width="449.991" height="456" filterUnits="userSpaceOnUse" color-interpolation-filters="sRGB">
<feFlood flood-opacity="0" result="BackgroundImageFix"/>
<feColorMatrix in="SourceAlpha" type="matrix" values="0 0 0 0 0 0 0 0 0 0 0 0 0 0 0 0 0 0 127 0" result="hardAlpha"/>
<feOffset dx="2" dy="8"/>
<feComposite in2="hardAlpha" operator="out"/>
<feColorMatrix type="matrix" values="0 0 0 0 0 0 0 0 0 0 0 0 0 0 0 0 0 0 0.2 0"/>
<feBlend mode="normal" in2="BackgroundImageFix" result="effect1_dropShadow_556_366"/>
<feBlend mode="normal" in="SourceGraphic" in2="effect1_dropShadow_556_366" result="shape"/>
</filter>
</defs>
</svg>
