<svg width="512" height="512" viewBox="0 0 512 512" fill="none" xmlns="http://www.w3.org/2000/svg">
<g filter="url(#filter0_d_568_2724)">
<path fill-rule="evenodd" clip-rule="evenodd" d="M174.754 6.26582C168.774 8.45768 163.001 11.2683 157.502 14.5858C155.315 16.2747 153.214 18.0864 151.198 19.9872C106.551 62.1018 126.565 116.382 119.752 169.705C115.785 200.75 102.716 229.539 94.1842 259.459C84.602 312.587 91.6557 374.944 121.859 417.85C135.01 436.534 149.358 451.773 166.965 466.24C167.998 467.07 169.034 467.889 170.073 468.695C199.402 491.459 237.304 509.043 275.176 501.263C284.344 499.38 293.196 496.067 301.344 491.47C340.115 469.596 369.736 433.628 378.42 389.393C383.179 365.15 379.598 340.609 387.431 316.855C399.15 281.314 426.097 246.548 421.23 207.464C416.734 171.362 390.744 143.536 380.276 109.489C368.994 72.7928 381.149 23.5176 338.174 5.32631C305.653 -8.43865 277.959 9.11801 247.268 6.62321C232.813 5.44808 218.339 0.967338 203.829 0.960408C193.808 0.956448 184.033 2.86616 174.754 6.26582Z" fill="white"/>
</g>
<path fill-rule="evenodd" clip-rule="evenodd" d="M170.111 416.639C174.318 399.425 177.945 382.113 182.74 365.031C181.085 357.736 175.763 351.462 173.184 344.52C169.157 333.676 166.613 322.149 163.315 311.063C160.789 302.567 157.23 294.152 155.275 285.519C153.831 279.136 153.177 272.665 153.802 266.07C154.702 256.558 158.995 250.212 164.787 243.02C171.383 234.83 183.344 233 189.369 224.305C192.622 219.61 191.863 212.429 191.911 207.013C192.021 194.668 192.203 182.316 192.272 169.98C192.447 138.46 189.363 107.071 187.818 75.6222C187.285 64.7362 185.319 53.5244 186.801 42.6612C187.711 35.9945 190.288 30.1278 197.257 28.3586C204.053 26.6331 209.506 30.6168 213.186 36.046C221.901 48.9071 222.682 64.7837 225.2 79.6288C228.698 100.253 233.376 120.672 239.263 140.746C242.624 152.21 243.245 164.408 250.968 174.156C254.256 178.306 259.416 178.332 262.165 173.572C265.821 167.238 266.372 158.811 267.925 151.787C270.598 139.706 277.814 129.388 281.202 117.542C287.075 97.0062 289.438 75.6024 296.292 55.3272C299.035 47.2102 300.191 37.1776 306.776 31.0346C308.307 29.606 310.104 28.6101 312.03 27.8072C313.543 27.1766 315.13 26.6846 316.762 26.4915C328.077 25.155 329.75 39.9931 329.798 48.0577C329.809 49.7407 329.756 51.4256 329.644 53.1057C329.105 61.2534 327.258 69.307 326.466 77.4468C325.759 84.7015 325.312 91.9988 323.834 99.1486C321.917 108.426 318.793 117.413 317.024 126.723C315.26 136.007 315.181 145.512 313.587 154.821C311.687 165.912 306.964 176.713 308.234 188.158C308.352 189.223 313.631 194.215 314.551 193.683C317.69 191.866 319.487 188.421 321.758 185.721C325.413 181.373 329.86 177.041 335.051 174.592C344.626 170.076 355.484 180.315 359.954 188.012C361.524 190.714 362.408 193.538 362.133 196.679C361.258 206.652 351.617 213.553 351.64 223.722C351.654 230.162 361.939 230.639 365.107 235.026C366.611 237.108 367.899 239.402 368.818 241.802C372.201 250.631 367.908 260.678 360.499 266.069C355.521 269.691 349.132 271.825 345.24 276.799C341.558 281.505 340.713 288.02 337.975 293.273C330.752 307.133 323.005 320.756 317.641 335.485C313.579 346.639 314.218 359.179 309.453 369.992C307.681 374.014 305.629 378.771 302.473 381.919C299.393 384.99 294.573 387.064 292.953 391.358C291.25 395.868 291.273 401.35 290.866 406.091C289.396 423.147 286.208 440.054 282.58 456.772C281.072 463.728 278.544 471.772 269.77 469.974C259.201 467.809 249.228 457.765 242.793 449.57C237.59 442.945 233.372 436.101 225.405 432.452C213.084 426.807 198.521 431.332 185.517 430.523C181.499 430.273 175.731 430.618 172.343 428.073C170.647 426.799 169.595 424.301 168.911 422.369C168.809 422.079 168.789 421.544 168.815 420.908C169.131 419.997 169.438 419.081 169.738 418.162C169.863 417.654 169.988 417.146 170.111 416.639Z" fill="#FFE38C"/>
<mask id="mask0_568_2724" style="mask-type:luminance" maskUnits="userSpaceOnUse" x="153" y="26" width="217" height="445">
<path d="M170.111 416.639C174.318 399.425 177.945 382.113 182.74 365.031C181.085 357.736 175.763 351.462 173.184 344.52C169.157 333.676 166.613 322.149 163.315 311.063C160.789 302.567 157.23 294.152 155.275 285.519C153.831 279.136 153.177 272.665 153.802 266.07C154.702 256.558 158.995 250.212 164.787 243.02C171.383 234.83 183.344 233 189.369 224.305C192.622 219.61 191.863 212.429 191.911 207.013C192.021 194.668 192.203 182.316 192.272 169.98C192.447 138.46 189.363 107.071 187.818 75.6222C187.285 64.7362 185.319 53.5244 186.801 42.6612C187.711 35.9945 190.288 30.1278 197.257 28.3586C204.053 26.6331 209.506 30.6168 213.186 36.046C221.901 48.9071 222.682 64.7837 225.2 79.6288C228.698 100.253 233.376 120.672 239.263 140.746C242.624 152.21 243.245 164.408 250.968 174.156C254.256 178.306 259.416 178.332 262.165 173.572C265.821 167.238 266.372 158.811 267.925 151.787C270.598 139.706 277.814 129.388 281.202 117.542C287.075 97.0062 289.438 75.6024 296.292 55.3272C299.035 47.2102 300.191 37.1776 306.776 31.0346C308.307 29.606 310.104 28.6101 312.03 27.8072C313.543 27.1766 315.13 26.6846 316.762 26.4915C328.077 25.155 329.75 39.9931 329.798 48.0577C329.809 49.7407 329.756 51.4256 329.644 53.1057C329.105 61.2534 327.258 69.307 326.466 77.4468C325.759 84.7015 325.312 91.9988 323.834 99.1486C321.917 108.426 318.793 117.413 317.024 126.723C315.26 136.007 315.181 145.512 313.587 154.821C311.687 165.912 306.964 176.713 308.234 188.158C308.352 189.223 313.631 194.215 314.551 193.683C317.69 191.866 319.487 188.421 321.758 185.721C325.413 181.373 329.86 177.041 335.051 174.592C344.626 170.076 355.484 180.315 359.954 188.012C361.524 190.714 362.408 193.538 362.133 196.679C361.258 206.652 351.617 213.553 351.64 223.722C351.654 230.162 361.939 230.639 365.107 235.026C366.611 237.108 367.899 239.402 368.818 241.802C372.201 250.631 367.908 260.678 360.499 266.069C355.521 269.691 349.132 271.825 345.24 276.799C341.558 281.505 340.713 288.02 337.975 293.273C330.752 307.133 323.005 320.756 317.641 335.485C313.579 346.639 314.218 359.179 309.453 369.992C307.681 374.014 305.629 378.771 302.473 381.919C299.393 384.99 294.573 387.064 292.953 391.358C291.25 395.868 291.273 401.35 290.866 406.091C289.396 423.147 286.208 440.054 282.58 456.772C281.072 463.728 278.544 471.772 269.77 469.974C259.201 467.809 249.228 457.765 242.793 449.57C237.59 442.945 233.372 436.101 225.405 432.452C213.084 426.807 198.521 431.332 185.517 430.523C181.499 430.273 175.731 430.618 172.343 428.073C170.647 426.799 169.595 424.301 168.911 422.369C168.809 422.079 168.789 421.544 168.815 420.908C169.131 419.997 169.438 419.081 169.738 418.162C169.863 417.654 169.988 417.146 170.111 416.639Z" fill="white"/>
</mask>
<g mask="url(#mask0_568_2724)">
<path d="M227.789 267.814C231.68 264.175 239.389 257.968 240.304 252.002C240.678 249.567 239.868 246.72 238.794 244.578C238.487 243.965 238.114 243.359 237.709 242.807C237.401 242.385 236.237 241.435 236.741 241.574C240.403 242.586 243.356 247.079 247.051 248.618C252.578 250.919 258.738 250.867 264.592 251.554C274.558 252.724 286.336 251.008 295.283 246.391C303.428 242.189 304.685 235.17 298.775 228.154C289.925 217.647 274.418 217.571 263.225 210.805C255.556 206.17 246.951 194.275 237.216 194.251C216.744 194.201 200.639 216.57 185.402 227.483" stroke="#242630" stroke-width="2" stroke-miterlimit="1.5" stroke-linecap="round" stroke-linejoin="round"/>
<path d="M227.086 224.373C227.382 230.965 228.705 237.466 232.725 242.901C234.676 245.539 237.319 247.777 239.633 250.105" stroke="#242630" stroke-width="2" stroke-miterlimit="1.5" stroke-linecap="round" stroke-linejoin="round"/>
<path d="M233.799 227.396C234.187 234.077 235.159 239.545 238.756 245.229" stroke="#242630" stroke-width="2" stroke-miterlimit="1.5" stroke-linecap="round" stroke-linejoin="round"/>
<path d="M193.534 265.375C203.706 270.111 215.463 273.778 226.257 268.696" stroke="#242630" stroke-width="2" stroke-miterlimit="1.5" stroke-linecap="round" stroke-linejoin="round"/>
<path d="M193.116 278.671C203.679 280.42 215.675 280.552 223.763 272.328" stroke="#242630" stroke-width="2" stroke-miterlimit="1.5" stroke-linecap="round" stroke-linejoin="round"/>
<path d="M245.386 253.609C254.799 266.668 254.615 288.896 246.748 302.941" stroke="#242630" stroke-width="2" stroke-miterlimit="1.5" stroke-linecap="round" stroke-linejoin="round"/>
<path d="M248.483 249.519C266.817 272.001 274.65 302.365 268.715 330.683" stroke="#242630" stroke-width="2" stroke-miterlimit="1.5" stroke-linecap="round" stroke-linejoin="round"/>
<path d="M179.028 353.307C188.012 362.933 200.516 367.726 213.526 369.691" stroke="#242630" stroke-width="2" stroke-miterlimit="1.5" stroke-linecap="round" stroke-linejoin="round"/>
<path d="M227.84 370.996C236.291 373.15 246.184 375.493 254.163 379.096C262.408 382.818 267.328 388.827 276.909 389.266" stroke="#242630" stroke-width="2" stroke-miterlimit="1.5" stroke-linecap="round" stroke-linejoin="round"/>
<path d="M266.657 345.49C270.742 350.549 274.404 355.377 276.287 361.654" stroke="#242630" stroke-width="2" stroke-miterlimit="1.5" stroke-linecap="round" stroke-linejoin="round"/>
<path d="M273.344 328.723C276.074 332.323 278.181 335.643 280.175 339.658" stroke="#242630" stroke-width="2" stroke-miterlimit="1.5" stroke-linecap="round" stroke-linejoin="round"/>
<path d="M237.183 257.683C238.732 269.884 230.324 277.823 221.695 285.16" stroke="#242630" stroke-width="2" stroke-miterlimit="1.5" stroke-linecap="round" stroke-linejoin="round"/>
<path d="M334.097 240.426C326.826 245.04 320.547 251.377 314.021 256.933C306.474 263.357 298.686 269.486 291.152 275.914C285.969 280.336 277.478 286.448 280.203 293.222C283.776 302.106 292.673 305.052 301.316 301.836C307.384 299.578 313.158 295.212 318.929 292.269C330.226 286.511 341.457 281.178 351.145 272.795" stroke="#242630" stroke-width="2" stroke-miterlimit="1.5" stroke-linecap="round" stroke-linejoin="round"/>
<path d="M276.054 251.045C272.648 256.593 267.937 262.743 270.14 268.846C272.363 275.004 277.193 281.809 284.743 280.341" stroke="#242630" stroke-width="2" stroke-miterlimit="1.5" stroke-linecap="round" stroke-linejoin="round"/>
<path d="M295.053 223.709C298.707 219.675 303.447 215.678 306.416 211.086C311.407 203.366 313.892 195.202 320.577 188.379" stroke="#242630" stroke-width="2" stroke-miterlimit="1.5" stroke-linecap="round" stroke-linejoin="round"/>
<path d="M338.247 235.055C346.795 226.464 354.427 217.142 360.495 206.607" stroke="#242630" stroke-width="2" stroke-miterlimit="1.5" stroke-linecap="round" stroke-linejoin="round"/>
<path d="M296.002 276.909C298.797 279.516 305.715 285.737 303.276 290.343C302.468 291.87 301.117 293.163 299.842 294.293C298.507 295.475 296.995 296.423 295.423 297.253C292.782 298.647 289.944 299.746 287.166 300.835" stroke="#242630" stroke-width="2" stroke-miterlimit="1.5" stroke-linecap="round" stroke-linejoin="round"/>
<path d="M286.154 250.955C287.706 251.557 287.555 251.561 289.654 252.585C291.31 253.394 298.682 257.294 298.459 260.338C298.236 263.377 295.747 266.885 294.097 269.338C292.468 271.757 290.414 273.679 288.215 275.567" stroke="#242630" stroke-width="2" stroke-miterlimit="1.5" stroke-linecap="round" stroke-linejoin="round"/>
<path d="M268.865 214.291C266.975 216.701 265.045 218.977 263.039 221.287C262.971 221.364 260.33 224.193 260.413 224.6C261.24 228.623 265.404 231.122 268.737 232.962C273.604 235.65 278.312 236.267 283.767 235.893C284.73 235.827 288.239 236.14 289.096 235.513C290.788 234.274 292.384 232.601 293.613 230.894" stroke="#242630" stroke-width="2" stroke-miterlimit="1.5" stroke-linecap="round" stroke-linejoin="round"/>
<path d="M342.14 179.501C346.661 181.595 351.38 184.118 355.164 187.442" stroke="#242630" stroke-width="2" stroke-miterlimit="1.5" stroke-linecap="round" stroke-linejoin="round"/>
<path d="M361.767 252.58C360.621 259.084 358.99 263.546 354.507 268.348" stroke="#242630" stroke-width="2" stroke-miterlimit="1.5" stroke-linecap="round" stroke-linejoin="round"/>
<path d="M350.537 235.823C353.001 238.552 355.598 241.261 357.877 244.153" stroke="#242630" stroke-width="2" stroke-miterlimit="1.5" stroke-linecap="round" stroke-linejoin="round"/>
<path d="M322.246 262.904C324.112 264.346 325.632 265.791 327.013 267.718" stroke="#242630" stroke-width="2" stroke-miterlimit="1.5" stroke-linecap="round" stroke-linejoin="round"/>
<path d="M313.708 227.051C317.182 230.599 320.754 233.804 323.832 237.692" stroke="#242630" stroke-width="2" stroke-miterlimit="1.5" stroke-linecap="round" stroke-linejoin="round"/>
<path d="M281.856 127.988C292.195 132.965 302.612 138.214 314.528 137.786" stroke="#242630" stroke-width="2" stroke-miterlimit="1.5" stroke-linecap="round" stroke-linejoin="round"/>
<path d="M286.876 122.753C294.735 124.436 301.386 127.224 308.366 131.051" stroke="#242630" stroke-width="2" stroke-miterlimit="1.5" stroke-linecap="round" stroke-linejoin="round"/>
<path d="M300.171 75.4856C306.57 78.8823 314.296 82.1354 321.676 81.7275" stroke="#242630" stroke-width="2" stroke-miterlimit="1.5" stroke-linecap="round" stroke-linejoin="round"/>
<path d="M308.446 73.9977C312.658 74.4303 316.861 74.9718 321.054 75.554" stroke="#242630" stroke-width="2" stroke-miterlimit="1.5" stroke-linecap="round" stroke-linejoin="round"/>
<path d="M201.343 132.674C211.246 135.42 222.039 133.743 230.988 128.61" stroke="#242630" stroke-width="2" stroke-miterlimit="1.5" stroke-linecap="round" stroke-linejoin="round"/>
<path d="M208.182 126.387C215.356 124.257 222.696 121.528 230.164 120.525" stroke="#242630" stroke-width="2" stroke-miterlimit="1.5" stroke-linecap="round" stroke-linejoin="round"/>
<path d="M193.948 87.6855C203.208 86.7242 211.818 83.8492 220.793 81.6841" stroke="#242630" stroke-width="2" stroke-miterlimit="1.5" stroke-linecap="round" stroke-linejoin="round"/>
<path d="M267.116 193.162C271.438 201.101 276.126 208.482 281.406 215.785" stroke="#242630" stroke-width="2" stroke-miterlimit="1.5" stroke-linecap="round" stroke-linejoin="round"/>
<path d="M280.127 205.612C285.181 210.643 290.536 216.166 297.185 219.112" stroke="#242630" stroke-width="2" stroke-miterlimit="1.5" stroke-linecap="round" stroke-linejoin="round"/>
<path d="M192.987 220.829C196.889 209.907 202.462 199.869 207.064 189.248" stroke="#242630" stroke-width="2" stroke-miterlimit="1.5" stroke-linecap="round" stroke-linejoin="round"/>
<path d="M193.02 209.936C194.712 201.184 196.113 192.486 198.188 183.833" stroke="#242630" stroke-width="2" stroke-miterlimit="1.5" stroke-linecap="round" stroke-linejoin="round"/>
<path d="M256.137 176.458C259.85 177.034 263.445 178.174 267.18 178.574" stroke="#242630" stroke-width="2" stroke-miterlimit="1.5" stroke-linecap="round" stroke-linejoin="round"/>
<path d="M271.449 174.544C279.626 180.566 290.217 186.064 300.623 182.148" stroke="#242630" stroke-width="2" stroke-miterlimit="1.5" stroke-linecap="round" stroke-linejoin="round"/>
<path d="M211.049 178.922C220.239 179.316 229.619 175.819 236.992 170.421" stroke="#242630" stroke-width="2" stroke-miterlimit="1.5" stroke-linecap="round" stroke-linejoin="round"/>
<path d="M232.948 179.579C234.767 178.701 236.53 177.858 238.416 177.154" stroke="#242630" stroke-width="2" stroke-miterlimit="1.5" stroke-linecap="round" stroke-linejoin="round"/>
</g>
<path fill-rule="evenodd" clip-rule="evenodd" d="M170.111 416.639C174.318 399.425 177.945 382.113 182.74 365.031C181.085 357.736 175.763 351.462 173.184 344.52C169.157 333.676 166.613 322.149 163.315 311.063C160.789 302.567 157.23 294.152 155.275 285.519C153.831 279.136 153.177 272.665 153.802 266.07C154.702 256.558 158.995 250.212 164.787 243.02C171.383 234.83 183.344 233 189.369 224.305C192.622 219.61 191.863 212.429 191.911 207.013C192.021 194.668 192.203 182.316 192.272 169.98C192.447 138.46 189.363 107.071 187.818 75.6222C187.285 64.7362 185.319 53.5244 186.801 42.6612C187.711 35.9945 190.288 30.1278 197.257 28.3586C204.053 26.6331 209.506 30.6168 213.186 36.046C221.901 48.9071 222.682 64.7837 225.2 79.6288C228.698 100.253 233.376 120.672 239.263 140.746C242.624 152.21 243.245 164.408 250.968 174.156C254.256 178.306 259.416 178.332 262.165 173.572C265.821 167.238 266.372 158.811 267.925 151.787C270.598 139.706 277.814 129.388 281.202 117.542C287.075 97.0062 289.438 75.6024 296.292 55.3272C299.035 47.2102 300.191 37.1776 306.776 31.0346C308.307 29.606 310.104 28.6101 312.03 27.8072C313.543 27.1766 315.13 26.6846 316.762 26.4915C328.077 25.155 329.75 39.9931 329.798 48.0577C329.809 49.7407 329.756 51.4256 329.644 53.1057C329.105 61.2534 327.258 69.307 326.466 77.4468C325.759 84.7015 325.312 91.9988 323.834 99.1486C321.917 108.426 318.793 117.413 317.024 126.723C315.26 136.007 315.181 145.512 313.587 154.821C311.687 165.912 306.964 176.713 308.234 188.158C308.352 189.223 313.631 194.215 314.551 193.683C317.69 191.866 319.487 188.421 321.758 185.721C325.413 181.373 329.86 177.041 335.051 174.592C344.626 170.076 355.484 180.315 359.954 188.012C361.524 190.714 362.408 193.538 362.133 196.679C361.258 206.652 351.617 213.553 351.64 223.722C351.654 230.162 361.939 230.639 365.107 235.026C366.611 237.108 367.899 239.402 368.818 241.802C372.201 250.631 367.908 260.678 360.499 266.069C355.521 269.691 349.132 271.825 345.24 276.799C341.558 281.505 340.713 288.02 337.975 293.273C330.752 307.133 323.005 320.756 317.641 335.485C313.579 346.639 314.218 359.179 309.453 369.992C307.681 374.014 305.629 378.771 302.473 381.919C299.393 384.99 294.573 387.064 292.953 391.358C291.25 395.868 291.273 401.35 290.866 406.091C289.396 423.147 286.208 440.054 282.58 456.772C281.072 463.728 278.544 471.772 269.77 469.974C259.201 467.809 249.228 457.765 242.793 449.57C237.59 442.945 233.372 436.101 225.405 432.452C213.084 426.807 198.521 431.332 185.517 430.523C181.499 430.273 175.731 430.618 172.343 428.073C170.647 426.799 169.595 424.301 168.911 422.369C168.809 422.079 168.789 421.544 168.815 420.908C169.131 419.997 169.438 419.081 169.738 418.162C169.863 417.654 169.988 417.146 170.111 416.639Z" stroke="#242630" stroke-width="2" stroke-miterlimit="1.5" stroke-linecap="round" stroke-linejoin="round"/>
<defs>
<filter id="filter0_d_568_2724" x="90.1885" y="0" width="335.623" height="511.133" filterUnits="userSpaceOnUse" color-interpolation-filters="sRGB">
<feFlood flood-opacity="0" result="BackgroundImageFix"/>
<feColorMatrix in="SourceAlpha" type="matrix" values="0 0 0 0 0 0 0 0 0 0 0 0 0 0 0 0 0 0 127 0" result="hardAlpha"/>
<feOffset dx="4" dy="8"/>
<feComposite in2="hardAlpha" operator="out"/>
<feColorMatrix type="matrix" values="0 0 0 0 0 0 0 0 0 0 0 0 0 0 0 0 0 0 0.2 0"/>
<feBlend mode="normal" in2="BackgroundImageFix" result="effect1_dropShadow_568_2724"/>
<feBlend mode="normal" in="SourceGraphic" in2="effect1_dropShadow_568_2724" result="shape"/>
</filter>
</defs>
</svg>
