<svg width="142" height="16" viewBox="0 0 142 16" fill="none" xmlns="http://www.w3.org/2000/svg">
<defs>
    <style>
        path {
            stroke: #fff;
            stroke-width: 2.8;
            stroke-linecap: round;
        }
        .y {
            stroke: #f2c60f;
        }
    </style>
</defs>
<path d="M2 2H14"/>
<path d="M2 8L8 8"/>
<path d="M2 14L2 2"/>
<path d="M8 8L14 2"/>
<path d="M20 14L20 2"/>
<path d="M32 14L32 2"/>
<path d="M26 8L20 2"/>
<path d="M26 8L32 2"/>
<path d="M38 2H50"/>
<path d="M38 14L50 14"/>
<path d="M38 14L38 2"/>
<path d="M56 2H68"/>
<path d="M56 8L68 8"/>
<path d="M56 14L56 2"/>
<path class="y" d="M74 8L86 8"/>
<path class="y" d="M86 14L74 2"/>
<path class="y" d="M86 2L74 14"/>
<path class="y" d="M80 14L80 2"/>
<path d="M104 14L92 2"/>
<path d="M104 2L92 14"/>
<path d="M116 8L110 2"/>
<path d="M116 8L122 2"/>
<path d="M116 14L116 8"/>
<path d="M128 2H140"/>
<path d="M128 14L140 14"/>
<path d="M140 2L128 14"/>
</svg>
