<svg width="142" height="16" viewBox="0 0 142 16" fill="none" xmlns="http://www.w3.org/2000/svg">
<defs>
    <style>
        path {
            fill: #fff;
        }
        .y {
            fill: #f2c60f;
        }
    </style>
</defs>
<path fill-rule="evenodd" clip-rule="evenodd" d="M0.600006 14C0.600006 14.7732 1.22681 15.4 2.00001 15.4C2.7732 15.4 3.40001 14.7732 3.40001 14V9.4H8.00001C8.38755 9.4 8.73831 9.24254 8.99181 8.98809L14.9881 2.99182L14.9989 2.98089C15.0153 2.96423 15.0308 2.94771 15.0453 2.93131C15.2659 2.68387 15.4 2.35759 15.4 2C15.4 1.2268 14.7732 0.600002 14 0.600002H2.00573C2.00382 0.599995 2.00191 0.599991 2.00001 0.599991C1.22681 0.599991 0.600006 1.22679 0.600006 1.99999V14ZM3.40001 3.4V6.6H7.4201L10.6201 3.4H3.40001Z" fill="black"/>
<path d="M20 15.4C19.2268 15.4 18.6 14.7732 18.6 14V1.99999C18.6 1.22679 19.2268 0.599991 20 0.599991C20.3887 0.599991 20.7404 0.758381 20.994 1.01414L26 6.02009L31.01 1.01005C31.0254 0.994707 31.0405 0.980282 31.0553 0.966753C31.3043 0.738963 31.6359 0.599991 32 0.599991C32.7732 0.599991 33.4 1.22679 33.4 1.99999V14C33.4 14.7732 32.7732 15.4 32 15.4C31.2268 15.4 30.6 14.7732 30.6 14V5.37988L26.9947 8.98513C26.9932 8.98674 26.9916 8.98835 26.9899 8.98995C26.7849 9.19498 26.5321 9.32312 26.2674 9.37437C26.0661 9.41334 25.8579 9.40787 25.6586 9.35795C25.4209 9.29845 25.1959 9.17579 25.01 8.98995C25.0083 8.98827 25.0067 8.98658 25.005 8.98488L21.4 5.37991V14C21.4 14.7732 20.7732 15.4 20 15.4Z" fill="black"/>
<path d="M37.9706 15.3997C37.211 15.384 36.6 14.7634 36.6 14V1.99999C36.6 1.22679 37.2268 0.599991 38 0.599991L38.0057 0.600002H50C50.7732 0.600002 51.4 1.2268 51.4 2C51.4 2.7732 50.7732 3.4 50 3.4H39.4V12.6H50C50.7732 12.6 51.4 13.2268 51.4 14C51.4 14.7732 50.7732 15.4 50 15.4H38C37.99 15.4 37.9802 15.3999 37.9706 15.3997Z" fill="black"/>
<path d="M54.6 14C54.6 14.7732 55.2268 15.4 56 15.4C56.7732 15.4 57.4 14.7732 57.4 14V9.4H68C68.7732 9.4 69.4 8.7732 69.4 8C69.4 7.2268 68.7732 6.6 68 6.6H57.4V3.4H68C68.7732 3.4 69.4 2.7732 69.4 2C69.4 1.2268 68.7732 0.600002 68 0.600002H56.0057C56.0038 0.599995 56.0019 0.599991 56 0.599991C55.2268 0.599991 54.6 1.22679 54.6 1.99999V14Z" fill="black"/>
<path class="y" d="M74.9546 1.0454C74.4274 0.518192 73.5726 0.518192 73.0454 1.0454C72.5182 1.57261 72.5182 2.42738 73.0454 2.95459L76.7408 6.64999H74C73.2544 6.64999 72.65 7.2544 72.65 7.99999C72.65 8.74557 73.2544 9.34999 74 9.34999H76.7408L73.0454 13.0454C72.5182 13.5726 72.5182 14.4274 73.0454 14.9546C73.5726 15.4818 74.4274 15.4818 74.9546 14.9546L78.65 11.2592V14C78.65 14.7456 79.2544 15.35 80 15.35C80.7456 15.35 81.35 14.7456 81.35 14V11.2592L85.0454 14.9546C85.5726 15.4818 86.4274 15.4818 86.9546 14.9546C87.4818 14.4274 87.4818 13.5726 86.9546 13.0454L83.2592 9.34999H86C86.7456 9.34999 87.35 8.74557 87.35 7.99999C87.35 7.2544 86.7456 6.64999 86 6.64999H83.2592L86.9546 2.95459C87.4818 2.42739 87.4818 1.57261 86.9546 1.04541C86.4274 0.518198 85.5726 0.518198 85.0454 1.04541L81.35 4.74082V2C81.35 1.25442 80.7456 0.65 80 0.65C79.2544 0.65 78.65 1.25442 78.65 2V4.74079L74.9546 1.0454Z" fill="black"/>
<path d="M92.99 1.01006C92.4432 0.463323 91.5568 0.463323 91.0101 1.01006C90.4633 1.55679 90.4633 2.44322 91.0101 2.98996L96.0201 8L91.0101 13.0101C90.4633 13.5568 90.4633 14.4432 91.0101 14.99C91.5568 15.5367 92.4432 15.5367 92.99 14.99L98 9.9799L103.01 14.99C103.557 15.5367 104.443 15.5367 104.99 14.99C105.537 14.4432 105.537 13.5568 104.99 13.0101L99.9799 8L104.99 2.98996C105.537 2.44323 105.537 1.5568 104.99 1.01006C104.443 0.463327 103.557 0.463327 103.01 1.01006L98 6.0201L92.99 1.01006Z" fill="black"/>
<path d="M122.99 1.01004C123.537 1.55678 123.537 2.44321 122.99 2.98994L117.4 8.57988V14C117.4 14.7732 116.773 15.4 116 15.4C115.227 15.4 114.6 14.7732 114.6 14L114.6 8.57989L109.01 2.98995C108.463 2.44321 108.463 1.55678 109.01 1.01005C109.557 0.463312 110.443 0.463312 110.99 1.01005L116 6.02009L121.01 1.01004C121.557 0.463307 122.443 0.463307 122.99 1.01004Z" fill="black"/>
<path d="M126.705 14.532C126.773 14.6986 126.875 14.8547 127.01 14.99C127.145 15.1246 127.3 15.2262 127.466 15.2945C127.63 15.3625 127.811 15.4 128 15.4H140C140.773 15.4 141.4 14.7732 141.4 14C141.4 13.2268 140.773 12.6 140 12.6H131.38L140.987 2.99242C140.995 2.98446 141.003 2.97641 141.011 2.96826C141.252 2.71681 141.4 2.37569 141.4 2.00001C141.4 1.80835 141.361 1.62568 141.292 1.45933C141.226 1.30228 141.131 1.15477 141.005 1.02548C140.995 1.01512 140.985 1.00491 140.975 0.994869C140.725 0.753241 140.387 0.603443 140.013 0.600064C140.009 0.600025 140.004 0.600006 140 0.600006H128C127.227 0.600006 126.6 1.22681 126.6 2.00001C126.6 2.7732 127.227 3.40001 128 3.40001H136.62L127.01 13.0101C126.746 13.2744 126.609 13.6181 126.6 13.9644C126.6 13.9881 126.6 14.0118 126.6 14.0355C126.605 14.2109 126.641 14.3783 126.705 14.532Z" fill="black"/>
</svg>
