<svg width="24" height="25" viewBox="0 0 24 25" fill="none" xmlns="http://www.w3.org/2000/svg">
<g filter="url(#filter0_d_540_1613)">
<path fill-rule="evenodd" clip-rule="evenodd" d="M5.69541 3.38509C6.21001 2.83627 7.74196 2.12444 10.5158 7.1375C11.0185 8.04618 11.2579 9.04962 11.2579 9.04962C11.2579 9.04962 10.5908 7.11062 12.6988 7.23057C14.2161 7.31687 14.874 8.06573 14.874 8.06573C14.874 8.06573 14.901 6.92504 16.549 7.67109C17.2247 7.97699 17.9873 9.2632 17.9873 9.2632C17.9873 9.2632 19.4198 9.40478 19.9209 11.1595C20.4129 12.8827 19.2511 13.9668 18.9921 15.4929C18.6585 17.4569 19.5183 20.2493 16.2726 20.5233C14.1123 20.7056 10.1403 23.003 8.21538 19.7005C7.42816 18.35 6.68099 18.4103 5.32671 16.9876C3.45239 15.0187 3.904 12.8314 4.62278 11.526C6.40818 8.28327 7.61637 11.3404 7.61637 11.3404L8.32236 13.3193C8.32236 13.3193 7.47479 10.7626 6.7906 9.01145C5.24023 5.04376 5.06349 4.0595 5.69541 3.38509Z" fill="white"/>
<path fill-rule="evenodd" clip-rule="evenodd" d="M5.69541 3.38509C6.21001 2.83627 7.74196 2.12444 10.5158 7.1375C11.0185 8.04618 11.2579 9.04962 11.2579 9.04962C11.2579 9.04962 10.5908 7.11062 12.6988 7.23057C14.2161 7.31687 14.874 8.06573 14.874 8.06573C14.874 8.06573 14.901 6.92504 16.549 7.67109C17.2247 7.97699 17.9873 9.2632 17.9873 9.2632C17.9873 9.2632 19.4198 9.40478 19.9209 11.1595C20.4129 12.8827 19.2511 13.9668 18.9921 15.4929C18.6585 17.4569 19.5183 20.2493 16.2726 20.5233C14.1123 20.7056 10.1403 23.003 8.21538 19.7005C7.42816 18.35 6.68099 18.4103 5.32671 16.9876C3.45239 15.0187 3.904 12.8314 4.62278 11.526C6.40818 8.28327 7.61637 11.3404 7.61637 11.3404L8.32236 13.3193C8.32236 13.3193 7.47479 10.7626 6.7906 9.01145C5.24023 5.04376 5.06349 4.0595 5.69541 3.38509Z" stroke="#111111" stroke-width="1.5" stroke-miterlimit="1.5" stroke-linecap="round" stroke-linejoin="round"/>
</g>
<path d="M12.972 12.573C12.972 12.573 13.4881 15.7118 13.5439 17.3364" stroke="#111111" stroke-width="1.5" stroke-miterlimit="1.5" stroke-linecap="round" stroke-linejoin="round"/>
<path d="M15.9874 14.7361C15.9874 14.7361 15.9947 15.6728 15.9235 17.3558" stroke="#111111" stroke-width="1.5" stroke-miterlimit="1.5" stroke-linecap="round" stroke-linejoin="round"/>
<defs>
<filter id="filter0_d_540_1613" x="3.25034" y="2.24994" width="17.5407" height="21.9704" filterUnits="userSpaceOnUse" color-interpolation-filters="sRGB">
<feFlood flood-opacity="0" result="BackgroundImageFix"/>
<feColorMatrix in="SourceAlpha" type="matrix" values="0 0 0 0 0 0 0 0 0 0 0 0 0 0 0 0 0 0 127 0" result="hardAlpha"/>
<feOffset dy="2"/>
<feComposite in2="hardAlpha" operator="out"/>
<feColorMatrix type="matrix" values="0 0 0 0 0 0 0 0 0 0 0 0 0 0 0 0 0 0 0.2 0"/>
<feBlend mode="normal" in2="BackgroundImageFix" result="effect1_dropShadow_540_1613"/>
<feBlend mode="normal" in="SourceGraphic" in2="effect1_dropShadow_540_1613" result="shape"/>
</filter>
</defs>
</svg>
