<svg width="512" height="512" viewBox="0 0 512 512" fill="none" xmlns="http://www.w3.org/2000/svg">
<g filter="url(#filter0_d_556_508)">
<path fill-rule="evenodd" clip-rule="evenodd" d="M82.51 96.1921C82.121 96.8751 81.723 97.5541 81.341 98.2421C60.408 135.887 55.839 179.269 46.378 220.594C35.71 267.196 9.44797 311.217 8.52897 359.874C8.10897 382.087 12.141 406.73 28.158 423.321C51.075 447.061 89.202 448.469 119.657 453.974C151.081 459.654 180.332 471.089 209.285 484.292C257.715 506.379 319.406 485.072 353.447 447.418C373.294 425.465 385.721 396.891 409.862 378.904C441.137 355.601 496.736 373.502 501.911 320.753C502.714 312.569 502.522 304.303 501.439 296.171C496.617 259.965 477.705 227.326 473.331 191.056C468.66 152.32 484.581 104.418 454.927 72.7501C426.25 42.1271 381.162 42.1111 342.43 37.4561C308.499 33.3791 275.172 25.0151 241.216 20.7841C200.732 15.7391 161.646 15.2521 126.695 39.4401C106.323 54.0201 94.643 74.9091 82.51 96.1921Z" fill="white"/>
</g>
<path fill-rule="evenodd" clip-rule="evenodd" d="M196.97 98.002C198.97 89.254 206.549 81.942 216.175 80.77C229.155 79.189 242.534 81.7371 255.082 84.9241C266.059 87.7121 276.815 91.6721 286.608 97.4121C338.447 127.798 333.373 195.505 334.799 247.409C335.106 258.586 335.595 269.758 336.571 280.898C337.165 287.684 338.464 295.539 343.281 300.724C351.395 309.458 366.587 306.395 377.165 308.582C384.048 310.006 390.067 313.687 396.064 317.174C402.158 320.718 408.647 323.564 415.087 326.411C416.361 326.974 421.652 328.326 422.075 329.477C422.413 330.397 420.126 329.251 419.164 329.062C417.507 328.736 415.859 328.36 414.216 327.972C404.131 325.591 394.554 322.4 384.631 327.274C374.87 332.069 365.182 346.354 352.941 341.587C344.034 338.118 339.367 327.613 335.592 319.539C334.547 317.305 333.722 315.075 333.323 312.636C333.277 312.36 333.196 310.489 332.869 310.275C332.057 309.745 332.629 312.202 332.563 313.17C332.422 315.24 332.35 317.315 332.333 319.39C332.281 325.817 332.736 332.239 333.409 338.627C335.575 359.176 339.914 379.541 340.025 400.277C340.052 405.161 339.875 410.141 338.797 414.923C338.653 415.564 337.996 419.319 337.221 419.429C336.688 419.504 336.085 417.655 335.943 417.351C334.709 414.692 332.69 412.329 331.103 409.866C324.208 399.171 323.568 385.992 321.271 373.826C320.497 369.728 319.365 365.748 318.353 361.708C318.025 360.395 317.829 359.079 317.633 357.74C317.623 357.671 317.258 356.025 317.249 356.036C316.376 357.199 316.705 360.873 316.632 362.31C316.304 368.812 316.951 375.168 317.78 381.604C318.079 383.919 318.092 386.252 318.356 388.564C318.449 389.38 318.606 390.188 318.731 391C318.798 391.439 319.24 392.45 318.813 392.329C317.977 392.093 316.78 388.277 316.434 387.471C314.252 382.377 312.728 377.039 311.374 371.675C307.198 355.137 303.207 339.546 287.797 329.931C276.763 323.046 262.839 322.033 254.342 311.391C245.954 300.887 244.842 285.904 241.39 273.385C233.986 246.541 221.431 221.413 213.395 194.846C209.757 182.818 208.633 170.041 205.255 157.965C202.776 149.102 198.556 119.345 196.63 105.235C196.3 102.781 196.436 100.34 196.97 98.002Z" fill="#C1EDFC"/>
<mask id="mask0_556_508" style="mask-type:luminance" maskUnits="userSpaceOnUse" x="196" y="80" width="227" height="340">
<path d="M196.97 98.002C198.97 89.254 206.549 81.942 216.175 80.77C229.155 79.189 242.534 81.7371 255.082 84.9241C266.059 87.7121 276.815 91.6721 286.608 97.4121C338.447 127.798 333.373 195.505 334.799 247.409C335.106 258.586 335.595 269.758 336.571 280.898C337.165 287.684 338.464 295.539 343.281 300.724C351.395 309.458 366.587 306.395 377.165 308.582C384.048 310.006 390.067 313.687 396.064 317.174C402.158 320.718 408.647 323.564 415.087 326.411C416.361 326.974 421.652 328.326 422.075 329.477C422.413 330.397 420.126 329.251 419.164 329.062C417.507 328.736 415.859 328.36 414.216 327.972C404.131 325.591 394.554 322.4 384.631 327.274C374.87 332.069 365.182 346.354 352.941 341.587C344.034 338.118 339.367 327.613 335.592 319.539C334.547 317.305 333.722 315.075 333.323 312.636C333.277 312.36 333.196 310.489 332.869 310.275C332.057 309.745 332.629 312.202 332.563 313.17C332.422 315.24 332.35 317.315 332.333 319.39C332.281 325.817 332.736 332.239 333.409 338.627C335.575 359.176 339.914 379.541 340.025 400.277C340.052 405.161 339.875 410.141 338.797 414.923C338.653 415.564 337.996 419.319 337.221 419.429C336.688 419.504 336.085 417.655 335.943 417.351C334.709 414.692 332.69 412.329 331.103 409.866C324.208 399.171 323.568 385.992 321.271 373.826C320.497 369.728 319.365 365.748 318.353 361.708C318.025 360.395 317.829 359.079 317.633 357.74C317.623 357.671 317.258 356.025 317.249 356.036C316.376 357.199 316.705 360.873 316.632 362.31C316.304 368.812 316.951 375.168 317.78 381.604C318.079 383.919 318.092 386.252 318.356 388.564C318.449 389.38 318.606 390.188 318.731 391C318.798 391.439 319.24 392.45 318.813 392.329C317.977 392.093 316.78 388.277 316.434 387.471C314.252 382.377 312.728 377.039 311.374 371.675C307.198 355.137 303.207 339.546 287.797 329.931C276.763 323.046 262.839 322.033 254.342 311.391C245.954 300.887 244.842 285.904 241.39 273.385C233.986 246.541 221.431 221.413 213.395 194.846C209.757 182.818 208.633 170.041 205.255 157.965C202.776 149.102 198.556 119.345 196.63 105.235C196.3 102.781 196.436 100.34 196.97 98.002Z" fill="white"/>
</mask>
<g mask="url(#mask0_556_508)">
<path d="M308.026 251.238C304.888 311.959 306.056 371.85 313.038 432.228" stroke="#242630" stroke-width="2" stroke-miterlimit="1.5" stroke-linecap="round" stroke-linejoin="round"/>
<path d="M294.016 223.669C298.523 286.359 301.485 349.171 305.915 411.862" stroke="#242630" stroke-width="2" stroke-miterlimit="1.5" stroke-linecap="round" stroke-linejoin="round"/>
<path d="M307.254 249.182C306.748 310.562 311.385 373.328 322.965 433.721" stroke="#242630" stroke-width="2" stroke-miterlimit="1.5" stroke-linecap="round" stroke-linejoin="round"/>
<path d="M314.905 237.029C316.999 309.109 323.698 381.318 340.157 451.619" stroke="#242630" stroke-width="2" stroke-miterlimit="1.5" stroke-linecap="round" stroke-linejoin="round"/>
<path d="M292.322 275.21C293.193 318.357 299.926 360.309 305.408 403.002" stroke="#242630" stroke-width="2" stroke-miterlimit="1.5" stroke-linecap="round" stroke-linejoin="round"/>
<path d="M285.302 245.914C287.397 287.413 290.071 328.764 294.322 370.105C295.771 384.196 302.442 401.984 301.719 415.751" stroke="#242630" stroke-width="2" stroke-miterlimit="1.5" stroke-linecap="round" stroke-linejoin="round"/>
<path d="M326.117 181.71C326.352 217.102 330.834 251.753 334.489 286.861C337.414 314.951 339.316 343.103 343.829 371.018" stroke="#242630" stroke-width="2" stroke-miterlimit="1.5" stroke-linecap="round" stroke-linejoin="round"/>
<path d="M315.968 170.365C324.711 242.551 333.429 314.584 343.464 386.584" stroke="#242630" stroke-width="2" stroke-miterlimit="1.5" stroke-linecap="round" stroke-linejoin="round"/>
<path d="M334.855 289.914C336.546 297.097 338.479 304.193 340.621 311.255C342.156 316.315 343.848 321.291 345.903 326.165C346.76 328.197 347.811 330.204 349.005 332.061C358.422 346.71 373.156 331.268 385.039 328.466C392.616 326.68 400.797 329.462 406.757 334.11" stroke="#242630" stroke-width="2" stroke-miterlimit="1.5" stroke-linecap="round" stroke-linejoin="round"/>
<path d="M336.96 251.024C336.709 262.212 336.712 272.871 338.517 283.902C339.6 290.518 341.687 297.02 343.816 303.364C345.251 307.639 346.712 311.908 348.215 316.16C349.231 319.035 350.476 321.718 352.222 324.237C353.226 325.685 354.261 327.148 355.508 328.401C366.249 339.196 373.091 314.776 380.712 312.887C390.678 310.417 399.701 317.94 408.306 321.634" stroke="#242630" stroke-width="2" stroke-miterlimit="1.5" stroke-linecap="round" stroke-linejoin="round"/>
<path d="M379.123 302.485C377.931 304.948 376.684 307.297 375.339 309.676C374.204 311.685 374.006 312.148 372.759 313.971C369.363 318.932 363.071 329.04 355.717 327.61" stroke="#242630" stroke-width="2" stroke-miterlimit="1.5" stroke-linecap="round" stroke-linejoin="round"/>
<path d="M370.666 290.742C369.964 298.447 368.576 306.174 366.171 313.549C364.751 317.905 362.107 323.211 357.871 325.577" stroke="#242630" stroke-width="2" stroke-miterlimit="1.5" stroke-linecap="round" stroke-linejoin="round"/>
<path d="M363.544 282.357C363.322 292.744 362.222 302.894 359.442 312.939C358.101 317.781 357.585 322.615 353.712 326.067" stroke="#242630" stroke-width="2" stroke-miterlimit="1.5" stroke-linecap="round" stroke-linejoin="round"/>
</g>
<path fill-rule="evenodd" clip-rule="evenodd" d="M196.97 98.002C198.97 89.254 206.549 81.942 216.175 80.77C229.155 79.189 242.534 81.7371 255.082 84.9241C266.059 87.7121 276.815 91.6721 286.608 97.4121C338.447 127.798 333.373 195.505 334.799 247.409C335.106 258.586 335.595 269.758 336.571 280.898C337.165 287.684 338.464 295.539 343.281 300.724C351.395 309.458 366.587 306.395 377.165 308.582C384.048 310.006 390.067 313.687 396.064 317.174C402.158 320.718 408.647 323.564 415.087 326.411C416.361 326.974 421.652 328.326 422.075 329.477C422.413 330.397 420.126 329.251 419.164 329.062C417.507 328.736 415.859 328.36 414.216 327.972C404.131 325.591 394.554 322.4 384.631 327.274C374.87 332.069 365.182 346.354 352.941 341.587C344.034 338.118 339.367 327.613 335.592 319.539C334.547 317.305 333.722 315.075 333.323 312.636C333.277 312.36 333.196 310.489 332.869 310.275C332.057 309.745 332.629 312.202 332.563 313.17C332.422 315.24 332.35 317.315 332.333 319.39C332.281 325.817 332.736 332.239 333.409 338.627C335.575 359.176 339.914 379.541 340.025 400.277C340.052 405.161 339.875 410.141 338.797 414.923C338.653 415.564 337.996 419.319 337.221 419.429C336.688 419.504 336.085 417.655 335.943 417.351C334.709 414.692 332.69 412.329 331.103 409.866C324.208 399.171 323.568 385.992 321.271 373.826C320.497 369.728 319.365 365.748 318.353 361.708C318.025 360.395 317.829 359.079 317.633 357.74C317.623 357.671 317.258 356.025 317.249 356.036C316.376 357.199 316.705 360.873 316.632 362.31C316.304 368.812 316.951 375.168 317.78 381.604C318.079 383.919 318.092 386.252 318.356 388.564C318.449 389.38 318.606 390.188 318.731 391C318.798 391.439 319.24 392.45 318.813 392.329C317.977 392.093 316.78 388.277 316.434 387.471C314.252 382.377 312.728 377.039 311.374 371.675C307.198 355.137 303.207 339.546 287.797 329.931C276.763 323.046 262.839 322.033 254.342 311.391C245.954 300.887 244.842 285.904 241.39 273.385C233.986 246.541 221.431 221.413 213.395 194.846C209.757 182.818 208.633 170.041 205.255 157.965C202.776 149.102 198.556 119.345 196.63 105.235C196.3 102.781 196.436 100.34 196.97 98.002Z" stroke="#242630" stroke-width="2" stroke-miterlimit="1.5" stroke-linecap="round" stroke-linejoin="round"/>
<path fill-rule="evenodd" clip-rule="evenodd" d="M285.279 291.49C285.281 300.926 286.3 310.196 287.066 319.586C287.469 324.538 288.719 329.776 285.101 333.94C280.49 339.247 271.777 340.346 265.279 341.369C251.747 343.497 239.081 342.171 225.682 340.273C219.149 339.348 212.398 338.852 206.407 335.9C202.356 333.903 195.189 331.735 193.05 327.476C188.264 317.949 191.068 305.116 191.209 294.934C191.341 285.355 190.995 275.949 192.128 266.407C192.648 262.028 192.72 256.737 196.447 253.693C199.358 251.314 204.476 251.815 207.992 251.767C210.608 251.732 212.922 252.412 215.387 253.213C218.973 254.38 222.369 256.142 225.473 258.286C228.577 260.43 285.279 291.49 285.279 291.49Z" fill="#FFE38C" stroke="#242630" stroke-width="2" stroke-miterlimit="1.5" stroke-linecap="round" stroke-linejoin="round"/>
<path fill-rule="evenodd" clip-rule="evenodd" d="M274.201 117.843C271.025 108.582 260.849 99.7581 253.374 96.0631C234.353 86.6601 209.267 75.9661 187.886 86.7721C144.997 108.448 136.845 141.762 129.733 186.616C127.58 196.496 125.551 206.669 122.897 217.307C114.729 250.041 108.05 282.905 100.577 315.777C97.6219 328.772 91.1659 343.008 90.2119 356.244C90.1339 357.328 96.6549 359.264 97.4019 359.529C107.361 363.052 116.267 369.114 126.123 372.912C129.696 374.289 133.32 375.558 137.056 376.421C149.922 379.392 157.924 374.073 165.198 363.831C167.254 360.937 169.352 355.796 172.114 353.656C172.39 353.441 172.133 354.355 172.141 354.705C172.163 355.637 172.178 356.569 172.184 357.502C172.199 360.041 172.126 362.582 172.044 365.12C171.773 373.506 170.017 382.559 161.887 386.865C151.428 392.404 139.55 383.193 129.957 379.66C127.106 378.609 124.235 377.555 121.297 376.772C120.822 376.646 118.538 375.828 118.117 376.421C117.525 377.254 120.842 377.672 121.331 377.888C123.788 378.971 126.042 380.753 128.187 382.34C137.456 389.2 148.517 397.613 160.7 394.458C168.625 392.405 175.178 384.641 177.737 377.026C178.737 374.049 179.237 370.86 179.904 367.797C179.95 367.587 180.345 364.976 180.588 364.946C180.897 364.907 181.159 368.327 181.18 368.545C181.584 372.727 181.826 376.926 182.082 381.12C182.735 391.824 184.436 402.508 187.262 412.861C188.731 418.241 190.358 423.616 192.329 428.834C192.766 429.989 193.74 433.885 195.194 434.303C195.807 434.48 195.359 431.367 195.336 431.001C194.815 422.888 193.309 414.881 192.705 406.776C192.498 404 192.401 401.214 192.493 398.43C192.516 397.731 192.551 397.032 192.599 396.334C192.635 395.807 192.506 394.321 192.796 394.762C193.938 396.499 194.125 400.448 194.784 402.554C198.556 414.602 199.153 429.08 209.243 437.923C210.78 439.27 212.565 440.76 213.781 442.408C214.01 442.717 214.664 444.159 215.148 444.136C215.557 444.117 215.678 442.263 215.708 441.974C215.975 439.445 215.774 436.573 215.071 434.121C214.983 433.812 213.771 430.635 214.241 430.568C215.467 430.394 217.225 433.638 217.682 434.45C220.36 439.206 221.461 444.698 224.205 449.411C224.962 450.711 226.52 454.37 227.92 454.985C228.03 455.034 227.277 451.922 227.252 451.837C226.75 450.162 226.189 448.496 225.847 446.778C224.618 440.609 223.467 434.417 222.36 428.225C219.2 410.558 216.734 392.788 214.842 374.942C211.563 344.018 209.88 312.955 208.429 281.9C207.22 256.024 205.773 229.53 213.098 204.346C217.387 189.6 226.28 174.886 235.774 161.444C242.088 149.189 253.2 142.372 264.268 134.931C267.792 132.561 275.608 126.973 275.117 121.943C274.984 120.577 274.668 119.205 274.201 117.843Z" fill="#C1EDFC"/>
<mask id="mask1_556_508" style="mask-type:luminance" maskUnits="userSpaceOnUse" x="90" y="82" width="186" height="373">
<path d="M274.201 117.843C271.025 108.582 260.849 99.7581 253.374 96.0631C234.353 86.6601 209.267 75.9661 187.886 86.7721C144.997 108.448 136.845 141.762 129.733 186.616C127.58 196.496 125.551 206.669 122.897 217.307C114.729 250.041 108.05 282.905 100.577 315.777C97.6219 328.772 91.1659 343.008 90.2119 356.244C90.1339 357.328 96.6549 359.264 97.4019 359.529C107.361 363.052 116.267 369.114 126.123 372.912C129.696 374.289 133.32 375.558 137.056 376.421C149.922 379.392 157.924 374.073 165.198 363.831C167.254 360.937 169.352 355.796 172.114 353.656C172.39 353.441 172.133 354.355 172.141 354.705C172.163 355.637 172.178 356.569 172.184 357.502C172.199 360.041 172.126 362.582 172.044 365.12C171.773 373.506 170.017 382.559 161.887 386.865C151.428 392.404 139.55 383.193 129.957 379.66C127.106 378.609 124.235 377.555 121.297 376.772C120.822 376.646 118.538 375.828 118.117 376.421C117.525 377.254 120.842 377.672 121.331 377.888C123.788 378.971 126.042 380.753 128.187 382.34C137.456 389.2 148.517 397.613 160.7 394.458C168.625 392.405 175.178 384.641 177.737 377.026C178.737 374.049 179.237 370.86 179.904 367.797C179.95 367.587 180.345 364.976 180.588 364.946C180.897 364.907 181.159 368.327 181.18 368.545C181.584 372.727 181.826 376.926 182.082 381.12C182.735 391.824 184.436 402.508 187.262 412.861C188.731 418.241 190.358 423.616 192.329 428.834C192.766 429.989 193.74 433.885 195.194 434.303C195.807 434.48 195.359 431.367 195.336 431.001C194.815 422.888 193.309 414.881 192.705 406.776C192.498 404 192.401 401.214 192.493 398.43C192.516 397.731 192.551 397.032 192.599 396.334C192.635 395.807 192.506 394.321 192.796 394.762C193.938 396.499 194.125 400.448 194.784 402.554C198.556 414.602 199.153 429.08 209.243 437.923C210.78 439.27 212.565 440.76 213.781 442.408C214.01 442.717 214.664 444.159 215.148 444.136C215.557 444.117 215.678 442.263 215.708 441.974C215.975 439.445 215.774 436.573 215.071 434.121C214.983 433.812 213.771 430.635 214.241 430.568C215.467 430.394 217.225 433.638 217.682 434.45C220.36 439.206 221.461 444.698 224.205 449.411C224.962 450.711 226.52 454.37 227.92 454.985C228.03 455.034 227.277 451.922 227.252 451.837C226.75 450.162 226.189 448.496 225.847 446.778C224.618 440.609 223.467 434.417 222.36 428.225C219.2 410.558 216.734 392.788 214.842 374.942C211.563 344.018 209.88 312.955 208.429 281.9C207.22 256.024 205.773 229.53 213.098 204.346C217.387 189.6 226.28 174.886 235.774 161.444C242.088 149.189 253.2 142.372 264.268 134.931C267.792 132.561 275.608 126.973 275.117 121.943C274.984 120.577 274.668 119.205 274.201 117.843Z" fill="white"/>
</mask>
<g mask="url(#mask1_556_508)">
<path d="M202.36 262.185C202.832 334.177 208.666 408.833 226.927 478.881" stroke="#242630" stroke-width="2" stroke-miterlimit="1.5" stroke-linecap="round" stroke-linejoin="round"/>
<path d="M195.422 268.305C198.476 341.18 200.804 414.824 215.854 486.374" stroke="#242630" stroke-width="2" stroke-miterlimit="1.5" stroke-linecap="round" stroke-linejoin="round"/>
<path d="M190.338 278.394C191.433 348.416 203.42 418.001 215.818 486.673" stroke="#242630" stroke-width="2" stroke-miterlimit="1.5" stroke-linecap="round" stroke-linejoin="round"/>
<path d="M185.595 150.155C164.238 205.664 167.665 283.767 170.811 342.443" stroke="#242630" stroke-width="2" stroke-miterlimit="1.5" stroke-linecap="round" stroke-linejoin="round"/>
<path d="M136.723 181.193C130.819 217.833 127.056 254.885 122.398 291.709C119.204 316.963 113.446 342.534 111.653 367.857" stroke="#242630" stroke-width="2" stroke-miterlimit="1.5" stroke-linecap="round" stroke-linejoin="round"/>
<path d="M140.172 207.119C136.386 235.873 136.078 264.6 133.788 293.467C132.137 314.28 129.483 335.318 129.157 356.217" stroke="#242630" stroke-width="2" stroke-miterlimit="1.5" stroke-linecap="round" stroke-linejoin="round"/>
<path d="M151.149 149.048C143.132 216.684 137.026 284.348 140.381 352.601" stroke="#242630" stroke-width="2" stroke-miterlimit="1.5" stroke-linecap="round" stroke-linejoin="round"/>
<path d="M151.763 212.867C149.402 253.955 148.177 295.44 149.051 336.623" stroke="#242630" stroke-width="2" stroke-miterlimit="1.5" stroke-linecap="round" stroke-linejoin="round"/>
</g>
<path fill-rule="evenodd" clip-rule="evenodd" d="M274.201 117.843C271.025 108.582 260.849 99.7581 253.374 96.0631C234.353 86.6601 209.267 75.9661 187.886 86.7721C144.997 108.448 136.845 141.762 129.733 186.616C127.58 196.496 125.551 206.669 122.897 217.307C114.729 250.041 108.05 282.905 100.577 315.777C97.6219 328.772 91.1659 343.008 90.2119 356.244C90.1339 357.328 96.6549 359.264 97.4019 359.529C107.361 363.052 116.267 369.114 126.123 372.912C129.696 374.289 133.32 375.558 137.056 376.421C149.922 379.392 157.924 374.073 165.198 363.831C167.254 360.937 169.352 355.796 172.114 353.656C172.39 353.441 172.133 354.355 172.141 354.705C172.163 355.637 172.178 356.569 172.184 357.502C172.199 360.041 172.126 362.582 172.044 365.12C171.773 373.506 170.017 382.559 161.887 386.865C151.428 392.404 139.55 383.193 129.957 379.66C127.106 378.609 124.235 377.555 121.297 376.772C120.822 376.646 118.538 375.828 118.117 376.421C117.525 377.254 120.842 377.672 121.331 377.888C123.788 378.971 126.042 380.753 128.187 382.34C137.456 389.2 148.517 397.613 160.7 394.458C168.625 392.405 175.178 384.641 177.737 377.026C178.737 374.049 179.237 370.86 179.904 367.797C179.95 367.587 180.345 364.976 180.588 364.946C180.897 364.907 181.159 368.327 181.18 368.545C181.584 372.727 181.826 376.926 182.082 381.12C182.735 391.824 184.436 402.508 187.262 412.861C188.731 418.241 190.358 423.616 192.329 428.834C192.766 429.989 193.74 433.885 195.194 434.303C195.807 434.48 195.359 431.367 195.336 431.001C194.815 422.888 193.309 414.881 192.705 406.776C192.498 404 192.401 401.214 192.493 398.43C192.516 397.731 192.551 397.032 192.599 396.334C192.635 395.807 192.506 394.321 192.796 394.762C193.938 396.499 194.125 400.448 194.784 402.554C198.556 414.602 199.153 429.08 209.243 437.923C210.78 439.27 212.565 440.76 213.781 442.408C214.01 442.717 214.664 444.159 215.148 444.136C215.557 444.117 215.678 442.263 215.708 441.974C215.975 439.445 215.774 436.573 215.071 434.121C214.983 433.812 213.771 430.635 214.241 430.568C215.467 430.394 217.225 433.638 217.682 434.45C220.36 439.206 221.461 444.698 224.205 449.411C224.962 450.711 226.52 454.37 227.92 454.985C228.03 455.034 227.277 451.922 227.252 451.837C226.75 450.162 226.189 448.496 225.847 446.778C224.618 440.609 223.467 434.417 222.36 428.225C219.2 410.558 216.734 392.788 214.842 374.942C211.563 344.018 209.88 312.955 208.429 281.9C207.22 256.024 205.773 229.53 213.098 204.346C217.387 189.6 226.28 174.886 235.774 161.444C242.088 149.189 253.2 142.372 264.268 134.931C267.792 132.561 275.608 126.973 275.117 121.943C274.984 120.577 274.668 119.205 274.201 117.843Z" stroke="#242630" stroke-width="2" stroke-miterlimit="1.5" stroke-linecap="round" stroke-linejoin="round"/>
<path fill-rule="evenodd" clip-rule="evenodd" d="M203.749 263.264C203.895 263.734 204.051 264.199 204.218 264.66C206.689 271.502 211.162 277.405 215.783 282.901C218.912 286.622 221.755 290.001 225.734 292.897C232.066 297.894 239.65 301.907 246.352 305.929C263.497 313.849 283.887 313.662 297.25 298.262C318.644 273.609 328.072 234.379 325.741 202.418C324.573 186.398 319.701 169.989 307.789 158.634C302.445 153.541 295.399 151.213 288.379 149.435C271.052 145.044 253.655 145.234 237.451 153.625C221.109 162.087 207.182 180.887 202.175 198.463C200.437 204.562 200.825 220.22 201.673 234.601C201.642 243.691 200.969 254.339 203.749 263.264Z" fill="#FFE38C"/>
<mask id="mask2_556_508" style="mask-type:luminance" maskUnits="userSpaceOnUse" x="200" y="146" width="127" height="166">
<path d="M203.749 263.264C203.895 263.734 204.051 264.199 204.218 264.66C206.689 271.502 211.162 277.405 215.783 282.901C218.912 286.622 221.755 290.001 225.734 292.897C232.066 297.894 239.65 301.907 246.352 305.929C263.497 313.849 283.887 313.662 297.25 298.262C318.644 273.609 328.072 234.379 325.741 202.418C324.573 186.398 319.701 169.989 307.789 158.634C302.445 153.541 295.399 151.213 288.379 149.435C271.052 145.044 253.655 145.234 237.451 153.625C221.109 162.087 207.182 180.887 202.175 198.463C200.437 204.562 200.825 220.22 201.673 234.601C201.642 243.691 200.969 254.339 203.749 263.264Z" fill="white"/>
</mask>
<g mask="url(#mask2_556_508)">
<path d="M289.924 197.898C291.251 201.946 292.846 205.696 294.652 209.55C295.855 212.118 296.951 214.765 298.406 217.206C299.497 219.036 301.448 221.017 302.105 223.058C302.883 225.474 300.793 229.028 298.821 230.316C294.181 233.345 287.344 232.771 282.106 234.885" stroke="#242630" stroke-width="2" stroke-miterlimit="1.5" stroke-linecap="round" stroke-linejoin="round"/>
<path d="M272.228 224.937C271.477 227.297 271.436 230.034 272.731 232.234C273.326 233.244 275.811 233.93 276.694 232.868C277.992 231.305 277.66 229.737 280.307 228.868C282.541 228.134 285.434 228.054 287.744 228.585" stroke="#242630" stroke-width="2" stroke-miterlimit="1.5" stroke-linecap="round" stroke-linejoin="round"/>
<path fill-rule="evenodd" clip-rule="evenodd" d="M258.474 260.369C261.916 259.955 265.349 260.032 268.786 259.523C271.412 259.133 273.9 258.121 276.537 257.807C278.565 257.566 280.422 258.528 282.454 258.159C285.981 257.517 288.17 256.718 291.749 257.524C292.454 257.683 293.166 257.784 293.882 257.885C294.266 257.938 295.303 257.761 295.034 258.039C293.963 259.14 290.618 259.311 289.218 259.707C282.651 261.567 276.219 261.514 269.436 260.957C267.247 260.778 258.474 260.369 258.474 260.369Z" fill="white" stroke="#242630" stroke-width="2" stroke-miterlimit="1.5" stroke-linecap="round" stroke-linejoin="round"/>
<path d="M268.978 274.955C276.464 276.006 283.161 277.568 290.173 273.997" stroke="#242630" stroke-width="2" stroke-miterlimit="1.5" stroke-linecap="round" stroke-linejoin="round"/>
<path d="M255.842 258.381C256.277 260.803 259.604 259.856 261.181 259.359C263.311 258.688 265.827 257.742 267.685 256.459C269.924 254.913 271.806 252.659 274.466 251.822C277.155 250.977 279.502 252.288 282.163 252.391C285.155 252.507 287.966 250.767 290.968 251.234C293.944 251.697 296.404 254.882 298.458 256.838" stroke="#242630" stroke-width="2" stroke-miterlimit="1.5" stroke-linecap="round" stroke-linejoin="round"/>
</g>
<path fill-rule="evenodd" clip-rule="evenodd" d="M203.749 263.264C203.895 263.734 204.051 264.199 204.218 264.66C206.689 271.502 211.162 277.405 215.783 282.901C218.912 286.622 221.755 290.001 225.734 292.897C232.066 297.894 239.65 301.907 246.352 305.929C263.497 313.849 283.887 313.662 297.25 298.262C318.644 273.609 328.072 234.379 325.741 202.418C324.573 186.398 319.701 169.989 307.789 158.634C302.445 153.541 295.399 151.213 288.379 149.435C271.052 145.044 253.655 145.234 237.451 153.625C221.109 162.087 207.182 180.887 202.175 198.463C200.437 204.562 200.825 220.22 201.673 234.601C201.642 243.691 200.969 254.339 203.749 263.264Z" stroke="#242630" stroke-width="2" stroke-miterlimit="1.5" stroke-linecap="round" stroke-linejoin="round"/>
<path fill-rule="evenodd" clip-rule="evenodd" d="M336.659 194.391C333.266 195.932 329.439 196.527 325.723 196.068C323.187 195.755 319.9 194.436 317.391 195.345C313.841 196.631 313.659 201.227 312.304 204.11C310.631 207.67 306.21 209.184 302.506 209.209C300.692 209.221 298.899 208.706 297.216 208.074C295.271 207.343 293.397 206.303 292.007 204.746C290.509 203.069 290.057 200.581 289.598 198.459C287.748 189.898 290.297 182.544 298.698 178.373C308.124 173.693 319.192 175.307 328.274 179.989C331.236 181.516 336.659 194.391 336.659 194.391Z" fill="#242630" stroke="#242630" stroke-width="2" stroke-miterlimit="1.5" stroke-linecap="round" stroke-linejoin="round"/>
<path fill-rule="evenodd" clip-rule="evenodd" d="M308.987 184.564C315.843 188.897 322.366 193.392 327.043 200.159C330.912 205.758 332.571 213.431 338.172 217.68C345.707 223.397 355.324 219.838 363.607 222.989C367.736 224.56 370.285 227.774 373.188 230.951C377.022 235.148 381.091 239.338 384.464 243.906C391.005 252.761 395.748 262.744 400.615 272.569C404.226 279.86 407.874 287.133 411.472 294.431C411.673 291.881 411.874 289.358 412.568 286.889C414.768 279.067 422.368 277.089 429.972 279.48C436.869 281.65 444.392 289.875 452.269 288.306C461.502 286.467 464.539 274.696 474.23 273.743C460.978 256.656 446.869 240.208 434.636 222.352C429.391 214.696 422.183 205.758 419.691 196.719C413.601 174.631 413.231 151.211 404.346 129.838C399.804 118.914 392.302 107.898 380.283 104.563C371.005 101.988 366.987 112.715 359.382 115.247C356.209 116.303 353.466 114.993 350.595 113.716C347.757 112.455 344.487 110.604 341.292 110.622C336.275 110.649 330.763 113.948 326.505 116.381C317.405 121.58 310.401 124.887 307.286 135.595C304.237 146.077 303.316 157.315 301.657 168.09C301.109 171.654 308.987 184.564 308.987 184.564Z" fill="#FFE38C"/>
<mask id="mask3_556_508" style="mask-type:luminance" maskUnits="userSpaceOnUse" x="301" y="104" width="174" height="191">
<path d="M308.987 184.564C315.843 188.897 322.366 193.392 327.043 200.159C330.912 205.758 332.571 213.431 338.172 217.68C345.707 223.397 355.324 219.838 363.607 222.989C367.736 224.56 370.285 227.774 373.188 230.951C377.022 235.148 381.091 239.338 384.464 243.906C391.005 252.761 395.748 262.744 400.615 272.569C404.226 279.86 407.874 287.133 411.472 294.431C411.673 291.881 411.874 289.358 412.568 286.889C414.768 279.067 422.368 277.089 429.972 279.48C436.869 281.65 444.392 289.875 452.269 288.306C461.502 286.467 464.539 274.696 474.23 273.743C460.978 256.656 446.869 240.208 434.636 222.352C429.391 214.696 422.183 205.758 419.691 196.719C413.601 174.631 413.231 151.211 404.346 129.838C399.804 118.914 392.302 107.898 380.283 104.563C371.005 101.988 366.987 112.715 359.382 115.247C356.209 116.303 353.466 114.993 350.595 113.716C347.757 112.455 344.487 110.604 341.292 110.622C336.275 110.649 330.763 113.948 326.505 116.381C317.405 121.58 310.401 124.887 307.286 135.595C304.237 146.077 303.316 157.315 301.657 168.09C301.109 171.654 308.987 184.564 308.987 184.564Z" fill="white"/>
</mask>
<g mask="url(#mask3_556_508)">
<path d="M369.057 220.34C378.071 215.343 385.069 210.806 385.804 199.869" stroke="#242630" stroke-width="2" stroke-miterlimit="1.5" stroke-linecap="round" stroke-linejoin="round"/>
<path d="M348.574 188.378C350.935 194.293 352.452 200.269 350.081 206.364" stroke="#242630" stroke-width="2" stroke-miterlimit="1.5" stroke-linecap="round" stroke-linejoin="round"/>
<path d="M389.798 213.011C395.404 210.803 401.503 210.217 407.32 208.756C410.636 207.923 413.504 207.28 415.596 204.455" stroke="#242630" stroke-width="2" stroke-miterlimit="1.5" stroke-linecap="round" stroke-linejoin="round"/>
<path d="M397.046 223.569C402.778 232.126 408.271 240.877 414.053 249.388" stroke="#242630" stroke-width="2" stroke-miterlimit="1.5" stroke-linecap="round" stroke-linejoin="round"/>
<path d="M410.427 223.385C411.901 225.186 413.224 227.065 414.657 228.89" stroke="#242630" stroke-width="2" stroke-miterlimit="1.5" stroke-linecap="round" stroke-linejoin="round"/>
<path d="M368.925 172.578C376.411 176.583 383.452 180.703 388.41 187.67" stroke="#242630" stroke-width="2" stroke-miterlimit="1.5" stroke-linecap="round" stroke-linejoin="round"/>
<path d="M365.684 111.07C361.526 115.182 357.649 119.247 353.779 123.601" stroke="#242630" stroke-width="2" stroke-miterlimit="1.5" stroke-linecap="round" stroke-linejoin="round"/>
<path d="M342.035 118.834C342.896 123.937 341.652 129.335 339.76 134.168" stroke="#242630" stroke-width="2" stroke-miterlimit="1.5" stroke-linecap="round" stroke-linejoin="round"/>
</g>
<path fill-rule="evenodd" clip-rule="evenodd" d="M308.987 184.564C315.843 188.897 322.366 193.392 327.043 200.159C330.912 205.758 332.571 213.431 338.172 217.68C345.707 223.397 355.324 219.838 363.607 222.989C367.736 224.56 370.285 227.774 373.188 230.951C377.022 235.148 381.091 239.338 384.464 243.906C391.005 252.761 395.748 262.744 400.615 272.569C404.226 279.86 407.874 287.133 411.472 294.431C411.673 291.881 411.874 289.358 412.568 286.889C414.768 279.067 422.368 277.089 429.972 279.48C436.869 281.65 444.392 289.875 452.269 288.306C461.502 286.467 464.539 274.696 474.23 273.743C460.978 256.656 446.869 240.208 434.636 222.352C429.391 214.696 422.183 205.758 419.691 196.719C413.601 174.631 413.231 151.211 404.346 129.838C399.804 118.914 392.302 107.898 380.283 104.563C371.005 101.988 366.987 112.715 359.382 115.247C356.209 116.303 353.466 114.993 350.595 113.716C347.757 112.455 344.487 110.604 341.292 110.622C336.275 110.649 330.763 113.948 326.505 116.381C317.405 121.58 310.401 124.887 307.286 135.595C304.237 146.077 303.316 157.315 301.657 168.09C301.109 171.654 308.987 184.564 308.987 184.564Z" stroke="#242630" stroke-width="2" stroke-miterlimit="1.5" stroke-linecap="round" stroke-linejoin="round"/>
<path fill-rule="evenodd" clip-rule="evenodd" d="M400.699 172.256C399.567 173.057 398.264 173.687 397.013 174.197C384.869 179.149 372.478 183.284 360.26 187.982C357.592 189.007 354.923 190.069 352.178 190.873C350.566 191.345 348.947 191.968 348.009 190.154C347.223 188.632 346.624 187.379 345.291 186.245C342.049 183.49 338.195 182.874 334.203 181.93C326.36 180.076 318.935 181.297 311.201 183.105C309.341 183.54 307.495 184.031 305.634 184.457C305.382 184.515 303.69 185.077 303.468 184.815C302.543 183.721 303.502 181.367 303.935 180.288C305.466 176.468 308.367 173.192 309.653 169.295C312.124 161.81 309.284 153.529 312.057 146.035C313.718 141.546 319.34 138.976 323.191 136.651C327.946 133.781 333.637 132.284 338.68 129.944C348.366 125.449 357.645 120.054 367.425 115.773C371.048 114.187 376.443 111.407 380.546 112.467C384.463 113.479 386.404 119.596 387.899 122.833C392.203 132.157 398.659 140.327 402.777 149.736C402.872 151.161 403.072 152.558 403.309 153.94C403.77 159.503 406.444 167.196 401.498 171.622C401.245 171.848 400.978 172.058 400.699 172.256Z" fill="#242630" stroke="#242630" stroke-width="2" stroke-miterlimit="1.5" stroke-linecap="round" stroke-linejoin="round"/>
<path fill-rule="evenodd" clip-rule="evenodd" d="M278.121 200.157C284.035 198.047 289.461 195.113 295.125 192.438C303.345 188.556 311.52 184.966 319.623 180.817C324.065 178.542 331.343 176.558 333.272 171.462C337.073 161.425 330.169 150.969 323.01 144.535C318.705 140.665 314.58 136.212 309.699 133.036C304.955 129.95 300.547 129.107 295.273 127.698C286.96 125.477 279.328 123.251 270.754 126.213C255.064 131.635 246.472 148.124 239.165 161.918C234.86 170.043 230.7 178.998 229.993 188.294C229.778 191.116 230.183 193.876 231.232 196.505C236.743 210.324 252.464 212.021 265.586 208.833C268.549 208.114 278.121 200.157 278.121 200.157Z" fill="#242630" stroke="#242630" stroke-width="2" stroke-miterlimit="1.5" stroke-linecap="round" stroke-linejoin="round"/>
<path fill-rule="evenodd" clip-rule="evenodd" d="M385.231 110.885C402.722 110.885 418.025 125.086 419.382 142.577C420.74 160.068 407.641 174.269 390.15 174.269C372.659 174.269 357.356 160.068 355.998 142.577C354.641 125.086 367.74 110.885 385.231 110.885Z" fill="white" stroke="#242630" stroke-width="2" stroke-miterlimit="1.5" stroke-linecap="round" stroke-linejoin="round"/>
<path fill-rule="evenodd" clip-rule="evenodd" d="M311.827 114.95C329.318 114.95 344.621 129.151 345.978 146.642C347.336 164.133 334.237 178.334 316.746 178.334C299.254 178.334 283.952 164.133 282.594 146.642C281.237 129.151 294.336 114.95 311.827 114.95Z" fill="white" stroke="#242630" stroke-width="2" stroke-miterlimit="1.5" stroke-linecap="round" stroke-linejoin="round"/>
<path fill-rule="evenodd" clip-rule="evenodd" d="M312.204 119.816C327.01 119.816 339.963 131.836 341.112 146.642C342.261 161.448 331.174 173.468 316.368 173.468C301.562 173.468 288.609 161.448 287.46 146.642C286.311 131.836 297.399 119.816 312.204 119.816Z" fill="white" stroke="#242630" stroke-width="2" stroke-miterlimit="1.5" stroke-linecap="round" stroke-linejoin="round"/>
<path fill-rule="evenodd" clip-rule="evenodd" d="M385.764 115.386C400.57 115.386 413.523 127.407 414.672 142.212C415.821 157.018 404.734 169.039 389.928 169.039C375.122 169.039 362.169 157.018 361.02 142.212C359.871 127.407 370.958 115.386 385.764 115.386Z" fill="white" stroke="#242630" stroke-width="2" stroke-miterlimit="1.5" stroke-linecap="round" stroke-linejoin="round"/>
<path fill-rule="evenodd" clip-rule="evenodd" d="M120.013 405.648C118.499 402.479 117.108 399.749 114.805 397.117C105.119 386.048 93.0519 387.137 79.8339 388.009C70.9429 388.595 60.7469 388.495 53.3939 382.686C51.6519 381.31 47.9749 378.692 47.8909 376.225C47.8649 375.446 48.7809 374.6 49.2099 374.01C50.5829 372.128 52.0029 370.281 53.4569 368.461C59.1299 361.359 65.3039 354.68 71.3799 347.927C95.2819 321.358 120.266 296.001 145.163 270.372C156.285 258.923 170.363 248.907 177.606 234.305C187.128 215.109 183.311 192.584 190.714 172.781C192.122 169.015 193.824 165.386 196.837 162.634C202.461 157.499 210.407 155.535 215.552 149.804C221.165 143.553 221.404 134.216 227.267 128.129C233.7 121.451 242.069 127.867 249.341 124.744C254.289 122.62 255.611 116.767 261.557 115.594C270.646 113.801 279.471 121.317 288.291 122.674C288.92 122.771 290.358 122.792 290.665 123.488C290.796 123.784 289.452 124.292 289.194 124.476C287.695 125.543 286.141 126.525 284.643 127.596C281.553 129.805 278.37 131.943 274.557 132.592C273.128 132.835 268.25 132.336 267.366 133.205C264.256 136.261 262.548 142.453 260.708 146.326C255.23 157.861 249.286 168.32 248.25 181.38C247.977 184.819 247.961 188.249 248.068 191.694C248.085 192.212 247.822 194.412 248.148 194.746C250.375 197.031 254.971 195.848 257.622 195.29C262.701 194.222 267.38 192.059 272.573 191.481C275.602 191.144 278.318 192.12 281.327 192.12C285.793 192.119 290.05 191.241 294.461 190.765C296.341 190.562 298.225 190.448 300.081 190.07C300.437 189.998 301.875 189.336 302.107 189.448C302.285 189.535 302.228 190.088 302.223 190.244C302.195 191.079 301.946 191.902 301.646 192.675C300.478 195.694 298.44 198.633 296.156 200.921C292.162 204.922 287.282 207.767 282.915 211.309C279.665 213.945 276.758 217.413 273.107 219.442C266.88 222.905 258.513 221.4 252.875 225.964C248.57 229.448 249.268 237.315 246.382 241.963C238.974 253.894 229.772 264.608 220.71 275.291C185.206 317.146 150.549 359.991 120.013 405.648Z" fill="#FFE38C"/>
<mask id="mask4_556_508" style="mask-type:luminance" maskUnits="userSpaceOnUse" x="47" y="115" width="256" height="291">
<path d="M120.013 405.648C118.499 402.479 117.108 399.749 114.805 397.117C105.119 386.048 93.0519 387.137 79.8339 388.009C70.9429 388.595 60.7469 388.495 53.3939 382.686C51.6519 381.31 47.9749 378.692 47.8909 376.225C47.8649 375.446 48.7809 374.6 49.2099 374.01C50.5829 372.128 52.0029 370.281 53.4569 368.461C59.1299 361.359 65.3039 354.68 71.3799 347.927C95.2819 321.358 120.266 296.001 145.163 270.372C156.285 258.923 170.363 248.907 177.606 234.305C187.128 215.109 183.311 192.584 190.714 172.781C192.122 169.015 193.824 165.386 196.837 162.634C202.461 157.499 210.407 155.535 215.552 149.804C221.165 143.553 221.404 134.216 227.267 128.129C233.7 121.451 242.069 127.867 249.341 124.744C254.289 122.62 255.611 116.767 261.557 115.594C270.646 113.801 279.471 121.317 288.291 122.674C288.92 122.771 290.358 122.792 290.665 123.488C290.796 123.784 289.452 124.292 289.194 124.476C287.695 125.543 286.141 126.525 284.643 127.596C281.553 129.805 278.37 131.943 274.557 132.592C273.128 132.835 268.25 132.336 267.366 133.205C264.256 136.261 262.548 142.453 260.708 146.326C255.23 157.861 249.286 168.32 248.25 181.38C247.977 184.819 247.961 188.249 248.068 191.694C248.085 192.212 247.822 194.412 248.148 194.746C250.375 197.031 254.971 195.848 257.622 195.29C262.701 194.222 267.38 192.059 272.573 191.481C275.602 191.144 278.318 192.12 281.327 192.12C285.793 192.119 290.05 191.241 294.461 190.765C296.341 190.562 298.225 190.448 300.081 190.07C300.437 189.998 301.875 189.336 302.107 189.448C302.285 189.535 302.228 190.088 302.223 190.244C302.195 191.079 301.946 191.902 301.646 192.675C300.478 195.694 298.44 198.633 296.156 200.921C292.162 204.922 287.282 207.767 282.915 211.309C279.665 213.945 276.758 217.413 273.107 219.442C266.88 222.905 258.513 221.4 252.875 225.964C248.57 229.448 249.268 237.315 246.382 241.963C238.974 253.894 229.772 264.608 220.71 275.291C185.206 317.146 150.549 359.991 120.013 405.648Z" fill="white"/>
</mask>
<g mask="url(#mask4_556_508)">
<path d="M248.2 195.113C247.789 204.075 250.52 212.425 250.928 221.259C251.312 229.603 248.776 238.47 244.659 245.666" stroke="#242630" stroke-width="2" stroke-miterlimit="1.5" stroke-linecap="round" stroke-linejoin="round"/>
<path d="M245.35 210.548C245.882 215.174 247.141 220.847 245.718 225.438C244.28 230.076 241.237 233.739 238.381 237.479" stroke="#242630" stroke-width="2" stroke-miterlimit="1.5" stroke-linecap="round" stroke-linejoin="round"/>
<path d="M239.245 137.603C244.535 132.624 249.869 126.881 254.274 121.141" stroke="#242630" stroke-width="2" stroke-miterlimit="1.5" stroke-linecap="round" stroke-linejoin="round"/>
<path d="M168.636 246.937C176.243 238.179 181.931 229.536 187.999 219.716C189.855 216.712 192.355 214.074 193.923 210.898" stroke="#242630" stroke-width="2" stroke-miterlimit="1.5" stroke-linecap="round" stroke-linejoin="round"/>
<path d="M245.765 148.669C250.56 152.867 252.734 157.41 252.399 163.981" stroke="#242630" stroke-width="2" stroke-miterlimit="1.5" stroke-linecap="round" stroke-linejoin="round"/>
<path d="M262.083 126.883C263.183 130.054 263.732 132.613 263.843 135.986" stroke="#242630" stroke-width="2" stroke-miterlimit="1.5" stroke-linecap="round" stroke-linejoin="round"/>
<path d="M258.498 213.48C258.208 214.202 257.918 214.924 257.627 215.645" stroke="#242630" stroke-width="2" stroke-miterlimit="1.5" stroke-linecap="round" stroke-linejoin="round"/>
<path d="M266.609 211.697C266.374 212.219 266.149 212.746 265.899 213.262" stroke="#242630" stroke-width="2" stroke-miterlimit="1.5" stroke-linecap="round" stroke-linejoin="round"/>
</g>
<path fill-rule="evenodd" clip-rule="evenodd" d="M120.013 405.648C118.499 402.479 117.108 399.749 114.805 397.117C105.119 386.048 93.0519 387.137 79.8339 388.009C70.9429 388.595 60.7469 388.495 53.3939 382.686C51.6519 381.31 47.9749 378.692 47.8909 376.225C47.8649 375.446 48.7809 374.6 49.2099 374.01C50.5829 372.128 52.0029 370.281 53.4569 368.461C59.1299 361.359 65.3039 354.68 71.3799 347.927C95.2819 321.358 120.266 296.001 145.163 270.372C156.285 258.923 170.363 248.907 177.606 234.305C187.128 215.109 183.311 192.584 190.714 172.781C192.122 169.015 193.824 165.386 196.837 162.634C202.461 157.499 210.407 155.535 215.552 149.804C221.165 143.553 221.404 134.216 227.267 128.129C233.7 121.451 242.069 127.867 249.341 124.744C254.289 122.62 255.611 116.767 261.557 115.594C270.646 113.801 279.471 121.317 288.291 122.674C288.92 122.771 290.358 122.792 290.665 123.488C290.796 123.784 289.452 124.292 289.194 124.476C287.695 125.543 286.141 126.525 284.643 127.596C281.553 129.805 278.37 131.943 274.557 132.592C273.128 132.835 268.25 132.336 267.366 133.205C264.256 136.261 262.548 142.453 260.708 146.326C255.23 157.861 249.286 168.32 248.25 181.38C247.977 184.819 247.961 188.249 248.068 191.694C248.085 192.212 247.822 194.412 248.148 194.746C250.375 197.031 254.971 195.848 257.622 195.29C262.701 194.222 267.38 192.059 272.573 191.481C275.602 191.144 278.318 192.12 281.327 192.12C285.793 192.119 290.05 191.241 294.461 190.765C296.341 190.562 298.225 190.448 300.081 190.07C300.437 189.998 301.875 189.336 302.107 189.448C302.285 189.535 302.228 190.088 302.223 190.244C302.195 191.079 301.946 191.902 301.646 192.675C300.478 195.694 298.44 198.633 296.156 200.921C292.162 204.922 287.282 207.767 282.915 211.309C279.665 213.945 276.758 217.413 273.107 219.442C266.88 222.905 258.513 221.4 252.875 225.964C248.57 229.448 249.268 237.315 246.382 241.963C238.974 253.894 229.772 264.608 220.71 275.291C185.206 317.146 150.549 359.991 120.013 405.648Z" stroke="#242630" stroke-width="2" stroke-miterlimit="1.5" stroke-linecap="round" stroke-linejoin="round"/>
<path fill-rule="evenodd" clip-rule="evenodd" d="M367.579 145.315C369.235 146.476 370.956 147.23 372.778 148.066C382.032 151.137 392.155 152.674 401.082 147.938C403.889 146.448 406.574 144.46 408.816 142.048C409.434 141.383 411.281 140.013 410.115 139.082C400.322 131.268 386.819 131.019 375.883 135.79C372.931 137.077 370.109 138.761 367.555 140.863C366.898 141.404 365.191 142.596 365.472 143.721C365.572 144.12 366.874 144.796 367.129 144.988C367.278 145.101 367.428 145.21 367.579 145.315Z" fill="white"/>
<mask id="mask5_556_508" style="mask-type:luminance" maskUnits="userSpaceOnUse" x="365" y="132" width="46" height="19">
<path d="M367.579 145.315C369.235 146.476 370.956 147.23 372.778 148.066C382.032 151.137 392.155 152.674 401.082 147.938C403.889 146.448 406.574 144.46 408.816 142.048C409.434 141.383 411.281 140.013 410.115 139.082C400.322 131.268 386.819 131.019 375.883 135.79C372.931 137.077 370.109 138.761 367.555 140.863C366.898 141.404 365.191 142.596 365.472 143.721C365.572 144.12 366.874 144.796 367.129 144.988C367.278 145.101 367.428 145.21 367.579 145.315Z" fill="white"/>
</mask>
<g mask="url(#mask5_556_508)">
<path fill-rule="evenodd" clip-rule="evenodd" d="M387.548 128.106C392.846 127.267 398.025 130.856 399.107 136.116C400.188 141.375 396.765 146.326 391.467 147.165C386.169 148.003 380.99 144.414 379.909 139.155C378.827 133.895 382.25 128.944 387.548 128.106Z" fill="white" stroke="#242630" stroke-width="2" stroke-miterlimit="1.5" stroke-linecap="round" stroke-linejoin="round"/>
</g>
<path fill-rule="evenodd" clip-rule="evenodd" d="M367.579 145.315C369.235 146.476 370.956 147.23 372.778 148.066C382.032 151.137 392.155 152.674 401.082 147.938C403.889 146.448 406.574 144.46 408.816 142.048C409.434 141.383 411.281 140.013 410.115 139.082C400.322 131.268 386.819 131.019 375.883 135.79C372.931 137.077 370.109 138.761 367.555 140.863C366.898 141.404 365.191 142.596 365.472 143.721C365.572 144.12 366.874 144.796 367.129 144.988C367.278 145.101 367.428 145.21 367.579 145.315Z" stroke="#242630" stroke-width="2" stroke-miterlimit="1.5" stroke-linecap="round" stroke-linejoin="round"/>
<path fill-rule="evenodd" clip-rule="evenodd" d="M294.062 149.644C295.718 150.805 297.439 151.559 299.261 152.395C308.515 155.466 318.638 157.003 327.565 152.267C330.373 150.777 333.057 148.789 335.299 146.377C335.917 145.712 337.764 144.341 336.598 143.411C326.805 135.597 313.302 135.348 302.366 140.119C299.415 141.406 296.592 143.09 294.038 145.192C293.381 145.733 291.674 146.925 291.955 148.05C292.055 148.449 293.357 149.125 293.612 149.317C293.761 149.43 293.911 149.539 294.062 149.644Z" fill="white"/>
<mask id="mask6_556_508" style="mask-type:luminance" maskUnits="userSpaceOnUse" x="291" y="136" width="46" height="20">
<path d="M294.062 149.644C295.718 150.805 297.439 151.559 299.261 152.395C308.515 155.466 318.638 157.003 327.565 152.267C330.373 150.777 333.057 148.789 335.299 146.377C335.917 145.712 337.764 144.341 336.598 143.411C326.805 135.597 313.302 135.348 302.366 140.119C299.415 141.406 296.592 143.09 294.038 145.192C293.381 145.733 291.674 146.925 291.955 148.05C292.055 148.449 293.357 149.125 293.612 149.317C293.761 149.43 293.911 149.539 294.062 149.644Z" fill="white"/>
</mask>
<g mask="url(#mask6_556_508)">
<path fill-rule="evenodd" clip-rule="evenodd" d="M314.031 132.435C319.329 131.596 324.508 135.185 325.59 140.445C326.671 145.704 323.248 150.655 317.95 151.494C312.652 152.332 307.473 148.743 306.392 143.484C305.31 138.224 308.733 133.273 314.031 132.435Z" fill="white" stroke="#242630" stroke-width="2" stroke-miterlimit="1.5" stroke-linecap="round" stroke-linejoin="round"/>
</g>
<path fill-rule="evenodd" clip-rule="evenodd" d="M294.062 149.644C295.718 150.805 297.439 151.559 299.261 152.395C308.515 155.466 318.638 157.003 327.565 152.267C330.373 150.777 333.057 148.789 335.299 146.377C335.917 145.712 337.764 144.341 336.598 143.411C326.805 135.597 313.302 135.348 302.366 140.119C299.415 141.406 296.592 143.09 294.038 145.192C293.381 145.733 291.674 146.925 291.955 148.05C292.055 148.449 293.357 149.125 293.612 149.317C293.761 149.43 293.911 149.539 294.062 149.644Z" stroke="#242630" stroke-width="2" stroke-miterlimit="1.5" stroke-linecap="round" stroke-linejoin="round"/>
<defs>
<filter id="filter0_d_556_508" x="8.5" y="18" width="493.904" height="483.233" filterUnits="userSpaceOnUse" color-interpolation-filters="sRGB">
<feFlood flood-opacity="0" result="BackgroundImageFix"/>
<feColorMatrix in="SourceAlpha" type="matrix" values="0 0 0 0 0 0 0 0 0 0 0 0 0 0 0 0 0 0 127 0" result="hardAlpha"/>
<feOffset dy="8"/>
<feComposite in2="hardAlpha" operator="out"/>
<feColorMatrix type="matrix" values="0 0 0 0 0 0 0 0 0 0 0 0 0 0 0 0 0 0 0.2 0"/>
<feBlend mode="normal" in2="BackgroundImageFix" result="effect1_dropShadow_556_508"/>
<feBlend mode="normal" in="SourceGraphic" in2="effect1_dropShadow_556_508" result="shape"/>
</filter>
</defs>
</svg>