<svg width="512" height="512" viewBox="0 0 512 512" fill="none" xmlns="http://www.w3.org/2000/svg">
<g filter="url(#filter0_d_556_607)">
<path fill-rule="evenodd" clip-rule="evenodd" d="M27.154 322.432C28.676 304.623 31.775 286.317 33.424 268.108C35.169 248.839 33.01 228.289 28.328 209.605C22.783 185.452 16.624 161.771 25.389 136.487C39.669 95.293 86.436 81.848 122.359 65.953C137.247 59.366 149.978 49.093 163.67 40.467C195.78 20.239 234.782 5.81601 272.949 14.653C307.468 22.645 335.634 46.944 368.779 58.848C413.539 74.924 463.231 84.157 483.149 133.214C500.008 174.738 481.561 222.631 478.211 265.204C475.152 304.087 493.092 346.883 477.95 384.256C461.249 425.478 422.197 424.536 387.442 440.786C341.876 462.091 322.77 499.677 262.799 498.28C230.251 497.521 199.559 483.513 170.732 467.253C157.268 458.777 143.597 451.747 128.597 446.415C106.048 438.4 81.245 434.254 61.933 419.153C27.43 392.171 24.09 358.31 27.154 322.432Z" fill="white"/>
</g>
<path fill-rule="evenodd" clip-rule="evenodd" d="M305.302 201.2C305.835 200.907 306.366 200.61 306.885 200.292C308.487 199.42 310.078 198.524 311.731 197.77C313.262 196.981 314.794 196.191 316.387 195.529C316.543 195.44 316.698 195.352 316.852 195.265C317.049 195.177 317.246 195.089 317.443 195.001C323.916 191.975 330.293 188.772 336.646 185.401C341.802 182.664 347.456 181.251 348.516 174.749C349.835 166.657 347.051 158.59 346.921 150.508C346.85 146.127 348.214 141.914 348.728 137.598C349.151 134.039 347.232 128.78 345.96 125.432C345.472 124.149 344.881 122.747 344.087 121.622C343.344 120.569 342.305 119.717 341.739 118.542C340.291 115.537 338.41 112.775 336.796 109.862C336.004 108.435 334.967 106.806 334.787 105.154C334.516 102.657 337.807 101.675 339.813 101.575C344.52 101.34 349.682 103.578 353.5 106.195C356.175 108.028 359.092 110.187 360.86 112.952C363.34 116.831 363.949 121.566 365.538 125.817C367.156 130.144 370.852 135.895 372.403 140.25C372.985 141.883 373.459 143.547 374 145.193C374.072 145.414 374.369 146.786 374.647 146.845C375.745 147.075 377.079 146.59 378.08 146.193C380.67 145.167 383.011 143.547 385.265 141.933C391.981 137.122 399.473 133.683 407.096 130.574C412.296 128.452 417.771 127.067 422.487 131.054C427.42 135.225 422.303 141.013 424.477 145.737C426.039 149.13 430.842 149.935 432.494 153.776C434.395 158.195 431.855 161.561 432.577 165.841C433.136 169.157 436.072 171.628 436.854 174.921C437.645 178.246 435.31 181.383 434.903 184.622C434.309 189.34 436.53 194.495 434.144 198.931C429.618 207.348 418.615 210.017 410.442 213.349C403.927 216.006 398.587 221.3 391.855 223.309C386.525 224.899 380.883 223.544 375.473 224.546C367.743 225.977 359.4 230.433 352.73 234.467C347.783 237.459 343.144 240.931 338.168 243.877C335.732 245.319 332.912 247.072 329.965 246.903C327.127 246.74 324.149 245.983 321.571 244.783C314.846 241.653 310.549 234.066 311.332 226.699C311.466 225.432 311.676 224.117 311.908 222.779C312.798 217.512 313.085 212.766 309.236 208.507C307.829 206.949 306.297 205.884 304.513 204.809C303.834 204.399 302.505 203.735 302.343 202.856C302.331 202.788 303.36 202.282 303.452 202.228C304.062 201.873 304.684 201.539 305.302 201.2Z" fill="#FFE38C"/>
<mask id="mask0_556_607" style="mask-type:luminance" maskUnits="userSpaceOnUse" x="302" y="101" width="136" height="146">
<path d="M305.302 201.2C305.835 200.907 306.366 200.61 306.885 200.292C308.487 199.42 310.078 198.524 311.731 197.77C313.262 196.981 314.794 196.191 316.387 195.529C316.543 195.44 316.698 195.352 316.852 195.265C317.049 195.177 317.246 195.089 317.443 195.001C323.916 191.975 330.293 188.772 336.646 185.401C341.802 182.664 347.456 181.251 348.516 174.749C349.835 166.657 347.051 158.59 346.921 150.508C346.85 146.127 348.214 141.914 348.728 137.598C349.151 134.039 347.232 128.78 345.96 125.432C345.472 124.149 344.881 122.747 344.087 121.622C343.344 120.569 342.305 119.717 341.739 118.542C340.291 115.537 338.41 112.775 336.796 109.862C336.004 108.435 334.967 106.806 334.787 105.154C334.516 102.657 337.807 101.675 339.813 101.575C344.52 101.34 349.682 103.578 353.5 106.195C356.175 108.028 359.092 110.187 360.86 112.952C363.34 116.831 363.949 121.566 365.538 125.817C367.156 130.144 370.852 135.895 372.403 140.25C372.985 141.883 373.459 143.547 374 145.193C374.072 145.414 374.369 146.786 374.647 146.845C375.745 147.075 377.079 146.59 378.08 146.193C380.67 145.167 383.011 143.547 385.265 141.933C391.981 137.122 399.473 133.683 407.096 130.574C412.296 128.452 417.771 127.067 422.487 131.054C427.42 135.225 422.303 141.013 424.477 145.737C426.039 149.13 430.842 149.935 432.494 153.776C434.395 158.195 431.855 161.561 432.577 165.841C433.136 169.157 436.072 171.628 436.854 174.921C437.645 178.246 435.31 181.383 434.903 184.622C434.309 189.34 436.53 194.495 434.144 198.931C429.618 207.348 418.615 210.017 410.442 213.349C403.927 216.006 398.587 221.3 391.855 223.309C386.525 224.899 380.883 223.544 375.473 224.546C367.743 225.977 359.4 230.433 352.73 234.467C347.783 237.459 343.144 240.931 338.168 243.877C335.732 245.319 332.912 247.072 329.965 246.903C327.127 246.74 324.149 245.983 321.571 244.783C314.846 241.653 310.549 234.066 311.332 226.699C311.466 225.432 311.676 224.117 311.908 222.779C312.798 217.512 313.085 212.766 309.236 208.507C307.829 206.949 306.297 205.884 304.513 204.809C303.834 204.399 302.505 203.735 302.343 202.856C302.331 202.788 303.36 202.282 303.452 202.228C304.062 201.873 304.684 201.539 305.302 201.2Z" fill="white"/>
</mask>
<g mask="url(#mask0_556_607)">
<path d="M423.77 142.292C423.091 144.497 421.152 148.253 421.988 150.845" stroke="#242630" stroke-width="2" stroke-miterlimit="1.5" stroke-linecap="round" stroke-linejoin="round"/>
<path d="M432.028 163.496C430.894 165.521 429.587 167.426 430.324 169.789" stroke="#242630" stroke-width="2" stroke-miterlimit="1.5" stroke-linecap="round" stroke-linejoin="round"/>
<path d="M341.159 118.572C342.37 118.393 344.905 118.168 345.865 117.206C347.757 115.312 345.069 111.838 343.61 110.852C339.518 108.086 333.79 108.211 329.138 107.047" stroke="#242630" stroke-width="2" stroke-miterlimit="1.5" stroke-linecap="round" stroke-linejoin="round"/>
<path d="M361.88 148.452C367.578 148.159 373.067 147.318 378.56 145.733" stroke="#242630" stroke-width="2" stroke-miterlimit="1.5" stroke-linecap="round" stroke-linejoin="round"/>
<path d="M365.156 143.633C367.981 144.678 370.854 145.725 373.858 146.094" stroke="#242630" stroke-width="2" stroke-miterlimit="1.5" stroke-linecap="round" stroke-linejoin="round"/>
<path d="M424.417 164.808C424.981 167.961 425.896 171.039 426.41 174.199C426.78 176.48 426.766 178.878 427.385 181.109C428.141 183.835 430.166 185.974 430.959 188.715C431.722 191.349 431.321 194.082 431.133 196.769" stroke="#242630" stroke-width="2" stroke-miterlimit="1.5" stroke-linecap="round" stroke-linejoin="round"/>
<path d="M355.587 222.528C361.412 222.832 364.348 218.651 369.366 216.903" stroke="#242630" stroke-width="2" stroke-miterlimit="1.5" stroke-linecap="round" stroke-linejoin="round"/>
</g>
<path fill-rule="evenodd" clip-rule="evenodd" d="M305.302 201.2C305.835 200.907 306.366 200.61 306.885 200.292C308.487 199.42 310.078 198.524 311.731 197.77C313.262 196.981 314.794 196.191 316.387 195.529C316.543 195.44 316.698 195.352 316.852 195.265C317.049 195.177 317.246 195.089 317.443 195.001C323.916 191.975 330.293 188.772 336.646 185.401C341.802 182.664 347.456 181.251 348.516 174.749C349.835 166.657 347.051 158.59 346.921 150.508C346.85 146.127 348.214 141.914 348.728 137.598C349.151 134.039 347.232 128.78 345.96 125.432C345.472 124.149 344.881 122.747 344.087 121.622C343.344 120.569 342.305 119.717 341.739 118.542C340.291 115.537 338.41 112.775 336.796 109.862C336.004 108.435 334.967 106.806 334.787 105.154C334.516 102.657 337.807 101.675 339.813 101.575C344.52 101.34 349.682 103.578 353.5 106.195C356.175 108.028 359.092 110.187 360.86 112.952C363.34 116.831 363.949 121.566 365.538 125.817C367.156 130.144 370.852 135.895 372.403 140.25C372.985 141.883 373.459 143.547 374 145.193C374.072 145.414 374.369 146.786 374.647 146.845C375.745 147.075 377.079 146.59 378.08 146.193C380.67 145.167 383.011 143.547 385.265 141.933C391.981 137.122 399.473 133.683 407.096 130.574C412.296 128.452 417.771 127.067 422.487 131.054C427.42 135.225 422.303 141.013 424.477 145.737C426.039 149.13 430.842 149.935 432.494 153.776C434.395 158.195 431.855 161.561 432.577 165.841C433.136 169.157 436.072 171.628 436.854 174.921C437.645 178.246 435.31 181.383 434.903 184.622C434.309 189.34 436.53 194.495 434.144 198.931C429.618 207.348 418.615 210.017 410.442 213.349C403.927 216.006 398.587 221.3 391.855 223.309C386.525 224.899 380.883 223.544 375.473 224.546C367.743 225.977 359.4 230.433 352.73 234.467C347.783 237.459 343.144 240.931 338.168 243.877C335.732 245.319 332.912 247.072 329.965 246.903C327.127 246.74 324.149 245.983 321.571 244.783C314.846 241.653 310.549 234.066 311.332 226.699C311.466 225.432 311.676 224.117 311.908 222.779C312.798 217.512 313.085 212.766 309.236 208.507C307.829 206.949 306.297 205.884 304.513 204.809C303.834 204.399 302.505 203.735 302.343 202.856C302.331 202.788 303.36 202.282 303.452 202.228C304.062 201.873 304.684 201.539 305.302 201.2Z" stroke="#242630" stroke-width="2" stroke-miterlimit="1.5" stroke-linecap="round" stroke-linejoin="round"/>
<path fill-rule="evenodd" clip-rule="evenodd" d="M231.881 183.494C231.894 182.887 231.902 182.279 231.886 181.669C231.932 179.846 231.951 178.021 232.125 176.212C232.207 174.491 232.289 172.77 232.512 171.059C232.514 170.88 232.515 170.702 232.516 170.524C232.539 170.31 232.561 170.096 232.583 169.881C233.199 162.762 233.614 155.638 233.87 148.451C234.079 142.617 235.681 137.014 230.581 132.845C224.233 127.657 215.854 126.034 208.79 122.106C204.961 119.977 201.994 116.688 198.513 114.086C195.643 111.94 190.128 110.972 186.593 110.4C185.238 110.181 183.729 109.992 182.357 110.117C181.074 110.234 179.816 110.707 178.516 110.61C175.19 110.362 171.857 110.609 168.527 110.552C166.895 110.523 164.966 110.607 163.446 109.937C161.147 108.924 161.942 105.582 162.859 103.794C165.009 99.601 169.528 96.25 173.703 94.251C176.628 92.851 179.956 91.405 183.235 91.256C187.834 91.048 192.239 92.888 196.716 93.637C201.272 94.399 208.101 94.075 212.648 94.908C214.352 95.221 216.03 95.643 217.727 95.997C217.954 96.045 219.291 96.474 219.481 96.262C220.229 95.426 220.476 94.029 220.633 92.964C221.039 90.208 220.807 87.37 220.536 84.612C219.728 76.389 220.495 68.182 221.614 60.025C222.377 54.461 223.914 49.027 229.725 46.937C235.804 44.75 238.259 52.075 243.436 52.554C247.155 52.899 250.255 49.141 254.407 49.631C259.184 50.194 260.829 54.077 264.896 55.592C268.048 56.766 271.656 55.459 274.899 56.427C278.174 57.405 279.723 60.996 282.324 62.968C286.114 65.842 291.688 66.496 294.337 70.78C299.363 78.908 296.173 89.771 294.973 98.515C294.016 105.486 295.931 112.757 294.304 119.592C293.017 125.003 289.022 129.212 287.185 134.397C284.559 141.808 284.247 151.261 284.405 159.054C284.523 164.835 285.21 170.588 285.274 176.37C285.305 179.201 285.412 182.52 283.793 184.987C282.233 187.364 280.088 189.565 277.76 191.197C271.687 195.456 262.968 195.383 256.979 191.022C255.949 190.272 254.914 189.433 253.872 188.564C249.756 185.159 245.789 182.538 240.176 183.741C238.123 184.181 236.435 184.975 234.612 185.982C233.918 186.366 232.678 187.184 231.836 186.885C231.771 186.862 231.847 185.718 231.846 185.611C231.844 184.905 231.866 184.2 231.881 183.494Z" fill="#FFE38C"/>
<mask id="mask1_556_607" style="mask-type:luminance" maskUnits="userSpaceOnUse" x="161" y="46" width="137" height="149">
<path d="M231.881 183.494C231.894 182.887 231.902 182.279 231.886 181.669C231.932 179.846 231.951 178.021 232.125 176.212C232.207 174.491 232.289 172.77 232.512 171.059C232.514 170.88 232.515 170.702 232.516 170.524C232.539 170.31 232.561 170.096 232.583 169.881C233.199 162.762 233.614 155.638 233.87 148.451C234.079 142.617 235.681 137.014 230.581 132.845C224.233 127.657 215.854 126.034 208.79 122.106C204.961 119.977 201.994 116.688 198.513 114.086C195.643 111.94 190.128 110.972 186.593 110.4C185.238 110.181 183.729 109.992 182.357 110.117C181.074 110.234 179.816 110.707 178.516 110.61C175.19 110.362 171.857 110.609 168.527 110.552C166.895 110.523 164.966 110.607 163.446 109.937C161.147 108.924 161.942 105.582 162.859 103.794C165.009 99.601 169.528 96.25 173.703 94.251C176.628 92.851 179.956 91.405 183.235 91.256C187.834 91.048 192.239 92.888 196.716 93.637C201.272 94.399 208.101 94.075 212.648 94.908C214.352 95.221 216.03 95.643 217.727 95.997C217.954 96.045 219.291 96.474 219.481 96.262C220.229 95.426 220.476 94.029 220.633 92.964C221.039 90.208 220.807 87.37 220.536 84.612C219.728 76.389 220.495 68.182 221.614 60.025C222.377 54.461 223.914 49.027 229.725 46.937C235.804 44.75 238.259 52.075 243.436 52.554C247.155 52.899 250.255 49.141 254.407 49.631C259.184 50.194 260.829 54.077 264.896 55.592C268.048 56.766 271.656 55.459 274.899 56.427C278.174 57.405 279.723 60.996 282.324 62.968C286.114 65.842 291.688 66.496 294.337 70.78C299.363 78.908 296.173 89.771 294.973 98.515C294.016 105.486 295.931 112.757 294.304 119.592C293.017 125.003 289.022 129.212 287.185 134.397C284.559 141.808 284.247 151.261 284.405 159.054C284.523 164.835 285.21 170.588 285.274 176.37C285.305 179.201 285.412 182.52 283.793 184.987C282.233 187.364 280.088 189.565 277.76 191.197C271.687 195.456 262.968 195.383 256.979 191.022C255.949 190.272 254.914 189.433 253.872 188.564C249.756 185.159 245.789 182.538 240.176 183.741C238.123 184.181 236.435 184.975 234.612 185.982C233.918 186.366 232.678 187.184 231.836 186.885C231.771 186.862 231.847 185.718 231.846 185.611C231.844 184.905 231.866 184.2 231.881 183.494Z" fill="white"/>
</mask>
<g mask="url(#mask1_556_607)">
<path d="M240.099 51.444C241.669 53.135 243.953 56.692 246.616 57.264" stroke="#242630" stroke-width="2" stroke-miterlimit="1.5" stroke-linecap="round" stroke-linejoin="round"/>
<path d="M262.592 54.895C263.778 56.89 264.774 58.974 267.19 59.517" stroke="#242630" stroke-width="2" stroke-miterlimit="1.5" stroke-linecap="round" stroke-linejoin="round"/>
<path d="M178.252 111.128C178.702 109.989 179.775 107.681 179.422 106.369C178.728 103.784 174.375 104.375 172.791 105.145C168.35 107.306 165.594 112.329 162.26 115.775" stroke="#242630" stroke-width="2" stroke-miterlimit="1.5" stroke-linecap="round" stroke-linejoin="round"/>
<path d="M214.489 108.122C217.084 103.042 219.1 97.868 220.474 92.318" stroke="#242630" stroke-width="2" stroke-miterlimit="1.5" stroke-linecap="round" stroke-linejoin="round"/>
<path d="M211.954 102.876C214.271 100.952 216.614 98.988 218.436 96.571" stroke="#242630" stroke-width="2" stroke-miterlimit="1.5" stroke-linecap="round" stroke-linejoin="round"/>
<path d="M259.923 62.142C262.934 63.23 266.057 63.977 269.052 65.112C271.212 65.931 273.282 67.143 275.523 67.722C278.262 68.431 281.127 67.746 283.897 68.43C286.56 69.086 288.726 70.8 290.96 72.306" stroke="#242630" stroke-width="2" stroke-miterlimit="1.5" stroke-linecap="round" stroke-linejoin="round"/>
<path d="M275.495 150.61C278.67 145.718 276.518 141.085 277.512 135.865" stroke="#242630" stroke-width="2" stroke-miterlimit="1.5" stroke-linecap="round" stroke-linejoin="round"/>
</g>
<path fill-rule="evenodd" clip-rule="evenodd" d="M231.881 183.494C231.894 182.887 231.902 182.279 231.886 181.669C231.932 179.846 231.951 178.021 232.125 176.212C232.207 174.491 232.289 172.77 232.512 171.059C232.514 170.88 232.515 170.702 232.516 170.524C232.539 170.31 232.561 170.096 232.583 169.881C233.199 162.762 233.614 155.638 233.87 148.451C234.079 142.617 235.681 137.014 230.581 132.845C224.233 127.657 215.854 126.034 208.79 122.106C204.961 119.977 201.994 116.688 198.513 114.086C195.643 111.94 190.128 110.972 186.593 110.4C185.238 110.181 183.729 109.992 182.357 110.117C181.074 110.234 179.816 110.707 178.516 110.61C175.19 110.362 171.857 110.609 168.527 110.552C166.895 110.523 164.966 110.607 163.446 109.937C161.147 108.924 161.942 105.582 162.859 103.794C165.009 99.601 169.528 96.25 173.703 94.251C176.628 92.851 179.956 91.405 183.235 91.256C187.834 91.048 192.239 92.888 196.716 93.637C201.272 94.399 208.101 94.075 212.648 94.908C214.352 95.221 216.03 95.643 217.727 95.997C217.954 96.045 219.291 96.474 219.481 96.262C220.229 95.426 220.476 94.029 220.633 92.964C221.039 90.208 220.807 87.37 220.536 84.612C219.728 76.389 220.495 68.182 221.614 60.025C222.377 54.461 223.914 49.027 229.725 46.937C235.804 44.75 238.259 52.075 243.436 52.554C247.155 52.899 250.255 49.141 254.407 49.631C259.184 50.194 260.829 54.077 264.896 55.592C268.048 56.766 271.656 55.459 274.899 56.427C278.174 57.405 279.723 60.996 282.324 62.968C286.114 65.842 291.688 66.496 294.337 70.78C299.363 78.908 296.173 89.771 294.973 98.515C294.016 105.486 295.931 112.757 294.304 119.592C293.017 125.003 289.022 129.212 287.185 134.397C284.559 141.808 284.247 151.261 284.405 159.054C284.523 164.835 285.21 170.588 285.274 176.37C285.305 179.201 285.412 182.52 283.793 184.987C282.233 187.364 280.088 189.565 277.76 191.197C271.687 195.456 262.968 195.383 256.979 191.022C255.949 190.272 254.914 189.433 253.872 188.564C249.756 185.159 245.789 182.538 240.176 183.741C238.123 184.181 236.435 184.975 234.612 185.982C233.918 186.366 232.678 187.184 231.836 186.885C231.771 186.862 231.847 185.718 231.846 185.611C231.844 184.905 231.866 184.2 231.881 183.494Z" stroke="#242630" stroke-width="2" stroke-miterlimit="1.5" stroke-linecap="round" stroke-linejoin="round"/>
<path fill-rule="evenodd" clip-rule="evenodd" d="M179.837 238.227C179.317 237.911 178.795 237.6 178.259 237.309C176.703 236.358 175.132 235.429 173.652 234.373C172.203 233.442 170.753 232.511 169.383 231.462C169.229 231.371 169.075 231.281 168.922 231.191C168.748 231.065 168.573 230.938 168.399 230.812C162.541 226.718 156.579 222.798 150.483 218.982C145.535 215.885 141.484 211.695 135.324 214.028C127.656 216.931 122.062 223.376 115.127 227.53C111.369 229.781 107.038 230.706 103.043 232.42C99.75 233.832 96.154 238.124 93.892 240.899C93.024 241.963 92.106 243.176 91.528 244.426C90.988 245.596 90.769 246.922 90.035 248C88.157 250.756 86.705 253.766 84.99 256.621C84.149 258.02 83.258 259.733 81.917 260.714C79.89 262.198 77.393 259.839 76.304 258.151C73.748 254.192 73.104 248.604 73.461 243.988C73.711 240.755 74.123 237.15 75.634 234.236C77.753 230.149 81.549 227.254 84.436 223.752C87.374 220.187 90.507 214.111 93.503 210.59C94.626 209.27 95.83 208.028 96.985 206.736C97.14 206.563 98.18 205.62 98.092 205.349C97.742 204.283 96.655 203.371 95.811 202.702C93.628 200.972 91.054 199.755 88.53 198.61C81.005 195.199 74.281 190.431 67.776 185.384C63.339 181.941 59.402 177.892 60.497 171.815C61.642 165.457 69.214 166.994 72.217 162.75C74.375 159.7 72.671 155.138 75.171 151.787C78.047 147.931 82.232 148.448 85.578 145.683C88.17 143.54 88.843 139.763 91.303 137.438C93.787 135.091 97.671 135.545 100.68 134.278C105.063 132.433 108.417 127.932 113.452 127.78C123.004 127.492 130.816 135.686 137.789 141.097C143.348 145.411 150.602 147.389 155.708 152.215C159.75 156.036 161.398 161.599 164.97 165.784C170.074 171.763 178.105 176.759 184.934 180.519C189.998 183.307 195.325 185.589 200.364 188.425C202.831 189.813 205.759 191.38 207.086 194.016C208.364 196.555 209.198 199.513 209.447 202.346C210.099 209.734 205.677 217.249 198.905 220.255C197.741 220.772 196.497 221.248 195.223 221.716C190.216 223.579 185.963 225.703 184.198 231.166C183.553 233.164 183.396 235.023 183.357 237.105C183.342 237.898 183.431 239.381 182.751 239.961C182.699 240.005 181.746 239.368 181.653 239.315C181.04 238.964 180.44 238.592 179.837 238.227Z" fill="#FFE38C"/>
<mask id="mask2_556_607" style="mask-type:luminance" maskUnits="userSpaceOnUse" x="60" y="127" width="150" height="135">
<path d="M179.837 238.227C179.317 237.911 178.795 237.6 178.259 237.309C176.703 236.358 175.132 235.429 173.652 234.373C172.203 233.442 170.753 232.511 169.383 231.462C169.229 231.371 169.075 231.281 168.922 231.191C168.748 231.065 168.573 230.938 168.399 230.812C162.541 226.718 156.579 222.798 150.483 218.982C145.535 215.885 141.484 211.695 135.324 214.028C127.656 216.931 122.062 223.376 115.127 227.53C111.369 229.781 107.038 230.706 103.043 232.42C99.75 233.832 96.154 238.124 93.892 240.899C93.024 241.963 92.106 243.176 91.528 244.426C90.988 245.596 90.769 246.922 90.035 248C88.157 250.756 86.705 253.766 84.99 256.621C84.149 258.02 83.258 259.733 81.917 260.714C79.89 262.198 77.393 259.839 76.304 258.151C73.748 254.192 73.104 248.604 73.461 243.988C73.711 240.755 74.123 237.15 75.634 234.236C77.753 230.149 81.549 227.254 84.436 223.752C87.374 220.187 90.507 214.111 93.503 210.59C94.626 209.27 95.83 208.028 96.985 206.736C97.14 206.563 98.18 205.62 98.092 205.349C97.742 204.283 96.655 203.371 95.811 202.702C93.628 200.972 91.054 199.755 88.53 198.61C81.005 195.199 74.281 190.431 67.776 185.384C63.339 181.941 59.402 177.892 60.497 171.815C61.642 165.457 69.214 166.994 72.217 162.75C74.375 159.7 72.671 155.138 75.171 151.787C78.047 147.931 82.232 148.448 85.578 145.683C88.17 143.54 88.843 139.763 91.303 137.438C93.787 135.091 97.671 135.545 100.68 134.278C105.063 132.433 108.417 127.932 113.452 127.78C123.004 127.492 130.816 135.686 137.789 141.097C143.348 145.411 150.602 147.389 155.708 152.215C159.75 156.036 161.398 161.599 164.97 165.784C170.074 171.763 178.105 176.759 184.934 180.519C189.998 183.307 195.325 185.589 200.364 188.425C202.831 189.813 205.759 191.38 207.086 194.016C208.364 196.555 209.198 199.513 209.447 202.346C210.099 209.734 205.677 217.249 198.905 220.255C197.741 220.772 196.497 221.248 195.223 221.716C190.216 223.579 185.963 225.703 184.198 231.166C183.553 233.164 183.396 235.023 183.357 237.105C183.342 237.898 183.431 239.381 182.751 239.961C182.699 240.005 181.746 239.368 181.653 239.315C181.04 238.964 180.44 238.592 179.837 238.227Z" fill="white"/>
</mask>
<g mask="url(#mask2_556_607)">
<path d="M69.5869 165.084C71.8369 164.57 76.0589 164.371 77.8859 162.351" stroke="#242630" stroke-width="2" stroke-miterlimit="1.5" stroke-linecap="round" stroke-linejoin="round"/>
<path d="M83.822 147.331C86.143 147.3 88.446 147.48 90.124 145.66" stroke="#242630" stroke-width="2" stroke-miterlimit="1.5" stroke-linecap="round" stroke-linejoin="round"/>
<path d="M90.3508 248.487C89.5898 247.528 88.1278 245.445 86.8148 245.094C84.2288 244.403 82.5648 248.468 82.4398 250.225C82.0898 255.151 85.0618 260.05 86.3798 264.66" stroke="#242630" stroke-width="2" stroke-miterlimit="1.5" stroke-linecap="round" stroke-linejoin="round"/>
<path d="M105.867 215.602C102.765 210.815 99.2919 206.482 95.1729 202.517" stroke="#242630" stroke-width="2" stroke-miterlimit="1.5" stroke-linecap="round" stroke-linejoin="round"/>
<path d="M100.056 215.175C99.5489 212.205 99.0189 209.195 97.8369 206.408" stroke="#242630" stroke-width="2" stroke-miterlimit="1.5" stroke-linecap="round" stroke-linejoin="round"/>
<path d="M88.7639 153.265C91.2119 151.201 93.4199 148.87 95.8999 146.844C97.6899 145.383 99.7739 144.196 101.397 142.545C103.38 140.528 104.219 137.704 106.196 135.646C108.096 133.669 110.663 132.65 113.085 131.469" stroke="#242630" stroke-width="2" stroke-miterlimit="1.5" stroke-linecap="round" stroke-linejoin="round"/>
<path d="M173.166 184.014C170.516 178.818 165.427 178.365 161.405 174.894" stroke="#242630" stroke-width="2" stroke-miterlimit="1.5" stroke-linecap="round" stroke-linejoin="round"/>
</g>
<path fill-rule="evenodd" clip-rule="evenodd" d="M179.837 238.227C179.317 237.911 178.795 237.6 178.259 237.309C176.703 236.358 175.132 235.429 173.652 234.373C172.203 233.442 170.753 232.511 169.383 231.462C169.229 231.371 169.075 231.281 168.922 231.191C168.748 231.065 168.573 230.938 168.399 230.812C162.541 226.718 156.579 222.798 150.483 218.982C145.535 215.885 141.484 211.695 135.324 214.028C127.656 216.931 122.062 223.376 115.127 227.53C111.369 229.781 107.038 230.706 103.043 232.42C99.75 233.832 96.154 238.124 93.892 240.899C93.024 241.963 92.106 243.176 91.528 244.426C90.988 245.596 90.769 246.922 90.035 248C88.157 250.756 86.705 253.766 84.99 256.621C84.149 258.02 83.258 259.733 81.917 260.714C79.89 262.198 77.393 259.839 76.304 258.151C73.748 254.192 73.104 248.604 73.461 243.988C73.711 240.755 74.123 237.15 75.634 234.236C77.753 230.149 81.549 227.254 84.436 223.752C87.374 220.187 90.507 214.111 93.503 210.59C94.626 209.27 95.83 208.028 96.985 206.736C97.14 206.563 98.18 205.62 98.092 205.349C97.742 204.283 96.655 203.371 95.811 202.702C93.628 200.972 91.054 199.755 88.53 198.61C81.005 195.199 74.281 190.431 67.776 185.384C63.339 181.941 59.402 177.892 60.497 171.815C61.642 165.457 69.214 166.994 72.217 162.75C74.375 159.7 72.671 155.138 75.171 151.787C78.047 147.931 82.232 148.448 85.578 145.683C88.17 143.54 88.843 139.763 91.303 137.438C93.787 135.091 97.671 135.545 100.68 134.278C105.063 132.433 108.417 127.932 113.452 127.78C123.004 127.492 130.816 135.686 137.789 141.097C143.348 145.411 150.602 147.389 155.708 152.215C159.75 156.036 161.398 161.599 164.97 165.784C170.074 171.763 178.105 176.759 184.934 180.519C189.998 183.307 195.325 185.589 200.364 188.425C202.831 189.813 205.759 191.38 207.086 194.016C208.364 196.555 209.198 199.513 209.447 202.346C210.099 209.734 205.677 217.249 198.905 220.255C197.741 220.772 196.497 221.248 195.223 221.716C190.216 223.579 185.963 225.703 184.198 231.166C183.553 233.164 183.396 235.023 183.357 237.105C183.342 237.898 183.431 239.381 182.751 239.961C182.699 240.005 181.746 239.368 181.653 239.315C181.04 238.964 180.44 238.592 179.837 238.227Z" stroke="#242630" stroke-width="2" stroke-miterlimit="1.5" stroke-linecap="round" stroke-linejoin="round"/>
<path fill-rule="evenodd" clip-rule="evenodd" d="M201.215 310.664C200.682 310.956 200.151 311.253 199.631 311.572C198.029 312.443 196.439 313.34 194.785 314.093C193.254 314.883 191.723 315.673 190.129 316.335C189.974 316.423 189.819 316.511 189.664 316.599C189.468 316.686 189.271 316.774 189.074 316.862C182.6 319.889 176.224 323.091 169.871 326.463C164.715 329.199 159.061 330.613 158.001 337.114C156.682 345.206 159.466 353.273 159.596 361.356C159.667 365.736 158.302 369.949 157.789 374.266C157.365 377.824 159.284 383.084 160.557 386.431C161.044 387.714 161.636 389.116 162.429 390.241C163.172 391.294 164.211 392.146 164.778 393.321C166.225 396.326 168.106 399.088 169.721 402.001C170.513 403.429 171.55 405.057 171.73 406.709C172.001 409.206 168.709 410.189 166.703 410.289C161.997 410.523 156.835 408.286 153.016 405.669C150.342 403.836 147.425 401.677 145.657 398.911C143.177 395.032 142.568 390.298 140.978 386.047C139.36 381.719 135.665 375.968 134.113 371.613C133.532 369.981 133.058 368.317 132.517 366.67C132.445 366.449 132.148 365.077 131.869 365.019C130.771 364.789 129.438 365.274 128.437 365.67C125.847 366.696 123.505 368.317 121.252 369.93C114.535 374.741 107.044 378.18 99.421 381.29C94.221 383.411 88.746 384.796 84.03 380.81C79.097 376.639 84.213 370.85 82.04 366.127C80.478 362.733 75.674 361.928 74.022 358.087C72.122 353.669 74.661 350.302 73.94 346.023C73.381 342.707 70.445 340.235 69.662 336.943C68.872 333.617 71.207 330.481 71.614 327.242C72.208 322.523 69.987 317.368 72.373 312.932C76.899 304.516 87.902 301.847 96.074 298.514C102.59 295.857 107.929 290.563 114.662 288.555C119.992 286.964 125.634 288.319 131.044 287.318C138.774 285.887 147.116 281.43 153.787 277.396C158.734 274.404 163.373 270.932 168.348 267.986C170.784 266.544 173.605 264.792 176.552 264.96C179.39 265.123 182.368 265.88 184.946 267.08C191.67 270.21 195.967 277.797 195.185 285.164C195.05 286.431 194.841 287.747 194.609 289.084C193.719 294.351 193.432 299.097 197.281 303.357C198.688 304.914 200.22 305.979 202.003 307.054C202.683 307.464 204.011 308.128 204.173 309.008C204.186 309.075 203.157 309.581 203.065 309.635C202.454 309.991 201.833 310.324 201.215 310.664Z" fill="#FFE38C"/>
<mask id="mask3_556_607" style="mask-type:luminance" maskUnits="userSpaceOnUse" x="69" y="264" width="136" height="147">
<path d="M201.215 310.664C200.682 310.956 200.151 311.253 199.631 311.572C198.029 312.443 196.439 313.34 194.785 314.093C193.254 314.883 191.723 315.673 190.129 316.335C189.974 316.423 189.819 316.511 189.664 316.599C189.468 316.686 189.271 316.774 189.074 316.862C182.6 319.889 176.224 323.091 169.871 326.463C164.715 329.199 159.061 330.613 158.001 337.114C156.682 345.206 159.466 353.273 159.596 361.356C159.667 365.736 158.302 369.949 157.789 374.266C157.365 377.824 159.284 383.084 160.557 386.431C161.044 387.714 161.636 389.116 162.429 390.241C163.172 391.294 164.211 392.146 164.778 393.321C166.225 396.326 168.106 399.088 169.721 402.001C170.513 403.429 171.55 405.057 171.73 406.709C172.001 409.206 168.709 410.189 166.703 410.289C161.997 410.523 156.835 408.286 153.016 405.669C150.342 403.836 147.425 401.677 145.657 398.911C143.177 395.032 142.568 390.298 140.978 386.047C139.36 381.719 135.665 375.968 134.113 371.613C133.532 369.981 133.058 368.317 132.517 366.67C132.445 366.449 132.148 365.077 131.869 365.019C130.771 364.789 129.438 365.274 128.437 365.67C125.847 366.696 123.505 368.317 121.252 369.93C114.535 374.741 107.044 378.18 99.421 381.29C94.221 383.411 88.746 384.796 84.03 380.81C79.097 376.639 84.213 370.85 82.04 366.127C80.478 362.733 75.674 361.928 74.022 358.087C72.122 353.669 74.661 350.302 73.94 346.023C73.381 342.707 70.445 340.235 69.662 336.943C68.872 333.617 71.207 330.481 71.614 327.242C72.208 322.523 69.987 317.368 72.373 312.932C76.899 304.516 87.902 301.847 96.074 298.514C102.59 295.857 107.929 290.563 114.662 288.555C119.992 286.964 125.634 288.319 131.044 287.318C138.774 285.887 147.116 281.43 153.787 277.396C158.734 274.404 163.373 270.932 168.348 267.986C170.784 266.544 173.605 264.792 176.552 264.96C179.39 265.123 182.368 265.88 184.946 267.08C191.67 270.21 195.967 277.797 195.185 285.164C195.05 286.431 194.841 287.747 194.609 289.084C193.719 294.351 193.432 299.097 197.281 303.357C198.688 304.914 200.22 305.979 202.003 307.054C202.683 307.464 204.011 308.128 204.173 309.008C204.186 309.075 203.157 309.581 203.065 309.635C202.454 309.991 201.833 310.324 201.215 310.664Z" fill="white"/>
</mask>
<g mask="url(#mask3_556_607)">
<path d="M82.7461 369.571C83.4261 367.366 85.3641 363.61 84.5291 361.018" stroke="#242630" stroke-width="2" stroke-miterlimit="1.5" stroke-linecap="round" stroke-linejoin="round"/>
<path d="M74.489 348.367C75.623 346.342 76.93 344.437 76.193 342.074" stroke="#242630" stroke-width="2" stroke-miterlimit="1.5" stroke-linecap="round" stroke-linejoin="round"/>
<path d="M165.358 393.291C164.146 393.471 161.612 393.695 160.651 394.657C158.76 396.551 161.448 400.025 162.907 401.011C166.999 403.777 172.727 403.653 177.378 404.817" stroke="#242630" stroke-width="2" stroke-miterlimit="1.5" stroke-linecap="round" stroke-linejoin="round"/>
<path d="M144.636 363.412C138.939 363.704 133.45 364.545 127.957 366.13" stroke="#242630" stroke-width="2" stroke-miterlimit="1.5" stroke-linecap="round" stroke-linejoin="round"/>
<path d="M141.36 368.231C138.535 367.185 135.663 366.138 132.659 365.769" stroke="#242630" stroke-width="2" stroke-miterlimit="1.5" stroke-linecap="round" stroke-linejoin="round"/>
<path d="M82.1 347.055C81.536 343.903 80.621 340.825 80.107 337.664C79.736 335.384 79.75 332.985 79.132 330.754C78.376 328.028 76.35 325.889 75.557 323.149C74.795 320.515 75.196 317.782 75.384 315.094" stroke="#242630" stroke-width="2" stroke-miterlimit="1.5" stroke-linecap="round" stroke-linejoin="round"/>
<path d="M150.929 289.335C145.105 289.031 142.168 293.212 137.151 294.96" stroke="#242630" stroke-width="2" stroke-miterlimit="1.5" stroke-linecap="round" stroke-linejoin="round"/>
</g>
<path fill-rule="evenodd" clip-rule="evenodd" d="M201.215 310.664C200.682 310.956 200.151 311.253 199.631 311.572C198.029 312.443 196.439 313.34 194.785 314.093C193.254 314.883 191.723 315.673 190.129 316.335C189.974 316.423 189.819 316.511 189.664 316.599C189.468 316.686 189.271 316.774 189.074 316.862C182.6 319.889 176.224 323.091 169.871 326.463C164.715 329.199 159.061 330.613 158.001 337.114C156.682 345.206 159.466 353.273 159.596 361.356C159.667 365.736 158.302 369.949 157.789 374.266C157.365 377.824 159.284 383.084 160.557 386.431C161.044 387.714 161.636 389.116 162.429 390.241C163.172 391.294 164.211 392.146 164.778 393.321C166.225 396.326 168.106 399.088 169.721 402.001C170.513 403.429 171.55 405.057 171.73 406.709C172.001 409.206 168.709 410.189 166.703 410.289C161.997 410.523 156.835 408.286 153.016 405.669C150.342 403.836 147.425 401.677 145.657 398.911C143.177 395.032 142.568 390.298 140.978 386.047C139.36 381.719 135.665 375.968 134.113 371.613C133.532 369.981 133.058 368.317 132.517 366.67C132.445 366.449 132.148 365.077 131.869 365.019C130.771 364.789 129.438 365.274 128.437 365.67C125.847 366.696 123.505 368.317 121.252 369.93C114.535 374.741 107.044 378.18 99.421 381.29C94.221 383.411 88.746 384.796 84.03 380.81C79.097 376.639 84.213 370.85 82.04 366.127C80.478 362.733 75.674 361.928 74.022 358.087C72.122 353.669 74.661 350.302 73.94 346.023C73.381 342.707 70.445 340.235 69.662 336.943C68.872 333.617 71.207 330.481 71.614 327.242C72.208 322.523 69.987 317.368 72.373 312.932C76.899 304.516 87.902 301.847 96.074 298.514C102.59 295.857 107.929 290.563 114.662 288.555C119.992 286.964 125.634 288.319 131.044 287.318C138.774 285.887 147.116 281.43 153.787 277.396C158.734 274.404 163.373 270.932 168.348 267.986C170.784 266.544 173.605 264.792 176.552 264.96C179.39 265.123 182.368 265.88 184.946 267.08C191.67 270.21 195.967 277.797 195.185 285.164C195.05 286.431 194.841 287.747 194.609 289.084C193.719 294.351 193.432 299.097 197.281 303.357C198.688 304.914 200.22 305.979 202.003 307.054C202.683 307.464 204.011 308.128 204.173 309.008C204.186 309.075 203.157 309.581 203.065 309.635C202.454 309.991 201.833 310.324 201.215 310.664Z" stroke="#242630" stroke-width="2" stroke-miterlimit="1.5" stroke-linecap="round" stroke-linejoin="round"/>
<path fill-rule="evenodd" clip-rule="evenodd" d="M274.636 328.369C274.623 328.977 274.614 329.585 274.631 330.194C274.584 332.017 274.565 333.843 274.391 335.652C274.309 337.372 274.228 339.093 274.004 340.804C274.003 340.984 274.002 341.162 274 341.339C273.978 341.553 273.956 341.768 273.934 341.982C273.318 349.102 272.903 356.225 272.646 363.413C272.438 369.246 270.835 374.85 275.936 379.018C282.284 384.206 290.662 385.829 297.727 389.758C301.556 391.887 304.522 395.175 308.004 397.778C310.874 399.924 316.388 400.892 319.923 401.463C321.279 401.683 322.788 401.872 324.16 401.747C325.443 401.63 326.7 401.156 328.001 401.253C331.327 401.502 334.66 401.254 337.989 401.312C339.622 401.34 341.551 401.256 343.071 401.926C345.369 402.94 344.574 406.282 343.658 408.069C341.508 412.262 336.989 415.614 332.814 417.612C329.889 419.012 326.56 420.459 323.281 420.607C318.682 420.815 314.278 418.975 309.801 418.226C305.244 417.464 298.416 417.789 293.869 416.955C292.164 416.642 290.486 416.221 288.79 415.866C288.563 415.818 287.226 415.389 287.036 415.601C286.288 416.437 286.041 417.834 285.884 418.9C285.478 421.656 285.71 424.494 285.981 427.252C286.789 435.474 286.022 443.681 284.903 451.838C284.14 457.402 282.602 462.836 276.792 464.927C270.713 467.114 268.258 459.788 263.081 459.309C259.361 458.965 256.262 462.722 252.11 462.232C247.333 461.669 245.687 457.787 241.62 456.272C238.469 455.098 234.861 456.404 231.618 455.436C228.343 454.458 226.794 450.868 224.192 448.895C220.403 446.022 214.828 445.368 212.179 441.084C207.154 432.955 210.344 422.092 211.544 413.348C212.5 406.377 210.586 399.106 212.213 392.271C213.5 386.86 217.495 382.651 219.332 377.466C221.958 370.056 222.27 360.602 222.111 352.809C221.994 347.029 221.306 341.275 221.243 335.493C221.212 332.662 221.105 329.343 222.724 326.876C224.284 324.499 226.429 322.299 228.757 320.666C234.83 316.408 243.549 316.48 249.538 320.841C250.567 321.591 251.602 322.43 252.644 323.3C256.761 326.704 260.728 329.326 266.341 328.122C268.393 327.682 270.081 326.888 271.904 325.881C272.599 325.497 273.838 324.679 274.681 324.979C274.745 325.002 274.67 326.146 274.67 326.252C274.673 326.959 274.651 327.664 274.636 328.369Z" fill="#FFE38C"/>
<mask id="mask4_556_607" style="mask-type:luminance" maskUnits="userSpaceOnUse" x="209" y="317" width="136" height="149">
<path d="M274.636 328.369C274.623 328.977 274.614 329.585 274.631 330.194C274.584 332.017 274.565 333.843 274.391 335.652C274.309 337.372 274.228 339.093 274.004 340.804C274.003 340.984 274.002 341.162 274 341.339C273.978 341.553 273.956 341.768 273.934 341.982C273.318 349.102 272.903 356.225 272.646 363.413C272.438 369.246 270.835 374.85 275.936 379.018C282.284 384.206 290.662 385.829 297.727 389.758C301.556 391.887 304.522 395.175 308.004 397.778C310.874 399.924 316.388 400.892 319.923 401.463C321.279 401.683 322.788 401.872 324.16 401.747C325.443 401.63 326.7 401.156 328.001 401.253C331.327 401.502 334.66 401.254 337.989 401.312C339.622 401.34 341.551 401.256 343.071 401.926C345.369 402.94 344.574 406.282 343.658 408.069C341.508 412.262 336.989 415.614 332.814 417.612C329.889 419.012 326.56 420.459 323.281 420.607C318.682 420.815 314.278 418.975 309.801 418.226C305.244 417.464 298.416 417.789 293.869 416.955C292.164 416.642 290.486 416.221 288.79 415.866C288.563 415.818 287.226 415.389 287.036 415.601C286.288 416.437 286.041 417.834 285.884 418.9C285.478 421.656 285.71 424.494 285.981 427.252C286.789 435.474 286.022 443.681 284.903 451.838C284.14 457.402 282.602 462.836 276.792 464.927C270.713 467.114 268.258 459.788 263.081 459.309C259.361 458.965 256.262 462.722 252.11 462.232C247.333 461.669 245.687 457.787 241.62 456.272C238.469 455.098 234.861 456.404 231.618 455.436C228.343 454.458 226.794 450.868 224.192 448.895C220.403 446.022 214.828 445.368 212.179 441.084C207.154 432.955 210.344 422.092 211.544 413.348C212.5 406.377 210.586 399.106 212.213 392.271C213.5 386.86 217.495 382.651 219.332 377.466C221.958 370.056 222.27 360.602 222.111 352.809C221.994 347.029 221.306 341.275 221.243 335.493C221.212 332.662 221.105 329.343 222.724 326.876C224.284 324.499 226.429 322.299 228.757 320.666C234.83 316.408 243.549 316.48 249.538 320.841C250.567 321.591 251.602 322.43 252.644 323.3C256.761 326.704 260.728 329.326 266.341 328.122C268.393 327.682 270.081 326.888 271.904 325.881C272.599 325.497 273.838 324.679 274.681 324.979C274.745 325.002 274.67 326.146 274.67 326.252C274.673 326.959 274.651 327.664 274.636 328.369Z" fill="white"/>
</mask>
<g mask="url(#mask4_556_607)">
<path d="M266.417 460.419C264.847 458.728 262.564 455.171 259.901 454.599" stroke="#242630" stroke-width="2" stroke-miterlimit="1.5" stroke-linecap="round" stroke-linejoin="round"/>
<path d="M243.925 456.968C242.738 454.973 241.742 452.889 239.327 452.346" stroke="#242630" stroke-width="2" stroke-miterlimit="1.5" stroke-linecap="round" stroke-linejoin="round"/>
<path d="M328.265 400.736C327.815 401.874 326.742 404.182 327.094 405.494C327.789 408.079 332.142 407.488 333.725 406.718C338.167 404.558 340.923 399.534 344.256 396.088" stroke="#242630" stroke-width="2" stroke-miterlimit="1.5" stroke-linecap="round" stroke-linejoin="round"/>
<path d="M292.028 403.741C289.433 408.821 287.416 413.996 286.042 419.545" stroke="#242630" stroke-width="2" stroke-miterlimit="1.5" stroke-linecap="round" stroke-linejoin="round"/>
<path d="M294.563 408.988C292.245 410.911 289.903 412.875 288.081 415.293" stroke="#242630" stroke-width="2" stroke-miterlimit="1.5" stroke-linecap="round" stroke-linejoin="round"/>
<path d="M246.594 449.721C243.582 448.633 240.459 447.887 237.465 446.751C235.305 445.932 233.235 444.721 230.993 444.141C228.255 443.432 225.389 444.117 222.619 443.434C219.957 442.777 217.791 441.063 215.557 439.557" stroke="#242630" stroke-width="2" stroke-miterlimit="1.5" stroke-linecap="round" stroke-linejoin="round"/>
<path d="M231.022 361.253C227.847 366.145 229.999 370.779 229.004 375.998" stroke="#242630" stroke-width="2" stroke-miterlimit="1.5" stroke-linecap="round" stroke-linejoin="round"/>
</g>
<path fill-rule="evenodd" clip-rule="evenodd" d="M274.636 328.369C274.623 328.977 274.614 329.585 274.631 330.194C274.584 332.017 274.565 333.843 274.391 335.652C274.309 337.372 274.228 339.093 274.004 340.804C274.003 340.984 274.002 341.162 274 341.339C273.978 341.553 273.956 341.768 273.934 341.982C273.318 349.102 272.903 356.225 272.646 363.413C272.438 369.246 270.835 374.85 275.936 379.018C282.284 384.206 290.662 385.829 297.727 389.758C301.556 391.887 304.522 395.175 308.004 397.778C310.874 399.924 316.388 400.892 319.923 401.463C321.279 401.683 322.788 401.872 324.16 401.747C325.443 401.63 326.7 401.156 328.001 401.253C331.327 401.502 334.66 401.254 337.989 401.312C339.622 401.34 341.551 401.256 343.071 401.926C345.369 402.94 344.574 406.282 343.658 408.069C341.508 412.262 336.989 415.614 332.814 417.612C329.889 419.012 326.56 420.459 323.281 420.607C318.682 420.815 314.278 418.975 309.801 418.226C305.244 417.464 298.416 417.789 293.869 416.955C292.164 416.642 290.486 416.221 288.79 415.866C288.563 415.818 287.226 415.389 287.036 415.601C286.288 416.437 286.041 417.834 285.884 418.9C285.478 421.656 285.71 424.494 285.981 427.252C286.789 435.474 286.022 443.681 284.903 451.838C284.14 457.402 282.602 462.836 276.792 464.927C270.713 467.114 268.258 459.788 263.081 459.309C259.361 458.965 256.262 462.722 252.11 462.232C247.333 461.669 245.687 457.787 241.62 456.272C238.469 455.098 234.861 456.404 231.618 455.436C228.343 454.458 226.794 450.868 224.192 448.895C220.403 446.022 214.828 445.368 212.179 441.084C207.154 432.955 210.344 422.092 211.544 413.348C212.5 406.377 210.586 399.106 212.213 392.271C213.5 386.86 217.495 382.651 219.332 377.466C221.958 370.056 222.27 360.602 222.111 352.809C221.994 347.029 221.306 341.275 221.243 335.493C221.212 332.662 221.105 329.343 222.724 326.876C224.284 324.499 226.429 322.299 228.757 320.666C234.83 316.408 243.549 316.48 249.538 320.841C250.567 321.591 251.602 322.43 252.644 323.3C256.761 326.704 260.728 329.326 266.341 328.122C268.393 327.682 270.081 326.888 271.904 325.881C272.599 325.497 273.838 324.679 274.681 324.979C274.745 325.002 274.67 326.146 274.67 326.252C274.673 326.959 274.651 327.664 274.636 328.369Z" stroke="#242630" stroke-width="2" stroke-miterlimit="1.5" stroke-linecap="round" stroke-linejoin="round"/>
<path fill-rule="evenodd" clip-rule="evenodd" d="M326.68 273.637C327.199 273.952 327.722 274.263 328.258 274.554C329.813 275.506 331.385 276.435 332.865 277.49C334.314 278.421 335.763 279.352 337.133 280.401C337.288 280.492 337.442 280.582 337.594 280.672C337.769 280.799 337.943 280.925 338.118 281.052C343.976 285.145 349.937 289.065 356.034 292.882C360.981 295.979 365.033 300.169 371.193 297.836C378.86 294.932 384.455 288.488 391.389 284.334C395.148 282.082 399.478 281.157 403.473 279.444C406.767 278.031 410.362 273.739 412.625 270.964C413.493 269.9 414.411 268.687 414.988 267.437C415.529 266.267 415.747 264.941 416.482 263.863C418.36 261.107 419.812 258.097 421.527 255.243C422.368 253.843 423.259 252.131 424.6 251.149C426.627 249.665 429.123 252.025 430.213 253.712C432.769 257.671 433.413 263.26 433.055 267.875C432.805 271.108 432.394 274.714 430.883 277.628C428.764 281.715 424.968 284.609 422.081 288.112C419.143 291.677 416.01 297.752 413.014 301.273C411.891 302.594 410.687 303.836 409.531 305.128C409.376 305.301 408.336 306.244 408.425 306.514C408.775 307.58 409.862 308.492 410.706 309.161C412.889 310.891 415.463 312.109 417.987 313.253C425.512 316.665 432.236 321.433 438.74 326.48C443.178 329.923 447.115 333.971 446.02 340.049C444.875 346.407 437.303 344.87 434.299 349.114C432.141 352.163 433.846 356.726 431.346 360.077C428.469 363.932 424.284 363.416 420.939 366.181C418.346 368.323 417.674 372.101 415.214 374.425C412.729 376.772 408.845 376.319 405.837 377.585C401.453 379.43 398.1 383.931 393.065 384.083C383.513 384.371 375.7 376.177 368.728 370.766C363.169 366.452 355.915 364.474 350.809 359.648C346.767 355.827 345.119 350.264 341.547 346.08C336.443 340.101 328.411 335.104 321.583 331.344C316.519 328.556 311.192 326.275 306.153 323.438C303.686 322.05 300.758 320.483 299.431 317.847C298.153 315.308 297.319 312.35 297.069 309.518C296.418 302.129 300.84 294.614 307.611 291.609C308.776 291.092 310.02 290.615 311.294 290.147C316.3 288.285 320.554 286.16 322.319 280.697C322.964 278.7 323.12 276.841 323.159 274.758C323.174 273.965 323.085 272.482 323.766 271.903C323.818 271.858 324.771 272.496 324.863 272.549C325.477 272.9 326.076 273.271 326.68 273.637Z" fill="#FFE38C"/>
<mask id="mask5_556_607" style="mask-type:luminance" maskUnits="userSpaceOnUse" x="297" y="250" width="150" height="135">
<path d="M326.68 273.637C327.199 273.952 327.722 274.263 328.258 274.554C329.813 275.506 331.385 276.435 332.865 277.49C334.314 278.421 335.763 279.352 337.133 280.401C337.288 280.492 337.442 280.582 337.594 280.672C337.769 280.799 337.943 280.925 338.118 281.052C343.976 285.145 349.937 289.065 356.034 292.882C360.981 295.979 365.033 300.169 371.193 297.836C378.86 294.932 384.455 288.488 391.389 284.334C395.148 282.082 399.478 281.157 403.473 279.444C406.767 278.031 410.362 273.739 412.625 270.964C413.493 269.9 414.411 268.687 414.988 267.437C415.529 266.267 415.747 264.941 416.482 263.863C418.36 261.107 419.812 258.097 421.527 255.243C422.368 253.843 423.259 252.131 424.6 251.149C426.627 249.665 429.123 252.025 430.213 253.712C432.769 257.671 433.413 263.26 433.055 267.875C432.805 271.108 432.394 274.714 430.883 277.628C428.764 281.715 424.968 284.609 422.081 288.112C419.143 291.677 416.01 297.752 413.014 301.273C411.891 302.594 410.687 303.836 409.531 305.128C409.376 305.301 408.336 306.244 408.425 306.514C408.775 307.58 409.862 308.492 410.706 309.161C412.889 310.891 415.463 312.109 417.987 313.253C425.512 316.665 432.236 321.433 438.74 326.48C443.178 329.923 447.115 333.971 446.02 340.049C444.875 346.407 437.303 344.87 434.299 349.114C432.141 352.163 433.846 356.726 431.346 360.077C428.469 363.932 424.284 363.416 420.939 366.181C418.346 368.323 417.674 372.101 415.214 374.425C412.729 376.772 408.845 376.319 405.837 377.585C401.453 379.43 398.1 383.931 393.065 384.083C383.513 384.371 375.7 376.177 368.728 370.766C363.169 366.452 355.915 364.474 350.809 359.648C346.767 355.827 345.119 350.264 341.547 346.08C336.443 340.101 328.411 335.104 321.583 331.344C316.519 328.556 311.192 326.275 306.153 323.438C303.686 322.05 300.758 320.483 299.431 317.847C298.153 315.308 297.319 312.35 297.069 309.518C296.418 302.129 300.84 294.614 307.611 291.609C308.776 291.092 310.02 290.615 311.294 290.147C316.3 288.285 320.554 286.16 322.319 280.697C322.964 278.7 323.12 276.841 323.159 274.758C323.174 273.965 323.085 272.482 323.766 271.903C323.818 271.858 324.771 272.496 324.863 272.549C325.477 272.9 326.076 273.271 326.68 273.637Z" fill="white"/>
</mask>
<g mask="url(#mask5_556_607)">
<path d="M436.929 346.78C434.68 347.294 430.458 347.493 428.631 349.513" stroke="#242630" stroke-width="2" stroke-miterlimit="1.5" stroke-linecap="round" stroke-linejoin="round"/>
<path d="M422.695 364.533C420.374 364.563 418.071 364.384 416.393 366.204" stroke="#242630" stroke-width="2" stroke-miterlimit="1.5" stroke-linecap="round" stroke-linejoin="round"/>
<path d="M416.166 263.376C416.927 264.335 418.388 266.418 419.701 266.769C422.287 267.46 423.952 263.395 424.077 261.639C424.426 256.712 421.454 251.813 420.137 247.203" stroke="#242630" stroke-width="2" stroke-miterlimit="1.5" stroke-linecap="round" stroke-linejoin="round"/>
<path d="M400.65 296.261C403.752 301.049 407.225 305.382 411.344 309.347" stroke="#242630" stroke-width="2" stroke-miterlimit="1.5" stroke-linecap="round" stroke-linejoin="round"/>
<path d="M406.461 296.689C406.968 299.658 407.498 302.669 408.68 305.455" stroke="#242630" stroke-width="2" stroke-miterlimit="1.5" stroke-linecap="round" stroke-linejoin="round"/>
<path d="M417.753 358.598C415.305 360.662 413.097 362.994 410.616 365.019C408.827 366.48 406.743 367.667 405.12 369.318C403.137 371.336 402.297 374.16 400.32 376.217C398.421 378.194 395.853 379.213 393.432 380.395" stroke="#242630" stroke-width="2" stroke-miterlimit="1.5" stroke-linecap="round" stroke-linejoin="round"/>
<path d="M333.351 327.85C336 333.046 341.089 333.498 345.112 336.969" stroke="#242630" stroke-width="2" stroke-miterlimit="1.5" stroke-linecap="round" stroke-linejoin="round"/>
</g>
<path fill-rule="evenodd" clip-rule="evenodd" d="M326.68 273.637C327.199 273.952 327.722 274.263 328.258 274.554C329.813 275.506 331.385 276.435 332.865 277.49C334.314 278.421 335.763 279.352 337.133 280.401C337.288 280.492 337.442 280.582 337.594 280.672C337.769 280.799 337.943 280.925 338.118 281.052C343.976 285.145 349.937 289.065 356.034 292.882C360.981 295.979 365.033 300.169 371.193 297.836C378.86 294.932 384.455 288.488 391.389 284.334C395.148 282.082 399.478 281.157 403.473 279.444C406.767 278.031 410.362 273.739 412.625 270.964C413.493 269.9 414.411 268.687 414.988 267.437C415.529 266.267 415.747 264.941 416.482 263.863C418.36 261.107 419.812 258.097 421.527 255.243C422.368 253.843 423.259 252.131 424.6 251.149C426.627 249.665 429.123 252.025 430.213 253.712C432.769 257.671 433.413 263.26 433.055 267.875C432.805 271.108 432.394 274.714 430.883 277.628C428.764 281.715 424.968 284.609 422.081 288.112C419.143 291.677 416.01 297.752 413.014 301.273C411.891 302.594 410.687 303.836 409.531 305.128C409.376 305.301 408.336 306.244 408.425 306.514C408.775 307.58 409.862 308.492 410.706 309.161C412.889 310.891 415.463 312.109 417.987 313.253C425.512 316.665 432.236 321.433 438.74 326.48C443.178 329.923 447.115 333.971 446.02 340.049C444.875 346.407 437.303 344.87 434.299 349.114C432.141 352.163 433.846 356.726 431.346 360.077C428.469 363.932 424.284 363.416 420.939 366.181C418.346 368.323 417.674 372.101 415.214 374.425C412.729 376.772 408.845 376.319 405.837 377.585C401.453 379.43 398.1 383.931 393.065 384.083C383.513 384.371 375.7 376.177 368.728 370.766C363.169 366.452 355.915 364.474 350.809 359.648C346.767 355.827 345.119 350.264 341.547 346.08C336.443 340.101 328.411 335.104 321.583 331.344C316.519 328.556 311.192 326.275 306.153 323.438C303.686 322.05 300.758 320.483 299.431 317.847C298.153 315.308 297.319 312.35 297.069 309.518C296.418 302.129 300.84 294.614 307.611 291.609C308.776 291.092 310.02 290.615 311.294 290.147C316.3 288.285 320.554 286.16 322.319 280.697C322.964 278.7 323.12 276.841 323.159 274.758C323.174 273.965 323.085 272.482 323.766 271.903C323.818 271.858 324.771 272.496 324.863 272.549C325.477 272.9 326.076 273.271 326.68 273.637Z" stroke="#242630" stroke-width="2" stroke-miterlimit="1.5" stroke-linecap="round" stroke-linejoin="round"/>
<path fill-rule="evenodd" clip-rule="evenodd" d="M232.029 210.083L258.552 228.936L289.118 217.775L279.384 248.825L299.444 274.447L266.906 274.784L248.737 301.78L238.361 270.938L207.072 262.001L233.198 242.603L232.029 210.083Z" fill="#242630" stroke="#242630" stroke-width="2" stroke-miterlimit="1.5" stroke-linecap="round" stroke-linejoin="round"/>
<defs>
<filter id="filter0_d_556_607" x="15.0002" y="12.0003" width="475.152" height="494.318" filterUnits="userSpaceOnUse" color-interpolation-filters="sRGB">
<feFlood flood-opacity="0" result="BackgroundImageFix"/>
<feColorMatrix in="SourceAlpha" type="matrix" values="0 0 0 0 0 0 0 0 0 0 0 0 0 0 0 0 0 0 127 0" result="hardAlpha"/>
<feOffset dx="-6" dy="8"/>
<feComposite in2="hardAlpha" operator="out"/>
<feColorMatrix type="matrix" values="0 0 0 0 0 0 0 0 0 0 0 0 0 0 0 0 0 0 0.2 0"/>
<feBlend mode="normal" in2="BackgroundImageFix" result="effect1_dropShadow_556_607"/>
<feBlend mode="normal" in="SourceGraphic" in2="effect1_dropShadow_556_607" result="shape"/>
</filter>
</defs>
</svg>